<?xml version="1.0" encoding="UTF-8" standalone="no"?>
<!-- Created with Inkscape (http://www.inkscape.org/) -->

<svg
   xmlns:dc="http://purl.org/dc/elements/1.1/"
   xmlns:cc="http://creativecommons.org/ns#"
   xmlns:rdf="http://www.w3.org/1999/02/22-rdf-syntax-ns#"
   xmlns:svg="http://www.w3.org/2000/svg"
   xmlns="http://www.w3.org/2000/svg"
   xmlns:sodipodi="http://sodipodi.sourceforge.net/DTD/sodipodi-0.dtd"
   xmlns:inkscape="http://www.inkscape.org/namespaces/inkscape"
   width="279.2468"
   height="158.57231"
   id="svg3189"
   version="1.1"
   inkscape:version="0.48.4 r9939"
   sodipodi:docname="GNU_Tux.svg"
   inkscape:export-filename="/home/serrano/public_html/getgnulinux/images/slides/GNU_Tux.png"
   inkscape:export-xdpi="90"
   inkscape:export-ydpi="90">
  <defs
     id="defs3191" />
  <sodipodi:namedview
     id="base"
     pagecolor="#ffffff"
     bordercolor="#666666"
     borderopacity="1.0"
     inkscape:pageopacity="0.0"
     inkscape:pageshadow="2"
     inkscape:zoom="1.4"
     inkscape:cx="150.20374"
     inkscape:cy="23.329655"
     inkscape:document-units="px"
     inkscape:current-layer="layer1"
     showgrid="false"
     fit-margin-top="20"
     fit-margin-left="20"
     fit-margin-right="20"
     fit-margin-bottom="20"
     inkscape:window-width="1920"
     inkscape:window-height="1029"
     inkscape:window-x="0"
     inkscape:window-y="25"
     inkscape:window-maximized="1">
    <inkscape:grid
       type="xygrid"
       id="grid3274"
       empspacing="5"
       visible="true"
       enabled="true"
       snapvisiblegridlinesonly="true"
       originx="-57.63331px"
       originy="-394.38124px" />
  </sodipodi:namedview>
  <metadata
     id="metadata3194">
    <rdf:RDF>
      <cc:Work
         rdf:about="">
        <dc:format>image/svg+xml</dc:format>
        <dc:type
           rdf:resource="http://purl.org/dc/dcmitype/StillImage" />
        <dc:title></dc:title>
      </cc:Work>
    </rdf:RDF>
  </metadata>
  <g
     inkscape:label="Layer 1"
     inkscape:groupmode="layer"
     id="layer1"
     transform="translate(-57.63331,-499.40863)">
    <g
       id="g5206"
       transform="matrix(0.54882466,0,0,0.54882466,176.14986,295.96757)"
       inkscape:export-filename="/home/serrano/public_html/getgnulinux/images/GNU_Linux.png"
       inkscape:export-xdpi="113.98273"
       inkscape:export-ydpi="113.98273">
      <path
         style="fill:none;stroke:none"
         d="M -49.322815,507.5267 z"
         id="path5140"
         inkscape:connector-curvature="0" />
      <path
         style="fill:#ffffff;stroke:none"
         d="m -136.75024,423.45598 c -6.74019,0.46967 -24.02127,10.684 -24.74273,15.55708 -0.38813,2.62185 5.12793,-2.11426 7.91974,-1.43468 3.33214,0.81129 5.84398,3.67753 6.35382,0.82976 1.90388,-10.63404 13.52586,-15.16508 10.46917,-14.95216 z"
         id="path5142"
         inkscape:connector-curvature="0"
         sodipodi:nodetypes="sssss" />
      <path
         style="fill:#ee7000;fill-opacity:1;stroke:none"
         d="m -123.83886,508.39911 -5.55869,22.20592 -8.33806,19.42981 4.76459,4.75856 19.45546,-7.53425 11.91149,-8.32706 6.352822,8.32706 9.926233,20.22326 12.308545,22.60222 14.293815,17.84376 17.47022,6.74123 14.69085,0.79292 11.91151,-15.46469 3.97048,-5.15486 9.5292201,0 2.77934,-3.1722 1.5882,-4.36194 -2.38229003,-5.55149 -0.39705,-3.96511 6.74986003,-0.79324 1.58819,-5.94799 -3.57343,-5.94788 2.77934,-7.53415 5.5586999,-3.96543 4.36754,-6.74091 -0.79411,-8.72368 -3.17639,-3.1722 -6.3527899,-0.79302 -5.95576,-1.98266 -5.16165,-3.56882 1.58821,-5.55148 1.98523997,-13.48192 6.74986003,6.34439 13.8967499,9.1203 14.69086,0.39651 3.17637,-3.17241 -7.14689,-6.3444 -7.54395,-11.10296 14.69084,-3.96511 13.8968,-8.72368 10.32328,-15.86131 2.38229,-17.05106 -5.55869,-20.22294 -7.941,-12.2925 -15.882,-13.08562 -17.07315,1.98266 -16.2790799,4.75857 -8.33804,-0.39662 2.3823,3.96543 11.51446,1.98245 10.3233099,0.79313 13.89676,5.55148 7.94098,15.4647 -0.7941,12.68911 -2.38232,10.30973 -6.35279,8.32706 -8.33806,1.18953 -11.51445,-5.94778 -11.51442993,-13.48224 -16.27908007,-13.48203 -14.29379,-3.96533 -13.10266,4.36195 -5.95576,3.1722 -9.52918,-5.94778 -20.646605,-2.7759 -11.911508,3.56881 -10.720352,8.32706 -8.33804,10.30983 -9.52924,11.49948 -9.92623,5.94788 -14.29382,-1.18953 -8.33806,-7.53415 0,-13.08541 3.57347,-11.89587 6.3528,-9.91343 7.941,-7.53393 13.10265,-6.34472 13.4997,-0.3963 14.690869,0.3963 10.323303,-3.96511 -11.911496,-3.17242 -11.514476,-5.15486 -12.30856,-3.1723 -13.89674,1.98277 -18.66134,7.13752 -13.4997,9.5166 -9.52923,17.05106 -2.3823,17.44736 -0.39705,9.91321 2.77935,12.68901 5.95576,11.89598 10.72036,11.49926 14.29379,3.56882 12.70562,-1.58616 z"
         id="path5144"
         inkscape:connector-curvature="0" />
      <path
         style="fill:#000000;fill-opacity:1;stroke:none"
         d="m -119.92037,407.12651 c -26.77029,0.0247 -63.74432,17.89102 -59.20267,61.97662 4.85742,47.15337 37.27808,50.41011 49.91871,49.85344 -2.59825,11.78092 -4.70949,22.42936 -14.409,32.7769 -13.60238,14.51074 28.99183,9.32634 43.25742,-6.10645 -1.3214,7.05137 -2.74785,17.16332 2.9373,26.02688 1.059333,1.65189 1.723745,-4.39246 3.049721,-3.90625 1.238939,0.45409 -0.03953,13.91152 6.885955,17.93734 1.283285,0.74586 2.263025,-2.7917 3.087137,-4.13077 2.445264,-3.97199 1.00707,16.25879 11.202192,20.3396 1.48519,0.59439 1.77797,-2.27724 2.8325,-3.42723 11.31753,26.12377 59.06217,35.67378 56.90968,6.97435 -1.02769,-6.49984 4.7977201,-10.25956 9.9356901,-7.86502 5.13822,2.39465 13.36021,-7.87125 6.16685,-16.08143 6.61692,-2.5661 14.1133399,-8.34489 8.7293599,-12.31752 -7.5484399,-5.25971 0.82174,-10.27621 5.65733,-15.22116 7.94433,-8.12338 2.83707,-23.10551 -4.45843,-21.03541 -6.0599199,1.71969 -10.7820999,-2.13102 -13.18492993,-4.65887 0.75124,-4.32692 2.67617003,-8.70928 2.53758003,-14.1904 18.4199999,25.10139 44.5467199,14.22016 44.2163099,9.2708 -0.28992,-4.34465 -8.18606,1.47948 -17.87836,-15.31827 20.20516,-2.26552 26.53698,-6.9434 37.24067,-32.14803 11.50506,-27.09244 -14.98902,-72.6979 -42.87546,-62.41073 -14.6295799,5.39678 -21.70327993,6.24674 -31.0886799,6.46568 -2.4589201,0.0569 1.54633,5.56996 8.08484997,7.00431 9.53503003,2.0916 22.27970993,-1.6187 33.17929993,9.0248 12.52938,12.2347 5.80791,48.86176 -10.66245,43.29837 -16.4706099,-5.56373 -20.5866399,-26.84492 -41.90125,-35.55324 -13.92128,-5.6877 -25.04889,0.74694 -31.0961,5.89695 -1.04665,-0.96662 -2.14674,-1.88457 -3.29695,-2.75397 -17.9239,-13.54606 -40.560876,-8.87891 -58.131365,16.93461 -14.6538,21.52892 -31.52168,18.271 -36.5736,7.73782 -8.09561,-16.87885 12.84111,-49.10928 43.60222,-44.99699 6.671592,0.82944 24.141831,0.47794 24.457397,-6.19604 0.128987,-2.73208 -6.820264,0.75929 -17.676209,-7.58797 -4.740178,-3.64487 -12.529368,-5.62099 -21.452718,-5.61271 z m 54.564645,62.99417 c 17.64744,-0.14932 27.78765,9.46503 34.47556,8.95024 5.53717,-0.42627 9.92128,-4.41383 12.5272,-5.16614 15.4985501,-4.47378 29.80324,7.50353 35.63056,22.47492 7.23721,18.59349 13.3084,24.90308 17.49636,25.85456 2.36734,0.53788 -7.60409,4.22465 -16.47732,-6.89195 -2.23664,-2.80222 -2.69966,4.80572 -7.13985,-0.56979 -5.9541799,-7.20897 -6.7950999,-16.88928 -9.3652699,-24.27679 -1.58588003,-4.55886 -6.12466,-9.50885 -7.10654,-8.27452 -1.31327,1.65093 3.94603,10.07736 3.01522,14.47368 -5.05885,-4.21069 -11.7369201,-1.03946 -13.5558801,-1.15269 -1.59956,-0.0999 -2.24672,-2.83917 -2.71141,-2.54858 -0.61263,0.38297 -0.16161,1.86234 -0.49634,4.44058 -0.17744,1.36593 -1.20513,2.33545 -0.83299,3.69085 1.02625,3.73716 9.18326,11.9541 11.4952101,19.82224 2.30162,7.83214 9.35373997,18.61863 18.07328,15.72982 6.7929199,-2.25048 8.9007999,11.4666 2.7351499,16.59783 -6.1658899,5.13133 -13.4875299,9.36244 -7.7028799,14.87685 3.76788,3.59203 3.89616,8.9208 -3.76907003,8.20899 -10.53248997,-2.151 -21.97999007,4.7357 -29.45506007,4.36292 -9.93379,-0.68431 -18.49842,-12.22547 -20.55356,-16.67292 -2.05538,-4.44703 -2.39993,2.22383 2.05299,8.38141 4.45316,6.15759 16.10158,16.93365 31.51572,10.77574 15.41439007,-6.15747 20.5504301,4.44628 16.43991007,8.20922 -4.11049997,3.76326 -20.55354007,-0.68399 -27.74664007,4.78929 -4.82169,3.66894 -6.50376,10.94558 -2.44286,16.80764 -29.35004,-2.98732 -37.38935,-27.88944 -41.55646,-55.98244 0.33667,-4.953 -5.563069,3.9402 -6.316698,6.57773 -1.24589,4.36023 -6.445001,-20.7316 -5.275115,-25.79493 2.006706,-8.68641 -2.980678,-3.26867 -5.080426,0.93547 -1.838616,3.6815 -3.248031,-5.95788 -1.430997,-9.51133 4.702768,-9.19722 5.051894,-11.02594 6.608773,-30.876 1.264346,-16.11967 9.686543,-14.12745 11.479373,-16.07391 1.08837,-1.18169 0.14723,-2.21019 -4.623165,-1.36947 -5.823238,1.02624 -16.102549,5.81553 -16.102549,23.94644 0,9.09269 -6.158215,19.12912 -7.987732,16.85243 -2.871329,-3.57365 -5.304619,12.49425 -6.758629,13.58967 -1.45448,1.09522 -1.57821,-4.83645 -4.59341,-0.91301 -3.6293,4.72279 -4.98715,8.68232 -14.74637,12.89365 -14.59123,6.2967 2.45916,-7.77725 3.43194,-20.69873 1.05551,-14.02324 5.37584,-42.50459 32.707197,-48.58128 7.556597,-1.68037 16.692879,-7.82431 24.142778,-7.88769 z m 55.6709901,28.65602 c 2.97396,0.28188 6.44763,0.59977 7.88678,3.39511 2.48049997,4.81851 0.97133997,11.215 -0.34864,20.32778 -0.69272,4.78381 -2.61862,0.96126 -4.65841,-6.76078 -2.33448,-8.83744 -8.9969501,-9.92482 -9.7026301,-14.12185 -0.4949,-2.94499 3.22693,-3.18101 6.8229001,-2.84026 z"
         id="path5146"
         inkscape:connector-curvature="0"
         sodipodi:nodetypes="sscsccccssccsccscccscsssssssccssccssssssssssscsssssssscccssssccsccsscsssccssssssssss" />
      <path
         sodipodi:type="arc"
         style="fill:#000000;fill-opacity:1;stroke:none"
         id="path5148"
         sodipodi:cx="-1192.5"
         sodipodi:cy="1842.7194"
         sodipodi:rx="20.357143"
         sodipodi:ry="20.357143"
         d="m -1172.1429,1842.7194 c 0,11.2429 -9.1142,20.3571 -20.3571,20.3571 -11.2429,0 -20.3571,-9.1142 -20.3571,-20.3571 0,-11.243 9.1142,-20.3572 20.3571,-20.3572 11.2429,0 20.3571,9.1142 20.3571,20.3572 z"
         transform="matrix(0.25239811,0,0,0.25206824,249.80375,39.758391)" />
      <path
         style="fill:#000000;fill-opacity:1;stroke:none"
         d="m -57.383755,512.49302 c 1.91319,0.2863 1.3732,-0.45794 0.81357,-1.13345 -6.97515,-8.4187 2.19922,-15.55085 12.66218,-9.65249 1.44323,0.81365 4.28606,-1.80314 1.36388,-4.21757 -0.4141,-0.34204 -0.52631,-5.7254 -1.36097,-6.03329 -0.83443,-0.30788 -0.77017,4.77264 -1.90193,4.64792 -5.38086,-1.32811 -13.57242,-0.47106 -16.05122,5.36005 -1.28642,3.02599 -0.8342,8.21157 4.47451,11.02883 z"
         id="path5150"
         inkscape:connector-curvature="0"
         sodipodi:nodetypes="csssscsc" />
      <path
         style="fill:#000000;fill-opacity:1;stroke:none"
         d="m -11.485415,544.34273 c 0,0 -13.0667,-14.71872 -25.74067,-9.41625 -12.67396,5.30257 -5.97359,19.83276 -3.74725,19.83276 -1.30993,-6.17531 -1.52377,-15.21299 7.36477,-17.61763 7.7072,-1.88157 16.75235,8.34565 19.86707,10.94677 2.85288,2.3825 5.4686201,-1.48421 2.25607,-3.74565 z"
         id="path5152"
         inkscape:connector-curvature="0"
         sodipodi:nodetypes="csccsc" />
      <path
         style="fill:#000000;fill-opacity:1;stroke:none"
         d="m -23.307455,554.08353 c 0.32011,-1.61537 -3.84675,-11.81037 -11.1432,-9.85037 -9.09791,2.44385 -1.18835,10.86544 3.23941,7.846 1.33556,-0.91087 1.69283,-1.58293 2.44142,-1.4017 2.10812,0.51006 2.55484,3.02352 2.6668,4.542 0.17096,2.32009 2.57762,-0.0355 2.79557,-1.13593 z"
         id="path5154"
         inkscape:connector-curvature="0"
         sodipodi:nodetypes="ssssss" />
      <path
         style="fill:none;stroke:none"
         d="M -44.360435,498.84051 z"
         id="path5156"
         inkscape:connector-curvature="0" />
      <path
         sodipodi:type="arc"
         style="fill:#000000;fill-opacity:1;stroke:none"
         id="path5158"
         sodipodi:cx="-1192.5"
         sodipodi:cy="1842.7194"
         sodipodi:rx="20.357143"
         sodipodi:ry="20.357143"
         d="m -1172.1429,1842.7194 c 0,11.2429 -9.1142,20.3571 -20.3571,20.3571 -11.2429,0 -20.3571,-9.1142 -20.3571,-20.3571 0,-11.243 9.1142,-20.3572 20.3571,-20.3572 11.2429,0 20.3571,9.1142 20.3571,20.3572 z"
         transform="matrix(0.25239811,0,0,0.25206824,293.47621,39.758391)" />
      <path
         sodipodi:type="arc"
         style="fill:#ffffff;fill-opacity:1;stroke:none"
         id="path5160"
         sodipodi:cx="-1192.5"
         sodipodi:cy="1842.7194"
         sodipodi:rx="20.357143"
         sodipodi:ry="20.357143"
         d="m -1172.1429,1842.7194 c 0,11.2429 -9.1142,20.3571 -20.3571,20.3571 -11.2429,0 -20.3571,-9.1142 -20.3571,-20.3571 0,-11.243 9.1142,-20.3572 20.3571,-20.3572 11.2429,0 20.3571,9.1142 20.3571,20.3572 z"
         transform="matrix(0.0966394,0,0,0.0965131,66.495475,324.09923)" />
      <path
         sodipodi:type="arc"
         style="fill:#ffffff;fill-opacity:1;stroke:none"
         id="path5162"
         sodipodi:cx="-1192.5"
         sodipodi:cy="1842.7194"
         sodipodi:rx="20.357143"
         sodipodi:ry="20.357143"
         d="m -1172.1429,1842.7194 c 0,11.2429 -9.1142,20.3571 -20.3571,20.3571 -11.2429,0 -20.3571,-9.1142 -20.3571,-20.3571 0,-11.243 9.1142,-20.3572 20.3571,-20.3572 11.2429,0 20.3571,9.1142 20.3571,20.3572 z"
         transform="matrix(0.0966394,0,0,-0.0965131,110.23152,679.7923)" />
      <path
         style="fill:#2e3436;fill-opacity:1;stroke:none"
         d="m -117.31032,412.79809 c -2.21845,0.0118 -4.66443,0.19756 -7.38086,0.59879 6.58935,4.21414 -1.13606,4.01926 -3.55159,4.16053 -15.01036,0.87939 -26.13509,7.35291 -23.85051,6.80987 5.1941,-1.23453 13.96255,0.52156 7.8379,2.6341 -13.19142,4.54985 -24.00086,7.81098 -27.76945,34.39314 -2.13833,15.08398 8.39297,35.04189 8.07765,32.24536 -1.19193,-10.5712 3.22024,-15.87302 4.27092,-11.05278 2.64499,12.13339 8.88332,21.11286 13.9671,22.84662 -3.32116,-7.09843 -4.40713,-17.96236 0.50952,-12.67666 6.24814,6.71663 11.2595,9.88765 20.83816,9.48125 0,0 12.01985,-21.46457 30.414423,-27.39634 13.520864,-4.36023 -8.799853,-4.67499 4.922885,-7.89499 9.151129,-2.14703 20.249267,-1.64406 16.754507,-2.97829 -10.381675,-3.9634 -0.065,-5.55976 6.99123,-4.73687 22.64127,2.64044 30.24584,22.41079 43.10754,12.21289 2.36111,-1.87212 5.50819,-6.11031 8.65456,-6.14393 3.14661,-0.0333 -1.5926,4.15805 4.4733001,3.34515 9.13890997,-1.22489 5.29959,1.52814 6.81858,1.83334 5.64701,1.13421 11.17223,5.68716 11.17223,5.68716 0,0 -22.6094101,-38.25932 -42.3062301,-25.30604 -3.27729,2.1554 -1.87218,3.27263 0.66873,2.06335 3.87744,-1.84549 13.07392,-0.24429 6.29201,0.7233 -9.22449,1.31597 -10.8943,7.98705 -10.8943,7.98705 -38.831122,-32.44829 -60.276648,-7.0736 -71.828455,8.85249 -7.60695,11.37066 -24.37874,20.76866 -35.47231,12.64689 -9.03218,-6.61285 -4.11984,5.9208 -7.75514,1.08501 -8.44161,-11.22908 -1.36288,-29.15342 3.06461,-35.98703 5.85105,-9.03081 11.12213,-14.69563 16.97918,-18.22931 5.8573,-3.53349 -5.16626,-6.30574 0.27742,-6.80214 5.44344,-0.49674 19.00699,-2.39176 32.654677,0.40391 2.304751,0.47203 8.699154,0.78562 12.056297,-1.01753 -9.960878,-1.48163 -14.466084,-9.8652 -29.994584,-9.78828 z"
         id="path5164"
         inkscape:connector-curvature="0"
         sodipodi:nodetypes="ccsssssscscsssssssccsssccsssssscsc" />
      <path
         style="fill:#2e3436;fill-opacity:1;stroke:none"
         d="m 16.106095,481.36984 c 0,0 21.61599,13.1446 27.09734,-12.27617 0.82172,-3.81074 4.50183,1.00584 5.84339,3.80999 1.2948,2.70565 3.72879,-4.08382 1.51899,-9.50617 -1.95731,-4.80293 -5.24609,-13.8143 -3.45257,-12.01254 4.10957,4.12883 4.57857,2.14681 3.02817,-2.84068 -1.55042,-4.98782 -5.11998,-12.98121 -17.80713,-18.94016 -5.94458,-2.79223 -11.39425,-4.24356 -17.38656,-4.54328 -5.9922899,-0.29983 -12.5267299,0.55206 -14.82787993,-1.50419 5.08641003,0 18.55067993,-1.44918 24.70577993,-4.354 15.72777,-7.42274 58.03209,28.87099 31.99985,67.48116 -4.17575,6.19357 1.12527,-7.36248 -2.27022,-5.01027 -3.6655,2.53957 -6.63563,11.30009 -16.82189,13.98726 -3.53025,0.9316 2.23858,-2.32911 1.2236,-6.23213 -0.77473,-2.98023 -12.33612,3.60416 -22.85087,-8.05882 z"
         id="path5166"
         inkscape:connector-curvature="0"
         sodipodi:nodetypes="cssssssscsssssc" />
    </g>
    <g
       id="g3264"
       transform="matrix(0.19895547,0,0,0.19895547,146.39911,478.011)"
       inkscape:export-filename="/home/serrano/public_html/getgnulinux/images/GNU_Linux.png"
       inkscape:export-xdpi="113.98273"
       inkscape:export-ydpi="113.98273">
      <path
         id="path6"
         d="m 599.88009,214.97211 c -16.1,0 -18.8,0.2 -29.5,3 -13.2,3.5 -20.9,7.9 -29.9,17 -4.6,4.5 -6.9,7.4 -9.1,11.1 -5.5,9.5 -9.1,20.3 -11.3,34.9 -1.2,7.1 -1.3,9.7 -1.2,27.3 0,18.5 2.2,74.9 3.5,91.8 0.9,11.2 0.5,12.4 -8.9,25.5 -3.3,4.6 -7.9,11.3 -10.2,14.9 -6.3,9.7 -15.2,22.2 -22.5,31.8 -13.5,17.4 -16.9,23.8 -25.4,46.9 -8.2,22.6 -13.2,33.8 -25.3,57.3 -6.2,11.8 -7.8,16.8 -8.1,25.2 -0.4,7.2 0.6,17.2 1.7,19 0.9,1.2 2,1.5 4.2,0.9 -0.3,0.3 -0.5,0.5 -0.7,0.6 -3.5,2.3 -7.5,7.2 -10,13.4 -0.1,0.1 -0.1,0.3 -0.2,0.4 -0.9,1.4 -1.9,3.8 -3.1,7.5 -3.6,10.2 -6.6,14.7 -12,17.6 -4.6,2.5 -8.7,3.1 -20.7,3.1 -12.4,0 -15.1,0.6 -18.8,3.8 -6.6,5.6 -7.6,16.7 -3.1,32.1 4.1,13.9 3.9,20.3 -1.4,35.9 -2.9,8.6 -3.3,10.4 -3.3,14.1 0,2.8 0.3,4.9 0.9,6.2 1.3,2.7 5.4,6 9.4,7.7 4.5,1.7 27.1,7.3 43.3,10.5 25.1,5.1 34.1,7.8 57.4,17.1 20.7,8.2 29.5,11.2 36.5,12.3 3.3,0.5 10.1,-0.1 13.2,-1.3 3.7,-1.3 7.2,-3.7 14.9,-10.2 13.6,-11.4 21,-15 36.2,-17.4 5.7,-0.9 10.9,-1 54.4,-1 26.4,0 49.7,0.2 51.8,0.5 4.9,0.6 6.8,2.2 10.9,9.4 6.3,11.3 14,16.3 28,18.4 6.6,1 17.9,1.1 23.1,0.3 11.4,-1.9 17.1,-5.3 30,-18.2 15,-15.1 29,-24.6 48.7,-33.2 10,-4.4 14.5,-6.9 26.3,-14.9 14.5,-9.8 17.3,-12.9 17.3,-19.3 0,-6.7 -3.6,-10.9 -16.9,-19.7 -12.7,-8.4 -18.4,-13.5 -23.7,-21.3 -3.7,-5.5 -5,-9.7 -5.5,-17.9 -0.2,-3.8 -0.6,-6.4 -1.1,-8 -0.5,-5.7 -2.8,-12.2 -6.9,-14.3 -5.7,-3 -7.7,-2.1 -9.6,-0.9 6.4,-7.2 8.5,-10.6 10.6,-16.8 3.7,-11 2.9,-23.3 -3.5,-55.3 -7.4,-37.2 -20,-63.8 -46,-97.2 -16.5,-21.3 -23.2,-31.9 -39.3,-62.1 -8,-15.1 -10.3,-20.3 -12.2,-28.4 -2.8,-11.7 -4.1,-22.2 -6.2,-52.1 -2,-27.9 -3.4,-39.4 -6,-49.1 -6.9,-26.4 -27.6,-46.4 -56.5,-54.7 -12.3,-3.5 -17.6,-4.2 -34.2,-4.2 z"
         inkscape:connector-curvature="0"
         style="fill:#ffffff" />
      <g
         id="g8"
         transform="translate(104.88009,-79.427888)"
         style="fill:#f8bf11">
        <path
           id="path10"
           transform="matrix(0.55569,0,0,0.55569,249.6684,292.4824)"
           d="m 552,300.4 c 0,25.1 -29.9,30.4 -44.4,39.4 -13.5,12.5 -91.2,47.8 -111.8,47.8 -33.1,-7 -73.4,-56.4 -78.6,-89.2 0,-19.1 24.3,-34.4 37.9,-46.9 13.5,-12.5 29.1,-24.3 55.7,-19.3 20.6,0 52.8,9.8 66.3,22.3 27,9 74.9,14.8 74.9,45.9 z"
           inkscape:connector-curvature="0" />
        <path
           id="path12"
           transform="matrix(0.55569,0,0,0.55569,249.6684,292.4824)"
           d="m 7.597,971.1 c 30.75,14 102.4,31.9 127.6,34.9 16.9,7 128.5,33 154.2,33 38.1,-27 44.4,-67.9 33.7,-109.3 -47.5,-76.7 -84.2,-177.2 -173,-211.8 -8.9,4.4 -16.2,16.3 -19.4,18.3 -6.4,4.1 -13.5,13 -18,24.1 -4.7,11.6 -9,25.8 -14.24,46.5 -10.26,20.6 -52.15,2 -80.84,17 -10.46,31.7 7.39,109.9 -10.02,147.3 z"
           inkscape:connector-curvature="0" />
        <path
           id="path14"
           transform="matrix(0.55569,0,0,0.55569,249.6684,292.4824)"
           d="m 834.2,853.6 c 19.2,15.7 49.3,27.4 62.9,53.5 -25.9,30.9 -48.2,41.8 -81,57.4 -45,21.4 -73.2,41.5 -93.8,55.5 -20.6,18 -68.4,29 -90.1,26 -13.7,-9 -29.1,-118.3 -24.1,-154 0,-19 -23.3,-95.1 14,-141.5 36.1,-6.9 67.1,26.1 90,48.6 18.9,-12.7 48.8,-32.2 71.4,-37.1 7.4,-1.7 7.7,-9.4 23.2,-1.3 7.4,3.9 11.7,16.1 12.5,26.5 1.3,16.8 3,52.4 15,66.4 z"
           inkscape:connector-curvature="0" />
      </g>
      <g
         id="g16"
         transform="translate(104.88009,-79.427888)">
        <g
           id="g18"
           transform="matrix(0.55569,0,0,0.55569,249.6684,292.4824)">
          <path
             id="path20"
             d="m 265.5,1063 c -12.6,-2 -28.5,-7 -65.7,-22 -42,-17 -58.1,-21 -103.3,-31 C 67.4,1005 26.59,994.5 18.62,991.3 11.41,988.4 3.92,982.4 1.63,977.5 0.562,975.3 0,971.4 0,966.4 c 0,-6.8 0.7248,-9.8 5.962,-25.3 9.516,-28.2 9.976,-39.7 2.577,-64.7 -8.194,-27.7 -6.277,-47.7 5.529,-57.8 6.67,-5.7 11.53,-6.7 33.8,-6.7 21.64,0 28.95,-1.1 37.33,-5.7 9.65,-5.3 15.08,-13.3 21.48,-31.7 4.1,-11.9 6.8,-16.6 9.4,-16.6 2.1,0 3.9,5.2 3.9,11.5 0,5.6 -6.3,29.2 -9.4,35.3 -3.3,6.6 -7.8,11.7 -12.99,14.7 -9.68,5.7 -28.33,7.2 -48.79,4.1 -13.07,-2.1 -20.57,-1.6 -25.57,1.4 -7.4,4.5 -8.61,14.6 -3.24,27.1 10.4,24.1 12.39,29.3 14.59,37.4 2.61,9.7 3.03,18.2 1.39,28.3 -1.63,10 -4.5,16.3 -12.99,28.2 -4.38,6.2 -8.39,12.8 -8.92,14.8 -1.5,5.4 0.71,9.5 6.67,12.6 5.06,2.5 77.22,21.2 128.2,32.7 15.7,4 44.3,11 63.5,16 19.3,5 39.3,9 44.5,10 16.1,2 31,0 41.3,-6 14.3,-9 24.3,-29.7 25.5,-53.8 0.8,-15.9 -2.7,-30.2 -12,-48.7 -7.1,-14.2 -10.6,-19.7 -44.3,-70.6 -59.5,-89.6 -85.3,-119.5 -107.3,-124.1 -7.1,-1.4 -11.8,-0.6 -21.3,3.7 -9.1,4.1 -12.2,4.3 -14.4,1 -2.1,-3.2 -3.8,-21.1 -3.2,-34.1 0.7,-15.1 3.6,-24.1 14.6,-45.5 21.8,-42.2 30.7,-62.4 45.6,-103 15.3,-41.6 21.5,-53.1 45.6,-84.5 13.2,-17.1 29.2,-39.7 40.5,-57.1 4.3,-6.5 12.6,-18.6 18.5,-26.9 16.8,-23.6 17.6,-25.8 16,-45.9 -2.4,-30.3 -6.4,-131.9 -6.4,-165.1 -0.1,-31.6 0.1,-36.4 2.1,-49.2 4.1,-26.16 10.5,-45.79 20.5,-62.79 3.8,-6.64 8.1,-11.89 16.2,-20.07 16.2,-16.34 30.2,-24.18 53.9,-30.38 19.3,-5.052 24.2,-5.554 53.1,-5.528 29.8,0.026 39.3,1.205 61.5,7.583 52,14.94 89.3,50.96 101.8,98.39 4.6,17.5 7.1,38.3 10.7,88.5 3.8,53.7 6.1,72.6 11.2,93.8 3.4,14.4 7.5,23.9 21.9,51 29,54.4 41,73.4 70.7,111.6 46.8,60.2 69.4,108 82.8,175 11.5,57.6 12.9,79.7 6.3,99.6 -4,12 -7.9,18 -21.6,33.1 -28.8,31.9 -60.9,51.9 -82.9,51.9 -20,0 -38.3,-13.6 -51.4,-38.3 -6.1,-13.6 -5.3,-24.5 -22.8,-20.6 -8.5,2.3 -15.5,12.6 -17.6,25.9 -1.6,9.5 -1.3,45.9 0.4,55 0.7,4.1 3.1,16.3 5.1,27 3.6,18.5 3.8,20.5 3.8,39.5 0,17.5 -0.4,22.8 -3.3,42 -2.7,18 -3.2,24.2 -2.9,34 0.4,11.4 0.6,12.5 4,19.6 4.1,9 13.1,19 20.9,24 17.2,11 41.2,12 61.4,2 5.7,-3 14,-9 28,-20 22.7,-18.4 39.6,-30.1 52.4,-36.6 4.9,-2.4 16.7,-6.9 26.2,-10 39.4,-12.7 57.4,-20.3 67.4,-28.6 11.9,-9.7 17.6,-20.2 15.5,-28.1 -2.7,-9.8 -14,-16.8 -37.1,-22.8 -17.4,-4.6 -21.6,-6.7 -28.7,-14.5 -6.3,-6.9 -11.2,-16.8 -14.8,-30 -3.5,-12.9 -4,-33.8 -1,-42 2.1,-5.8 4.2,-8.5 6.6,-8.5 2.8,0 4.2,4.9 5,18 1,14.6 3.3,22.3 10,32.1 9.5,14.1 19.6,23.2 42.5,38.4 23.9,15.8 30.5,23.4 30.5,35.5 0,11.5 -5.1,17.1 -31.1,34.6 -21.3,14.4 -29.3,19 -47.3,26.8 -35.5,15.5 -60.7,32.7 -87.8,59.7 -23.2,23 -33.3,30 -54,33 -9.3,1 -29.6,1 -41.5,-1 -25.2,-3 -38.9,-12 -50.4,-33 -7.3,-13 -10.7,-16 -19.5,-17 -3.8,0 -45.8,-1 -93.4,-1 -78.2,0 -87.6,1 -97.7,2 -27.4,5 -40.9,11 -65.3,31 -13.8,12 -20.1,16 -26.8,19 -5.5,2 -17.8,3 -23.7,2 z m 90.2,-64.5 c 2.2,-1.9 5.5,-6.3 7.4,-9.8 3,-5.6 3.4,-7.3 3.7,-15.9 0.7,-15.8 -2.7,-24.7 -13.9,-36.5 -7.7,-8.1 -8.8,-11.6 -4.4,-13.6 4.1,-1.8 9.3,0.5 18.6,8.3 17.6,14.9 28,17.4 66.4,16.6 41.3,-1 63.8,-5.3 86.5,-16.7 14.7,-7.4 24.4,-15.8 36.7,-32.1 8.7,-11.4 12.6,-15.3 17.5,-17.3 8.1,-3.4 12.4,3.2 12.2,18.9 -0.1,7.3 -0.9,11.9 -4.2,24.1 -9,32.5 -11.8,50.8 -9.3,60.1 1.5,5.4 6.2,9.5 10.5,9.1 3,-0.3 3.1,-0.5 3.9,-6.3 0.4,-3.3 2.1,-14.5 3.8,-25 1.6,-10.4 3.6,-23.9 4.5,-30 2.1,-15.8 3.7,-64.8 3.8,-118 0.1,-45.9 0.1,-46 2.5,-53 1.9,-5.4 3.6,-8.1 7.5,-12 6.1,-6 11.8,-8.2 24.7,-9.1 l 8.6,-0.7 1.2,-6.1 c 2.9,-13.9 11.2,-21.8 27.6,-26.2 5.3,-1.4 10.6,-1.9 22,-1.9 16.5,0 21.1,1 36,8.2 6.7,3.2 12.5,4.3 12.5,2.4 0,-1.5 -8.1,-9.1 -14.6,-13.7 -3.4,-2.5 -9.3,-5.7 -13,-7.2 -5.1,-2.1 -7,-3.4 -7.2,-4.9 -0.2,-1.2 1.3,-7.9 3.3,-15 5.8,-21 7.7,-34.3 7.8,-54.3 0.2,-32.9 -5.6,-54.7 -24.7,-91.6 -17.7,-34.2 -36.4,-59.3 -51.2,-68.7 -4.3,-2.6 -9.4,-4.4 -9.4,-3.3 0,0.4 3.6,5.7 7.9,11.9 20.4,28.9 41.6,65.8 50.6,88.3 7.3,18 12.8,42.4 14.5,64.6 2.9,36.4 -7,67.5 -24,75.1 -3.4,1.6 -7.2,2.2 -15.5,2.4 -13.2,0.5 -15,-0.2 -18.5,-7.2 l -2.5,-5 -0.6,-40 c -1.1,-68.1 -4.3,-79.7 -40,-144.2 -11,-19.8 -13.2,-25 -17.9,-43 -9.6,-37 -18.9,-58.7 -33.5,-78.3 -22.3,-29.8 -25.2,-42.2 -16.3,-69.7 5.7,-17.9 5.6,-27.1 -0.4,-33.2 -4.4,-4.5 -7.8,-6.1 -27.9,-12.5 -30.5,-9.7 -44.6,-18.4 -48.5,-29.9 -3.9,-11.3 -1.1,-29.7 5.9,-38.8 5,-6.6 11.4,-9.4 21.2,-9.4 6.5,0.1 9.1,0.6 13.6,2.6 6.9,3.3 12.4,8 15.2,13.3 3,5.7 2.9,19.2 -0.2,29.1 -5.1,16.1 -4.9,14.4 -1.3,17.6 6.5,5.8 16.8,6.3 21.3,0.9 3.9,-4.6 5.1,-9.3 5.6,-22.5 0.6,-14.4 -0.9,-24 -6.8,-42.1 -8.1,-24.8 -16.2,-32 -40.7,-36 -18.3,-3 -28.3,-0.6 -37.5,8.9 -14.4,15 -21.6,38.9 -18.7,62.9 1.6,13.3 1.3,13.9 -6.2,11.5 -6.7,-2.1 -21.4,-3.8 -29.9,-3.5 -9.1,0.4 -9.9,-0.4 -9.9,-10.6 -0.1,-41.5 -12.6,-64.1 -35.5,-63.9 -15.9,0 -28.8,12.1 -33.6,31.3 -1.9,7.5 -1.5,29 0.6,41.5 4.3,24.6 13.6,36.9 20.9,27.3 3,-4.1 5.6,-9.3 5.6,-11 0,-0.7 -2.3,-2.3 -5,-3.6 -3,-1.4 -5.7,-3.6 -6.9,-5.6 -5.7,-9.1 -8.5,-25.4 -6.1,-34.1 3.1,-11 18.2,-17.8 28.6,-12.9 8.8,4.2 18.2,23.6 17.2,35.8 -0.8,9.7 -2.6,12.7 -11.4,19.2 -4.4,3.2 -11.5,9 -15.9,12.9 -4.4,3.9 -9.8,8.4 -12,10 -11.2,8.1 -17.5,17.6 -17.5,26.6 0,5.9 2.4,9.1 9.9,12.8 5.9,3 11.2,8.2 16.8,16.4 7.5,10.8 16.4,14.2 36.8,14.1 24.9,-0.1 47.2,-5.4 89,-21 22.7,-8.5 29,-11.2 30.3,-13.2 3.7,-5.4 8,-9.2 10.6,-9.2 3.5,0 6.6,3.3 6.6,6.9 0,6.1 -9.4,11.1 -42,22.2 -9.6,3.3 -24.5,9.3 -33,13.3 -17.2,8.2 -22,9.9 -33.3,12.1 -9.3,1.8 -30.8,2 -42.6,0.4 -9.6,-1.3 -15.4,-0.6 -14.9,1.9 0.5,2.6 22.7,19.9 27.8,21.8 7.2,2.5 21.4,3 30.6,0.9 13.9,-3 57.8,-21.9 79.6,-34.1 7.3,-4.1 11.4,-5.8 14,-5.8 4.4,-0.1 7.8,2.7 7.8,6.2 0,3.8 -7.4,10.3 -15.5,13.7 -14.3,5.8 -17.3,7.4 -31.5,16.4 -19.4,12.4 -27.9,18.6 -40.7,29.8 -13.7,11.9 -17.6,13.5 -32.8,13.7 -12.1,0.1 -15.8,-1.1 -23.7,-7.9 -6.2,-5.3 -21,-23.7 -25.2,-31.4 -4.4,-8 -14.2,-19.1 -16.8,-19.1 -1.7,0 -1.9,0.4 -4.8,13 -2,9 -9.4,26 -21.4,49.5 -14.4,28.3 -15.1,30.8 -15.1,60.5 0,24.8 0.6,22.7 -11.5,39.5 -14.8,20.8 -37.8,75.1 -43.3,102.5 -4.2,20.5 -7.1,55.4 -6.3,75 0.6,15.6 -0.2,20.2 -3.9,22.5 -3.8,2.4 -8.3,-0.1 -17.6,-9.3 -14.6,-14.7 -19.3,-26.9 -19.2,-50.2 0.1,-14.8 1.4,-26.2 4.3,-37.2 2.5,-9.4 2.6,-12.1 0.3,-11.6 -2.4,0.4 -7.8,11.5 -10.4,21.4 -1.6,5.9 -2.2,12 -2.6,24.4 -0.4,15.2 -0.3,17.4 2.1,28 3,13.3 8.7,25.7 16.6,36.1 12.1,16 73.4,70.4 114.2,101.5 9.8,7.4 20.7,16.7 24.3,20.6 21.6,23.4 17.4,44.8 -12.1,61.3 -4.6,2.6 -8.4,4.9 -8.4,5.1 0,0.2 3.8,5.5 8.4,11.6 16.9,22.8 26.7,39.5 30.1,51.2 2.3,7.7 2.2,18.8 -0.3,25.9 -1,3.2 -1.6,5.8 -1.2,5.8 0.4,0 2.5,-2 4.7,-3.5 z M 373,253.9 c -3.1,-5.9 2.7,-11 12.6,-11 3.5,0 6.6,0.4 6.9,1 0.7,1.2 -2.7,3 -5.7,3 -1.8,0 -2.8,1 -4.3,4.3 -1.6,3.5 -2.5,4.3 -5.2,4.5 -2.4,0.2 -3.4,-0.2 -4.3,-1.8 z m 59.3,-4.3 c -5.8,-2.1 -10.3,-5 -9.2,-6.1 0.3,-0.3 3.7,-0.8 7.5,-1.2 9,-0.8 12.4,0.5 12.4,4.5 0,2 -0.7,3.4 -1.9,4.1 -1.1,0.5 -2.1,1 -2.3,0.9 -0.1,0 -3.1,-1 -6.5,-2.2 z M 224.1,529.9 c 9.6,-9.9 12.3,-14.9 11.7,-22 -0.3,-4.9 -2.2,-6.6 -6.2,-5.6 -2.9,0.7 -4.5,3.7 -7.1,12.8 -1.1,4.4 -2.9,7.3 -7,11.9 -5.5,6.2 -6.5,8.5 -4.3,10.7 2.3,2.3 4.2,1.2 12.9,-7.8 z M 608.7,361.1 c 2.1,-1.3 6.3,-11.6 6.3,-15.5 0,-3.1 -0.6,-4.5 -3.1,-6.8 -1.7,-1.6 -3.5,-2.9 -4,-2.9 -0.5,0 -4.4,-1.6 -8.7,-3.7 -5.2,-2.5 -9.8,-5.6 -14.3,-10 -3.6,-3.4 -7.1,-6.3 -7.7,-6.3 -0.6,0 -1.4,1.2 -1.8,2.6 -1.1,4.6 0.5,11.7 4.7,20.1 3.6,7.5 4.9,9 13.2,15.8 8.9,7.3 12.2,8.7 15.4,6.7 z M 368.1,227.2 c 1.2,-3.1 0.9,-5.5 -2.2,-15.6 -1.3,-4.4 -3.2,-8.1 -5.2,-10.3 -2.9,-3.1 -3.4,-3.3 -5.7,-2.1 -3.3,1.8 -3,5.8 0.9,10.2 2.9,3.3 5.4,9.6 6.6,16.8 0.8,4.6 4,5.2 5.6,1 z M 509,224.4 c 2.2,-2.6 0.6,-15 -2.4,-19.6 -3.1,-4.7 -10.3,-9 -16,-9.6 -3.8,-0.5 -4.5,-0.2 -5.6,1.7 -1.4,2.6 -0.7,3.4 4.2,4.9 6.2,2 11.9,10.5 13.4,19.9 0.6,3.5 1.1,4.2 2.9,4.2 1.3,0 2.8,-0.7 3.5,-1.5 z m 6.7,-134.7 c 7.2,-4.97 7.7,-5.19 14.6,-5.37 8.8,-0.23 10.7,-0.97 10.7,-4.07 0,-4.83 -16.6,-19.55 -23.6,-20.85 -7,-1.32 -9.5,2.48 -10.9,16.71 -0.6,5.32 -1.3,7.54 -3.6,10.39 -3.1,3.93 -3.6,6.24 -1.6,8.22 2,2.05 6.3,0.54 14.4,-5.03 z"
             inkscape:connector-curvature="0"
             style="fill:#000000" />
        </g>
      </g>
    </g>
  </g>
</svg>
