<?xml version="1.0" encoding="utf-8"?>
<!-- Generator: Adobe Illustrator 13.0.0, SVG Export Plug-In . SVG Version: 6.00 Build 14948)  -->
<!DOCTYPE svg PUBLIC "-//W3C//DTD SVG 1.1//EN" "http://www.w3.org/Graphics/SVG/1.1/DTD/svg11.dtd">
<svg version="1.1" id="Layer_1" xmlns="http://www.w3.org/2000/svg" xmlns:xlink="http://www.w3.org/1999/xlink" x="0px" y="0px"
	 width="300px" height="150px" viewBox="0 0 300 150" enable-background="new 0 0 300 150" xml:space="preserve">
<g id="_x23_008bcdff">
	<path fill="#008BCD" d="M90.73,38.7c6.11-4.35,14.42-3.73,20.94-0.65c6.45-3.18,14.59-3.73,20.77,0.37
		c-7.4-0.61-15.58,0.5-20.74,6.42C106.31,39.22,98.16,37.99,90.73,38.7z"/>
	<path fill="#008BCD" d="M88.49,58.92c6.09-3.97,13.19-6.63,20.54-6.46c5.3-0.03,10.99,0.54,15.47,3.62
		c-7.38,0.09-15.02,0.43-21.8,3.71c-5.16,2.33-9.66,6.06-12.86,10.74c-7.73-7.061-18.63-9.6-28.86-8.58
		c-2.8,0.36-5.56,1.06-8.39,1.16C62.4,54.93,76.97,54.02,88.49,58.92z"/>
	<path fill="#008BCD" d="M28.24,76.28c4.66-1.48,10.23-0.88,14.02,2.38c5.92,5.09,6.54,14.67,2.54,21.109
		c-4.93,7.75-17.88,7.92-23.05,0.381C16.43,92.5,18.73,79.37,28.24,76.28 M30.39,81.57c-5.42,2.39-5.91,10-3.62,14.76
		c2.02,4.52,8.87,5.2,11.87,1.35c2.68-3.529,2.72-8.6,0.96-12.539C38.17,81.689,33.77,80.141,30.39,81.57z"/>
	<path fill="#008BCD" d="M49.75,84c1.85,0,3.69,0,5.53,0c-0.05,0.54-0.14,1.62-0.19,2.15c3.46-3.34,9.43-3.641,12.84-0.061
		c3.63,4.04,3.85,10.561,1.36,15.24c-2.66,4.97-10.15,5.6-13.86,1.48c0.09,3.14,0.08,6.289,0.06,9.43c-1.91,0-3.82,0-5.73,0
		C49.75,102.83,49.76,93.42,49.75,84 M58.38,88.4c-4.64,2.449-4.19,12.16,1.68,12.64C67.68,101.07,66.16,85.65,58.38,88.4z"/>
	<path fill="#008BCD" d="M75.86,85.8c4.07-3.31,10.85-3.159,14.29,1.011c2.26,2.479,2.59,5.959,2.73,9.159
		c-5.05,0.061-10.1,0-15.16,0.05c0.43,1.94,1.06,4.34,3.32,4.83c2.58,0.87,4.94-0.699,6.55-2.58c1.7-0.01,3.4,0,5.11,0.021
		c-1.64,6.21-8.79,8.79-14.48,6.51C70.74,101.99,69.82,90.54,75.86,85.8 M77.6,92.21c3.17,0.07,6.33,0.05,9.5-0.021
		C86.12,90.48,85.29,88,82.9,88.04C80.23,87.67,78.39,89.95,77.6,92.21z"/>
	<path fill="#008BCD" d="M94.75,84c1.94,0,3.87,0,5.81,0c-0.06,0.62-0.18,1.85-0.24,2.47c3.33-3.93,11.23-4.34,13.38,0.94
		c1.5,5.73,0.53,11.74,0.8,17.59c-2,0-4.01,0-6.01-0.01c-0.12-4.66,0.33-9.36-0.25-14c-0.44-3.891-6.63-3.49-7.19,0.109
		c-0.68,4.59-0.15,9.271-0.3,13.9c-2,0-4,0-6,0C94.75,98,94.75,91,94.75,84z"/>
</g>
<g id="_x23_1a171cff">
	<path fill="#1A171C" d="M125.34,76.51c5.98-2.33,13.72-0.609,17.22,5.03c3.38,5.59,3.43,13.31-0.36,18.71
		c-5.25,7.46-18.14,7.23-23.01-0.54C114.38,92.23,116.48,79.939,125.34,76.51 M128.36,81.5c-5.42,2.09-6.08,9.49-4.13,14.24
		c1.57,4.5,7.84,5.9,11.34,2.779c3.41-3.319,3.62-8.859,1.92-13.08C136.19,81.92,131.8,80.09,128.36,81.5z"/>
	<path fill="#1A171C" d="M151.721,77.68c2.229-1.85,5.299-1.32,7.969-1.47c0.041,1.49,0.08,2.979,0.121,4.479
		c-1.261,0.08-2.521,0.181-3.781,0.28c-0.17,0.75-0.489,2.271-0.649,3.021c2.22,0,4.45,0,6.67,0.01c0.37-2.05,0.229-4.51,1.94-6.01
		c2.23-2.19,5.57-1.641,8.4-1.76c0.069,1.5,0.129,3,0.199,4.489c-1.25,0.03-2.5,0.061-3.74,0.091c-0.3,1.029-0.6,2.049-0.89,3.08
		c1.34,0.049,2.69,0.1,4.05,0.149c-0.01,1.399-0.01,2.8-0.02,4.2c-1.25,0-2.5,0.01-3.74,0.02c-0.01,5.58,0,11.16,0,16.74
		c-2.01-0.01-4-0.01-6,0c0-5.59,0.01-11.18-0.01-16.76c-2.25,0.01-4.5,0.01-6.75,0.02c0.02,5.561-0.03,11.12,0.05,16.68
		c-1.931,0.03-3.86,0.051-5.79,0.08c0-5.59,0-11.17,0-16.76c-1.16-0.01-2.33-0.02-3.49-0.029c-0.01-1.4-0.02-2.811-0.02-4.211
		c1.11-0.01,2.22-0.02,3.34-0.02C149.85,81.8,149.77,79.16,151.721,77.68z"/>
	<path fill="#1A171C" d="M176.2,76.09c4.3-1.84,6.26,5.54,1.84,6.141C174.37,83.109,172.7,77.42,176.2,76.09z"/>
	<path fill="#1A171C" d="M174.5,84c2,0,4,0,6,0c0,7,0,14,0,21c-2,0-4,0-6,0C174.5,98,174.5,91,174.5,84z"/>
	<path fill="#1A171C" d="M185.95,85.939c5.56-4.879,16.63-2.35,17.21,5.811c-1.91,0.01-3.811,0.02-5.71,0.02
		c-0.79-1.539-1.55-3.51-3.56-3.66c-7.041-0.779-7.681,12.461-0.91,12.94c2.64,0.29,3.76-2.36,4.689-4.3c1.859,0,3.73,0.01,5.6,0.03
		c-0.729,2.229-1.209,4.78-3.14,6.35c-4.96,4.229-14.2,2.9-16.76-3.45C181.62,95.17,182.16,89.28,185.95,85.939z"/>
	<path fill="#1A171C" d="M209.29,85.15c4.22-2.67,10.56-2.19,13.66,1.97c2.12,2.44,2.31,5.8,2.42,8.87
		c-5.07,0.029-10.14-0.04-15.21,0.07c0.71,1.959,1.369,4.619,3.88,4.869c2.521,0.78,4.56-0.96,6.17-2.63
		c1.681-0.04,3.351-0.05,5.04-0.06c-1.689,7-10.59,9.279-16.27,5.65C202.779,99.75,203.01,89.13,209.29,85.15 M210.1,92.18
		c3.18,0.09,6.36,0.101,9.53,0.01c-0.87-1.649-1.59-3.949-3.81-4.09C213.01,87.41,211.02,89.85,210.1,92.18z"/>
	<path fill="#1A171C" d="M236.27,89.46c4.541-1.819,10.201,1.57,10.211,6.601c1.029,4.989-3.221,10.31-8.51,9.209
		C230.02,104.9,229.01,91.74,236.27,89.46 M236.439,92.46c-3.64,2.681-2.529,10.271,2.49,10.399c3.49,0.201,5.26-3.85,4.6-6.84
		C243.42,92.7,239.16,90.03,236.439,92.46z"/>
	<path fill="#1A171C" d="M248.02,89.49c0.69,0,2.07,0.01,2.76,0.01c-0.049,0.561-0.149,1.68-0.199,2.25
		c1.641-1.561,3.641-2.59,5.85-3.05c0.03,0.72,0.1,2.18,0.141,2.909c-1.76,0.73-4.26,0.82-5.07,2.86
		c-1.189,3.36-0.65,7.03-0.75,10.521C250.061,105,248.689,105,248,105C248,99.83,247.99,94.66,248.02,89.49z"/>
	<path fill="#1A171C" d="M261.1,104.87c-6.81-2.181-6.229-14.21,0.791-15.67c1.989-0.63,3.909,0.26,5.6,1.25
		c0.8-0.3,2.41-0.9,3.21-1.2c-0.08,5.609,0.43,11.27-0.271,16.85c-0.77,6.86-12.76,7.021-13.81,0.211
		c3.11-0.261,5.021,3.59,8.17,2.47c2.601-0.44,2.91-3.39,3.53-5.431C266.12,104.48,263.63,105.92,261.1,104.87 M261.4,92.23
		c-3.061,2.3-2.91,7.979,0.3,10.06c2.94,1.64,6.069-1.25,6.14-4.25C268.9,94.45,265.08,89.59,261.4,92.23z"/>
	<path fill="#1A171C" d="M226.38,101.23c2.431-2.9,6.011,2.81,2.53,3.83C226.609,106.359,224.41,102.79,226.38,101.23z"/>
</g>
<text transform="matrix(1 0 0 1 274.5 87)" font-family="'MyriadPro-Bold'" font-size="10">TM</text>
</svg>
