<?xml version="1.0" encoding="UTF-8" standalone="no"?>
<!-- Created with Inkscape (http://www.inkscape.org/) -->

<svg
   xmlns:dc="http://purl.org/dc/elements/1.1/"
   xmlns:cc="http://creativecommons.org/ns#"
   xmlns:rdf="http://www.w3.org/1999/02/22-rdf-syntax-ns#"
   xmlns:svg="http://www.w3.org/2000/svg"
   xmlns="http://www.w3.org/2000/svg"
   xmlns:xlink="http://www.w3.org/1999/xlink"
   xmlns:sodipodi="http://sodipodi.sourceforge.net/DTD/sodipodi-0.dtd"
   xmlns:inkscape="http://www.inkscape.org/namespaces/inkscape"
   width="400"
   height="400"
   id="svg2"
   sodipodi:version="0.32"
   inkscape:version="0.47pre0 r21549"
   version="1.0"
   sodipodi:docname="logo_mod.svg"
   inkscape:export-filename="/home/sirgazil/mio/hipermedia/herramientas/NuevoSentido/logo_mod.png"
   inkscape:export-xdpi="90"
   inkscape:export-ydpi="90"
   inkscape:output_extension="org.inkscape.output.svg.inkscape">
  <defs
     id="defs4">
    <linearGradient
       inkscape:collect="always"
       id="linearGradient3942">
      <stop
         style="stop-color:#562300;stop-opacity:1;"
         offset="0"
         id="stop3944" />
      <stop
         style="stop-color:#562300;stop-opacity:0;"
         offset="1"
         id="stop3946" />
    </linearGradient>
    <linearGradient
       id="linearGradient3420">
      <stop
         style="stop-color:#552200;stop-opacity:1;"
         offset="0"
         id="stop3422" />
      <stop
         style="stop-color:#9b4f1d;stop-opacity:1;"
         offset="1"
         id="stop3424" />
    </linearGradient>
    <linearGradient
       id="linearGradient3408">
      <stop
         style="stop-color:#ffda7d;stop-opacity:1;"
         offset="0"
         id="stop3410" />
      <stop
         id="stop3416"
         offset="0.5"
         style="stop-color:#ffd33a;stop-opacity:1;" />
      <stop
         style="stop-color:#ffca02;stop-opacity:1;"
         offset="0.75"
         id="stop3418" />
      <stop
         style="stop-color:#ff9802;stop-opacity:1;"
         offset="1"
         id="stop3412" />
    </linearGradient>
    <linearGradient
       id="linearGradient3394">
      <stop
         style="stop-color:#d5a621;stop-opacity:1;"
         offset="0"
         id="stop3396" />
      <stop
         id="stop3402"
         offset="0.5"
         style="stop-color:#90501e;stop-opacity:1;" />
      <stop
         style="stop-color:#682900;stop-opacity:1;"
         offset="0.75"
         id="stop3404" />
      <stop
         style="stop-color:#682900;stop-opacity:1;"
         offset="1"
         id="stop3398" />
    </linearGradient>
    <linearGradient
       id="linearGradient3325">
      <stop
         style="stop-color:#a78246;stop-opacity:1;"
         offset="0"
         id="stop3327" />
      <stop
         id="stop3333"
         offset="0.48019803"
         style="stop-color:#8f5902;stop-opacity:1;" />
      <stop
         style="stop-color:#8f5902;stop-opacity:1;"
         offset="0.75990099"
         id="stop3335" />
      <stop
         style="stop-color:#0b0700;stop-opacity:1;"
         offset="1"
         id="stop3329" />
    </linearGradient>
    <linearGradient
       id="linearGradient3317">
      <stop
         style="stop-color:#2b2b00;stop-opacity:1;"
         offset="0"
         id="stop3319" />
      <stop
         id="stop3339"
         offset="0.25"
         style="stop-color:#8d8c11;stop-opacity:1;" />
      <stop
         id="stop3337"
         offset="0.5"
         style="stop-color:#9b9a18;stop-opacity:1;" />
      <stop
         style="stop-color:#b6b527;stop-opacity:1;"
         offset="1"
         id="stop3321" />
    </linearGradient>
    <linearGradient
       id="linearGradient3177">
      <stop
         style="stop-color:#573100;stop-opacity:1;"
         offset="0"
         id="stop3179" />
      <stop
         style="stop-color:#d19342;stop-opacity:1;"
         offset="1"
         id="stop3181" />
    </linearGradient>
    <inkscape:perspective
       sodipodi:type="inkscape:persp3d"
       inkscape:vp_x="0 : 125 : 1"
       inkscape:vp_y="0 : 1000 : 0"
       inkscape:vp_z="400 : 125 : 1"
       inkscape:persp3d-origin="200 : 83.333333 : 1"
       id="perspective31" />
    <linearGradient
       id="linearGradient2334">
      <stop
         style="stop-color:#fcaf3e;stop-opacity:0;"
         offset="0"
         id="stop2336" />
      <stop
         style="stop-color:#fcaf3e;stop-opacity:1;"
         offset="1"
         id="stop2338" />
    </linearGradient>
    <inkscape:perspective
       id="perspective3249"
       inkscape:persp3d-origin="372.04724 : 350.78739 : 1"
       inkscape:vp_z="744.09448 : 526.18109 : 1"
       inkscape:vp_y="0 : 1000 : 0"
       inkscape:vp_x="0 : 526.18109 : 1"
       sodipodi:type="inkscape:persp3d" />
    <inkscape:perspective
       id="perspective3299"
       inkscape:persp3d-origin="372.04724 : 350.78739 : 1"
       inkscape:vp_z="744.09448 : 526.18109 : 1"
       inkscape:vp_y="0 : 1000 : 0"
       inkscape:vp_x="0 : 526.18109 : 1"
       sodipodi:type="inkscape:persp3d" />
    <filter
       inkscape:collect="always"
       id="filter3618">
      <feGaussianBlur
         inkscape:collect="always"
         stdDeviation="1.153209"
         id="feGaussianBlur3620" />
    </filter>
    <filter
       inkscape:collect="always"
       id="filter3666">
      <feGaussianBlur
         inkscape:collect="always"
         stdDeviation="0.84206645"
         id="feGaussianBlur3668" />
    </filter>
    <radialGradient
       inkscape:collect="always"
       xlink:href="#linearGradient3408"
       id="radialGradient3680"
       gradientUnits="userSpaceOnUse"
       gradientTransform="matrix(1.4878049,9.7560976e-3,-6.5572361e-3,0.9999785,-92.567502,-1.867254)"
       cx="191.18956"
       cy="142.76118"
       fx="191.18956"
       fy="142.76118"
       r="39.15609" />
    <linearGradient
       inkscape:collect="always"
       xlink:href="#linearGradient3420"
       id="linearGradient3682"
       gradientUnits="userSpaceOnUse"
       x1="-12.898476"
       y1="63.893398"
       x2="-12.898476"
       y2="117.28807" />
    <linearGradient
       inkscape:collect="always"
       xlink:href="#linearGradient3325"
       id="linearGradient3684"
       gradientUnits="userSpaceOnUse"
       gradientTransform="translate(0.3039303,-7.7569532)"
       x1="116.0863"
       y1="224.20305"
       x2="116.0863"
       y2="131.14975" />
    <linearGradient
       inkscape:collect="always"
       xlink:href="#linearGradient3317"
       id="linearGradient3686"
       gradientUnits="userSpaceOnUse"
       gradientTransform="translate(-0.3324714,-7.7569532)"
       x1="155.59497"
       y1="153.26141"
       x2="163.08585"
       y2="49.128513" />
    <filter
       inkscape:collect="always"
       id="filter3926"
       x="-0.061012443"
       width="1.1220249"
       y="-0.45250896"
       height="1.9050179">
      <feGaussianBlur
         inkscape:collect="always"
         stdDeviation="4.1690545"
         id="feGaussianBlur3928" />
    </filter>
    <linearGradient
       inkscape:collect="always"
       xlink:href="#linearGradient3317"
       id="linearGradient3932"
       gradientUnits="userSpaceOnUse"
       gradientTransform="matrix(1.2131319,0,0,1.2131319,-773.28199,-538.10992)"
       x1="155.59497"
       y1="153.26141"
       x2="163.08585"
       y2="49.128513" />
    <linearGradient
       inkscape:collect="always"
       xlink:href="#linearGradient3325"
       id="linearGradient3935"
       gradientUnits="userSpaceOnUse"
       gradientTransform="matrix(1.2131319,0,0,1.2131319,-772.50995,-538.10992)"
       x1="116.0863"
       y1="224.20305"
       x2="116.0863"
       y2="131.14975" />
    <linearGradient
       inkscape:collect="always"
       xlink:href="#linearGradient3942"
       id="linearGradient3948"
       x1="251.2644"
       y1="293.45642"
       x2="186.15797"
       y2="223.51376"
       gradientUnits="userSpaceOnUse"
       gradientTransform="matrix(1.2131319,0,0,1.2131319,-772.87866,-621.72448)" />
  </defs>
  <sodipodi:namedview
     id="base"
     pagecolor="#ffffff"
     bordercolor="#666666"
     borderopacity="1.0"
     inkscape:pageopacity="0.0"
     inkscape:pageshadow="2"
     inkscape:zoom="0.7674933"
     inkscape:cx="198.09002"
     inkscape:cy="140.29655"
     inkscape:document-units="px"
     inkscape:current-layer="layer2"
     fill="#729fcf"
     inkscape:window-width="1432"
     inkscape:window-height="822"
     inkscape:window-x="0"
     inkscape:window-y="25"
     showgrid="true"
     inkscape:grid-points="true"
     inkscape:showpageshadow="false"
     inkscape:window-maximized="0" />
  <metadata
     id="metadata7">
    <rdf:RDF>
      <cc:Work
         rdf:about="">
        <dc:format>image/svg+xml</dc:format>
        <dc:type
           rdf:resource="http://purl.org/dc/dcmitype/StillImage" />
        <dc:title>Gnewsense Logo Markup</dc:title>
        <dc:date>30 October, 2006</dc:date>
        <dc:creator>
          <cc:Agent>
            <dc:title>Joshua Adam Ginsberg (jag@fsf.org)</dc:title>
          </cc:Agent>
        </dc:creator>
        <cc:license
           rdf:resource="http://creativecommons.org/licenses/by/2.0/" />
        <dc:contributor>
          <cc:Agent>
            <dc:title />
          </cc:Agent>
        </dc:contributor>
      </cc:Work>
      <cc:License
         rdf:about="http://creativecommons.org/licenses/by/2.0/">
        <cc:permits
           rdf:resource="http://web.resource.org/cc/Reproduction" />
        <cc:permits
           rdf:resource="http://web.resource.org/cc/Distribution" />
        <cc:requires
           rdf:resource="http://web.resource.org/cc/Notice" />
        <cc:requires
           rdf:resource="http://web.resource.org/cc/Attribution" />
        <cc:permits
           rdf:resource="http://web.resource.org/cc/DerivativeWorks" />
      </cc:License>
    </rdf:RDF>
  </metadata>
  <g
     inkscape:label="Layer 1"
     inkscape:groupmode="layer"
     id="layer1"
     transform="translate(729.93043,580.40443)" />
  <g
     inkscape:groupmode="layer"
     id="layer2"
     inkscape:label="lines"
     transform="translate(729.93043,580.40443)">
    <path
       sodipodi:type="arc"
       style="opacity:0.3;fill:#000000;fill-opacity:1;stroke:none;filter:url(#filter3926)"
       id="path3688"
       sodipodi:cx="199.92639"
       sodipodi:cy="305.10406"
       sodipodi:rx="81.997459"
       sodipodi:ry="11.055838"
       d="m 281.92385,305.10406 a 81.997459,11.055838 0 1 1 -163.99492,0 81.997459,11.055838 0 1 1 163.99492,0 z"
       transform="matrix(1.2131319,0,0,1.2131319,-772.46751,-630.66591)" />
    <path
       transform="matrix(2.9257889,0,0,2.9257889,-1140.5334,-851.34791)"
       d="m 246.9137,161.09264 c 0,21.62531 -17.53077,39.15609 -39.15609,39.15609 -21.62531,0 -39.15609,-17.53078 -39.15609,-39.15609 0,-21.62532 17.53078,-39.15609 39.15609,-39.15609 21.62532,0 39.15609,17.53077 39.15609,39.15609 z"
       sodipodi:ry="39.15609"
       sodipodi:rx="39.15609"
       sodipodi:cy="161.09264"
       sodipodi:cx="207.75761"
       id="path3622"
       style="fill:#b28016;fill-opacity:1;stroke:none;stroke-width:1;stroke-miterlimit:4;stroke-dasharray:none;stroke-opacity:1;filter:url(#filter3666)"
       sodipodi:type="arc" />
    <path
       sodipodi:type="arc"
       style="fill:url(#radialGradient3680);fill-opacity:1;stroke:none;stroke-width:1;stroke-miterlimit:4;stroke-dasharray:none;stroke-opacity:1"
       id="path3406"
       sodipodi:cx="207.75761"
       sodipodi:cy="161.09264"
       sodipodi:rx="39.15609"
       sodipodi:ry="39.15609"
       d="m 246.9137,161.09264 c 0,21.62531 -17.53077,39.15609 -39.15609,39.15609 -21.62531,0 -39.15609,-17.53078 -39.15609,-39.15609 0,-21.62532 17.53078,-39.15609 39.15609,-39.15609 21.62532,0 39.15609,17.53077 39.15609,39.15609 z"
       transform="matrix(2.9257889,0,0,2.9257889,-1142.9597,-853.77416)" />
    <path
       sodipodi:nodetypes="cccsccccccccscccccccccccccccccccc"
       id="path3482"
       d="M 188.99875,199.31031 L 173.79697,214.05143 C 133.15614,213.35293 95.143122,205.64697 58.171335,195.16437 C 58.171335,195.16437 21.551258,184.09894 56.789355,179.04127 C 87.167945,174.68108 89.661267,177.66328 97.788086,177.19864 C 126.29439,178.74551 156.49011,183.10809 181.62819,179.04127 L 190.38073,173.97402 C 164.29006,167.42479 139.24984,165.07737 114.37184,163.37884 C 111.14722,162.51125 107.92261,163.65745 104.69799,165.22148 L 89.035548,162.91818 L 110.22591,145.87377 C 129.68341,149.18665 147.66964,145.14319 165.96575,142.64915 C 165.96575,142.64915 105.61931,142.64915 142.01144,126.98671 C 178.40357,111.32427 202.35789,112.24559 202.35789,112.24559 L 184.39215,126.06539 L 220.32362,128.36869 L 237.8287,115.00955 L 287.11931,127.90803 C 289.74171,131.72968 291.8816,134.25091 282.51271,140.34585 C 268.33733,149.13612 250.0003,152.37753 232.30078,156.46894 L 252.10915,164.30016 L 274.68149,166.14281 L 329.50002,162.91818 L 308.77032,179.04127 L 277.90611,179.96259 L 249.34519,198.84965 C 284.77052,205.48082 321.99245,204.9256 358.52159,207.14153 L 336.87058,224.18594 L 214.33504,212.66945 C 214.33504,212.66945 171.03301,205.29889 216.63834,192.40041 L 204.20052,188.71514 L 140.62946,195.16437 C 156.13873,197.36479 170.09933,201.63009 188.99875,199.31031 z"
       style="fill:#664c14;fill-opacity:1;fill-rule:evenodd;stroke:none;stroke-width:1px;stroke-linecap:butt;stroke-linejoin:miter;stroke-opacity:1;filter:url(#filter3618)"
       transform="matrix(1.2131319,0,0,1.2131319,-772.87866,-621.72448)" />
    <path
       sodipodi:type="arc"
       style="fill:url(#linearGradient3682);fill-opacity:1;stroke:none;stroke-width:1;stroke-miterlimit:4;stroke-dasharray:none;stroke-opacity:1"
       id="path3384"
       sodipodi:cx="-80.615479"
       sodipodi:cy="63.893402"
       sodipodi:rx="67.717003"
       sodipodi:ry="69.098984"
       d="m -12.898476,63.893402 c 0,38.162318 -30.317935,69.098988 -67.717003,69.098988 -37.399071,0 -67.717001,-30.93667 -67.717001,-69.098988 0,-1e-6 0,-2e-6 0,-3e-6 l 67.717001,3e-6 z"
       sodipodi:start="0"
       sodipodi:end="3.1415927"
       transform="matrix(1.2131319,0,0,-0.7117041,-437.30758,-215.7094)" />
    <path
       style="fill:url(#linearGradient3948);fill-opacity:1;fill-rule:evenodd;stroke:none;stroke-width:1px;stroke-linecap:butt;stroke-linejoin:miter;stroke-opacity:1"
       d="M -534.20175,-265.7231 C -509.5722,-270.56799 -488.83864,-280.08807 -468.06178,-289.55621 C -473.99524,-294.5992 -478.46922,-297.00704 -484.21397,-299.75627 C -496.17357,-293.85134 -504.79363,-284.60686 -521.95179,-283.90047 C -525.54992,-292.49654 -530.89219,-300.68222 -530.34894,-310.25273 C -535.88364,-310.40904 -541.06137,-310.38573 -547.04446,-309.83288 C -545.6183,-295.12962 -538.52474,-280.42635 -534.20175,-265.7231 z"
       id="path3480"
       sodipodi:nodetypes="ccccccc" />
    <path
       style="fill:url(#linearGradient3935);fill-opacity:1;fill-rule:evenodd;stroke:none;stroke-width:1;stroke-linecap:butt;stroke-linejoin:miter;stroke-miterlimit:4;stroke-dasharray:none;stroke-opacity:1"
       d="M -535.00242,-266.12205 C -582.14007,-292.84562 -609.43271,-333.2248 -631.68195,-374.53724 L -598.71032,-379.00797 C -584.33773,-347.05973 -567.35524,-312.81558 -532.20822,-286.79918 C -521.23336,-296.14458 -504.99566,-312.8472 -497.00122,-328.15343 C -513.92749,-338.93006 -523.27112,-355.39366 -528.29632,-375.09609 L -516.56067,-377.8903 C -513.15519,-362.37536 -502.98413,-349.19093 -486.38323,-341.00678 L -472.4122,-371.1842 L -446.70551,-371.74306 C -468.86438,-331.08098 -489.70635,-289.43123 -535.00242,-266.12205 z"
       id="path2405"
       sodipodi:nodetypes="ccccccccccc" />
    <path
       style="fill:url(#linearGradient3932);fill-opacity:1;fill-rule:evenodd;stroke:none;stroke-width:1px;stroke-linecap:butt;stroke-linejoin:miter;stroke-opacity:1"
       d="M -543.59824,-382.36103 L -562.04,-364.4781 C -611.34269,-365.32548 -657.4575,-374.67383 -702.30915,-387.3906 C -702.30915,-387.3906 -746.73414,-400.81443 -703.98567,-406.95005 C -667.13244,-412.23953 -664.10771,-408.62173 -654.2488,-409.18541 C -619.6669,-407.30884 -583.0355,-402.01646 -552.5397,-406.95005 L -541.92171,-413.09729 C -573.57314,-421.04237 -603.95023,-423.8901 -634.13053,-425.95064 C -638.04241,-427.00314 -641.95429,-425.61265 -645.86618,-423.71528 L -664.86679,-426.50948 L -639.16008,-447.1866 C -615.55557,-443.16764 -593.7359,-448.07289 -571.54031,-451.09849 C -571.54031,-451.09849 -644.7485,-451.09849 -600.60004,-470.0991 C -556.45159,-489.0997 -527.39184,-487.98202 -527.39184,-487.98202 L -549.18665,-471.21678 L -505.59704,-468.42257 L -484.36106,-484.62897 L -424.56505,-468.98141 C -421.38373,-464.34525 -418.78777,-461.28666 -430.15346,-453.8927 C -447.35007,-443.22894 -469.59531,-439.29668 -491.06716,-434.33326 L -467.03699,-424.83296 L -439.65377,-422.59758 L -373.15166,-426.50948 L -398.29952,-406.95005 L -435.74188,-405.83237 L -470.39004,-382.91987 C -427.41444,-374.87538 -382.25933,-375.54894 -337.94466,-372.86073 L -364.21019,-352.18361 L -512.86197,-366.15463 C -512.86197,-366.15463 -565.39305,-375.09609 -510.06776,-390.74365 L -525.15648,-395.21437 L -602.27657,-387.3906 C -583.46177,-384.7212 -566.52573,-379.54683 -543.59824,-382.36103 z"
       id="path3307"
       sodipodi:nodetypes="cccsccccccccscccccccccccccccccccc" />
    <path
       style="fill:#ffd12e;fill-opacity:1;fill-rule:evenodd;stroke:none;stroke-width:1px;stroke-linecap:butt;stroke-linejoin:miter;stroke-opacity:1"
       d="M -548.83086,-446.3168 L -519.74706,-451.37485 L -522.27608,-438.72971 L -548.83086,-446.3168 z"
       id="path3341" />
  </g>
</svg>
