<?xml version="1.0" encoding="UTF-8" standalone="no"?>
<!-- Created with Inkscape (http://www.inkscape.org/) -->

<svg
   xmlns:dc="http://purl.org/dc/elements/1.1/"
   xmlns:cc="http://creativecommons.org/ns#"
   xmlns:rdf="http://www.w3.org/1999/02/22-rdf-syntax-ns#"
   xmlns:svg="http://www.w3.org/2000/svg"
   xmlns="http://www.w3.org/2000/svg"
   xmlns:sodipodi="http://sodipodi.sourceforge.net/DTD/sodipodi-0.dtd"
   xmlns:inkscape="http://www.inkscape.org/namespaces/inkscape"
   width="280"
   height="280"
   id="svg8524"
   version="1.1"
   inkscape:version="0.48.4 r9939"
   sodipodi:docname="New document 3">
  <defs
     id="defs8526" />
  <sodipodi:namedview
     id="base"
     pagecolor="#ffffff"
     bordercolor="#666666"
     borderopacity="1.0"
     inkscape:pageopacity="0.0"
     inkscape:pageshadow="2"
     inkscape:zoom="1.4"
     inkscape:cx="230.06772"
     inkscape:cy="64.237934"
     inkscape:document-units="px"
     inkscape:current-layer="layer1"
     showgrid="false"
     fit-margin-top="0"
     fit-margin-left="0"
     fit-margin-right="0"
     fit-margin-bottom="0"
     inkscape:window-width="1920"
     inkscape:window-height="1029"
     inkscape:window-x="0"
     inkscape:window-y="25"
     inkscape:window-maximized="1" />
  <metadata
     id="metadata8529">
    <rdf:RDF>
      <cc:Work
         rdf:about="">
        <dc:format>image/svg+xml</dc:format>
        <dc:type
           rdf:resource="http://purl.org/dc/dcmitype/StillImage" />
        <dc:title></dc:title>
      </cc:Work>
    </rdf:RDF>
  </metadata>
  <g
     inkscape:label="Layer 1"
     inkscape:groupmode="layer"
     id="layer1"
     transform="translate(222.85714,-115.2193)">
    <g
       transform="matrix(2.8,0,0,2.8,-714.85714,-1379.3948)"
       id="layer1-7"
       inkscape:label="Layer 1">
      <g
         id="g3998"
         transform="matrix(0.5,0,0,0.5,-23.357144,289.32394)">
        <path
           style="fill:#ffcc00;fill-opacity:1;fill-rule:nonzero;stroke:none"
           d="m 598.14286,588.93362 c 0,55.22847 -44.77153,100 -100,100 -55.22847,0 -100,-44.77153 -100,-100 0,-55.22847 44.77153,-100 100,-100 55.22847,0 100,44.77153 100,100 z"
           id="path4000"
           inkscape:connector-curvature="0" />
        <path
           style="fill:none;stroke:#333333;stroke-width:10;stroke-miterlimit:4;stroke-opacity:1"
           d="m 580.64286,588.93362 c 0,45.5635 -36.93652,82.5 -82.5,82.5 -45.56348,0 -82.5,-36.9365 -82.5,-82.5 0,-45.56349 36.93651,-82.5 82.5,-82.5 45.56348,0 82.5,36.93651 82.5,82.5 z"
           id="path4002"
           inkscape:connector-curvature="0" />
        <path
           id="path4004"
           d="m 500.41215,534.92528 c -0.69367,-0.001 -1.4172,0.0278 -2.17172,0.088 -19.06963,1.53579 -14.01224,21.68187 -14.29526,28.42815 -0.34826,4.9335 -1.34854,8.82144 -4.74161,13.64453 -3.98635,4.74048 -9.59868,12.413 -12.25738,20.39983 -1.25479,3.76944 -1.85189,7.61151 -1.30045,11.24778 -0.17274,0.15469 -0.33719,0.31676 -0.49356,0.4837 -1.17039,1.24949 -2.03518,2.76344 -2.99877,3.78275 -0.90024,0.89802 -2.18288,1.2396 -3.59237,1.74529 -1.41005,0.50592 -2.95817,1.25179 -3.89788,3.05504 0,0 0,7.1e-4 -7.1e-4,7.1e-4 -10e-4,0.003 -0.004,0.006 -0.005,0.009 l 0,0 c -0.85068,1.58887 -0.59778,3.41859 -0.33798,5.11381 0.25981,1.69517 0.52282,3.29704 0.1737,4.38385 -1.11594,3.05021 -1.25843,5.16008 -0.47283,6.69051 0.78727,1.53361 2.40596,2.21051 4.23543,2.59261 3.65895,0.7642 8.61413,0.57432 12.51938,2.64414 l 0.33567,-0.63336 -0.33219,0.63524 c 4.18076,2.18584 8.41924,2.96221 11.80079,2.18982 2.45169,-0.55997 4.44188,-2.01981 5.46396,-4.26613 2.64492,-0.0129 5.54726,-1.13321 10.19643,-1.38919 3.154,-0.25406 7.09392,1.12001 11.62578,0.86838 0.11846,0.49167 0.28991,0.96457 0.52459,1.41397 0.003,0.005 0.005,0.009 0.007,0.0137 1.75679,3.513 5.02103,5.11981 8.49971,4.84528 3.48327,-0.2749 7.18669,-2.32878 10.18033,-5.89142 l -0.54881,-0.4612 0.55301,0.45615 c 2.85339,-3.45986 7.58955,-4.89451 10.73001,-6.78865 1.57023,-0.94708 2.84435,-2.13295 2.9428,-3.85537 0.0984,-1.72158 -0.91232,-3.65085 -3.23642,-6.23071 0,0 -7.1e-4,-7.1e-4 -7.1e-4,-7.1e-4 -7.1e-4,-10e-4 -0.002,-0.002 -0.003,-0.004 -0.76362,-0.86295 -1.12791,-2.46233 -1.5194,-4.16553 -0.39122,-1.70216 -0.82791,-3.53832 -2.22537,-4.72826 l 0,0 c -0.003,-0.003 -0.006,-0.005 -0.008,-0.007 0,0 0,0 0,0 -0.55616,-0.48463 -1.13412,-0.81355 -1.71615,-1.03454 1.94291,-5.76216 1.1806,-11.49987 -0.78065,-16.68477 -2.40699,-6.36331 -6.60924,-11.90796 -9.81857,-15.70098 -3.59232,-4.53116 -7.10593,-8.83313 -7.03671,-15.187 0.107,-9.69739 1.06668,-27.6809 -15.9978,-27.70419 z m 2.3102,14.93977 c 0.96831,0 1.79531,0.28383 2.64483,0.90042 0.86301,0.62637 1.48475,1.4105 1.98585,2.5055 0.49181,1.06716 0.72844,2.1111 0.75165,3.34995 0,0.0325 0,0.0603 0.009,0.0928 0.009,1.2713 -0.20879,2.35238 -0.69133,3.45666 -0.27535,0.63011 -0.59155,1.15897 -0.97002,1.61683 -0.12849,-0.0617 -0.26192,-0.121 -0.40032,-0.17791 l 0,0 c -0.95933,-0.41088 -1.69525,-0.67236 -2.3086,-0.88519 0.22233,-0.26725 0.40746,-0.58421 0.57026,-0.98045 0.24592,-0.59853 0.36655,-1.18316 0.38975,-1.87912 0,-0.0278 0.009,-0.0511 0.009,-0.0835 0.0139,-0.66812 -0.0742,-1.23883 -0.26911,-1.82345 -0.20416,-0.61245 -0.46398,-1.05322 -0.83981,-1.41977 -0.37582,-0.36656 -0.75165,-0.53358 -1.20172,-0.54751 -0.0211,-10e-4 -0.0421,-10e-4 -0.0629,-10e-4 -0.42334,10e-4 -0.79094,0.14644 -1.17126,0.46485 -0.39903,0.33408 -0.69597,0.76092 -0.94189,1.35482 -0.24591,0.59389 -0.36655,1.18314 -0.38973,1.88377 -0.005,0.0278 -0.005,0.0511 -0.005,0.0789 -0.008,0.38511 0.0164,0.7379 0.0758,1.08049 -0.86623,-0.43163 -1.68254,-0.7259 -2.44865,-0.90825 -0.0437,-0.33128 -0.0689,-0.67315 -0.077,-1.0306 l 0,-0.0974 c -0.0139,-1.26667 0.19487,-2.35238 0.68205,-3.45665 0.48718,-1.10428 1.09036,-1.8977 1.93944,-2.54263 0.84909,-0.64493 1.68425,-0.94188 2.67254,-0.95115 0.0154,0 0.0309,0 0.0462,0 z m -13.25335,1.04932 c 0.64237,0.001 1.21716,0.21613 1.8117,0.69091 0.64495,0.515 1.13212,1.17385 1.54042,2.10182 0.40831,0.92797 0.62638,1.85593 0.68669,2.95093 l 0,0.009 c 0.0292,0.45989 0.0256,0.89279 -0.0106,1.31204 -0.12705,0.0361 -0.25155,0.0752 -0.3735,0.11717 -0.69263,0.23841 -1.30304,0.56332 -1.83505,0.91463 0.0521,-0.36748 0.0598,-0.74034 0.0199,-1.15606 -0.005,-0.0232 -0.005,-0.0418 -0.005,-0.0649 -0.0557,-0.55213 -0.17167,-1.01611 -0.36655,-1.48474 -0.20879,-0.48717 -0.44078,-0.83052 -0.74701,-1.095 -0.27752,-0.23967 -0.53973,-0.34972 -0.82821,-0.34755 -0.0298,0 -0.06,10e-4 -0.0905,0.004 -0.32479,0.0278 -0.5939,0.18557 -0.84909,0.49645 -0.25519,0.31086 -0.42222,0.69597 -0.54285,1.20633 -0.12064,0.51039 -0.15312,1.0115 -0.10209,1.58683 0,0.0232 0.005,0.0418 0.005,0.0649 0.0557,0.55678 0.16703,1.02075 0.36654,1.48939 0.20416,0.48254 0.44078,0.82588 0.74701,1.09034 0.0513,0.0443 0.10202,0.0841 0.15253,0.11963 -0.31852,0.24514 -0.47062,0.35816 -0.73164,0.54996 -0.16741,0.12284 -0.36679,0.2691 -0.59852,0.43991 -0.50538,-0.47342 -0.89964,-1.06843 -1.24435,-1.85186 -0.40831,-0.92796 -0.62638,-1.85593 -0.69134,-2.95093 l 0,-0.009 c -0.0603,-1.09498 0.0464,-2.03688 0.34799,-3.01123 0.30159,-0.97437 0.70526,-1.67961 1.28987,-2.25961 0.58462,-0.57996 1.17387,-0.87227 1.88377,-0.90938 0.0555,-0.003 0.11042,-0.004 0.16485,-0.004 z m 6.02756,7.59668 c 1.493,-0.006 3.28963,0.48371 5.46468,1.88218 1.33603,0.86881 2.37561,0.94142 4.76945,1.96669 l 0.003,10e-4 0.003,0.001 c 1.15178,0.47257 1.82781,1.08854 2.1581,1.73716 0.33029,0.64865 0.33836,1.35204 0.0619,2.09198 -0.55289,1.47993 -2.3177,3.03739 -4.79424,3.81075 l -0.002,10e-4 -0.002,0.001 c -1.20754,0.39233 -2.26052,1.25872 -3.5019,1.96858 -1.24134,0.70983 -2.64602,1.28234 -4.556,1.17185 0,-10e-6 0,0 0,0 -1.626,-0.0948 -2.59796,-0.64677 -3.47682,-1.35309 -0.87887,-0.70633 -1.64474,-1.59368 -2.7662,-2.2522 l -0.003,-0.002 -0.003,-0.002 c -1.80642,-1.02101 -2.79263,-2.20192 -3.10215,-3.22568 -0.30953,-1.02376 -0.019,-1.89762 0.87721,-2.56931 1.00765,-0.75515 1.70762,-1.26883 2.17389,-1.61102 0.4632,-0.33989 0.65591,-0.46734 0.80342,-0.60898 7.1e-4,-10e-4 10e-4,-10e-4 0.002,-0.002 0,0 7e-4,-10e-4 7e-4,-10e-4 0.75713,-0.71666 1.96404,-2.02235 3.78333,-2.64859 0.62617,-0.21555 1.32487,-0.35462 2.10692,-0.35771 z m 10.44016,6.17459 c -0.64428,0.0385 -1.31904,0.37013 -2.10473,0.80877 -0.78569,0.43864 -1.66922,0.99975 -2.62672,1.55231 -1.91499,1.10512 -4.1194,2.16201 -6.31015,2.16201 -2.19414,0 -3.94715,-1.01335 -5.26198,-2.05529 -0.65742,-0.52098 -1.20001,-1.04574 -1.63351,-1.45168 -0.21674,-0.20299 -0.40471,-0.37598 -0.58012,-0.51111 -0.17537,-0.13513 -0.31812,-0.26911 -0.61158,-0.26911 l -0.014,0.61666 c -0.021,0.20634 -0.0426,0.19998 -0.0341,0.2056 0.0137,0.009 0.0818,0.0324 0.16123,0.0937 0.12896,0.0993 0.30795,0.26127 0.52039,0.46021 0.42488,0.39789 0.98945,0.94494 1.68454,1.49577 1.39018,1.10164 3.32352,2.23189 5.76917,2.23189 2.44907,0 4.76617,-1.14471 6.71846,-2.27134 0.97613,-0.56332 1.86269,-1.12563 2.61657,-1.5465 0.75383,-0.4209 1.38809,-0.68481 1.7553,-0.70671 l -0.0487,-0.81515 z m 2.17695,2.93076 c 1.62662,6.41208 5.40994,15.67357 7.84157,20.19335 1.29251,2.39797 3.86393,7.49281 4.97491,13.63119 0.70395,-0.0216 1.47909,0.0807 2.30917,0.29303 2.90472,-7.53039 -2.46317,-15.64163 -4.91777,-17.90055 -0.991,-0.9616 -1.03863,-1.39244 -0.54735,-1.37208 2.66314,2.3551 6.15926,7.09197 7.43124,12.43862 0.58,2.43798 0.70366,5.00098 0.0813,7.53042 0.30447,0.12648 0.6137,0.26401 0.92709,0.41236 4.66263,2.27046 6.38702,4.24481 5.55792,6.93942 -0.27307,-0.01 -0.54169,-0.008 -0.8037,-0.002 -0.0244,7.1e-4 -0.0487,10e-4 -0.0731,0.002 0.6752,-2.13594 -0.82059,-3.7113 -4.80641,-5.5147 -4.13408,-1.81881 -7.42835,-1.63785 -7.98512,2.0508 -0.0356,0.19325 -0.0643,0.39017 -0.0861,0.58984 -0.30885,0.10725 -0.6194,0.24419 -0.93072,0.41454 -1.94122,1.06218 -3.00076,2.98948 -3.59006,5.35332 -0.58881,2.36194 -0.75763,5.21738 -0.92013,8.42722 0,7.1e-4 0,0.001 0,0.002 -0.0993,1.61402 -0.76287,3.79702 -1.43588,6.10921 -6.77225,4.83075 -16.1715,6.92369 -24.15181,1.47747 -0.54083,-0.85554 -1.16123,-1.70321 -1.79983,-2.53925 -0.40779,-0.53393 -0.8267,-1.06454 -1.24317,-1.58774 0.81922,0 1.51556,-0.1335 2.07834,-0.3887 0.69986,-0.31734 1.19159,-0.82704 1.43487,-1.48142 0.48654,-1.30871 -0.002,-3.1549 -1.55971,-5.26315 -1.55748,-2.1081 -4.19529,-4.48729 -8.07139,-6.86444 0,0 -7.1e-4,0 -7.1e-4,-7.1e-4 -2.84761,-1.77161 -4.44015,-3.94306 -5.18557,-6.30072 -0.74549,-2.35787 -0.64096,-4.90748 -0.0664,-7.42472 1.10279,-4.83176 3.9363,-9.53103 5.74423,-12.48009 0.48675,-0.35815 0.17391,0.6648 -1.83026,4.38651 -1.79618,3.40269 -5.15414,11.25535 -0.55649,17.3851 0.12287,-4.36224 1.16464,-8.81118 2.91351,-12.97264 2.54739,-5.77434 7.87557,-15.78777 8.29875,-23.76861 0.21819,0.15844 0.96796,0.66433 1.30205,0.85432 7.1e-4,10e-4 0.001,10e-4 0.002,10e-4 0.97746,0.57561 1.71158,1.41702 2.66238,2.18115 0.95269,0.76564 2.14285,1.42695 3.94094,1.53172 l 0,0 c 2.09875,0.12145 3.6983,-0.5286 5.00883,-1.27799 1.30855,-0.74824 2.35391,-1.57633 3.3443,-1.89957 10e-4,-0.001 0.003,-0.001 0.004,-0.001 2.09276,-0.65444 3.75672,-1.81276 4.70361,-3.16377 z m 13.2922,36.70905 c 0.84765,-0.004 1.87448,0.27868 2.99848,0.78151 3.02515,1.39659 3.97168,2.59367 3.14579,4.35215 -0.69596,1.327 -3.67473,3.43811 -5.71625,2.88134 -2.08327,-0.53822 -3.0994,-3.54019 -2.76069,-5.80904 0.18142,-1.54072 1.05287,-2.19998 2.33267,-2.20596 z m -3.42274,4.14611 c 0.17101,2.77452 1.54372,5.60421 3.97139,6.21663 2.65664,0.69997 6.48697,-1.57946 8.10417,-3.43868 0.32247,-0.0129 0.63773,-0.0288 0.94391,-0.0361 1.41859,-0.0343 2.60841,0.0467 3.82408,1.10992 l 0.004,0.004 0.004,0.004 c 0.93421,0.79148 1.37827,2.28722 1.76342,3.96283 0.38512,1.67562 0.6931,3.50055 1.8481,4.80061 l 0.002,0.002 10e-4,0.002 c 2.22051,2.46408 2.93424,4.12963 2.8735,5.19266 -0.0608,1.0631 -0.83047,1.85228 -2.25176,2.70952 -2.84135,1.71376 -7.87582,3.20399 -11.09148,7.09905 -2.7922,3.32289 -6.19698,5.14787 -9.19553,5.38452 -2.99855,0.23665 -5.58559,-1.0079 -7.11081,-4.06913 l -0.004,-0.007 -0.004,-0.007 c -0.9462,-1.79994 -0.55204,-4.64049 0.24504,-7.63671 0.79709,-2.99621 1.9423,-6.07271 2.0956,-8.57322 l 0,-0.004 0,-0.004 c 0.16217,-3.20384 0.3415,-6.00174 0.87968,-8.16055 0.53819,-2.15881 1.38561,-3.62089 2.88713,-4.44248 0.0699,-0.0382 0.13933,-0.0743 0.20835,-0.10846 z m -48.7601,0.20937 c 0.22411,7.1e-4 0.46128,0.0196 0.71395,0.0579 1.69965,0.25747 3.18181,1.44584 4.6098,3.38271 1.428,1.9369 2.75673,4.58088 4.12263,7.51376 l 0.002,0.004 0.001,0.004 c 1.09763,2.29092 3.41383,4.80996 5.37667,7.37975 1.96283,2.56979 3.48194,5.14927 3.28412,7.12357 l -7.1e-4,0.009 -7.1e-4,0.009 c -0.2559,3.36725 -2.15534,5.20034 -5.07118,5.86634 -2.91497,0.66577 -6.86664,0.004 -10.81366,-2.06067 -10e-4,0 -0.002,0 -0.004,0 -4.36683,-2.31285 -9.5617,-2.08314 -12.89406,-2.77911 -1.66663,-0.3481 -2.75411,-0.87145 -3.25323,-1.8438 -0.49915,-0.9723 -0.5103,-2.66865 0.55039,-5.56105 l 0.005,-0.0129 0.004,-0.0129 c 0.52455,-1.61802 0.13635,-3.38841 -0.11832,-5.05013 -0.25467,-1.66172 -0.37922,-3.17319 0.1882,-4.22671 l 0.003,-0.005 0.003,-0.005 c 0.72648,-1.40037 1.79209,-1.90096 3.11462,-2.37543 1.32253,-0.47451 2.89076,-0.84715 4.12914,-2.08822 l 0.006,-0.006 0.006,-0.006 c 1.14484,-1.20773 2.00479,-2.72161 3.01124,-3.79609 0.84919,-0.90659 1.69901,-1.50745 2.97992,-1.51635 0.0148,0 0.0297,0 0.0447,0 z"
           style="font-size:medium;font-style:normal;font-variant:normal;font-weight:normal;font-stretch:normal;text-indent:0;text-align:start;text-decoration:none;line-height:normal;letter-spacing:normal;word-spacing:normal;text-transform:none;direction:ltr;block-progression:tb;writing-mode:lr-tb;text-anchor:start;baseline-shift:baseline;color:#000000;fill:#333333;fill-opacity:1;stroke:none;stroke-width:309;marker:none;visibility:visible;display:inline;overflow:visible;enable-background:accumulate;font-family:Bitstream Vera Sans;-inkscape-font-specification:Bitstream Vera Sans"
           inkscape:connector-curvature="0" />
      </g>
    </g>
  </g>
</svg>
