<?xml version="1.0" encoding="UTF-8" standalone="no"?>
<!-- Created with Inkscape (http://www.inkscape.org/) -->

<svg
   xmlns:dc="http://purl.org/dc/elements/1.1/"
   xmlns:cc="http://creativecommons.org/ns#"
   xmlns:rdf="http://www.w3.org/1999/02/22-rdf-syntax-ns#"
   xmlns:svg="http://www.w3.org/2000/svg"
   xmlns="http://www.w3.org/2000/svg"
   xmlns:xlink="http://www.w3.org/1999/xlink"
   xmlns:sodipodi="http://sodipodi.sourceforge.net/DTD/sodipodi-0.dtd"
   xmlns:inkscape="http://www.inkscape.org/namespaces/inkscape"
   width="125.14091"
   height="128.00313"
   id="svg2"
   sodipodi:version="0.32"
   inkscape:version="0.48.4 r9939"
   version="1.0"
   sodipodi:docname="switch_to_linux.choose_a_distribution.trisquel.svg"
   inkscape:output_extension="org.inkscape.output.svg.inkscape"
   inkscape:export-filename="/home/serrano/public_html/getgnulinux/images/TrisquelLogo.png"
   inkscape:export-xdpi="112.19353"
   inkscape:export-ydpi="112.19353"
   style="display:inline">
  <defs
     id="defs4">
    <inkscape:perspective
       sodipodi:type="inkscape:persp3d"
       inkscape:vp_x="0 : 526.18109 : 1"
       inkscape:vp_y="0 : 1000 : 0"
       inkscape:vp_z="744.09448 : 526.18109 : 1"
       inkscape:persp3d-origin="372.04724 : 350.78739 : 1"
       id="perspective10" />
    <inkscape:perspective
       id="perspective2390"
       inkscape:persp3d-origin="372.04724 : 350.78739 : 1"
       inkscape:vp_z="744.09448 : 526.18109 : 1"
       inkscape:vp_y="0 : 1000 : 0"
       inkscape:vp_x="0 : 526.18109 : 1"
       sodipodi:type="inkscape:persp3d" />
    <linearGradient
       y2="15.465387"
       x2="21.795116"
       y1="50.395214"
       x1="29.854376"
       gradientUnits="userSpaceOnUse"
       id="linearGradient3533"
       xlink:href="#linearGradient8112"
       inkscape:collect="always" />
    <linearGradient
       y2="2.4395995"
       x2="25.368185"
       y1="43.542542"
       x1="33.111675"
       gradientUnits="userSpaceOnUse"
       id="linearGradient3531"
       xlink:href="#linearGradient8112"
       inkscape:collect="always" />
    <inkscape:perspective
       sodipodi:type="inkscape:persp3d"
       inkscape:vp_x="0 : 24 : 1"
       inkscape:vp_y="0 : 1000 : 0"
       inkscape:vp_z="48 : 24 : 1"
       inkscape:persp3d-origin="24 : 16 : 1"
       id="perspective2671" />
    <linearGradient
       inkscape:collect="always"
       id="linearGradient8112">
      <stop
         style="stop-color: rgb(255, 255, 255); stop-opacity: 1;"
         offset="0"
         id="stop8114" />
      <stop
         style="stop-color: rgb(255, 255, 255); stop-opacity: 0;"
         offset="1"
         id="stop8116" />
    </linearGradient>
    <linearGradient
       id="linearGradient7108">
      <stop
         style="stop-color: rgb(0, 0, 0); stop-opacity: 1;"
         offset="0"
         id="stop7110" />
      <stop
         style="stop-color: rgb(255, 255, 255); stop-opacity: 1;"
         offset="1"
         id="stop7112" />
    </linearGradient>
    <linearGradient
       id="linearGradient7100">
      <stop
         style="stop-color: rgb(0, 0, 0); stop-opacity: 1;"
         offset="0"
         id="stop7102" />
      <stop
         style="stop-color: rgb(255, 255, 255); stop-opacity: 1;"
         offset="1"
         id="stop7104" />
    </linearGradient>
    <linearGradient
       id="linearGradient2804">
      <stop
         style="stop-color: black; stop-opacity: 0;"
         offset="0"
         id="stop2806" />
      <stop
         id="stop2812"
         offset="0.5"
         style="stop-color: black; stop-opacity: 1;" />
      <stop
         style="stop-color: black; stop-opacity: 0;"
         offset="1"
         id="stop2808" />
    </linearGradient>
    <linearGradient
       inkscape:collect="always"
       id="linearGradient2781">
      <stop
         style="stop-color: black; stop-opacity: 1;"
         offset="0"
         id="stop2783" />
      <stop
         style="stop-color: black; stop-opacity: 0;"
         offset="1"
         id="stop2785" />
    </linearGradient>
    <linearGradient
       inkscape:collect="always"
       id="linearGradient2782">
      <stop
         style="stop-color: white; stop-opacity: 1;"
         offset="0"
         id="stop2784" />
      <stop
         style="stop-color: white; stop-opacity: 0;"
         offset="1"
         id="stop2786" />
    </linearGradient>
    <linearGradient
       id="linearGradient5106">
      <stop
         style="stop-color: rgb(114, 159, 207); stop-opacity: 1;"
         offset="0"
         id="stop5108" />
      <stop
         style="stop-color: rgb(56, 110, 166); stop-opacity: 1;"
         offset="1"
         id="stop5110" />
    </linearGradient>
    <linearGradient
       inkscape:collect="always"
       xlink:href="#linearGradient5106"
       id="linearGradient2780"
       gradientUnits="userSpaceOnUse"
       gradientTransform="matrix(3.13717,0,0,3.18412,-1.60668,-4.86106)"
       x1="8.1771841"
       y1="5.7791729"
       x2="8.1771841"
       y2="15.676654" />
    <linearGradient
       inkscape:collect="always"
       xlink:href="#linearGradient2782"
       id="linearGradient2788"
       x1="26.0625"
       y1="23.265625"
       x2="29.03125"
       y2="55.265625"
       gradientUnits="userSpaceOnUse" />
    <radialGradient
       inkscape:collect="always"
       xlink:href="#linearGradient2781"
       id="radialGradient2827"
       gradientUnits="userSpaceOnUse"
       gradientTransform="matrix(2,0,0,0.8,-13,-79.2)"
       cx="1"
       cy="44"
       fx="1"
       fy="44"
       r="5" />
    <radialGradient
       inkscape:collect="always"
       xlink:href="#linearGradient2781"
       id="radialGradient2829"
       gradientUnits="userSpaceOnUse"
       gradientTransform="matrix(2,0,0,0.8,36,8.8)"
       cx="1"
       cy="44"
       fx="1"
       fy="44"
       r="5" />
    <linearGradient
       inkscape:collect="always"
       xlink:href="#linearGradient2804"
       id="linearGradient2831"
       gradientUnits="userSpaceOnUse"
       x1="21.875"
       y1="48.000977"
       x2="21.875"
       y2="40" />
    <linearGradient
       inkscape:collect="always"
       xlink:href="#linearGradient5106"
       id="linearGradient8141"
       gradientUnits="userSpaceOnUse"
       gradientTransform="matrix(3.30877,0,0,3.35829,-5.96997,-6.33588)"
       x1="8.1771841"
       y1="5.7791729"
       x2="8.1771841"
       y2="15.676654" />
    <linearGradient
       inkscape:collect="always"
       xlink:href="#linearGradient2782"
       id="linearGradient15953"
       x1="77.297218"
       y1="16.647184"
       x2="77.480881"
       y2="52.45615"
       gradientUnits="userSpaceOnUse"
       gradientTransform="translate(-0.860148,-1.86342)" />
    <radialGradient
       inkscape:collect="always"
       xlink:href="#linearGradient2781"
       id="radialGradient19858"
       cx="73.570084"
       cy="23.145077"
       fx="73.570084"
       fy="23.145077"
       r="20.928947"
       gradientTransform="matrix(1,0,0,0.988712,-0.422072,11.2351)"
       gradientUnits="userSpaceOnUse" />
    <radialGradient
       inkscape:collect="always"
       xlink:href="#linearGradient2781"
       id="radialGradient19868"
       gradientUnits="userSpaceOnUse"
       gradientTransform="matrix(2,0,0,0.8,-25.2401,-80.9291)"
       cx="1"
       cy="44"
       fx="1"
       fy="44"
       r="5" />
    <radialGradient
       inkscape:collect="always"
       xlink:href="#linearGradient2781"
       id="radialGradient19870"
       gradientUnits="userSpaceOnUse"
       gradientTransform="matrix(2,0,0,0.8,21.2275,10.5291)"
       cx="1"
       cy="44"
       fx="1"
       fy="44"
       r="5" />
    <linearGradient
       inkscape:collect="always"
       xlink:href="#linearGradient2804"
       id="linearGradient19872"
       gradientUnits="userSpaceOnUse"
       x1="21.875"
       y1="48.000977"
       x2="21.875"
       y2="40"
       gradientTransform="matrix(1,0,0,0.148144,0,40.8891)" />
    <linearGradient
       inkscape:collect="always"
       xlink:href="#linearGradient8112"
       id="linearGradient8118"
       x1="33.111675"
       y1="43.542542"
       x2="25.368185"
       y2="2.4395995"
       gradientUnits="userSpaceOnUse" />
    <linearGradient
       inkscape:collect="always"
       xlink:href="#linearGradient8112"
       id="linearGradient8126"
       x1="29.854376"
       y1="50.395214"
       x2="21.795116"
       y2="15.465387"
       gradientUnits="userSpaceOnUse" />
    <inkscape:perspective
       sodipodi:type="inkscape:persp3d"
       inkscape:vp_x="0 : 526.18109 : 1"
       inkscape:vp_y="0 : 1000 : 0"
       inkscape:vp_z="744.09448 : 526.18109 : 1"
       inkscape:persp3d-origin="372.04724 : 350.78739 : 1"
       id="perspective2466" />
    <inkscape:perspective
       sodipodi:type="inkscape:persp3d"
       inkscape:vp_x="0 : 526.18109 : 1"
       inkscape:vp_y="0 : 1000 : 0"
       inkscape:vp_z="744.09448 : 526.18109 : 1"
       inkscape:persp3d-origin="372.04724 : 350.78739 : 1"
       id="perspective2494" />
    <linearGradient
       y2="-863.40924"
       x2="1178.7058"
       y1="-863.40924"
       x1="-9.0727692"
       gradientUnits="userSpaceOnUse"
       id="linearGradient3234"
       xlink:href="#linearGradient3328"
       inkscape:collect="always" />
    <inkscape:perspective
       sodipodi:type="inkscape:persp3d"
       inkscape:vp_x="0 : 526.18109 : 1"
       inkscape:vp_y="0 : 1000 : 0"
       inkscape:vp_z="744.09448 : 526.18109 : 1"
       inkscape:persp3d-origin="372.04724 : 350.78739 : 1"
       id="perspective3203" />
    <inkscape:perspective
       sodipodi:type="inkscape:persp3d"
       inkscape:vp_x="0 : 526.18109 : 1"
       inkscape:vp_y="0 : 1000 : 0"
       inkscape:vp_z="744.09448 : 526.18109 : 1"
       inkscape:persp3d-origin="372.04724 : 350.78739 : 1"
       id="perspective2492" />
    <inkscape:perspective
       sodipodi:type="inkscape:persp3d"
       inkscape:vp_x="0 : 526.18109 : 1"
       inkscape:vp_y="0 : 1000 : 0"
       inkscape:vp_z="744.09448 : 526.18109 : 1"
       inkscape:persp3d-origin="372.04724 : 350.78739 : 1"
       id="perspective3317" />
    <inkscape:perspective
       sodipodi:type="inkscape:persp3d"
       inkscape:vp_x="0 : 526.18109 : 1"
       inkscape:vp_y="0 : 1000 : 0"
       inkscape:vp_z="744.09448 : 526.18109 : 1"
       inkscape:persp3d-origin="372.04724 : 350.78739 : 1"
       id="perspective3266" />
    <inkscape:perspective
       sodipodi:type="inkscape:persp3d"
       inkscape:vp_x="0 : 526.18109 : 1"
       inkscape:vp_y="0 : 1000 : 0"
       inkscape:vp_z="744.09448 : 526.18109 : 1"
       inkscape:persp3d-origin="372.04724 : 350.78739 : 1"
       id="perspective2535" />
    <inkscape:perspective
       sodipodi:type="inkscape:persp3d"
       inkscape:vp_x="0 : 526.18109 : 1"
       inkscape:vp_y="0 : 1000 : 0"
       inkscape:vp_z="744.09448 : 526.18109 : 1"
       inkscape:persp3d-origin="372.04724 : 350.78739 : 1"
       id="perspective2482" />
    <inkscape:perspective
       sodipodi:type="inkscape:persp3d"
       inkscape:vp_x="0 : 526.18109 : 1"
       inkscape:vp_y="0 : 1000 : 0"
       inkscape:vp_z="744.09448 : 526.18109 : 1"
       inkscape:persp3d-origin="372.04724 : 350.78739 : 1"
       id="perspective2420" />
    <radialGradient
       gradientUnits="userSpaceOnUse"
       gradientTransform="matrix(1,0,0,0.619926,0,214.699)"
       r="194.26131"
       fy="564.88666"
       fx="855.17987"
       cy="564.88666"
       cx="855.17987"
       id="radialGradient3403"
       xlink:href="#linearGradient3397"
       inkscape:collect="always" />
    <linearGradient
       spreadMethod="reflect"
       gradientUnits="userSpaceOnUse"
       y2="414.10834"
       x2="757.67969"
       y1="414.10834"
       x1="666.64209"
       id="linearGradient3325"
       xlink:href="#linearGradient3317"
       inkscape:collect="always" />
    <radialGradient
       r="124.72867"
       fy="407.18372"
       fx="184.9425"
       cy="407.18372"
       cx="184.9425"
       gradientTransform="matrix(1,0,0,3.8046,0,-1141.99)"
       gradientUnits="userSpaceOnUse"
       id="radialGradient3295"
       xlink:href="#linearGradient3297"
       inkscape:collect="always" />
    <radialGradient
       gradientUnits="userSpaceOnUse"
       gradientTransform="matrix(1,0,0,3.8046,0,-1141.99)"
       r="124.72867"
       fy="407.18372"
       fx="184.9425"
       cy="407.18372"
       cx="184.9425"
       id="radialGradient3271"
       xlink:href="#linearGradient3263"
       inkscape:collect="always" />
    <inkscape:perspective
       id="perspective2938"
       inkscape:persp3d-origin="372.04724 : 350.78739 : 1"
       inkscape:vp_z="744.09448 : 526.18109 : 1"
       inkscape:vp_y="0 : 1000 : 0"
       inkscape:vp_x="0 : 526.18109 : 1"
       sodipodi:type="inkscape:persp3d" />
    <linearGradient
       id="linearGradient3175">
      <stop
         id="stop3177"
         offset="0"
         style="stop-color: rgb(0, 69, 0); stop-opacity: 1;" />
      <stop
         style="stop-color: rgb(56, 127, 0); stop-opacity: 1;"
         offset="0.5"
         id="stop3433" />
      <stop
         id="stop3179"
         offset="1"
         style="stop-color: rgb(155, 199, 0); stop-opacity: 1;" />
    </linearGradient>
    <linearGradient
       id="linearGradient3263"
       inkscape:collect="always">
      <stop
         id="stop3265"
         offset="0"
         style="stop-color: rgb(255, 243, 0); stop-opacity: 1;" />
      <stop
         id="stop3267"
         offset="1"
         style="stop-color: rgb(255, 243, 0); stop-opacity: 0;" />
    </linearGradient>
    <linearGradient
       id="linearGradient3297">
      <stop
         style="stop-color: rgb(0, 0, 0); stop-opacity: 0.431507;"
         offset="0"
         id="stop3299" />
      <stop
         style="stop-color: rgb(255, 243, 0); stop-opacity: 0;"
         offset="1"
         id="stop3301" />
    </linearGradient>
    <linearGradient
       id="linearGradient3307">
      <stop
         id="stop3309"
         offset="0"
         style="stop-color: rgb(0, 149, 255); stop-opacity: 1;" />
      <stop
         id="stop3311"
         offset="1"
         style="stop-color: rgb(19, 62, 88); stop-opacity: 0;" />
    </linearGradient>
    <linearGradient
       id="linearGradient3317">
      <stop
         id="stop3319"
         offset="0"
         style="stop-color: rgb(218, 255, 0); stop-opacity: 0.603922;" />
      <stop
         id="stop3321"
         offset="1"
         style="stop-color: rgb(255, 243, 0); stop-opacity: 0;" />
    </linearGradient>
    <linearGradient
       id="linearGradient3349">
      <stop
         id="stop3351"
         offset="0"
         style="stop-color: rgb(19, 107, 6); stop-opacity: 1;" />
      <stop
         id="stop3353"
         offset="1"
         style="stop-color: rgb(0, 0, 0); stop-opacity: 0;" />
    </linearGradient>
    <linearGradient
       id="linearGradient3397">
      <stop
         id="stop3399"
         offset="0"
         style="stop-color: rgb(33, 92, 33); stop-opacity: 1;" />
      <stop
         id="stop3401"
         offset="1"
         style="stop-color: rgb(33, 92, 33); stop-opacity: 0;" />
    </linearGradient>
    <linearGradient
       id="linearGradient3328">
      <stop
         style="stop-color: rgb(25, 55, 127); stop-opacity: 1;"
         offset="0"
         id="stop3330" />
      <stop
         id="stop3332"
         offset="0.5"
         style="stop-color: rgb(51, 101, 162); stop-opacity: 1;" />
      <stop
         style="stop-color: rgb(93, 157, 203); stop-opacity: 1;"
         offset="1"
         id="stop3334" />
    </linearGradient>
    <filter
       height="1.20925"
       y="-0.104625"
       width="1.0572767"
       x="-0.028638335"
       id="filter3490"
       inkscape:collect="always"
       color-interpolation-filters="sRGB">
      <feGaussianBlur
         id="feGaussianBlur3492"
         stdDeviation="1.4251155"
         inkscape:collect="always" />
    </filter>
  </defs>
  <sodipodi:namedview
     id="base"
     pagecolor="#ffffff"
     bordercolor="#666666"
     borderopacity="1.0"
     inkscape:pageopacity="0.0"
     inkscape:pageshadow="2"
     inkscape:zoom="1"
     inkscape:cx="-42.232252"
     inkscape:cy="7.6093961"
     inkscape:document-units="px"
     inkscape:current-layer="layer1"
     showgrid="false"
     inkscape:window-width="1920"
     inkscape:window-height="1029"
     inkscape:window-x="0"
     inkscape:window-y="25"
     fit-margin-left="5"
     fit-margin-top="5"
     fit-margin-right="5"
     fit-margin-bottom="5"
     inkscape:window-maximized="1" />
  <metadata
     id="metadata7">
    <rdf:RDF>
      <cc:Work
         rdf:about="">
        <dc:format>image/svg+xml</dc:format>
        <dc:type
           rdf:resource="http://purl.org/dc/dcmitype/StillImage" />
        <dc:title></dc:title>
      </cc:Work>
    </rdf:RDF>
  </metadata>
  <g
     inkscape:label="layer 1"
     inkscape:groupmode="layer"
     id="layer1"
     style="display:inline"
     transform="translate(2.7677473,4.3937162)">
    <g
       style="display:inline"
       id="g2996"
       transform="matrix(0.4719459,0,0,0.4549383,-2.5995727,-12.178716)">
      <g
         transform="matrix(4.17736,0,0,4.17736,28.3674,21.0493)"
         id="g2712"
         inkscape:label="Layer 1">
        <path
           style="opacity:0.50211002;fill:none;stroke:#002568;stroke-width:1.5;stroke-linecap:butt;stroke-linejoin:round;stroke-miterlimit:4;stroke-opacity:1;stroke-dasharray:none;stroke-dashoffset:0;marker:none;visibility:visible;display:inline;overflow:visible"
           d="M 27.865252,43.710325 C 26.7523,43.559574 25.528128,43.260721 24.984834,43.007141 23.729072,42.421025 22.527464,41.588657 22.099265,41.008269 21.987069,40.856188 21.708587,40.584686 21.48041,40.40493 20.573319,39.6903 20.043433,38.937914 18.962163,36.829248 c -0.122848,-0.239579 -0.506672,-2.179445 -0.647948,-3.274782 -0.111637,-0.865575 -0.102664,-2.594916 0.01758,-3.386468 0.149209,-0.98217 0.453987,-2.273875 0.601636,-2.549743 0.124252,-0.232181 0.432997,-1.232238 0.528963,-1.713436 0.03626,-0.181798 0.117594,-0.394288 0.180747,-0.472201 0.06314,-0.07791 0.193466,-0.417897 0.289601,-0.75552 0.09614,-0.337624 0.320229,-0.908117 0.497998,-1.267764 0.39813,-0.805485 0.585236,-1.405639 0.586576,-1.881444 5.72e-4,-0.199774 0.07085,-0.603415 0.156193,-0.896979 0.208969,-0.718813 0.128414,-2.742869 -0.139637,-3.509021 -0.203585,-0.581868 -0.70075,-1.559055 -1.223132,-2.404076 -1.082337,-1.750835 -4.176002,-3.904982 -6.017066,-4.189741 -0.705743,-0.109157 -3.041579,0.01163 -4.0456496,0.209202 -0.8596218,0.169148 -1.6693288,0.545347 -2.0844308,0.968451 -1.064728,1.085229 -1.686977,1.818373 -1.932139,2.276456 -0.353639,0.660795 -0.572934,1.674412 -0.633109,2.926421 -0.068369,1.422819 -0.00892,1.720251 0.622093,3.111916 0.532527,1.174452 1.964614,2.360996 3.5401098,2.933118 0.735408,0.267055 1.0154246,0.316591 2.0776806,0.367548 1.464913,0.07027 2.089269,-0.03592 2.745892,-0.467019 0.255787,-0.167938 0.656323,-0.417662 0.890054,-0.554942 1.066912,-0.626613 1.624162,-1.808353 1.619623,-3.43469 -0.0028,-1.008064 -0.362054,-1.918894 -0.970856,-2.461533 -0.37857,-0.337431 -1.714223,-1.14108 -2.102339,-1.264958 -0.676183,-0.215821 -1.548497,-0.07892 -2.479336,0.389098 -0.453142,0.227836 -0.904412,0.524499 -1.002835,0.659251 -0.098411,0.134753 -0.3213076,0.62348 -0.4953056,1.086061 -0.17401,0.462582 -0.351272,0.841058 -0.393916,0.841058 -0.1691988,0 -0.1258128,-0.733634 0.076692,-1.297072 0.289692,-0.805976 0.580633,-1.225328 1.1544376,-1.663906 0.646855,-0.494424 1.281057,-0.738891 2.13839,-0.824292 1.114694,-0.111037 1.289276,-0.0798 2.253447,0.403159 1.121717,0.561869 1.460725,0.893284 2.014489,1.969346 0.661031,1.284493 0.742002,1.637979 0.595446,2.599448 -0.166559,1.092661 -0.541045,2.196775 -0.976968,2.880396 -0.397467,0.623316 -1.138468,1.191123 -2.469803,1.892539 -0.954847,0.503057 -1.280875,0.590881 -2.54989,0.686862 -1.3887396,0.105038 -2.1983176,0.01486 -3.2581804,-0.362922 -0.467474,-0.166631 -1.048888,-0.359869 -1.292021,-0.429414 -0.324078,-0.09271 -0.743342,-0.380392 -1.5711,-1.078071 -1.420669,-1.197412 -1.648937,-1.58457 -1.925052,-3.265031 -0.102416,-0.623305 -0.199605,-1.438669 -0.215978,-1.81192 -0.016374,-0.373251 -0.056261,-0.721519 -0.088657,-0.77393 -0.067758,-0.109626 0.089476,-2.008475 0.247269,-2.986115 0.130078,-0.805955 0.189578,-0.928503 1.119207,-2.305166 0.551709,-0.816991 0.914464,-1.240149 1.430032,-1.668144 1.667053,-1.3838699 2.756153,-1.9576709 4.6493404,-2.4495299 1.312647,-0.341033 1.316094,-0.341384 2.92764,-0.298571 1.704327,0.045279 2.611509,0.151723 3.224147,0.378307 4.142982,1.532264 5.77721,2.8737519 7.899863,6.4847629 0.678784,1.154732 1.32681,1.980197 2.498103,3.182101 0.861936,0.884467 1.137778,1.106289 1.688252,1.357648 0.887192,0.405115 1.925051,0.552633 3.916456,0.556667 1.896492,0.0038 2.614135,-0.139766 3.440892,-0.688564 0.262941,-0.174537 0.690033,-0.411069 0.949098,-0.525627 0.259065,-0.114558 0.556547,-0.285163 0.661083,-0.379121 0.104524,-0.09396 0.42379,-0.29356 0.709476,-0.443556 0.656025,-0.344449 1.42167,-1.111788 1.70127,-1.705038 0.336733,-0.714501 0.851858,-1.5632 1.137401,-1.873931 0.19465,-0.211812 0.284347,-0.441122 0.355382,-0.908554 0.05227,-0.343878 0.184168,-0.799976 0.293126,-1.013551 0.273812,-0.536709 0.366423,-1.670696 0.167807,-2.0547719 -0.08092,-0.156472 -0.208033,-0.607085 -0.282475,-1.001359 -0.26428,-1.399635 -1.648911,-3.032054 -3.237932,-3.817395 -0.576328,-0.284837 -0.820749,-0.345481 -1.721103,-0.427039 -1.871158,-0.169496 -3.240937,0.119258 -4.319905,0.910652 -1.019652,0.747887 -1.459893,1.116824 -1.459893,1.223432 0,0.111678 -0.469815,0.660474 -0.619492,0.723625 -0.207343,0.087491 -0.60823,0.753695 -0.60823,1.010791 0,0.152688 -0.08309,0.46544 -0.184636,0.695004 -0.387219,0.875382 -0.319331,1.5844019 0.292423,3.0536849 0.348021,0.835859 0.454625,1.030992 0.799707,1.463822 0.462636,0.580263 0.949006,0.849182 1.810527,1.001052 1.002484,0.176716 1.504409,0.163963 2.138936,-0.05435 1.254578,-0.431636 2.127986,-1.167898 2.579476,-2.174427 0.203116,-0.452821 0.228125,-0.622633 0.19504,-1.324403 -0.03327,-0.705395 -0.07787,-0.874807 -0.36061,-1.3693809 -0.17747,-0.310419 -0.487606,-0.743524 -0.689214,-0.962456 -0.201607,-0.218932 -0.351792,-0.442358 -0.333741,-0.496504 0.05236,-0.157084 1.002173,0.535564 1.302022,0.9495 0.459866,0.634827 0.607619,1.2723869 0.540226,2.3312079 -0.07399,1.162432 -0.391277,1.84193 -1.288705,2.759812 -0.6924,0.708178 -1.388012,1.04873 -2.548705,1.247767 -0.944703,0.161997 -2.14423,-0.05862 -2.901643,-0.533675 -0.918197,-0.575899 -1.49026,-1.166179 -2.011953,-2.076003 -0.428575,-0.747453 -0.50913,-0.978697 -0.70733,-2.030505 -0.236123,-1.2530869 -0.235655,-2.2758099 0.0012,-2.5562829 0.06579,-0.077913 0.16964,-0.386449 0.230778,-0.685635 0.06114,-0.299187 0.206576,-0.66042 0.323207,-0.802741 0.116631,-0.142321 0.348424,-0.545355 0.515112,-0.895632 0.245201,-0.515299 0.374669,-0.673404 0.678237,-0.82827 0.206342,-0.105273 0.375176,-0.233726 0.375176,-0.285453 0,-0.051727 0.145438,-0.163399 0.323181,-0.248163 0.177756,-0.084764 0.343924,-0.23342 0.369271,-0.33035 0.02719,-0.104005 0.272122,-0.275367 0.597605,-0.418114 0.303348,-0.133034 0.782825,-0.350242 1.065534,-0.482682 0.282695,-0.132442 1.068915,-0.378033 1.747139,-0.54576 1.172477,-0.289958 1.288887,-0.301648 2.366412,-0.237649 1.082076,0.064269 1.158417,0.082714 1.689357,0.408196 0.305831,0.187487 0.709567,0.39059 0.897181,0.451342 0.187613,0.060751 0.673373,0.348973 1.079475,0.640493 0.406102,0.291518 0.880443,0.615966 1.05409,0.720994 0.173646,0.105026 0.596005,0.478229 0.938589,0.829339 0.710972,0.728694 1.456979,2.087381 1.702441,3.100622 0.08009,0.330595 0.230414,0.89857 0.334053,1.262165 0.161226,0.5656749 0.180214,0.8314469 0.131496,1.8415809 -0.151706,3.146102 -1.22161,5.567566 -3.293556,7.45422 -0.259702,0.236482 -0.780771,0.736675 -1.157923,1.111537 -0.763188,0.758554 -1.673803,1.385104 -2.808551,1.932441 -0.415544,0.200429 -0.991651,0.488337 -1.280264,0.639797 -0.882082,0.462918 -2.231143,0.667017 -4.408861,0.667017 -2.130041,0 -2.366541,0.03229 -4.811777,0.656928 -0.874734,0.223454 -1.162007,0.344996 -1.666858,0.705255 -0.853783,0.609246 -1.838853,1.878368 -2.607841,3.359822 -0.121326,0.233738 -0.296559,0.509976 -0.389404,0.61386 -0.307743,0.344362 -0.545622,1.050579 -0.562113,1.668854 -0.04061,1.522775 0.02199,4.223809 0.105798,4.564192 0.129961,0.52783 0.372041,1.083044 0.617659,1.416601 0.318498,0.432516 0.85083,1.405096 0.975004,1.781347 0.06667,0.201978 0.290615,0.486616 0.560969,0.712969 0.247503,0.207223 0.571854,0.552596 0.720777,0.767493 0.323675,0.467057 1.494097,1.101649 2.195288,1.190266 0.245591,0.03104 0.533229,0.11023 0.639196,0.17598 0.105967,0.06575 0.424699,0.167593 0.708305,0.226311 0.614915,0.127318 2.007063,-0.04731 2.810307,-0.352512 0.493809,-0.187634 1.658821,-0.868541 2.279159,-1.332082 0.464938,-0.347422 1.098398,-1.246947 1.284607,-1.824145 0.08794,-0.272617 0.211856,-0.580662 0.275347,-0.684547 0.327083,-0.535104 0.403918,-1.623506 0.247673,-3.508243 -0.05986,-0.72207 -0.137141,-1.071344 -0.31344,-1.416601 -0.128687,-0.252032 -0.332311,-0.663088 -0.452492,-0.913457 -0.367893,-0.766429 -2.139157,-2.048525 -2.850402,-2.063216 -0.118387,-0.0024 -0.50026,-0.06373 -0.848619,-0.136195 -0.668913,-0.139143 -1.645348,-0.06897 -2.049434,0.147286 -0.496788,0.265876 -1.131276,0.741153 -1.537547,1.151733 -0.361013,0.364849 -0.487359,0.588679 -0.684441,1.212552 -0.226239,0.71615 -0.236279,0.827567 -0.156934,1.741309 0.09698,1.116812 0.287338,1.633487 0.818447,2.22136 0.423607,0.468885 0.784451,0.665839 1.740481,0.94999 0.694273,0.206351 1.350648,0.21983 1.959762,0.04024 0.357697,-0.10546 0.235955,0.108997 -0.164347,0.289507 -0.565443,0.25498 -1.90107,0.157481 -2.782593,-0.203122 -0.881743,-0.360696 -1.649691,-1.072512 -2.058433,-1.90798 -0.294309,-0.601567 -0.306872,-0.673645 -0.306872,-1.760529 0,-1.080888 0.01347,-1.159477 0.291474,-1.699921 0.160303,-0.311653 0.389494,-0.757768 0.509299,-0.991369 0.119804,-0.2336 0.4675,-0.665268 0.772642,-0.959261 0.450424,-0.43394 0.692257,-0.582077 1.285063,-0.787168 1.631861,-0.564563 3.617985,-0.418169 4.838386,0.356626 1.11602,0.708525 2.094406,1.532797 2.466616,2.078083 0.683739,1.001676 1.178017,2.185864 1.249949,2.994632 0.03466,0.389566 0.101532,1.08124 0.148624,1.537054 0.08071,0.781387 0.06696,0.902835 -0.240727,2.124902 -0.480506,1.90851 -0.743342,2.415861 -1.67669,3.236431 -0.421995,0.371016 -0.925455,0.755835 -1.118791,0.855156 -0.193349,0.09932 -0.490831,0.300449 -0.661083,0.446952 -0.461622,0.397213 -1.337604,0.865753 -1.618609,0.865753 -0.13597,0 -0.513279,0.101392 -0.838475,0.225315 -0.642382,0.244807 -1.834756,0.537131 -2.115787,0.518715 -0.09646,-0.0063 -0.55786,-0.0633 -1.025334,-0.12662 z"
           id="path12028"
           inkscape:connector-curvature="0" />
        <path
           style="fill:#004db1;fill-opacity:1;fill-rule:nonzero;stroke:none;stroke-width:1;marker:none;visibility:visible;display:inline;overflow:visible"
           d="M 27.865254,43.710325 C 26.752302,43.559574 25.52813,43.260721 24.984836,43.007141 23.729074,42.421025 22.527466,41.588657 22.099267,41.008269 21.987071,40.856188 21.708589,40.584686 21.480412,40.40493 20.573321,39.6903 20.043435,38.937914 18.962165,36.829248 18.839317,36.589669 18.455493,34.649803 18.314217,33.554466 18.20258,32.688891 18.211553,30.95955 18.3318,30.167998 c 0.149209,-0.98217 0.453987,-2.273875 0.601636,-2.549743 0.124252,-0.232181 0.432997,-1.232238 0.528963,-1.713436 0.03626,-0.181798 0.117594,-0.394288 0.180747,-0.472201 0.06314,-0.07791 0.193466,-0.417897 0.289601,-0.75552 0.09614,-0.337624 0.320229,-0.908117 0.497998,-1.267764 0.39813,-0.805485 0.585236,-1.405639 0.586576,-1.881444 5.72e-4,-0.199774 0.07085,-0.603415 0.156193,-0.896979 0.208969,-0.718813 0.128414,-2.742869 -0.139637,-3.509021 -0.203585,-0.581868 -0.70075,-1.559055 -1.223132,-2.404076 -1.082337,-1.750836 -4.176002,-3.904983 -6.017066,-4.189742 -0.705743,-0.109157 -3.041579,0.01163 -4.0456496,0.209202 -0.8596218,0.169148 -1.6693288,0.545347 -2.0844308,0.968451 -1.064728,1.085229 -1.686977,1.818373 -1.932139,2.276457 -0.353639,0.660795 -0.572934,1.674412 -0.633109,2.926421 -0.068369,1.422819 -0.00892,1.720251 0.622093,3.111916 0.532527,1.174452 1.964614,2.360996 3.5401098,2.933118 0.735408,0.267055 1.0154246,0.316591 2.0776806,0.367548 1.464913,0.07027 2.089269,-0.03592 2.745892,-0.467019 0.255787,-0.167938 0.656323,-0.417662 0.890054,-0.554942 1.066912,-0.626613 1.624162,-1.808353 1.619623,-3.43469 -0.0028,-1.008064 -0.362054,-1.918894 -0.970856,-2.461533 -0.37857,-0.337431 -1.714223,-1.14108 -2.102339,-1.264958 -0.676183,-0.215821 -1.548497,-0.07892 -2.479336,0.389098 -0.453142,0.227836 -0.904412,0.524499 -1.002835,0.659251 -0.098411,0.134753 -0.3213076,0.62348 -0.4953056,1.086061 -0.17401,0.462582 -0.351272,0.841058 -0.393916,0.841058 -0.1691988,0 -0.1258128,-0.733634 0.076692,-1.297072 0.289692,-0.805976 0.580633,-1.225328 1.1544376,-1.663906 0.646855,-0.494424 1.281057,-0.738891 2.13839,-0.824292 1.114694,-0.111037 1.289276,-0.0798 2.253447,0.403159 1.121717,0.561869 1.460725,0.893284 2.014489,1.969346 0.661031,1.284493 0.742002,1.637979 0.595446,2.599448 -0.166559,1.092661 -0.541045,2.196775 -0.976968,2.880396 -0.397467,0.623316 -1.138468,1.191123 -2.469803,1.892539 -0.954847,0.503057 -1.280875,0.590881 -2.54989,0.686862 -1.3887396,0.105038 -2.1983176,0.01486 -3.2581804,-0.362922 -0.467474,-0.166631 -1.048888,-0.359869 -1.292021,-0.429414 -0.324078,-0.09271 -0.743342,-0.380392 -1.5711,-1.078071 -1.420669,-1.197412 -1.648937,-1.58457 -1.925052,-3.265031 -0.102416,-0.623305 -0.199605,-1.438669 -0.215978,-1.81192 -0.016374,-0.373251 -0.056261,-0.721519 -0.088657,-0.77393 -0.067758,-0.109626 0.089476,-2.008475 0.247269,-2.986115 0.130078,-0.805956 0.189578,-0.928504 1.119207,-2.305167 0.551709,-0.816991 0.914464,-1.240149 1.430032,-1.668144 1.667053,-1.3838699 2.756153,-1.9576709 4.6493404,-2.4495299 1.312647,-0.341033 1.316094,-0.341384 2.92764,-0.298571 1.704327,0.045279 2.611509,0.151723 3.224147,0.378307 4.142982,1.532264 5.77721,2.8737519 7.899863,6.4847639 0.678784,1.154732 1.32681,1.980197 2.498103,3.182101 0.861936,0.884467 1.137778,1.106289 1.688252,1.357648 0.887192,0.405115 1.925051,0.552633 3.916456,0.556667 1.896492,0.0038 2.614135,-0.139766 3.440892,-0.688564 0.262941,-0.174537 0.690033,-0.411069 0.949098,-0.525627 0.259065,-0.114558 0.556548,-0.285163 0.661078,-0.379121 0.10453,-0.09396 0.42379,-0.29356 0.70948,-0.443556 0.65603,-0.344449 1.42167,-1.111788 1.70127,-1.705038 0.33673,-0.714501 0.85186,-1.5632 1.1374,-1.873932 0.19465,-0.211812 0.28435,-0.441122 0.35538,-0.908554 0.05227,-0.343878 0.18417,-0.799976 0.29313,-1.013551 0.27381,-0.536709 0.36642,-1.670696 0.16781,-2.0547719 -0.08092,-0.156472 -0.20804,-0.607085 -0.28248,-1.001359 -0.26428,-1.399635 -1.64891,-3.032054 -3.23793,-3.817395 -0.57633,-0.284837 -0.82075,-0.345481 -1.721103,-0.427039 -1.871158,-0.169496 -3.240937,0.119258 -4.319905,0.910652 -1.019652,0.747887 -1.459893,1.116824 -1.459893,1.223432 0,0.111678 -0.469815,0.660474 -0.619492,0.723625 -0.207343,0.087491 -0.60823,0.753695 -0.60823,1.010791 0,0.152688 -0.08309,0.46544 -0.184636,0.695004 -0.387219,0.875382 -0.319331,1.5844019 0.292423,3.0536849 0.348021,0.835859 0.454625,1.030992 0.799707,1.463822 0.462636,0.580264 0.949006,0.849183 1.810527,1.001053 1.002484,0.176716 1.504409,0.163963 2.138936,-0.05435 1.254578,-0.431636 2.127986,-1.167899 2.579476,-2.174428 0.203116,-0.452821 0.228125,-0.622633 0.19504,-1.324403 -0.03327,-0.705395 -0.07787,-0.874807 -0.36061,-1.3693809 -0.17747,-0.310419 -0.487606,-0.743524 -0.689214,-0.962456 -0.201607,-0.218932 -0.351792,-0.442358 -0.333741,-0.496504 0.05236,-0.157084 1.002173,0.535564 1.302022,0.9495 0.459863,0.634827 0.607623,1.2723869 0.540223,2.3312079 -0.07398,1.162432 -0.391274,1.84193 -1.288702,2.759813 -0.6924,0.708178 -1.388012,1.04873 -2.548705,1.247767 -0.944703,0.161997 -2.14423,-0.05862 -2.901643,-0.533675 -0.918197,-0.575899 -1.49026,-1.16618 -2.011953,-2.076004 -0.428575,-0.747453 -0.50913,-0.978697 -0.70733,-2.030505 -0.236123,-1.2530869 -0.235655,-2.2758099 0.0012,-2.5562829 0.06579,-0.077913 0.16964,-0.386449 0.230778,-0.685635 0.06114,-0.299187 0.206576,-0.66042 0.323207,-0.802741 0.116631,-0.142321 0.348424,-0.545355 0.515112,-0.895632 0.245201,-0.515299 0.374669,-0.673404 0.678237,-0.82827 0.206342,-0.105273 0.375176,-0.233726 0.375176,-0.285453 0,-0.051727 0.145438,-0.163399 0.323181,-0.248163 0.177756,-0.084764 0.343924,-0.23342 0.369271,-0.33035 0.02719,-0.104005 0.272122,-0.275367 0.597605,-0.418114 0.303348,-0.133034 0.782825,-0.350241 1.065534,-0.482682 0.282695,-0.132441 1.068915,-0.378033 1.747139,-0.54576 1.172477,-0.289958 1.288887,-0.301647 2.366412,-0.237648 1.082077,0.064268 1.158417,0.082714 1.689357,0.408195 0.30583,0.187488 0.70957,0.390591 0.89718,0.451342 0.18761,0.060752 0.67337,0.348973 1.07948,0.640493 0.4061,0.291518 0.88044,0.615966 1.05409,0.720994 0.17364,0.105026 0.596,0.478229 0.93858,0.829339 0.71098,0.728694 1.45698,2.087381 1.70245,3.100622 0.08008,0.330595 0.23041,0.89857 0.33405,1.262165 0.16122,0.5656749 0.18021,0.8314469 0.13149,1.8415809 -0.1517,3.146103 -1.22161,5.567567 -3.29355,7.454221 -0.2597,0.236482 -0.78077,0.736675 -1.15792,1.111537 -0.76319,0.758554 -1.67381,1.385104 -2.80856,1.932441 -0.415539,0.200429 -0.991646,0.488337 -1.280259,0.639797 -0.882082,0.462918 -2.231143,0.667017 -4.408861,0.667017 -2.130041,0 -2.366541,0.03229 -4.811777,0.656928 -0.874734,0.223454 -1.162007,0.344996 -1.666858,0.705255 -0.853783,0.609246 -1.838853,1.878368 -2.607841,3.359822 -0.121326,0.233738 -0.296559,0.509976 -0.389404,0.61386 -0.307743,0.344362 -0.545622,1.050579 -0.562113,1.668854 -0.04061,1.522775 0.02199,4.223809 0.105798,4.564192 0.129961,0.52783 0.372041,1.083044 0.617659,1.416601 0.318498,0.432516 0.85083,1.405096 0.975004,1.781347 0.06667,0.201978 0.290615,0.486616 0.560969,0.712969 0.247503,0.207223 0.571854,0.552596 0.720777,0.767493 0.323675,0.467057 1.494097,1.101649 2.195288,1.190266 0.245591,0.03104 0.533229,0.11023 0.639196,0.17598 0.105967,0.06575 0.424699,0.167593 0.708305,0.226311 0.614915,0.127318 2.007063,-0.04731 2.810307,-0.352512 0.493809,-0.187634 1.658821,-0.868541 2.279159,-1.332082 0.464938,-0.347422 1.098398,-1.246947 1.284607,-1.824145 0.08794,-0.272617 0.211856,-0.580662 0.275347,-0.684547 0.327083,-0.535104 0.403918,-1.623506 0.247673,-3.508243 -0.05986,-0.72207 -0.137141,-1.071344 -0.31344,-1.416601 -0.128687,-0.252032 -0.332311,-0.663088 -0.452492,-0.913457 -0.367893,-0.766429 -2.139157,-2.048525 -2.850402,-2.063216 -0.118387,-0.0024 -0.50026,-0.06373 -0.848619,-0.136195 -0.668913,-0.139143 -1.645348,-0.06897 -2.049434,0.147286 -0.496788,0.265876 -1.131276,0.741153 -1.537547,1.151733 -0.361013,0.364849 -0.487359,0.588679 -0.684441,1.212552 -0.226239,0.71615 -0.236279,0.827567 -0.156934,1.741309 0.09698,1.116812 0.287338,1.633487 0.818447,2.22136 0.423607,0.468885 0.784451,0.665839 1.740481,0.94999 0.694273,0.206351 1.350648,0.21983 1.959762,0.04024 0.357697,-0.10546 0.235955,0.108997 -0.164347,0.289507 -0.565443,0.25498 -1.90107,0.157481 -2.782593,-0.203122 -0.881743,-0.360696 -1.649691,-1.072512 -2.058433,-1.90798 -0.294309,-0.601567 -0.306872,-0.673645 -0.306872,-1.760529 0,-1.080888 0.01347,-1.159477 0.291474,-1.699921 0.160303,-0.311653 0.389494,-0.757768 0.509299,-0.991369 0.119804,-0.2336 0.4675,-0.665268 0.772642,-0.959261 0.450424,-0.43394 0.692257,-0.582077 1.285063,-0.787168 1.631861,-0.564563 3.617985,-0.418169 4.838386,0.356626 1.11602,0.708525 2.094406,1.532797 2.466616,2.078083 0.683739,1.001676 1.178017,2.185864 1.249949,2.994632 0.03466,0.389566 0.101532,1.08124 0.148624,1.537054 0.08071,0.781387 0.06696,0.902835 -0.240727,2.124902 -0.480506,1.90851 -0.743342,2.415861 -1.67669,3.236431 -0.421995,0.371016 -0.925455,0.755835 -1.118791,0.855156 -0.193349,0.09932 -0.490831,0.300449 -0.661083,0.446952 -0.461622,0.397213 -1.337604,0.865753 -1.618609,0.865753 -0.13597,0 -0.513279,0.101392 -0.838475,0.225315 -0.642382,0.244807 -1.834756,0.537131 -2.115787,0.518715 -0.09646,-0.0063 -0.55786,-0.0633 -1.025334,-0.12662 z"
           id="path2243"
           inkscape:connector-curvature="0" />
        <path
           style="opacity:0.797468;fill:url(#linearGradient3531);fill-opacity:1;fill-rule:nonzero;stroke:none;stroke-width:1;marker:none;visibility:visible;display:inline;overflow:visible"
           d="m 20.15625,24.125 21.3125,-4.84375 c 0.02465,-0.02278 0.07241,-0.07432 0.09375,-0.09375 2.07194,-1.886654 3.12955,-4.291397 3.28125,-7.4375 0.04872,-1.010134 0.03622,-1.278075 -0.125,-1.84375 C 44.61511,9.542655 44.455081,8.9555947 44.375,8.625 44.12953,7.611759 43.398481,6.2599439 42.6875,5.53125 42.34492,5.18014 41.923641,4.8237759 41.75,4.71875 41.57635,4.613722 41.093599,4.2602679 40.6875,3.96875 40.28139,3.67723 39.812609,3.4045021 39.625,3.34375 39.43739,3.282999 39.024581,3.0937379 38.71875,2.90625 38.18781,2.580769 38.113329,2.5330179 37.03125,2.46875 c -1.077525,-0.063999 -1.202524,-0.039958 -2.375,0.25 -0.678224,0.167727 -1.467306,0.430059 -1.75,0.5625 C 32.623541,3.413691 32.147098,3.616966 31.84375,3.75 31.518267,3.892747 31.277193,4.0522448 31.25,4.15625 31.224653,4.25318 31.052757,4.4152359 30.875,4.5 c -0.177743,0.084764 -0.312499,0.1982732 -0.3125,0.25 0,0.051727 -0.168658,0.1759768 -0.375,0.28125 C 29.883932,5.186116 29.7452,5.3597009 29.5,5.875 29.333312,6.225277 29.11663,6.6076791 29,6.75 28.883369,6.892321 28.717388,7.263313 28.65625,7.5625 28.595112,7.861686 28.503293,8.172087 28.4375,8.25 c -0.236839,0.280473 -0.236123,1.309413 0,2.5625 0.1982,1.051808 0.258925,1.283797 0.6875,2.03125 0.521693,0.909824 1.113052,1.486601 2.03125,2.0625 0.757413,0.475051 1.961547,0.693247 2.90625,0.53125 1.160693,-0.199037 1.838849,-0.541822 2.53125,-1.25 0.897428,-0.917883 1.238521,-1.587568 1.3125,-2.75 0.0674,-1.058821 -0.102637,-1.7089234 -0.5625,-2.34375 -0.299849,-0.413936 -1.228891,-1.0945843 -1.28125,-0.9375 -0.01805,0.054146 0.110893,0.2810678 0.3125,0.5 0.201608,0.218932 0.510031,0.6583311 0.6875,0.96875 0.282735,0.494574 0.341733,0.638355 0.375,1.34375 0.03308,0.70177 0.01561,0.890929 -0.1875,1.34375 -0.45149,1.006529 -1.33917,1.724614 -2.59375,2.15625 -0.634527,0.21831 -1.122515,0.239216 -2.125,0.0625 -0.861521,-0.15187 -1.349864,-0.419736 -1.8125,-1 C 30.373668,13.09842 30.254271,12.898359 29.90625,12.0625 29.294496,10.593217 29.237781,9.9066318 29.625,9.03125 29.726545,8.801686 29.812499,8.4651882 29.8125,8.3125 c 0,-0.257096 0.386407,-0.9125089 0.59375,-1 0.149677,-0.063151 0.625001,-0.6070722 0.625,-0.71875 0,-0.106608 0.4491,-0.4708632 1.46875,-1.21875 1.078968,-0.791394 2.44134,-1.106996 4.3125,-0.9375 0.900353,0.081558 1.142422,0.1526628 1.71875,0.4375 1.58902,0.785341 2.985721,2.4128646 3.25,3.8125 0.07444,0.394274 0.200329,0.8435276 0.28125,1 0.19861,0.384076 0.08631,1.525791 -0.1875,2.0625 -0.10896,0.213575 -0.22898,0.687372 -0.28125,1.03125 -0.07103,0.467432 -0.180349,0.694438 -0.375,0.90625 -0.28554,0.310732 -0.788271,1.160499 -1.125,1.875 -0.2796,0.59325 -1.03147,1.34305 -1.6875,1.6875 -0.28569,0.149996 -0.614219,0.343541 -0.71875,0.4375 -0.10453,0.09396 -0.397187,0.260443 -0.65625,0.375 -0.259065,0.114558 -0.705808,0.356714 -0.96875,0.53125 -0.826757,0.548798 -1.541008,0.691343 -3.4375,0.6875 -1.991405,-0.004 -3.019058,-0.157384 -3.90625,-0.5625 -0.550474,-0.251359 -0.825564,-0.459283 -1.6875,-1.34375 -1.171293,-1.201904 -1.821215,-2.032768 -2.5,-3.1875 C 22.408597,10.576488 20.767982,9.251014 16.625,7.71875 16.012362,7.492166 15.110577,7.3890288 13.40625,7.34375 11.794704,7.300937 11.781397,7.2839672 10.46875,7.625 8.5755626,8.116859 7.5108031,8.7098801 5.84375,10.09375 5.328182,10.521745 4.9579588,10.933009 4.40625,11.75 c -0.929629,1.376663 -0.994922,1.506544 -1.125,2.3125 -0.157793,0.97764 -0.3177581,2.859123 -0.25,2.96875 0.032396,0.05241 0.077376,0.407998 0.09375,0.78125 0.016373,0.373251 0.1163341,1.189194 0.21875,1.8125 0.276115,1.680461 0.4855812,2.052588 1.90625,3.25 0.827758,0.697679 1.2696719,1.001043 1.59375,1.09375 0.243133,0.06955 0.8137761,0.270868 1.28125,0.4375 1.0598628,0.377782 1.8612603,0.448788 3.25,0.34375 1.269015,-0.09598 1.607653,-0.184444 2.5625,-0.6875 1.331335,-0.701416 2.071283,-1.251684 2.46875,-1.875 0.435923,-0.683621 0.802192,-1.782339 0.96875,-2.875 0.146556,-0.961469 0.06728,-1.340508 -0.59375,-2.625 -0.553764,-1.076062 -0.878283,-1.406881 -2,-1.96875 -0.964171,-0.482962 -1.135306,-0.486037 -2.25,-0.375 -0.857333,0.0854 -1.509395,0.318076 -2.15625,0.8125 -0.5738046,0.438578 -0.8665579,0.850274 -1.15625,1.65625 -0.2025048,0.563438 -0.2316991,1.312501 -0.0625,1.3125 0.042644,0 0.2009896,-0.381168 0.375,-0.84375 0.173998,-0.462581 0.4015895,-0.958997 0.5,-1.09375 0.09842,-0.134752 0.546858,-0.428414 1,-0.65625 0.930839,-0.46802 1.823817,-0.622071 2.5,-0.40625 0.388116,0.123878 1.71518,0.943818 2.09375,1.28125 0.608802,0.542639 0.965941,1.460686 0.96875,2.46875 0.0045,1.626337 -0.558088,2.810886 -1.625,3.4375 -0.233731,0.13728 -0.619213,0.363312 -0.875,0.53125 -0.656623,0.431101 -1.285087,0.539024 -2.75,0.46875 C 10.281494,23.261543 9.985408,23.235806 9.25,22.96875 7.6745042,22.396628 6.2512769,21.205702 5.71875,20.03125 c -0.631015,-1.391665 -0.6933689,-1.702182 -0.625,-3.125 0.060175,-1.252009 0.271361,-2.276705 0.625,-2.9375 0.245162,-0.458084 0.8727721,-1.164771 1.9375,-2.25 C 8.071352,11.295646 8.8903779,10.919148 9.75,10.75 c 1.004071,-0.197573 3.325507,-0.327907 4.03125,-0.21875 1.841064,0.284759 4.948913,2.436664 6.03125,4.1875 0.522382,0.845021 1.015166,1.824383 1.21875,2.40625 0.268051,0.766152 0.36522,2.781187 0.15625,3.5 -0.08534,0.293564 -0.155678,0.706477 -0.15625,0.90625 -0.0013,0.475805 -0.195619,1.069515 -0.59375,1.875 -0.09976,0.201826 -0.183113,0.462541 -0.28125,0.71875 z"
           id="path7116"
           inkscape:connector-curvature="0" />
        <path
           style="opacity:0.36286902;fill:url(#linearGradient3533);fill-opacity:1;fill-rule:nonzero;stroke:none;stroke-width:1;marker:none;visibility:visible;display:inline;overflow:visible"
           d="m 20.15625,24.125 c -0.07674,0.200347 -0.176564,0.414343 -0.21875,0.5625 -0.09614,0.337623 -0.21811,0.672089 -0.28125,0.75 -0.06315,0.07791 -0.151241,0.286952 -0.1875,0.46875 -0.09597,0.481198 -0.406997,1.486568 -0.53125,1.71875 -0.147649,0.275868 -0.444541,1.549081 -0.59375,2.53125 -0.120247,0.791552 -0.142887,2.540675 -0.03125,3.40625 0.141276,1.095337 0.533401,3.041672 0.65625,3.28125 1.08127,2.108666 1.592909,2.84787 2.5,3.5625 0.228177,0.179756 0.512805,0.441668 0.625,0.59375 0.428199,0.580388 1.650487,1.413884 2.90625,2 0.543294,0.25358 1.762049,0.568001 2.875,0.71875 0.467474,0.06332 0.903539,0.11868 1,0.125 0.281031,0.01842 1.482619,-0.286443 2.125,-0.53125 0.325196,-0.123923 0.707779,-0.21875 0.84375,-0.21875 0.281005,0 1.163378,-0.477786 1.625,-0.875 0.170252,-0.146503 0.462901,-0.338178 0.65625,-0.4375 0.193336,-0.09932 0.703006,-0.472733 1.125,-0.84375 0.933348,-0.82057 1.175742,-1.341489 1.65625,-3.25 0.307691,-1.222067 0.33071,-1.343613 0.25,-2.125 C 37.109158,35.106686 37.034658,34.420814 37,34.03125 c -0.07193,-0.808768 -0.566261,-1.998325 -1.25,-3 -0.37221,-0.545286 -1.352732,-1.353976 -2.46875,-2.0625 -1.220401,-0.774795 -3.180638,-0.939563 -4.8125,-0.375 -0.592806,0.205091 -0.830826,0.347309 -1.28125,0.78125 -0.305142,0.293993 -0.661445,0.735149 -0.78125,0.96875 -0.119805,0.233601 -0.370947,0.688348 -0.53125,1 -0.278001,0.540444 -0.281251,0.606611 -0.28125,1.6875 0,1.086884 0.01819,1.148433 0.3125,1.75 0.408742,0.835468 1.180756,1.576806 2.0625,1.9375 0.881523,0.360603 2.215807,0.442479 2.78125,0.1875 0.400302,-0.18051 0.513947,-0.386709 0.15625,-0.28125 -0.609114,0.179588 -1.274477,0.143851 -1.96875,-0.0625 -0.95603,-0.284151 -1.295143,-0.468616 -1.71875,-0.9375 -0.531109,-0.587873 -0.71552,-1.10194 -0.8125,-2.21875 -0.07935,-0.913742 -0.06999,-1.03385 0.15625,-1.75 0.197082,-0.623873 0.295237,-0.8539 0.65625,-1.21875 0.406271,-0.41058 1.065713,-0.859123 1.5625,-1.125 0.404086,-0.216257 1.362337,-0.295393 2.03125,-0.15625 0.348359,0.07246 0.725362,0.122554 0.84375,0.125 0.711245,0.01469 2.507106,1.296071 2.875,2.0625 0.120181,0.250369 0.308812,0.654219 0.4375,0.90625 0.176299,0.345257 0.252636,0.715429 0.3125,1.4375 0.156245,1.884737 0.07708,2.964894 -0.25,3.5 -0.06349,0.103885 -0.19331,0.414885 -0.28125,0.6875 -0.186209,0.577198 -0.816314,1.465079 -1.28125,1.8125 -0.620338,0.463541 -1.78744,1.156118 -2.28125,1.34375 -0.803244,0.305204 -2.197585,0.471069 -2.8125,0.34375 -0.283606,-0.05872 -0.581532,-0.152998 -0.6875,-0.21875 -0.105967,-0.06575 -0.41066,-0.156461 -0.65625,-0.1875 -0.701191,-0.08862 -1.863824,-0.720443 -2.1875,-1.1875 -0.148923,-0.214897 -0.471248,-0.542775 -0.71875,-0.75 -0.270354,-0.226353 -0.495834,-0.516773 -0.5625,-0.71875 -0.124174,-0.376251 -0.650251,-1.348732 -0.96875,-1.78125 -0.245618,-0.333557 -0.495039,-0.87842 -0.625,-1.40625 -0.08381,-0.340383 -0.134366,-3.039725 -0.09375,-4.5625 0.01649,-0.618275 0.254756,-1.343139 0.5625,-1.6875 0.09285,-0.103884 0.253673,-0.360011 0.375,-0.59375 0.768988,-1.481454 1.771218,-2.765754 2.625,-3.375 0.504851,-0.360259 0.781516,-0.495296 1.65625,-0.71875 2.445236,-0.624641 2.682459,-0.656251 4.8125,-0.65625 2.177718,0 3.524169,-0.193333 4.40625,-0.65625 0.288613,-0.15146 0.865709,-0.424571 1.28125,-0.625 1.13475,-0.547337 2.049309,-1.178946 2.8125,-1.9375 0.346157,-0.344057 0.787225,-0.776833 1.0625,-1.03125 L 20.15625,24.125 z"
           id="path8099"
           inkscape:connector-curvature="0" />
      </g>
    </g>
    <path
       transform="matrix(0.9118586,0,0,0.9118586,-476.69437,-635.15657)"
       d="m 537.69118,810.23014 c 0.47886,0 0.93113,-0.0532 1.3568,-0.15963 0.43629,-0.10641 0.87791,-0.23943 1.32487,-0.39905 l 0,3.62344 c -0.4576,0.23412 -1.02692,0.42566 -1.70797,0.57465 -0.67042,0.15962 -1.40469,0.23943 -2.2028,0.23943 -0.77684,0 -1.50046,-0.0904 -2.17087,-0.27136 -0.67042,-0.18091 -1.25039,-0.49483 -1.73989,-0.94178 -0.48952,-0.45758 -0.87794,-1.06415 -1.16525,-1.8197 -0.27669,-0.76619 -0.41503,-1.72393 -0.41502,-2.87322 l 0,-8.60368 -2.3305,0 0,-2.05914 2.68167,-1.62816 1.40468,-3.76711 3.11265,0 0,3.79903 4.34175,0 0,3.65538 -4.34175,0 0,8.60368 c 0,0.69171 0.17026,1.2025 0.5108,1.53239 0.34052,0.32989 0.78746,0.49483 1.34083,0.49483 m 15.59518,-14.62148 c 0.12769,10e-6 0.26603,0.005 0.41502,0.016 0.15962,2e-5 0.3086,0.0107 0.44695,0.0319 0.14897,0.0107 0.28199,0.0266 0.39906,0.0479 0.12768,0.0107 0.22346,0.0266 0.28732,0.0479 l 0,4.56522 c -0.0851,-0.0213 -0.2022,-0.0426 -0.35117,-0.0639 -0.149,-0.0213 -0.30862,-0.0372 -0.47887,-0.0479 -0.15964,-0.0213 -0.31926,-0.0319 -0.47887,-0.0319 -0.15964,-0.0106 -0.29265,-0.016 -0.39906,-0.016 -0.62786,10e-6 -1.20782,0.0798 -1.73989,0.23943 -0.52145,0.15964 -0.97371,0.42035 -1.3568,0.78215 -0.37246,0.35119 -0.6651,0.81942 -0.87793,1.40469 -0.20219,0.57465 -0.30329,1.28231 -0.30328,2.12299 l 0,9.08255 -4.86851,0 0,-17.84587 3.6873,0 0.7183,2.68167 0.23944,0 c 0.25539,-0.45757 0.53207,-0.87259 0.83004,-1.24506 0.29795,-0.37243 0.62784,-0.68636 0.98966,-0.94177 0.37245,-0.26602 0.78747,-0.46821 1.24506,-0.60657 0.46822,-0.14896 1.0003,-0.22346 1.59623,-0.22347 m 4.661,-4.2779 c 0,-0.45757 0.0692,-0.83534 0.20751,-1.13333 0.13834,-0.30858 0.32457,-0.55333 0.55868,-0.73427 0.24475,-0.19152 0.52675,-0.32454 0.846,-0.39905 0.32989,-0.0745 0.67574,-0.11171 1.03756,-0.11174 0.3618,3e-5 0.70233,0.0373 1.02158,0.11174 0.31924,0.0745 0.59592,0.20753 0.83004,0.39905 0.24475,0.18094 0.4363,0.42569 0.57465,0.73427 0.14897,0.29799 0.22346,0.67576 0.22347,1.13333 -10e-6,0.44696 -0.0745,0.82474 -0.22347,1.13332 -0.13835,0.30863 -0.3299,0.5587 -0.57465,0.75023 -0.23412,0.18093 -0.5108,0.31394 -0.83004,0.39906 -0.31925,0.0745 -0.65978,0.11175 -1.02158,0.11173 -0.36182,2e-5 -0.70767,-0.0372 -1.03756,-0.11173 -0.31925,-0.0851 -0.60125,-0.21813 -0.846,-0.39906 -0.23411,-0.19153 -0.42034,-0.4416 -0.55868,-0.75023 -0.13834,-0.30858 -0.20751,-0.68636 -0.20751,-1.13332 m 5.07602,22.45897 -4.86851,0 0,-17.84587 4.86851,0 0,17.84587 m 16.9839,-5.29948 c -1e-5,0.93646 -0.17028,1.75585 -0.51079,2.45819 -0.34055,0.70235 -0.82474,1.28763 -1.45257,1.75586 -0.62787,0.46822 -1.38874,0.8194 -2.28261,1.05351 -0.8939,0.23411 -1.89421,0.35117 -3.00092,0.35117 -0.58529,0 -1.12801,-0.0213 -1.62816,-0.0639 -0.50015,-0.0319 -0.9737,-0.0904 -1.42064,-0.17558 -0.44695,-0.0851 -0.87793,-0.19155 -1.29295,-0.31925 -0.41502,-0.1277 -0.83536,-0.28732 -1.26102,-0.47887 l 0,-4.0225 c 0.44694,0.22347 0.91517,0.42566 1.40468,0.60656 0.50015,0.18091 0.99498,0.34054 1.4845,0.47887 0.4895,0.12771 0.96305,0.2288 1.42064,0.30329 0.46822,0.0745 0.89921,0.11174 1.29295,0.11173 0.4363,10e-6 0.80875,-0.0372 1.11736,-0.11173 0.3086,-0.0851 0.55867,-0.19687 0.75023,-0.33521 0.20218,-0.14898 0.34584,-0.31924 0.43098,-0.5108 0.0958,-0.20218 0.14366,-0.41501 0.14366,-0.63849 0,-0.22347 -0.0372,-0.42033 -0.11173,-0.5906 -0.0639,-0.1809 -0.21816,-0.36713 -0.46291,-0.55868 -0.24476,-0.20219 -0.60658,-0.42566 -1.08544,-0.67042 -0.46823,-0.25539 -1.1014,-0.564 -1.89951,-0.92582 -0.77684,-0.35116 -1.45258,-0.69701 -2.02722,-1.03755 -0.564,-0.35116 -1.03223,-0.73957 -1.40468,-1.16525 -0.36181,-0.42565 -0.63317,-0.90984 -0.81408,-1.45257 -0.18091,-0.55334 -0.27136,-1.2078 -0.27136,-1.96336 0,-0.83003 0.15962,-1.55365 0.47887,-2.17088 0.31925,-0.62783 0.77151,-1.14927 1.3568,-1.5643 0.58528,-0.41501 1.28762,-0.72361 2.10703,-0.92582 0.83003,-0.21281 1.75052,-0.31923 2.76148,-0.31924 1.06414,10e-6 2.07509,0.12239 3.03284,0.36713 0.95772,0.24477 1.94206,0.61191 2.95302,1.1014 l -1.46853,3.44786 c -0.80877,-0.38308 -1.58028,-0.69701 -2.31453,-0.94178 -0.73428,-0.24474 -1.46855,-0.36712 -2.2028,-0.36713 -0.65979,10e-6 -1.13866,0.11707 -1.43661,0.35117 -0.28733,0.23413 -0.43099,0.55337 -0.43099,0.95774 0,0.21284 0.0372,0.40439 0.11174,0.57464 0.0745,0.15964 0.22347,0.3299 0.44695,0.5108 0.22346,0.17027 0.53739,0.36182 0.94177,0.57464 0.40437,0.2022 0.93113,0.45228 1.58027,0.75023 0.75554,0.3299 1.4366,0.65979 2.04318,0.98966 0.60655,0.31926 1.12799,0.68639 1.56431,1.1014 0.43628,0.41503 0.77149,0.89922 1.00562,1.45257 0.2341,0.55337 0.35116,1.22379 0.35117,2.01126 m 10.87034,1.80374 c 0.58527,0 1.07478,-0.0958 1.46853,-0.28732 0.40437,-0.20219 0.72893,-0.50015 0.9737,-0.89389 0.24474,-0.39374 0.42565,-0.88857 0.54272,-1.4845 0.11704,-0.60656 0.18089,-1.3089 0.19155,-2.10703 l 0,-0.5906 c -10e-6,-0.86196 -0.0532,-1.62815 -0.15963,-2.29857 -0.0958,-0.67041 -0.27137,-1.22909 -0.52675,-1.67605 -0.24477,-0.45757 -0.57466,-0.80342 -0.98967,-1.03755 -0.40438,-0.2341 -0.91518,-0.35116 -1.53238,-0.35117 -1.02159,10e-6 -1.77182,0.46292 -2.25068,1.38872 -0.47888,0.91519 -0.71831,2.2507 -0.71831,4.00654 0,1.78779 0.23943,3.1233 0.71831,4.00654 0.4895,0.88326 1.25037,1.32488 2.28261,1.32488 m -1.80374,3.81499 c -0.92583,0 -1.76651,-0.19687 -2.52205,-0.59061 -0.75555,-0.39373 -1.40469,-0.9737 -1.9474,-1.73989 -0.54272,-0.77683 -0.96307,-1.73989 -1.26103,-2.88918 -0.29796,-1.14928 -0.44694,-2.47947 -0.44694,-3.99058 0,-1.52173 0.14898,-2.85724 0.44694,-4.00654 0.30861,-1.15991 0.73959,-2.12829 1.29295,-2.90514 0.564,-0.78746 1.23442,-1.37806 2.01125,-1.77182 0.77683,-0.40436 1.63347,-0.60655 2.56994,-0.60656 0.59591,10e-6 1.13331,0.0692 1.61219,0.20751 0.47886,0.12771 0.90984,0.31394 1.29295,0.55868 0.39372,0.23413 0.73957,0.51081 1.03755,0.83004 0.29795,0.30862 0.56399,0.64915 0.79811,1.02159 l 0.1277,0 0.3831,-2.28262 4.11828,0 0,25.69933 -4.86851,0 0,-7.48632 c -1e-5,-0.20219 0.0106,-0.45227 0.0319,-0.75023 0.0319,-0.30861 0.0585,-0.60657 0.0798,-0.89389 0.0319,-0.34053 0.0638,-0.68638 0.0958,-1.03755 l -0.20751,0 c -0.21284,0.36181 -0.46292,0.70766 -0.75023,1.03755 -0.28733,0.31925 -0.62254,0.59593 -1.00563,0.83004 -0.37246,0.23411 -0.79812,0.42034 -1.27698,0.55868 -0.47888,0.13834 -1.01628,0.20751 -1.61219,0.20751 m 26.27397,-0.31925 -0.65445,-2.28261 -0.2554,0 c -0.26605,0.45759 -0.5853,0.85133 -0.95774,1.18121 -0.36182,0.31925 -0.76088,0.58529 -1.19717,0.79812 -0.43632,0.21283 -0.89922,0.36713 -1.38873,0.46291 -0.48952,0.10641 -0.98967,0.15962 -1.50045,0.15962 -0.87262,0 -1.66541,-0.12238 -2.37839,-0.36713 -0.71299,-0.2554 -1.32488,-0.64914 -1.83566,-1.18121 -0.5108,-0.53208 -0.90454,-1.20782 -1.18122,-2.02722 -0.27668,-0.81939 -0.41502,-1.80374 -0.41502,-2.95303 l 0,-11.63653 4.86851,0 0,10.4234 c -1e-5,1.28763 0.19154,2.25601 0.57464,2.90514 0.39373,0.6385 1.01626,0.95774 1.86759,0.95774 0.63849,0 1.17056,-0.1277 1.59624,-0.3831 0.42565,-0.25539 0.76085,-0.63317 1.00562,-1.13332 0.25539,-0.50015 0.43629,-1.11736 0.54272,-1.85163 0.1064,-0.73426 0.15961,-1.57494 0.15962,-2.52205 l 0,-8.39618 4.86851,0 0,17.84587 -3.71922,0 m 16.04213,-14.71725 c -0.86198,10e-6 -1.58028,0.3033 -2.15492,0.90985 -0.564,0.60658 -0.88857,1.559 -0.9737,2.85726 l 6.20934,0 c -0.0106,-0.54271 -0.0798,-1.04286 -0.20751,-1.50046 -0.12771,-0.45758 -0.31925,-0.85131 -0.57464,-1.18121 -0.25541,-0.34052 -0.57465,-0.60656 -0.95774,-0.79812 -0.3831,-0.19153 -0.83005,-0.28731 -1.34083,-0.28732 m 0.62253,15.0365 c -1.277,0 -2.45289,-0.18623 -3.52767,-0.55868 -1.07481,-0.37245 -2.00062,-0.93113 -2.77745,-1.67604 -0.77683,-0.75555 -1.3834,-1.70265 -1.8197,-2.8413 -0.42566,-1.14928 -0.6385,-2.49543 -0.63849,-4.03846 -10e-6,-1.5643 0.19686,-2.93174 0.5906,-4.10232 0.39374,-1.17055 0.94178,-2.14425 1.64412,-2.9211 0.71298,-0.78746 1.5643,-1.37806 2.55397,-1.77182 1.0003,-0.39372 2.10702,-0.59059 3.32016,-0.5906 1.1812,10e-6 2.24536,0.18092 3.19247,0.54272 0.95772,0.35118 1.76648,0.87262 2.42627,1.5643 0.6704,0.69172 1.18119,1.54304 1.53238,2.55397 0.3618,1.00032 0.5427,2.14961 0.54272,3.44786 l 0,2.36243 -10.8863,0 c 0.0213,0.68106 0.12769,1.29827 0.31925,1.85162 0.20218,0.54273 0.47886,1.00563 0.83004,1.38873 0.3618,0.37245 0.79278,0.65978 1.29294,0.86196 0.51079,0.20219 1.09075,0.30329 1.7399,0.30328 0.5427,10e-6 1.0535,-0.0266 1.53238,-0.0798 0.4895,-0.0638 0.96305,-0.1543 1.42064,-0.27136 0.45758,-0.11705 0.90984,-0.26071 1.3568,-0.43098 0.44693,-0.1809 0.90452,-0.38841 1.37276,-0.62253 l 0,3.76711 c -0.42568,0.22347 -0.85666,0.41502 -1.29295,0.57464 -0.42567,0.14898 -0.87794,0.27668 -1.35679,0.3831 -0.47889,0.10641 -0.995,0.1809 -1.54835,0.22347 -0.55337,0.0532 -1.15994,0.0798 -1.8197,0.0798 m 16.05808,-0.31925 -4.8685,0 0,-24.83736 4.8685,0 0,24.83736"
       style="font-size:32.69079971px;font-style:normal;font-weight:normal;fill:#000000;fill-opacity:1;stroke:none;display:inline;filter:url(#filter3490);font-family:Bitstream Vera Sans"
       id="path2708"
       inkscape:connector-curvature="0" />
    <path
       transform="matrix(0.9118586,0,0,0.9118586,-476.69437,-635.15657)"
       d="m 537.69118,810.23014 c 0.47886,0 0.93113,-0.0532 1.3568,-0.15963 0.43629,-0.10641 0.87791,-0.23943 1.32487,-0.39905 l 0,3.62344 c -0.4576,0.23412 -1.02692,0.42566 -1.70797,0.57465 -0.67042,0.15962 -1.40469,0.23943 -2.2028,0.23943 -0.77684,0 -1.50046,-0.0904 -2.17087,-0.27136 -0.67042,-0.18091 -1.25039,-0.49483 -1.73989,-0.94178 -0.48952,-0.45758 -0.87794,-1.06415 -1.16525,-1.8197 -0.27669,-0.76619 -0.41503,-1.72393 -0.41502,-2.87322 l 0,-8.60368 -2.3305,0 0,-2.05914 2.68167,-1.62816 1.40468,-3.76711 3.11265,0 0,3.79903 4.34175,0 0,3.65538 -4.34175,0 0,8.60368 c 0,0.69171 0.17026,1.2025 0.5108,1.53239 0.34052,0.32989 0.78746,0.49483 1.34083,0.49483 m 15.59518,-14.62148 c 0.12769,10e-6 0.26603,0.005 0.41502,0.016 0.15962,2e-5 0.3086,0.0107 0.44695,0.0319 0.14897,0.0107 0.28199,0.0266 0.39906,0.0479 0.12768,0.0107 0.22346,0.0266 0.28732,0.0479 l 0,4.56522 c -0.0851,-0.0213 -0.2022,-0.0426 -0.35117,-0.0639 -0.149,-0.0213 -0.30862,-0.0372 -0.47887,-0.0479 -0.15964,-0.0213 -0.31926,-0.0319 -0.47887,-0.0319 -0.15964,-0.0106 -0.29265,-0.016 -0.39906,-0.016 -0.62786,10e-6 -1.20782,0.0798 -1.73989,0.23943 -0.52145,0.15964 -0.97371,0.42035 -1.3568,0.78215 -0.37246,0.35119 -0.6651,0.81942 -0.87793,1.40469 -0.20219,0.57465 -0.30329,1.28231 -0.30328,2.12299 l 0,9.08255 -4.86851,0 0,-17.84587 3.6873,0 0.7183,2.68167 0.23944,0 c 0.25539,-0.45757 0.53207,-0.87259 0.83004,-1.24506 0.29795,-0.37243 0.62784,-0.68636 0.98966,-0.94177 0.37245,-0.26602 0.78747,-0.46821 1.24506,-0.60657 0.46822,-0.14896 1.0003,-0.22346 1.59623,-0.22347 m 4.661,-4.2779 c 0,-0.45757 0.0692,-0.83534 0.20751,-1.13333 0.13834,-0.30858 0.32457,-0.55333 0.55868,-0.73427 0.24475,-0.19152 0.52675,-0.32454 0.846,-0.39905 0.32989,-0.0745 0.67574,-0.11171 1.03756,-0.11174 0.3618,3e-5 0.70233,0.0373 1.02158,0.11174 0.31924,0.0745 0.59592,0.20753 0.83004,0.39905 0.24475,0.18094 0.4363,0.42569 0.57465,0.73427 0.14897,0.29799 0.22346,0.67576 0.22347,1.13333 -10e-6,0.44696 -0.0745,0.82474 -0.22347,1.13332 -0.13835,0.30863 -0.3299,0.5587 -0.57465,0.75023 -0.23412,0.18093 -0.5108,0.31394 -0.83004,0.39906 -0.31925,0.0745 -0.65978,0.11175 -1.02158,0.11173 -0.36182,2e-5 -0.70767,-0.0372 -1.03756,-0.11173 -0.31925,-0.0851 -0.60125,-0.21813 -0.846,-0.39906 -0.23411,-0.19153 -0.42034,-0.4416 -0.55868,-0.75023 -0.13834,-0.30858 -0.20751,-0.68636 -0.20751,-1.13332 m 5.07602,22.45897 -4.86851,0 0,-17.84587 4.86851,0 0,17.84587 m 16.9839,-5.29948 c -1e-5,0.93646 -0.17028,1.75585 -0.51079,2.45819 -0.34055,0.70235 -0.82474,1.28763 -1.45257,1.75586 -0.62787,0.46822 -1.38874,0.8194 -2.28261,1.05351 -0.8939,0.23411 -1.89421,0.35117 -3.00092,0.35117 -0.58529,0 -1.12801,-0.0213 -1.62816,-0.0639 -0.50015,-0.0319 -0.9737,-0.0904 -1.42064,-0.17558 -0.44695,-0.0851 -0.87793,-0.19155 -1.29295,-0.31925 -0.41502,-0.1277 -0.83536,-0.28732 -1.26102,-0.47887 l 0,-4.0225 c 0.44694,0.22347 0.91517,0.42566 1.40468,0.60656 0.50015,0.18091 0.99498,0.34054 1.4845,0.47887 0.4895,0.12771 0.96305,0.2288 1.42064,0.30329 0.46822,0.0745 0.89921,0.11174 1.29295,0.11173 0.4363,10e-6 0.80875,-0.0372 1.11736,-0.11173 0.3086,-0.0851 0.55867,-0.19687 0.75023,-0.33521 0.20218,-0.14898 0.34584,-0.31924 0.43098,-0.5108 0.0958,-0.20218 0.14366,-0.41501 0.14366,-0.63849 0,-0.22347 -0.0372,-0.42033 -0.11173,-0.5906 -0.0639,-0.1809 -0.21816,-0.36713 -0.46291,-0.55868 -0.24476,-0.20219 -0.60658,-0.42566 -1.08544,-0.67042 -0.46823,-0.25539 -1.1014,-0.564 -1.89951,-0.92582 -0.77684,-0.35116 -1.45258,-0.69701 -2.02722,-1.03755 -0.564,-0.35116 -1.03223,-0.73957 -1.40468,-1.16525 -0.36181,-0.42565 -0.63317,-0.90984 -0.81408,-1.45257 -0.18091,-0.55334 -0.27136,-1.2078 -0.27136,-1.96336 0,-0.83003 0.15962,-1.55365 0.47887,-2.17088 0.31925,-0.62783 0.77151,-1.14927 1.3568,-1.5643 0.58528,-0.41501 1.28762,-0.72361 2.10703,-0.92582 0.83003,-0.21281 1.75052,-0.31923 2.76148,-0.31924 1.06414,10e-6 2.07509,0.12239 3.03284,0.36713 0.95772,0.24477 1.94206,0.61191 2.95302,1.1014 l -1.46853,3.44786 c -0.80877,-0.38308 -1.58028,-0.69701 -2.31453,-0.94178 -0.73428,-0.24474 -1.46855,-0.36712 -2.2028,-0.36713 -0.65979,10e-6 -1.13866,0.11707 -1.43661,0.35117 -0.28733,0.23413 -0.43099,0.55337 -0.43099,0.95774 0,0.21284 0.0372,0.40439 0.11174,0.57464 0.0745,0.15964 0.22347,0.3299 0.44695,0.5108 0.22346,0.17027 0.53739,0.36182 0.94177,0.57464 0.40437,0.2022 0.93113,0.45228 1.58027,0.75023 0.75554,0.3299 1.4366,0.65979 2.04318,0.98966 0.60655,0.31926 1.12799,0.68639 1.56431,1.1014 0.43628,0.41503 0.77149,0.89922 1.00562,1.45257 0.2341,0.55337 0.35116,1.22379 0.35117,2.01126 m 10.87034,1.80374 c 0.58527,0 1.07478,-0.0958 1.46853,-0.28732 0.40437,-0.20219 0.72893,-0.50015 0.9737,-0.89389 0.24474,-0.39374 0.42565,-0.88857 0.54272,-1.4845 0.11704,-0.60656 0.18089,-1.3089 0.19155,-2.10703 l 0,-0.5906 c -10e-6,-0.86196 -0.0532,-1.62815 -0.15963,-2.29857 -0.0958,-0.67041 -0.27137,-1.22909 -0.52675,-1.67605 -0.24477,-0.45757 -0.57466,-0.80342 -0.98967,-1.03755 -0.40438,-0.2341 -0.91518,-0.35116 -1.53238,-0.35117 -1.02159,10e-6 -1.77182,0.46292 -2.25068,1.38872 -0.47888,0.91519 -0.71831,2.2507 -0.71831,4.00654 0,1.78779 0.23943,3.1233 0.71831,4.00654 0.4895,0.88326 1.25037,1.32488 2.28261,1.32488 m -1.80374,3.81499 c -0.92583,0 -1.76651,-0.19687 -2.52205,-0.59061 -0.75555,-0.39373 -1.40469,-0.9737 -1.9474,-1.73989 -0.54272,-0.77683 -0.96307,-1.73989 -1.26103,-2.88918 -0.29796,-1.14928 -0.44694,-2.47947 -0.44694,-3.99058 0,-1.52173 0.14898,-2.85724 0.44694,-4.00654 0.30861,-1.15991 0.73959,-2.12829 1.29295,-2.90514 0.564,-0.78746 1.23442,-1.37806 2.01125,-1.77182 0.77683,-0.40436 1.63347,-0.60655 2.56994,-0.60656 0.59591,10e-6 1.13331,0.0692 1.61219,0.20751 0.47886,0.12771 0.90984,0.31394 1.29295,0.55868 0.39372,0.23413 0.73957,0.51081 1.03755,0.83004 0.29795,0.30862 0.56399,0.64915 0.79811,1.02159 l 0.1277,0 0.3831,-2.28262 4.11828,0 0,25.69933 -4.86851,0 0,-7.48632 c -1e-5,-0.20219 0.0106,-0.45227 0.0319,-0.75023 0.0319,-0.30861 0.0585,-0.60657 0.0798,-0.89389 0.0319,-0.34053 0.0638,-0.68638 0.0958,-1.03755 l -0.20751,0 c -0.21284,0.36181 -0.46292,0.70766 -0.75023,1.03755 -0.28733,0.31925 -0.62254,0.59593 -1.00563,0.83004 -0.37246,0.23411 -0.79812,0.42034 -1.27698,0.55868 -0.47888,0.13834 -1.01628,0.20751 -1.61219,0.20751 m 26.27397,-0.31925 -0.65445,-2.28261 -0.2554,0 c -0.26605,0.45759 -0.5853,0.85133 -0.95774,1.18121 -0.36182,0.31925 -0.76088,0.58529 -1.19717,0.79812 -0.43632,0.21283 -0.89922,0.36713 -1.38873,0.46291 -0.48952,0.10641 -0.98967,0.15962 -1.50045,0.15962 -0.87262,0 -1.66541,-0.12238 -2.37839,-0.36713 -0.71299,-0.2554 -1.32488,-0.64914 -1.83566,-1.18121 -0.5108,-0.53208 -0.90454,-1.20782 -1.18122,-2.02722 -0.27668,-0.81939 -0.41502,-1.80374 -0.41502,-2.95303 l 0,-11.63653 4.86851,0 0,10.4234 c -1e-5,1.28763 0.19154,2.25601 0.57464,2.90514 0.39373,0.6385 1.01626,0.95774 1.86759,0.95774 0.63849,0 1.17056,-0.1277 1.59624,-0.3831 0.42565,-0.25539 0.76085,-0.63317 1.00562,-1.13332 0.25539,-0.50015 0.43629,-1.11736 0.54272,-1.85163 0.1064,-0.73426 0.15961,-1.57494 0.15962,-2.52205 l 0,-8.39618 4.86851,0 0,17.84587 -3.71922,0 m 16.04213,-14.71725 c -0.86198,10e-6 -1.58028,0.3033 -2.15492,0.90985 -0.564,0.60658 -0.88857,1.559 -0.9737,2.85726 l 6.20934,0 c -0.0106,-0.54271 -0.0798,-1.04286 -0.20751,-1.50046 -0.12771,-0.45758 -0.31925,-0.85131 -0.57464,-1.18121 -0.25541,-0.34052 -0.57465,-0.60656 -0.95774,-0.79812 -0.3831,-0.19153 -0.83005,-0.28731 -1.34083,-0.28732 m 0.62253,15.0365 c -1.277,0 -2.45289,-0.18623 -3.52767,-0.55868 -1.07481,-0.37245 -2.00062,-0.93113 -2.77745,-1.67604 -0.77683,-0.75555 -1.3834,-1.70265 -1.8197,-2.8413 -0.42566,-1.14928 -0.6385,-2.49543 -0.63849,-4.03846 -10e-6,-1.5643 0.19686,-2.93174 0.5906,-4.10232 0.39374,-1.17055 0.94178,-2.14425 1.64412,-2.9211 0.71298,-0.78746 1.5643,-1.37806 2.55397,-1.77182 1.0003,-0.39372 2.10702,-0.59059 3.32016,-0.5906 1.1812,10e-6 2.24536,0.18092 3.19247,0.54272 0.95772,0.35118 1.76648,0.87262 2.42627,1.5643 0.6704,0.69172 1.18119,1.54304 1.53238,2.55397 0.3618,1.00032 0.5427,2.14961 0.54272,3.44786 l 0,2.36243 -10.8863,0 c 0.0213,0.68106 0.12769,1.29827 0.31925,1.85162 0.20218,0.54273 0.47886,1.00563 0.83004,1.38873 0.3618,0.37245 0.79278,0.65978 1.29294,0.86196 0.51079,0.20219 1.09075,0.30329 1.7399,0.30328 0.5427,10e-6 1.0535,-0.0266 1.53238,-0.0798 0.4895,-0.0638 0.96305,-0.1543 1.42064,-0.27136 0.45758,-0.11705 0.90984,-0.26071 1.3568,-0.43098 0.44693,-0.1809 0.90452,-0.38841 1.37276,-0.62253 l 0,3.76711 c -0.42568,0.22347 -0.85666,0.41502 -1.29295,0.57464 -0.42567,0.14898 -0.87794,0.27668 -1.35679,0.3831 -0.47889,0.10641 -0.995,0.1809 -1.54835,0.22347 -0.55337,0.0532 -1.15994,0.0798 -1.8197,0.0798 m 16.05808,-0.31925 -4.8685,0 0,-24.83736 4.8685,0 0,24.83736"
       style="font-size:32.69079971px;font-style:normal;font-weight:normal;fill:#000000;fill-opacity:1;stroke:none;display:inline;filter:url(#filter3490);font-family:Bitstream Vera Sans"
       id="path2519"
       inkscape:connector-curvature="0" />
    <g
       transform="matrix(0.2861954,0,0,0.2861954,-65.646224,63.34337)"
       id="g3006"
       inkscape:label="texto"
       style="display:inline">
      <path
         transform="matrix(2.747,0,0,2.747,-1211.67,-1814.56)"
         d="m 541.89391,711.84089 c 0.55542,0 1.07998,-0.0617 1.57371,-0.18514 0.50603,-0.12343 1.01826,-0.27771 1.53667,-0.46285 l 0,4.20271 c -0.53076,0.27153 -1.19109,0.4937 -1.98102,0.66651 -0.77759,0.18513 -1.62924,0.2777 -2.55493,0.2777 -0.90104,0 -1.74033,-0.10492 -2.51793,-0.31474 -0.77757,-0.20983 -1.45027,-0.57394 -2.01803,-1.09234 -0.56777,-0.53072 -1.01828,-1.23427 -1.35153,-2.11059 -0.32092,-0.88868 -0.48137,-1.99953 -0.48137,-3.33254 l 0,-9.97908 -2.70305,0 0,-2.38833 3.11037,-1.88844 1.62923,-4.36934 3.61026,0 0,4.40637 5.03582,0 0,4.23974 -5.03582,0 0,9.97908 c 0,0.80229 0.19746,1.39472 0.59244,1.77735 0.39496,0.38263 0.91335,0.57393 1.55518,0.57393 M 559.98217,694.882 c 0.1481,1e-5 0.30856,0.006 0.48136,0.0185 0.18515,3e-5 0.35794,0.0124 0.5184,0.037 0.17279,0.0124 0.32708,0.0309 0.46286,0.0556 0.1481,0.0123 0.25919,0.0309 0.33327,0.0555 l 0,5.29503 c -0.0988,-0.0247 -0.23454,-0.0494 -0.40732,-0.0741 -0.17282,-0.0247 -0.35796,-0.0432 -0.55543,-0.0555 -0.18515,-0.0247 -0.37029,-0.037 -0.55542,-0.037 -0.18517,-0.0123 -0.33944,-0.0185 -0.46286,-0.0185 -0.72822,10e-6 -1.4009,0.0926 -2.01802,0.27769 -0.60482,0.18518 -1.12937,0.48756 -1.57371,0.90719 -0.43199,0.40735 -0.77143,0.95041 -1.01827,1.62926 -0.23453,0.66651 -0.35178,1.48731 -0.35176,2.46237 l 0,10.5345 -5.6468,0 0,-20.69874 4.27675,0 0.83313,3.11037 0.27773,0 c 0.29621,-0.53073 0.61712,-1.01209 0.96273,-1.44411 0.34558,-0.43196 0.72819,-0.79609 1.14786,-1.09232 0.432,-0.30854 0.91335,-0.54306 1.4441,-0.70354 0.54306,-0.17277 1.1602,-0.25918 1.8514,-0.25919 m 5.40612,-4.96177 c 0,-0.53073 0.0802,-0.96888 0.24069,-1.31451 0.16045,-0.35792 0.37645,-0.64179 0.64798,-0.85165 0.28388,-0.22214 0.61097,-0.37642 0.98125,-0.46285 0.38262,-0.0864 0.78377,-0.12957 1.20343,-0.1296 0.41963,3e-5 0.8146,0.0432 1.18488,0.1296 0.37029,0.0864 0.69119,0.24071 0.96274,0.46285 0.28387,0.20986 0.50604,0.49373 0.66651,0.85165 0.17279,0.34563 0.25918,0.78378 0.2592,1.31451 -2e-5,0.5184 -0.0864,0.95657 -0.2592,1.31449 -0.16047,0.35797 -0.38264,0.64801 -0.66651,0.87016 -0.27155,0.20985 -0.59245,0.36413 -0.96274,0.46285 -0.37028,0.0864 -0.76525,0.12963 -1.18488,0.12959 -0.41966,4e-5 -0.82081,-0.0432 -1.20343,-0.12959 -0.37028,-0.0987 -0.69737,-0.253 -0.98125,-0.46285 -0.27153,-0.22215 -0.48753,-0.51219 -0.64798,-0.87016 -0.16046,-0.35792 -0.24069,-0.79609 -0.24069,-1.31449 m 5.88748,26.0493 -5.64679,0 0,-20.69874 5.64679,0 0,20.69874 m 19.69899,-6.14667 c -10e-6,1.08617 -0.19752,2.03656 -0.59245,2.85116 -0.39498,0.81463 -0.95658,1.49348 -1.68478,2.03656 -0.72823,0.54308 -1.61074,0.9504 -2.64752,1.22193 -1.03679,0.27153 -2.19701,0.40731 -3.48064,0.40731 -0.67885,0 -1.30834,-0.0247 -1.88844,-0.0741 -0.58011,-0.037 -1.12936,-0.10491 -1.64775,-0.20365 -0.51841,-0.0988 -1.01828,-0.22217 -1.49964,-0.37029 -0.48137,-0.14812 -0.96891,-0.33326 -1.46262,-0.55542 l 0,-4.66555 c 0.51839,0.25919 1.06147,0.49371 1.62923,0.70353 0.58012,0.20983 1.15404,0.39497 1.72183,0.55542 0.56774,0.14813 1.117,0.26538 1.64774,0.35178 0.54307,0.0864 1.04296,0.1296 1.49965,0.12958 0.50605,2e-5 0.93803,-0.0432 1.29598,-0.12958 0.35793,-0.0987 0.64798,-0.22835 0.87016,-0.3888 0.2345,-0.1728 0.40114,-0.37027 0.49988,-0.59245 0.11108,-0.23452 0.16662,-0.48136 0.16662,-0.74057 0,-0.25921 -0.0432,-0.48753 -0.12959,-0.68502 -0.0741,-0.20983 -0.25302,-0.42583 -0.53691,-0.64799 -0.28389,-0.23451 -0.70354,-0.49371 -1.25896,-0.77759 -0.54308,-0.29622 -1.27747,-0.65416 -2.20317,-1.07383 -0.90103,-0.4073 -1.68479,-0.80843 -2.3513,-1.20341 -0.65415,-0.4073 -1.19723,-0.85781 -1.62923,-1.35154 -0.41966,-0.49368 -0.73438,-1.05528 -0.94421,-1.68478 -0.20984,-0.6418 -0.31475,-1.40087 -0.31475,-2.27723 0,-0.96272 0.18514,-1.80201 0.55542,-2.51792 0.37029,-0.72819 0.89484,-1.333 1.57371,-1.81437 0.67885,-0.48136 1.49345,-0.83928 2.44385,-1.07381 0.96273,-0.24684 2.03038,-0.37027 3.20294,-0.37028 1.23426,10e-6 2.40682,0.14196 3.51767,0.42582 1.11083,0.28389 2.25253,0.70973 3.4251,1.27747 l -1.70327,3.99905 c -0.93808,-0.44433 -1.83292,-0.80844 -2.68455,-1.09234 -0.85166,-0.28387 -1.70332,-0.42582 -2.55495,-0.42582 -0.76525,0 -1.32068,0.13578 -1.66626,0.4073 -0.33327,0.27157 -0.4999,0.64184 -0.4999,1.11086 0,0.24685 0.0432,0.46903 0.12961,0.6665 0.0864,0.18515 0.25919,0.38264 0.51839,0.59245 0.2592,0.1975 0.62331,0.41967 1.09234,0.6665 0.46901,0.23452 1.07998,0.52458 1.83288,0.87017 0.87633,0.38264 1.66628,0.76526 2.36981,1.14787 0.70351,0.37029 1.30831,0.79611 1.81439,1.27748 0.50602,0.48136 0.89482,1.04296 1.16638,1.68478 0.27152,0.64183 0.4073,1.41941 0.40731,2.33277 m 12.60809,2.0921 c 0.67885,0 1.24661,-0.11108 1.70331,-0.33326 0.46901,-0.23451 0.84544,-0.5801 1.12934,-1.03678 0.28386,-0.45669 0.4937,-1.03063 0.62948,-1.72183 0.13576,-0.70352 0.20982,-1.51813 0.22218,-2.44386 l 0,-0.685 c 0,-0.99976 -0.0617,-1.88845 -0.18515,-2.66604 -0.1111,-0.77758 -0.31474,-1.42556 -0.61095,-1.94398 -0.28391,-0.53072 -0.66653,-0.93186 -1.14789,-1.20342 -0.46903,-0.27152 -1.06147,-0.40729 -1.77734,-0.40731 -1.18491,2e-5 -2.05509,0.53692 -2.61049,1.61073 -0.55544,1.0615 -0.83314,2.6105 -0.83314,4.64702 0,2.07361 0.2777,3.62261 0.83314,4.64705 0.56775,1.02446 1.45026,1.53668 2.64751,1.53668 m -2.09208,4.42486 c -1.07383,0 -2.04891,-0.22834 -2.92523,-0.68502 -0.87634,-0.45668 -1.62924,-1.12936 -2.25873,-2.01805 -0.62948,-0.90102 -1.11702,-2.01803 -1.46262,-3.35103 -0.34558,-1.33302 -0.51838,-2.87586 -0.51838,-4.62853 0,-1.765 0.1728,-3.31401 0.51838,-4.64703 0.35796,-1.34534 0.85784,-2.46853 1.49965,-3.36957 0.65417,-0.91334 1.43175,-1.59836 2.33278,-2.05507 0.90101,-0.469 1.89459,-0.70351 2.98077,-0.70352 0.69117,10e-6 1.31448,0.0802 1.86991,0.24068 0.55541,0.14813 1.0553,0.36413 1.49966,0.648 0.45665,0.27155 0.8578,0.59246 1.20341,0.96273 0.34558,0.35794 0.65416,0.75292 0.9257,1.1849 l 0.14811,0 0.44434,-2.64752 4.77664,0 0,29.80767 -5.6468,0 0,-8.6831 c -1e-5,-0.2345 0.0123,-0.52456 0.037,-0.87016 0.037,-0.35795 0.0679,-0.70354 0.0926,-1.03679 0.037,-0.39496 0.074,-0.79611 0.11108,-1.20341 l -0.24068,0 c -0.24686,0.41964 -0.53692,0.82078 -0.87017,1.20341 -0.33325,0.37029 -0.72206,0.69119 -1.16639,0.96273 -0.43201,0.27153 -0.92571,0.48754 -1.48111,0.648 -0.55545,0.16046 -1.17876,0.24068 -1.86992,0.24068 m 30.47417,-0.37029 -0.75907,-2.64751 -0.29622,0 c -0.30859,0.53074 -0.67887,0.98742 -1.11085,1.37005 -0.41966,0.37028 -0.88252,0.67885 -1.38855,0.9257 -0.50608,0.24685 -1.04299,0.42582 -1.61074,0.53693 -0.56778,0.1234 -1.14787,0.18512 -1.74032,0.18512 -1.01211,0 -1.93165,-0.14194 -2.7586,-0.42582 -0.82698,-0.29623 -1.53669,-0.75293 -2.12912,-1.37005 -0.59244,-0.61714 -1.04914,-1.4009 -1.37004,-2.35128 -0.32091,-0.95039 -0.48137,-2.09211 -0.48137,-3.42512 l 0,-13.49676 5.64681,0 0,12.0897 c -10e-6,1.49348 0.22215,2.61666 0.66649,3.36956 0.45668,0.74057 1.17873,1.11084 2.16615,1.11084 0.74056,0 1.35769,-0.1481 1.85142,-0.44434 0.4937,-0.29621 0.88249,-0.73437 1.16638,-1.31448 0.29622,-0.5801 0.50603,-1.29599 0.62948,-2.14764 0.12342,-0.85163 0.18513,-1.82672 0.18514,-2.92524 l 0,-9.7384 5.6468,0 0,20.69874 -4.31379,0 m 18.60667,-17.06997 c -0.99978,0 -1.8329,0.35178 -2.4994,1.05529 -0.65418,0.70356 -1.03063,1.80822 -1.12936,3.31403 l 7.20197,0 c -0.0123,-0.62947 -0.0926,-1.20957 -0.24068,-1.74032 -0.14813,-0.53074 -0.37029,-0.98741 -0.66652,-1.37004 -0.29623,-0.39496 -0.66651,-0.70354 -1.11083,-0.92571 -0.44434,-0.22215 -0.96275,-0.33325 -1.55518,-0.33325 m 0.72205,17.44026 c -1.48115,0 -2.84503,-0.216 -4.09161,-0.64799 -1.24665,-0.43199 -2.32044,-1.07999 -3.22146,-1.94398 -0.90102,-0.87634 -1.60456,-1.97483 -2.11061,-3.29551 -0.4937,-1.333 -0.74056,-2.89437 -0.74056,-4.68406 0,-1.81438 0.22834,-3.40042 0.68501,-4.75812 0.4567,-1.35768 1.09233,-2.48704 1.90696,-3.38808 0.82695,-0.91334 1.81437,-1.59836 2.96226,-2.05507 1.16021,-0.45666 2.44385,-0.685 3.85092,-0.68501 1.37004,10e-6 2.60431,0.20983 3.70282,0.62948 1.11083,0.40732 2.04887,1.01212 2.81415,1.81437 0.77757,0.80229 1.37,1.78972 1.77735,2.96225 0.41963,1.16024 0.62945,2.49324 0.62948,3.99905 l 0,2.74008 -12.62661,0 c 0.0247,0.78995 0.1481,1.50582 0.37029,2.14764 0.23449,0.62948 0.55541,1.16639 0.96273,1.61073 0.41963,0.43199 0.91951,0.76525 1.49963,0.99975 0.59244,0.23452 1.26512,0.35177 2.01804,0.35177 0.62946,0 1.22193,-0.0309 1.77735,-0.0926 0.56776,-0.074 1.11699,-0.17895 1.64774,-0.31473 0.53074,-0.13576 1.05529,-0.30239 1.57371,-0.49987 0.51839,-0.20983 1.04912,-0.45051 1.59222,-0.72206 l 0,4.36933 c -0.49373,0.2592 -0.99361,0.48136 -1.49965,0.6665 -0.49372,0.17279 -1.01828,0.32091 -1.5737,0.44434 -0.55543,0.12343 -1.15406,0.20983 -1.79587,0.2592 -0.64183,0.0617 -1.34536,0.0926 -2.11059,0.0926 m 18.62515,-0.37029 -5.64679,0 0,-28.80791 5.64679,0 0,28.80791"
         style="font-size:32.69079971px;font-style:normal;font-weight:normal;fill:#ffffff;fill-opacity:1;stroke:none;display:inline;font-family:Bitstream Vera Sans"
         id="path3628"
         inkscape:connector-curvature="0" />
    </g>
    <path
       style="font-size:10px;font-style:normal;font-variant:normal;font-weight:normal;font-stretch:normal;fill:#000000;fill-opacity:1;stroke:none;display:inline;font-family:MgOpen Cosmetica;-inkscape-font-specification:MgOpen Cosmetica"
       d="m 77.59082,110.75781 0,0.81055 -0.795898,0.24902 c 0.0651,0.11068 0.110672,0.22624 0.136719,0.34668 0.02604,0.11719 0.03906,0.24415 0.03906,0.38086 -5e-6,0.2767 -0.04395,0.5306 -0.131836,0.76172 -0.08789,0.22787 -0.218103,0.42318 -0.390625,0.58594 -0.17253,0.16276 -0.389001,0.28971 -0.649414,0.38086 -0.26042,0.0879 -0.563154,0.13184 -0.908203,0.13183 -0.07487,1e-5 -0.156252,-0.003 -0.244141,-0.01 -0.08789,-0.01 -0.152997,-0.0195 -0.195312,-0.0293 -0.06511,0.0553 -0.11719,0.11393 -0.15625,0.17578 -0.03581,0.0586 -0.05371,0.13021 -0.05371,0.21485 -2e-6,0.0684 0.02116,0.1237 0.06348,0.16601 0.04232,0.0391 0.09765,0.0716 0.166015,0.0977 0.06836,0.0228 0.14811,0.0391 0.239258,0.0488 0.09114,0.007 0.185544,0.01 0.283203,0.01 l 0.849609,0 c 0.263668,0 0.499671,0.0309 0.708008,0.0928 0.208329,0.0586 0.38411,0.14974 0.527344,0.27343 0.146479,0.1237 0.258784,0.28158 0.336914,0.47364 0.07812,0.1888 0.117182,0.41503 0.117188,0.67871 -6e-6,0.30924 -0.06186,0.58756 -0.185547,0.83496 -0.123703,0.25065 -0.30925,0.46224 -0.556641,0.63476 -0.244145,0.17578 -0.548506,0.30925 -0.913086,0.40039 -0.364586,0.0944 -0.786135,0.1416 -1.264648,0.14161 -0.371096,-1e-5 -0.694989,-0.0358 -0.97168,-0.10743 -0.276694,-0.0684 -0.507813,-0.16927 -0.693359,-0.30273 -0.185548,-0.13021 -0.325522,-0.28809 -0.419922,-0.47363 -0.09115,-0.18555 -0.136719,-0.39551 -0.136719,-0.62989 0,-0.19857 0.03418,-0.37109 0.102539,-0.51758 0.06836,-0.14648 0.159505,-0.2718 0.273438,-0.37597 0.113931,-0.10417 0.242512,-0.1888 0.385742,-0.25391 0.146483,-0.0651 0.296223,-0.11556 0.449218,-0.15136 -0.06836,-0.0293 -0.136719,-0.07 -0.205078,-0.12208 -0.06511,-0.0521 -0.125326,-0.1123 -0.180664,-0.18066 -0.05208,-0.0684 -0.09603,-0.14323 -0.131836,-0.22461 -0.03255,-0.0846 -0.04883,-0.17252 -0.04883,-0.26367 0,-0.10417 0.01465,-0.19857 0.04395,-0.2832 0.03255,-0.0846 0.07812,-0.16276 0.136718,-0.23438 0.05859,-0.0749 0.131835,-0.14485 0.219727,-0.20996 0.08789,-0.0651 0.187173,-0.13183 0.297851,-0.2002 -0.286459,-0.12369 -0.514323,-0.32226 -0.683593,-0.5957 -0.166017,-0.27343 -0.249024,-0.5957 -0.249024,-0.9668 0,-0.29296 0.04557,-0.555 0.136719,-0.78613 0.09114,-0.23111 0.224609,-0.42643 0.400391,-0.58594 0.17578,-0.16275 0.393878,-0.28645 0.654297,-0.37109 0.260414,-0.0846 0.559893,-0.12695 0.898437,-0.12695 0.0651,0 0.138344,0.005 0.219727,0.0147 0.08138,0.007 0.161129,0.0163 0.239257,0.0293 0.08138,0.01 0.156247,0.0212 0.22461,0.0342 0.06836,0.013 0.122067,0.0244 0.161133,0.0342 l 1.855468,0 m -3.90625,6.22071 c -10e-7,0.0814 0.01628,0.1595 0.04883,0.23437 0.03581,0.0781 0.09277,0.14648 0.170899,0.20508 0.07812,0.0586 0.180662,0.10416 0.307617,0.13672 0.126951,0.0358 0.283201,0.0537 0.46875,0.0537 0.50781,0 0.890296,-0.0716 1.147461,-0.21485 0.257158,-0.14323 0.385738,-0.33528 0.385742,-0.57617 -4e-6,-0.20508 -0.07976,-0.34179 -0.239258,-0.41015 -0.159508,-0.0684 -0.406904,-0.10254 -0.742187,-0.10254 l -0.688477,0 c -0.08789,0 -0.182293,0.01 -0.283203,0.0293 -0.100913,0.0228 -0.193686,0.0602 -0.27832,0.11231 -0.08464,0.0521 -0.156252,0.12044 -0.214844,0.20508 -0.05534,0.0879 -0.08301,0.19694 -0.08301,0.32715 m 0.53711,-4.44336 c -2e-6,0.29622 0.05534,0.52572 0.166015,0.68847 0.110675,0.16277 0.278318,0.24415 0.50293,0.24414 0.234372,1e-5 0.403643,-0.0814 0.507813,-0.24414 0.104163,-0.16275 0.156246,-0.39225 0.15625,-0.68847 -4e-6,-0.29297 -0.05209,-0.52572 -0.15625,-0.69825 -0.100915,-0.17252 -0.270186,-0.25878 -0.507813,-0.25879 -0.445966,1e-5 -0.668947,0.31902 -0.668945,0.95704 m 9.116211,3.67187 -1.489258,0 0,-3.18848 c -4e-6,-0.39387 -0.06023,-0.68847 -0.180664,-0.88378 -0.117191,-0.19857 -0.305993,-0.29785 -0.566407,-0.29786 -0.195315,1e-5 -0.358075,0.0391 -0.488281,0.11719 -0.130211,0.0781 -0.234377,0.19369 -0.3125,0.34668 -0.07487,0.153 -0.128583,0.3418 -0.161133,0.56641 -0.03255,0.22461 -0.04883,0.48177 -0.04883,0.77148 l 0,2.56836 -1.489258,0 0,-5.45898 1.137696,0 0.200195,0.69824 0.08301,0 c 0.07812,-0.13997 0.172524,-0.26041 0.283203,-0.36133 0.11393,-0.10091 0.237628,-0.18391 0.371094,-0.24902 0.13346,-0.0651 0.275062,-0.1123 0.424804,-0.1416 0.149737,-0.0326 0.302731,-0.0488 0.458985,-0.0488 0.266923,0 0.509436,0.0391 0.727539,0.11719 0.218094,0.0749 0.405269,0.19369 0.561523,0.35644 0.156245,0.16277 0.276688,0.3711 0.361329,0.625 0.08463,0.25066 0.126947,0.55176 0.126953,0.90332 l 0,3.55957 m 5.102539,0 -0.200196,-0.69824 -0.07813,0 c -0.08138,0.13997 -0.17904,0.26042 -0.292968,0.36133 -0.110681,0.0977 -0.232751,0.17903 -0.366211,0.24414 -0.133467,0.0651 -0.275069,0.1123 -0.424805,0.1416 -0.149742,0.0326 -0.302737,0.0488 -0.458984,0.0488 -0.26693,0 -0.509442,-0.0374 -0.727539,-0.11231 -0.218101,-0.0781 -0.405275,-0.19856 -0.561524,-0.36133 -0.156251,-0.16276 -0.276694,-0.36946 -0.361328,-0.62011 -0.08464,-0.25065 -0.126954,-0.55176 -0.126953,-0.90332 l 0,-3.55957 1.489258,0 0,3.18847 c -3e-6,0.39389 0.05859,0.69011 0.175781,0.88868 0.12044,0.19531 0.31087,0.29297 0.571289,0.29296 0.195309,1e-5 0.35807,-0.0391 0.488281,-0.11718 0.130205,-0.0781 0.232744,-0.19369 0.307617,-0.34668 0.07812,-0.153 0.13346,-0.3418 0.166016,-0.56641 0.03255,-0.22461 0.04882,-0.48177 0.04883,-0.77148 l 0,-2.56836 1.489258,0 0,5.45898 -1.137695,0 m 3.657226,0 -0.888672,0 0,-7.59765 0.888672,0 0,7.59765 m 2.597656,0 -0.888671,0 0,-5.36133 0.888671,0 0,5.36133 m -0.957031,-6.81152 c -10e-7,-0.19531 0.04883,-0.33691 0.146485,-0.42481 0.10091,-0.0879 0.224608,-0.13183 0.371093,-0.13183 0.07161,0 0.138345,0.0114 0.200196,0.0342 0.0651,0.0195 0.120441,0.0521 0.166015,0.0976 0.04883,0.0456 0.08626,0.10418 0.112305,0.17578 0.0293,0.0684 0.04394,0.15138 0.04394,0.24903 -2e-6,0.18881 -0.05208,0.33041 -0.15625,0.4248 -0.100913,0.0911 -0.222983,0.13673 -0.366211,0.13672 -0.146485,10e-6 -0.270183,-0.0456 -0.371093,-0.13672 -0.09766,-0.0911 -0.146486,-0.23274 -0.146485,-0.4248 m 6.015625,6.81152 0,-3.45215 c -4e-6,-0.42317 -0.08627,-0.74055 -0.258789,-0.95215 -0.169274,-0.21158 -0.436201,-0.31737 -0.800781,-0.31738 -0.263675,1e-5 -0.485029,0.0423 -0.664063,0.12695 -0.179038,0.0846 -0.323895,0.20997 -0.43457,0.37598 -0.107424,0.16602 -0.185549,0.36947 -0.234375,0.61035 -0.04557,0.24089 -0.06836,0.51758 -0.06836,0.83008 l 0,2.77832 -0.888672,0 0,-5.36133 0.722656,0 0.126953,0.72266 0.04883,0 c 0.08138,-0.13997 0.177407,-0.26041 0.288086,-0.36133 0.11393,-0.10416 0.237628,-0.19042 0.371094,-0.25879 0.133461,-0.0683 0.275062,-0.11881 0.424805,-0.15136 0.149736,-0.0326 0.302731,-0.0488 0.458984,-0.0488 0.595699,0 1.04329,0.15625 1.34278,0.46875 0.30273,0.30925 0.45409,0.80567 0.4541,1.48925 l 0,3.50098 -0.888677,0 m 6.020507,0 -0.13183,-0.71777 -0.0488,0 c -0.0814,0.13997 -0.17904,0.26204 -0.29297,0.36621 -0.11068,0.10091 -0.23275,0.18555 -0.36621,0.25391 -0.13347,0.0651 -0.27507,0.11393 -0.4248,0.14648 -0.14975,0.0326 -0.30274,0.0488 -0.45899,0.0488 -0.29623,0 -0.55664,-0.0374 -0.78125,-0.11231 -0.22461,-0.0749 -0.41178,-0.19205 -0.56152,-0.35156 -0.14974,-0.1595 -0.26368,-0.36295 -0.3418,-0.61035 -0.0749,-0.2474 -0.1123,-0.54199 -0.1123,-0.88379 l 0,-3.50098 0.88867,0 0,3.45215 c 0,0.42318 0.0863,0.74056 0.25879,0.95215 0.17252,0.21159 0.43945,0.31738 0.80078,0.31738 0.26367,0 0.48502,-0.0423 0.66406,-0.12695 0.17903,-0.0846 0.32226,-0.20833 0.42969,-0.37109 0.11067,-0.16602 0.1888,-0.36947 0.23437,-0.61036 0.0488,-0.24088 0.0732,-0.51757 0.0733,-0.83007 l 0,-2.78321 0.88867,0 0,5.36133 -0.71778,0 m 3.56934,-2.74902 -1.72363,-2.61231 1.01074,0 1.2207,2.00196 1.22071,-2.00196 1.01074,0 -1.7334,2.61231 1.82129,2.74902 -1.01074,0 -1.3086,-2.12891 -1.31836,2.12891 -1.01074,0 1.82129,-2.74902"
       id="text3063"
       inkscape:connector-curvature="0" />
  </g>
</svg>
