<?xml version="1.0" encoding="UTF-8" standalone="no"?>
<!-- Created with Inkscape (http://www.inkscape.org/) -->

<svg
   xmlns:dc="http://purl.org/dc/elements/1.1/"
   xmlns:cc="http://creativecommons.org/ns#"
   xmlns:rdf="http://www.w3.org/1999/02/22-rdf-syntax-ns#"
   xmlns:svg="http://www.w3.org/2000/svg"
   xmlns="http://www.w3.org/2000/svg"
   xmlns:sodipodi="http://sodipodi.sourceforge.net/DTD/sodipodi-0.dtd"
   xmlns:inkscape="http://www.inkscape.org/namespaces/inkscape"
   id="svg2"
   version="1.1"
   inkscape:version="0.47pre4 r22446"
   width="354.33124"
   height="354.33124"
   xml:space="preserve"
   sodipodi:docname="cof_orange_hex.svg"><metadata
     id="metadata8"><rdf:RDF><cc:Work
         rdf:about=""><dc:format>image/svg+xml</dc:format><dc:type
           rdf:resource="http://purl.org/dc/dcmitype/StillImage" /><dc:title /></cc:Work></rdf:RDF></metadata><defs
     id="defs6"><clipPath
       clipPathUnits="userSpaceOnUse"
       id="clipPath20"><path
         d="M 0,2834.65 0,0 l 2834.65,0 0,2834.65 -2834.65,0 z"
         id="path22" /></clipPath></defs><sodipodi:namedview
     pagecolor="#ffffff"
     bordercolor="#666666"
     borderopacity="1"
     objecttolerance="10"
     gridtolerance="10"
     guidetolerance="10"
     inkscape:pageopacity="0"
     inkscape:pageshadow="2"
     inkscape:window-width="640"
     inkscape:window-height="480"
     id="namedview4"
     showgrid="false"
     inkscape:showpageshadow="false"
     inkscape:zoom="0.30505051"
     inkscape:cx="382.5"
     inkscape:cy="495"
     inkscape:window-x="532"
     inkscape:window-y="353"
     inkscape:window-maximized="0"
     inkscape:current-layer="g12" /><g
     id="g12"
     inkscape:groupmode="layer"
     inkscape:label="ink_ext_XXXXXX"
     transform="matrix(1.25,0,0,-1.25,0,354.33125)"><g
       id="g14"
       transform="scale(0.1,0.1)"><g
         id="g16"><g
           id="g18"
           clip-path="url(#clipPath20)"><path
             d="M 2834.65,1417.31 C 2834.65,634.57 2200.08,0 1417.3,0 634.531,0 0,634.57 0,1417.31 c 0,782.79 634.531,1417.34 1417.3,1417.34 782.78,0 1417.35,-634.55 1417.35,-1417.34"
             style="fill:#dd3a21;fill-opacity:1;fill-rule:nonzero;stroke:none"
             id="path24" /><path
             d="m 1804.6,2088.16 c 90.5,-52.27 206.19,-21.27 258.42,69.2 52.25,90.51 21.28,206.19 -69.23,258.45 -90.49,52.24 -206.17,21.24 -258.43,-69.27 -52.23,-90.47 -21.24,-206.15 69.24,-258.38 z M 1417.33,864.57 c -83.21,0 -162.07,18.5 -232.85,51.43 L 1053,680.379 C 1162.83,626 1286.47,595.27 1417.33,595.27 c 76.1,0 149.68,10.55 219.61,29.91 12.37,76 57.5,146.05 129.44,187.59 71.82,41.468 154.94,45.582 226.88,18.39 139.92,137.578 230.97,324.76 244.22,533.21 l -269.68,3.93 C 1942.98,1085.94 1706.1,864.57 1417.33,864.57 z m 0,1105.51 c 288.77,0 525.65,-221.41 550.47,-503.73 l 269.68,3.93 c -13.27,208.44 -104.32,395.62 -244.25,533.2 -71.94,-27.18 -155.05,-23.06 -226.88,18.41 -71.93,41.53 -117.05,111.57 -129.42,187.57 -69.92,19.35 -143.5,29.91 -219.6,29.91 -130.86,0 -254.49,-30.73 -364.31,-85.12 l 131.47,-235.6 c 70.77,32.93 149.63,51.43 232.84,51.43 z M 864.578,1417.33 c 0,187.01 92.938,352.18 235.042,452.2 L 961.285,2101.27 C 795.688,1990.63 672.5,1821.5 621.34,1623.39 c 59.769,-48.72 97.957,-122.91 97.957,-206.08 0,-83.16 -38.192,-157.35 -97.969,-206.06 C 672.484,1013.13 795.676,844 961.273,733.359 l 138.347,231.75 C 957.516,1065.12 864.578,1230.29 864.578,1417.33 z M 1804.63,746.512 c -90.51,-52.25 -121.5,-167.93 -69.26,-258.403 52.26,-90.507 167.93,-121.519 258.44,-69.257 90.48,52.238 121.48,167.918 69.23,258.418 -52.24,90.468 -167.93,121.48 -258.41,69.242 z M 453.562,1606.53 c -104.531,0 -189.226,-84.69 -189.226,-189.22 0,-104.5 84.695,-189.2 189.226,-189.2 104.497,0 189.204,84.7 189.204,189.2 0,104.53 -84.707,189.22 -189.204,189.22"
             style="fill:#ffffff;fill-opacity:1;fill-rule:nonzero;stroke:none"
             id="path26" /></g></g></g></g></svg>