<?xml version="1.0" encoding="UTF-8" standalone="no"?>
<!-- Generator: Adobe Illustrator 14.0.0, SVG Export Plug-In . SVG Version: 6.00 Build 43363)  -->

<svg
   xmlns:dc="http://purl.org/dc/elements/1.1/"
   xmlns:cc="http://creativecommons.org/ns#"
   xmlns:rdf="http://www.w3.org/1999/02/22-rdf-syntax-ns#"
   xmlns:svg="http://www.w3.org/2000/svg"
   xmlns="http://www.w3.org/2000/svg"
   xmlns:sodipodi="http://sodipodi.sourceforge.net/DTD/sodipodi-0.dtd"
   xmlns:inkscape="http://www.inkscape.org/namespaces/inkscape"
   version="1.1"
   id="Layer_1"
   x="0px"
   y="0px"
   width="848.14203"
   height="737.84998"
   viewBox="0 0 848.14202 737.84998"
   enable-background="new 0 0 648.143 538"
   xml:space="preserve"
   inkscape:version="0.48.4 r9939"
   sodipodi:docname="UbuntuIcon.svg"
   inkscape:export-filename="/home/serrano/Projects/personal/getgnulinux/images/UbuntuIcon.png"
   inkscape:export-xdpi="12.203145"
   inkscape:export-ydpi="12.203145"><metadata
     id="metadata23"><rdf:RDF><cc:Work
         rdf:about=""><dc:format>image/svg+xml</dc:format><dc:type
           rdf:resource="http://purl.org/dc/dcmitype/StillImage" /><dc:title></dc:title></cc:Work></rdf:RDF></metadata><defs
     id="defs21" /><sodipodi:namedview
     pagecolor="#ffffff"
     bordercolor="#666666"
     borderopacity="1"
     objecttolerance="10"
     gridtolerance="10"
     guidetolerance="10"
     inkscape:pageopacity="0"
     inkscape:pageshadow="2"
     inkscape:window-width="1920"
     inkscape:window-height="1029"
     id="namedview19"
     showgrid="false"
     fit-margin-left="100"
     fit-margin-top="100"
     fit-margin-right="100"
     fit-margin-bottom="100"
     inkscape:zoom="0.62453532"
     inkscape:cx="424.0715"
     inkscape:cy="368.85004"
     inkscape:window-x="0"
     inkscape:window-y="25"
     inkscape:window-maximized="1"
     inkscape:current-layer="Layer_1" /><path
     d="m 600.517,270.078 c 0,93.926 -76.146,170.074 -170.078,170.074 -93.934,0 -170.079,-76.148 -170.079,-170.074 0,-93.932 76.146,-170.078 170.079,-170.078 93.933,0 170.078,76.146 170.078,170.078 z"
     id="path3"
     inkscape:connector-curvature="0"
     style="fill:#dd4814" /><path
     d="m 314.791,247.366 c -12.547,0 -22.712,10.166 -22.712,22.712 0,12.54 10.165,22.705 22.712,22.705 12.54,0 22.705,-10.165 22.705,-22.705 0,-12.546 -10.165,-22.712 -22.705,-22.712 z M 476.919,350.57 c -10.861,6.273 -14.585,20.153 -8.311,31.008 6.266,10.861 20.146,14.584 31.007,8.311 10.86,-6.266 14.584,-20.146 8.311,-31.008 -6.266,-10.854 -20.154,-14.577 -31.007,-8.311 z M 364.114,270.078 c 0,-22.44 11.146,-42.265 28.201,-54.27 l -16.601,-27.805 c -19.867,13.28 -34.649,33.573 -40.792,57.34 7.168,5.849 11.756,14.753 11.756,24.734 0,9.975 -4.588,18.879 -11.756,24.728 6.135,23.774 20.917,44.068 40.792,57.348 l 16.601,-27.812 C 375.26,312.343 364.114,292.519 364.114,270.078 z m 66.325,-66.332 c 34.65,0 63.078,26.567 66.062,60.448 l 32.356,-0.477 c -1.592,-25.013 -12.519,-47.468 -29.309,-63.98 -8.634,3.262 -18.607,2.763 -27.227,-2.206 -8.635,-4.983 -14.049,-13.389 -15.529,-22.514 -8.392,-2.316 -17.224,-3.584 -26.355,-3.584 -15.697,0 -30.538,3.687 -43.715,10.209 l 15.778,28.274 c 8.488,-3.95 17.957,-6.17 27.939,-6.17 z m 0,132.657 c -9.982,0 -19.451,-2.221 -27.938,-6.17 l -15.778,28.273 c 13.177,6.53 28.018,10.218 43.716,10.218 9.131,0 17.963,-1.269 26.354,-3.592 1.48,-9.125 6.896,-17.523 15.529,-22.515 8.626,-4.977 18.593,-5.467 27.227,-2.205 16.79,-16.512 27.717,-38.967 29.309,-63.98 l -32.364,-0.477 c -2.977,33.89 -31.404,60.448 -66.055,60.448 z m 46.472,-146.831 c 10.861,6.272 24.742,2.557 31.008,-8.304 6.273,-10.861 2.558,-24.742 -8.304,-31.016 -10.861,-6.266 -24.741,-2.543 -31.016,8.318 -6.265,10.855 -2.542,24.736 8.312,31.002 z"
     id="path5"
     inkscape:connector-curvature="0"
     style="fill:#ffffff" /><path
     d="m 190.651,632.025 c -4.606,1.152 -10.68501,2.375 -18.23801,3.669 -7.555,1.296 -16.296,1.941 -26.225,1.941 -8.633,0 -15.901,-1.261 -21.799,-3.774 -5.902,-2.517 -10.65,-6.079 -14.245,-10.686 -3.6,-4.604 -6.188,-10.037 -7.771,-16.296 -1.584,-6.258 -2.372996,-13.197 -2.372996,-20.826 V 523.03 h 20.072996 v 58.705 c 0,13.672 2.158,23.456 6.476,29.354 4.316,5.902 11.581,8.852 21.8,8.852 2.157,0 4.387,-0.072 6.69,-0.219 2.3,-0.141 4.458,-0.322 6.476,-0.539 2.013,-0.216 3.848,-0.431 5.504,-0.646 1.651,-0.216 2.839,-0.465 3.561,-0.755 V 523.03 H 190.653 l -0.002,108.995 0,0 z"
     id="path7"
     inkscape:connector-curvature="0" /><path
     d="m 239.644,527.993 c 2.444,-1.581 6.15,-3.237 11.114,-4.963 4.965,-1.729 10.685,-2.591 17.159,-2.591 8.058,0 15.216,1.438 21.477,4.315 6.259,2.88 11.547,6.907 15.862,12.088 4.317,5.181 7.589,11.368 9.821,18.562 2.229,7.195 3.346,15.106 3.346,23.739 0,9.065 -1.333,17.234 -3.992,24.5 -2.664,7.266 -6.441,13.416 -11.332,18.451 -4.895,5.039 -10.792,8.924 -17.698,11.656 -6.907,2.731 -14.677,4.1 -23.312,4.1 -9.354,0 -17.627,-0.646 -24.82,-1.941 -7.196,-1.295 -13.096,-2.589 -17.698,-3.885 V 471.229 l 20.073,-3.453 v 60.217 z m 0,89.788 c 2.013,0.576 4.855,1.115 8.525,1.617 3.669,0.506 8.235,0.757 13.705,0.757 10.792,0 19.425,-3.562 25.9,-10.685 6.475,-7.124 9.713,-17.23 9.713,-30.326 0,-5.752 -0.577,-11.147 -1.728,-16.188 -1.152,-5.035 -3.021,-9.388 -5.61,-13.057 -2.59,-3.67 -5.937,-6.547 -10.037,-8.636 -4.101,-2.084 -9.032,-3.129 -14.785,-3.129 -5.47,0 -10.505,0.938 -15.107,2.807 -4.607,1.872 -8.132,3.814 -10.576,5.826 v 71.014 l 0,0 z"
     id="path9"
     inkscape:connector-curvature="0" /><path
     d="m 430.44,632.025 c -4.607,1.152 -10.685,2.375 -18.238,3.669 -7.555,1.296 -16.295,1.941 -26.224,1.941 -8.635,0 -15.901,-1.261 -21.8,-3.774 -5.902,-2.517 -10.65,-6.079 -14.245,-10.686 -3.6,-4.604 -6.188,-10.037 -7.771,-16.296 -1.585,-6.26 -2.375,-13.199 -2.375,-20.828 V 523.03 h 20.073 v 58.705 c 0,13.672 2.158,23.456 6.475,29.354 4.316,5.902 11.581,8.852 21.8,8.852 2.157,0 4.388,-0.072 6.69,-0.219 2.3,-0.141 4.458,-0.322 6.475,-0.539 2.014,-0.216 3.849,-0.431 5.504,-0.646 1.652,-0.216 2.841,-0.465 3.562,-0.755 V 523.03 h 20.073 l 10e-4,108.995 0,0 z"
     id="path11"
     inkscape:connector-curvature="0" /><path
     d="m 459.359,526.268 c 4.604,-1.15 10.717,-2.375 18.346,-3.671 7.625,-1.294 16.402,-1.94 26.33,-1.94 8.922,0 16.33,1.261 22.231,3.775 5.898,2.521 10.609,6.043 14.138,10.576 3.522,4.533 6.006,9.967 7.446,16.296 1.437,6.333 2.158,13.312 2.158,20.938 v 63.021 h -20.074 v -58.708 c 0,-6.903 -0.469,-12.803 -1.401,-17.695 -0.938,-4.891 -2.48,-8.85 -4.642,-11.87 -2.157,-3.023 -5.036,-5.216 -8.633,-6.584 -3.6,-1.367 -8.061,-2.052 -13.381,-2.052 -2.16,0 -4.393,0.074 -6.691,0.217 -2.303,0.145 -4.497,0.324 -6.582,0.541 -2.09,0.215 -3.961,0.469 -5.61,0.755 -1.656,0.29 -2.844,0.506 -3.562,0.646 v 94.751 H 459.36 l -0.001,-108.996 0,0 z"
     id="path13"
     inkscape:connector-curvature="0" /><path
     d="m 596.412,523.03 h 42.52 v 16.835 h -42.52 v 51.799 c 0,5.611 0.43,10.253 1.295,13.921 0.863,3.671 2.158,6.549 3.885,8.634 1.728,2.088 3.885,3.562 6.476,4.425 2.59,0.863 5.61,1.297 9.063,1.297 6.187,0 11.08,-0.683 14.678,-2.052 3.595,-1.365 6.043,-2.337 7.339,-2.913 l 4.315,16.403 c -2.016,1.008 -5.578,2.304 -10.684,3.884 -5.109,1.582 -10.898,2.374 -17.375,2.374 -7.627,0 -13.92,-0.97 -18.886,-2.913 -4.965,-1.942 -8.957,-4.855 -11.979,-8.741 -3.022,-3.886 -5.146,-8.668 -6.367,-14.354 -1.225,-5.682 -1.836,-12.264 -1.836,-19.748 V 491.732 l 20.074,-3.453 0.002,34.751 0,0 z"
     id="path15"
     inkscape:connector-curvature="0" /><path
     d="m 748.142,632.025 c -4.606,1.152 -10.686,2.375 -18.237,3.669 -7.556,1.296 -16.295,1.941 -26.226,1.941 -8.633,0 -15.899,-1.261 -21.799,-3.774 -5.901,-2.517 -10.649,-6.079 -14.246,-10.686 -3.598,-4.604 -6.188,-10.037 -7.77,-16.296 -1.586,-6.26 -2.375,-13.199 -2.375,-20.828 V 523.03 h 20.074 v 58.705 c 0,13.672 2.157,23.456 6.475,29.354 4.316,5.902 11.58,8.852 21.799,8.852 2.158,0 4.387,-0.072 6.691,-0.219 2.299,-0.141 4.459,-0.322 6.475,-0.539 2.014,-0.216 3.848,-0.431 5.504,-0.646 1.652,-0.216 2.84,-0.465 3.562,-0.755 V 523.03 h 20.073 v 108.995 l 0,0 z"
     id="path17"
     inkscape:connector-curvature="0" /></svg>