<?xml version="1.0" encoding="UTF-8" standalone="no"?>
<!-- Created with Inkscape (http://www.inkscape.org/) -->

<svg
   xmlns:dc="http://purl.org/dc/elements/1.1/"
   xmlns:cc="http://creativecommons.org/ns#"
   xmlns:rdf="http://www.w3.org/1999/02/22-rdf-syntax-ns#"
   xmlns:svg="http://www.w3.org/2000/svg"
   xmlns="http://www.w3.org/2000/svg"
   xmlns:sodipodi="http://sodipodi.sourceforge.net/DTD/sodipodi-0.dtd"
   xmlns:inkscape="http://www.inkscape.org/namespaces/inkscape"
   width="268.5625"
   height="267.03134"
   id="svg8202"
   version="1.1"
   inkscape:version="0.48.2 r9819"
   sodipodi:docname="New document 12">
  <defs
     id="defs8204" />
  <sodipodi:namedview
     id="base"
     pagecolor="#ffffff"
     bordercolor="#666666"
     borderopacity="1.0"
     inkscape:pageopacity="0.0"
     inkscape:pageshadow="2"
     inkscape:zoom="0.7"
     inkscape:cx="341.81708"
     inkscape:cy="71.839375"
     inkscape:document-units="px"
     inkscape:current-layer="layer1"
     showgrid="false"
     fit-margin-top="5"
     fit-margin-left="5"
     fit-margin-right="5"
     fit-margin-bottom="5"
     inkscape:window-width="1366"
     inkscape:window-height="744"
     inkscape:window-x="0"
     inkscape:window-y="24"
     inkscape:window-maximized="1" />
  <metadata
     id="metadata8207">
    <rdf:RDF>
      <cc:Work
         rdf:about="">
        <dc:format>image/svg+xml</dc:format>
        <dc:type
           rdf:resource="http://purl.org/dc/dcmitype/StillImage" />
        <dc:title></dc:title>
      </cc:Work>
    </rdf:RDF>
  </metadata>
  <g
     inkscape:label="Layer 1"
     inkscape:groupmode="layer"
     id="layer1"
     transform="translate(-242.86161,-327.41793)">
    <path
       style="fill:#00adef;fill-opacity:1;fill-rule:nonzero;stroke:none"
       d="m 505.36161,332.41795 c -0.5959,-0.0152 -58.7669,9.58349 -129.2812,21.3125 l -10.7188,1.78125 0,93.9375 141.0625,0 c -0.053,-65.06446 -0.5012,-117.01693 -1.0625,-117.03125 z"
       id="path8186"
       inkscape:connector-curvature="0" />
    <path
       style="fill:#00adef;fill-opacity:1;fill-rule:nonzero;stroke:none"
       d="m 506.42411,469.4492 -141.0625,0 0,96.53125 c 7.7889,1.30768 7.244,1.22436 15.4062,2.59375 67.9324,11.39687 123.9979,20.7928 124.5938,20.875 0.5708,0.0786 1.023,-53.38463 1.0625,-120 z"
       id="path8182"
       inkscape:connector-curvature="0" />
    <path
       style="fill:#00adef;fill-opacity:1;fill-rule:nonzero;stroke:none"
       d="m 345.36161,469.4492 -97.5,0 0,76.6875 4.6875,0.84375 c 1.8691,0.34376 50.2096,8.4654 92.8125,15.625 l 0,-93.15625 z"
       id="path8178"
       inkscape:connector-curvature="0" />
    <path
       style="fill:#00adef;fill-opacity:1;fill-rule:nonzero;stroke:none"
       d="m 247.86161,449.4492 97.5,0 0,-90.625 -97.5,16.21875 0,74.40625 z"
       id="path8133"
       inkscape:connector-curvature="0" />
  </g>
</svg>
