<?xml version="1.0" encoding="UTF-8" standalone="no"?>
<!-- Created with Inkscape (http://www.inkscape.org/) -->
<svg
   xmlns:dc="http://purl.org/dc/elements/1.1/"
   xmlns:cc="http://creativecommons.org/ns#"
   xmlns:rdf="http://www.w3.org/1999/02/22-rdf-syntax-ns#"
   xmlns:svg="http://www.w3.org/2000/svg"
   xmlns="http://www.w3.org/2000/svg"
   xmlns:xlink="http://www.w3.org/1999/xlink"
   xmlns:sodipodi="http://sodipodi.sourceforge.net/DTD/sodipodi-0.dtd"
   xmlns:inkscape="http://www.inkscape.org/namespaces/inkscape"
   width="1300"
   height="1300"
   id="svg2"
   sodipodi:version="0.32"
   inkscape:version="0.46"
   sodipodi:docname="denfer.svg"
   sodipodi:docbase="/home/fetchelavache/My docs/Tropebil/Spirale/GetGNULinux/Work files/Graphics on GGL pages/More"
   inkscape:output_extension="org.inkscape.output.svg.inkscape"
   version="1.0"
   inkscape:export-filename="/home/fetchelavache/My docs/Tropebil/Spirale/GetGNULinux/Work files/Graphics on GGL pages/More/denfer.png"
   inkscape:export-xdpi="5.1199999"
   inkscape:export-ydpi="5.1199999">
  <defs
     id="defs4">
    <inkscape:perspective
       sodipodi:type="inkscape:persp3d"
       inkscape:vp_x="0 : 900 : 1"
       inkscape:vp_y="0 : 1000 : 0"
       inkscape:vp_z="3000 : 900 : 1"
       inkscape:persp3d-origin="1500 : 600 : 1"
       id="perspective71" />
    <linearGradient
       id="linearGradient3311">
      <stop
         offset="0"
         id="stop3313"
         style="stop-color:#ffffff;stop-opacity:0.3298969;" />
      <stop
         offset="1"
         id="stop3315"
         style="stop-color:#f5f5f5;stop-opacity:0;" />
    </linearGradient>
    <linearGradient
       id="linearGradient3230-537-744">
      <stop
         style="stop-color:#939ed9;stop-opacity:1;"
         id="stop4154"
         offset="0" />
      <stop
         style="stop-color:#8189b6;stop-opacity:1;"
         id="stop4156"
         offset="0.1875" />
      <stop
         style="stop-color:#1a2983;stop-opacity:0.94117647;"
         id="stop4158"
         offset="0.5" />
      <stop
         style="stop-color:#4557bf;stop-opacity:1;"
         id="stop4160"
         offset="0.90625" />
      <stop
         style="stop-color:#6462c1;stop-opacity:1;"
         id="stop4162"
         offset="1" />
    </linearGradient>
    <linearGradient
       id="linearGradient3230-258-644">
      <stop
         style="stop-color:#3b4ca7;stop-opacity:1;"
         id="stop4142"
         offset="0" />
      <stop
         style="stop-color:#1a2983;stop-opacity:0.94117647;"
         id="stop4146"
         offset="0.5" />
      <stop
         style="stop-color:#3c4db0;stop-opacity:1;"
         id="stop4148"
         offset="0.90625" />
      <stop
         style="stop-color:#6462c1;stop-opacity:1;"
         id="stop4150"
         offset="1" />
    </linearGradient>
    <linearGradient
       id="linearGradient3230-537">
      <stop
         style="stop-color:#818dd3;stop-opacity:1;"
         id="stop3902"
         offset="0" />
      <stop
         style="stop-color:#717aad;stop-opacity:1;"
         id="stop3904"
         offset="0.1875" />
      <stop
         style="stop-color:#16236e;stop-opacity:0.94117647;"
         id="stop3906"
         offset="0.5" />
      <stop
         style="stop-color:#3c4daf;stop-opacity:1;"
         id="stop3908"
         offset="0.90625" />
      <stop
         style="stop-color:#5350ba;stop-opacity:1;"
         id="stop3910"
         offset="1" />
    </linearGradient>
    <linearGradient
       x1="-50.16156"
       xlink:href="#linearGradient3230-537"
       gradientUnits="userSpaceOnUse"
       x2="1119.8883"
       gradientTransform="matrix(0.8363006,0,0,0.9711899,20.351038,51.404478)"
       y1="269.62119"
       y2="414.98923"
       id="linearGradient3250-332"
       inkscape:collect="always" />
    <linearGradient
       id="linearGradient3230-258">
      <stop
         style="stop-color:#818dd3;stop-opacity:1;"
         id="stop3890"
         offset="0" />
      <stop
         style="stop-color:#717aad;stop-opacity:1;"
         id="stop3892"
         offset="0.1875" />
      <stop
         style="stop-color:#16236e;stop-opacity:0.94117647;"
         id="stop3894"
         offset="0.5" />
      <stop
         style="stop-color:#3c4daf;stop-opacity:1;"
         id="stop3896"
         offset="0.90625" />
      <stop
         style="stop-color:#5350ba;stop-opacity:1;"
         id="stop3898"
         offset="1" />
    </linearGradient>
    <linearGradient
       x1="615.89221"
       xlink:href="#linearGradient3230-258"
       spreadMethod="pad"
       gradientUnits="userSpaceOnUse"
       y1="199.80284"
       gradientTransform="matrix(1.0321959,0,0,1.785355,12.39494,-159.16776)"
       x2="616.69653"
       y2="404.2226"
       id="linearGradient3168-328"
       inkscape:collect="always" />
    <linearGradient
       y2="414.98923"
       xlink:href="#linearGradient3230"
       gradientUnits="userSpaceOnUse"
       x2="1119.8883"
       gradientTransform="matrix(0.8363006,0,0,0.9711899,20.351038,51.404478)"
       y1="269.62119"
       x1="-50.16156"
       id="linearGradient3250"
       inkscape:collect="always" />
    <linearGradient
       y2="404.2226"
       xlink:href="#linearGradient3230"
       spreadMethod="pad"
       gradientUnits="userSpaceOnUse"
       x2="616.69653"
       gradientTransform="matrix(1.0321959,0,0,1.785355,12.39494,-159.16776)"
       y1="199.80284"
       x1="615.89221"
       id="linearGradient3168"
       inkscape:collect="always" />
    <linearGradient
       id="linearGradient3170">
      <stop
         style="stop-color:#ffffff;stop-opacity:1;"
         id="stop3172"
         offset="0" />
      <stop
         style="stop-color:#f5f5f5;stop-opacity:1;"
         id="stop3174"
         offset="1" />
    </linearGradient>
    <linearGradient
       id="linearGradient3230">
      <stop
         style="stop-color:#6f7ccd;stop-opacity:1;"
         id="stop3232"
         offset="0" />
      <stop
         style="stop-color:#616ba4;stop-opacity:1;"
         id="stop3666"
         offset="0.1875" />
      <stop
         style="stop-color:#121d59;stop-opacity:0.94117647;"
         id="stop3240"
         offset="0.5" />
      <stop
         style="stop-color:#36459d;stop-opacity:1;"
         id="stop3242"
         offset="0.90625" />
      <stop
         style="stop-color:#4744ad;stop-opacity:1;"
         id="stop3234"
         offset="1" />
    </linearGradient>
    <linearGradient
       id="linearGradient4384">
      <stop
         offset="0"
         id="stop4390"
         style="stop-color:#ffffff;stop-opacity:0;" />
      <stop
         style="stop-color:#ffffff;stop-opacity:0.49484536;"
         id="stop4396"
         offset="0.5" />
      <stop
         offset="1"
         id="stop4394"
         style="stop-color:#ffffff;stop-opacity:0;" />
    </linearGradient>
    <filter
       id="filter3183"
       inkscape:collect="always">
      <feGaussianBlur
         id="feGaussianBlur3185"
         stdDeviation="1.0542032"
         inkscape:collect="always" />
    </filter>
    <filter
       inkscape:collect="always"
       id="filter5751">
      <feGaussianBlur
         inkscape:collect="always"
         stdDeviation="19.422887"
         id="feGaussianBlur5753" />
    </filter>
    <radialGradient
       inkscape:collect="always"
       xlink:href="#linearGradient4384"
       id="radialGradient3307"
       cx="391.46466"
       cy="415.65839"
       fx="391.46466"
       fy="415.65839"
       r="220.44926"
       gradientTransform="matrix(1,0,0,0.9978401,0,0.8977991)"
       gradientUnits="userSpaceOnUse" />
    <radialGradient
       inkscape:collect="always"
       xlink:href="#linearGradient3311"
       id="radialGradient3309"
       gradientUnits="userSpaceOnUse"
       gradientTransform="matrix(1,0,0,0.9978401,0,0.8977991)"
       cx="351.46466"
       cy="172.33153"
       fx="351.46466"
       fy="172.33153"
       r="220.44926" />
  </defs>
  <sodipodi:namedview
     id="base"
     pagecolor="#ffffff"
     bordercolor="#666666"
     borderopacity="1.0"
     gridtolerance="10000"
     guidetolerance="10"
     objecttolerance="10"
     inkscape:pageopacity="0.0"
     inkscape:pageshadow="2"
     inkscape:zoom="0.18843284"
     inkscape:cx="1426.229"
     inkscape:cy="387.9"
     inkscape:document-units="px"
     inkscape:current-layer="g3351"
     inkscape:window-width="1680"
     inkscape:window-height="971"
     inkscape:window-x="4"
     inkscape:window-y="48"
     width="3000px"
     height="1800px"
     inkscape:showpageshadow="false"
     showgrid="false" />
  <metadata
     id="metadata7">
    <rdf:RDF>
      <cc:Work
         rdf:about="">
        <dc:format>image/svg+xml</dc:format>
        <dc:type
           rdf:resource="http://purl.org/dc/dcmitype/StillImage" />
      </cc:Work>
    </rdf:RDF>
  </metadata>
  <g
     inkscape:label="Layer 1"
     inkscape:groupmode="layer"
     id="layer1"
     transform="translate(-355.22296,-246.72137)">
    <g
       id="g3351"
       transform="translate(345.23613,270.1848)"
       inkscape:export-filename="/home/fetchelavache/My docs/Tropebil/Spirale/GetGNULinux/GLM/Logo/denfer.png"
       inkscape:export-xdpi="25.52"
       inkscape:export-ydpi="25.52">
      <rect
         inkscape:export-ydpi="5.1161408"
         inkscape:export-xdpi="5.1161408"
         inkscape:export-filename="/home/fetchelavache/Desktop/denfer.png"
         ry="110.91466"
         rx="110.91466"
         y="100.74698"
         x="135.73456"
         height="1055.4829"
         width="1055.483"
         id="rect2205"
         style="fill:#91aabf;fill-opacity:1;stroke:none;stroke-width:25;stroke-miterlimit:4;stroke-dasharray:none;stroke-opacity:1" />
      <g
         transform="translate(-711.12883,1751.2871)"
         id="g5800">
        <g
           id="g5685"
           transform="matrix(0.8099948,0,0,0.8099948,304.03499,-164.14392)"
           style="filter:url(#filter5751)">
          <path
             transform="matrix(9.0394128,0,0,9.0394128,-1379.8643,-2620.9211)"
             style="opacity:0.3;fill:none;fill-opacity:1;stroke:#000000;stroke-width:6.08446598;stroke-miterlimit:1;stroke-dasharray:none;stroke-opacity:1;filter:url(#filter3183)"
             d="M 336.61443,155.54997 C 340.34613,170.95051 340.71367,188.99191 339.54551,206.83225 L 339.54551,206.83225 C 333.78196,208.02845 333.83465,210.64724 326.23953,209.64881 L 320.84441,195.55995 M 247.61511,108.60859 C 258.34688,124.08298 276.89184,139.55487 312.08019,134.62604 L 327.59234,110.55773 L 336.24492,104.7209 L 321.74422,132.73637 L 327.04294,133.52745 L 332.20889,143.71082 M 264.53345,209.46023 C 264.53146,209.46621 274.98916,199.26275 276.26904,177.28535"
             id="path3177"
             sodipodi:nodetypes="cccccccccccccc" />
          <path
             transform="matrix(9.0394128,0,0,9.0394128,-1379.8643,-2620.9211)"
             style="opacity:0.3;fill:none;fill-opacity:1;fill-rule:evenodd;stroke:#000000;stroke-width:6.08446598;stroke-linecap:butt;stroke-linejoin:miter;stroke-miterlimit:1;stroke-dasharray:none;stroke-opacity:1;filter:url(#filter3183)"
             d="M 322.52949,142.39987 L 345.16484,146.16282 C 345.16484,146.16282 340.54784,154.81607 333.73474,156.03865 C 326.92165,157.26122 314.51478,141.2559 314.51478,141.2559"
             id="path3179" />
          <path
             transform="matrix(9.0394128,0,0,9.0394128,-1379.8643,-2620.9211)"
             style="opacity:0.3;fill:none;fill-opacity:1;stroke:#000000;stroke-width:2.212533;stroke-miterlimit:1;stroke-dasharray:none;stroke-opacity:1;filter:url(#filter3183)"
             d="M 320.85617,195.82355 C 318.56037,200.49908 319.71532,210.33891 318.88324,211.14479 C 318.59128,211.42756 317.40396,206.61255 316.63461,205.56926 C 316.3331,205.1604 314.23289,208.96833 313.85121,208.25569 L 318.16974,184.89259 L 307.94244,209.4381 L 307.0227,196.49353 L 304.97084,211.50825 L 303.68569,207.30973 L 302.35434,211.62503 C 304.87023,206.58306 300.56767,193.51443 302.52511,188.2305 C 297.0868,192.04577 297.38598,213.39304 297.73894,210.0107 L 294.46003,182.60864 C 294.31579,182.60562 295.42438,200.58692 294.82575,206.59341 C 294.77913,207.06117 294.50376,200.47725 293.5396,200.7376 C 292.47623,201.02473 290.71552,210.09946 290.68097,210.08923 C 289.99858,209.88724 291.93412,182.0624 291.65234,183.56314 C 290.31372,190.69248 288.44287,204.15034 286.12757,206.06221 C 282.60481,208.97112 284.63349,203.83442 284.62133,204.49404 C 284.56827,207.37154 289.75339,183.75066 288.41856,179.22074 C 287.76031,176.98689 285.16354,194.42936 282.78964,203.72696 C 282.60638,204.44471 282.1605,201.98201 281.56858,202.383 C 280.74867,202.93843 279.73375,206.26149 279.51216,206.70176 C 279.14863,207.42407 280.9663,197.81132 279.87126,197.4857 C 279.05348,197.24253 275.17535,206.89681 275.31262,204.40137 C 275.43321,202.20891 280.33779,194.55524 280.45636,192.36268 C 280.75446,186.85064 281.94835,184.05753 281.40339,184.61778 L 275.17888,190.48683"
             id="path3181"
             sodipodi:nodetypes="cssccccccccccssssssssssssscc" />
        </g>
        <g
           transform="matrix(7.3218778,0,0,7.3218778,-851.14774,-2292.1934)"
           style="fill:#91aabf;fill-opacity:1;stroke:none;stroke-width:0.10926573;stroke-miterlimit:1;stroke-dasharray:none;stroke-opacity:1"
           id="g3163">
          <path
             sodipodi:nodetypes="cssssscccccccscccccccccccsscccccccccccccccccccccccccc"
             id="path3165"
             d="M 285.66531,190.93848 C 285.6319,191.33946 285.60143,191.74895 285.5779,192.18411 C 285.45933,194.37668 280.55208,202.03275 280.43148,204.22519 C 280.29421,206.72065 284.17555,197.06551 284.99333,197.30869 C 286.08837,197.6343 284.26923,207.24757 284.63274,206.52525 C 284.85433,206.08499 285.8725,202.75922 286.69241,202.2038 C 287.28433,201.8028 287.72746,204.26551 287.91071,203.54775 C 289.89777,195.35738 290.95656,186.8804 293.39585,178.84823 C 293.45162,178.84093 293.49676,178.9053 293.53792,179.04491 C 294.5259,186.4483 291.68386,197.43035 289.74092,204.31808 C 289.75309,203.65846 287.72603,208.79495 291.24879,205.88603 C 295.09506,200.1929 295.0889,190.21678 296.77218,183.38823 C 297.9227,190.97882 294.41142,201.97675 295.7997,209.91249 C 295.83426,209.92271 297.59911,200.84647 298.66246,200.55934 C 299.62662,200.29899 299.89974,206.88374 299.94634,206.41598 C 300.44688,198.42387 299.75076,190.42312 299.58029,182.43215 L 302.69439,208.46471 C 302.844,202.48157 302.97013,192.46041 307.64411,188.05386 C 305.61808,195.03616 309.34983,202.40404 308.08117,209.48089 L 308.8078,207.13166 L 310.09166,211.33294 L 312.14586,196.31435 L 313.06369,209.26236 L 323.29096,184.7158 L 318.97498,208.07682 C 319.35666,208.78946 321.4543,204.98549 321.75579,205.39436 C 322.52514,206.43764 323.7147,211.24967 324.00666,210.96691 C 324.83874,210.16102 323.90386,199.57281 326.26042,194.78825 L 331.36025,209.46995 C 338.95537,210.46839 338.90525,207.85257 344.66882,206.65637 C 345.83698,188.81603 345.20183,171.30282 340.11885,155.88324 C 345.58067,154.6416 350.28506,145.98656 350.28507,145.98656 C 350.28508,145.98656 337.33163,143.53354 337.33163,143.53354 L 332.16334,133.34997 L 326.86397,132.5578 L 341.36899,104.54206 L 332.71514,110.38231 L 324.61661,122.43929 C 324.16785,122.50214 316.30974,134.57212 315.86636,134.62838 C 315.42298,134.68464 325.86161,133.27505 316.04296,134.80498 C 281.72105,139.16051 263.33298,123.70896 252.73809,108.43192 L 265.80284,195.11346 L 269.65242,209.28422 C 269.65043,209.2902 280.11314,199.08831 281.39302,177.11091 C 282.6729,155.13351 280.30036,190.31021 280.30036,190.31021 L 286.52305,184.44264 C 287.02498,183.92663 286.05503,186.26068 285.66531,190.93848 M 308.08117,209.48089 L 307.47475,211.44768 C 307.75542,210.8852 307.95206,210.22119 308.08117,209.48089 z M 302.69439,208.46471 C 302.6901,209.9963 302.77145,210.66798 302.85827,209.836 L 302.69439,208.46471 z"
             style="fill:#91aabf;fill-opacity:1;stroke:none;stroke-width:0.52447551;stroke-miterlimit:1;stroke-dasharray:none;stroke-opacity:1" />
        </g>
        <g
           id="g5677"
           transform="matrix(0.8099948,0,0,0.8099948,119.19577,-204.98045)">
          <path
             style="fill:none;fill-opacity:1;stroke:#ffffff;stroke-width:55;stroke-miterlimit:1;stroke-dasharray:none;stroke-opacity:1"
             d="M 1891.1305,-1164.4249 C 1924.8629,-1025.2131 1928.1852,-862.12941 1917.6257,-700.86321 L 1917.6257,-700.86321 C 1865.5266,-690.05027 1866.0029,-666.37794 1797.3475,-675.40316 L 1748.5788,-802.75818 M 1086.6289,-1588.7474 C 1183.6378,-1448.868 1351.2733,-1309.0112 1669.3554,-1353.565 L 1809.5761,-1571.1283 L 1887.7903,-1623.8899 L 1756.7125,-1370.6465 L 1804.6098,-1363.4956 L 1851.307,-1271.4439 M 1239.5608,-677.10782 C 1239.5428,-677.05376 1334.0742,-769.28705 1345.6436,-967.94984"
             id="path3139"
             sodipodi:nodetypes="cccccccccccccc" />
          <path
             style="fill:none;fill-opacity:1;fill-rule:evenodd;stroke:#ffffff;stroke-width:55;stroke-linecap:butt;stroke-linejoin:miter;stroke-miterlimit:1;stroke-dasharray:none;stroke-opacity:1"
             d="M 1763.8109,-1283.2941 L 1968.4212,-1249.2792 C 1968.4212,-1249.2792 1926.6862,-1171.0589 1865.0998,-1160.0075 C 1803.5134,-1148.9562 1691.3626,-1293.6349 1691.3626,-1293.6349"
             id="path3141" />
          <path
             style="fill:none;fill-opacity:1;stroke:#ffffff;stroke-width:20;stroke-miterlimit:1;stroke-dasharray:none;stroke-opacity:1"
             d="M 1748.6851,-800.3754 C 1727.9324,-758.11135 1738.3725,-669.16506 1730.8509,-661.88038 C 1728.2118,-659.32431 1717.4791,-702.84917 1710.5246,-712.2799 C 1707.7992,-715.97575 1688.8145,-681.5543 1685.3643,-687.99615 L 1724.4013,-899.18486 L 1631.9525,-677.30786 L 1623.6386,-794.31917 L 1605.091,-658.59492 L 1593.474,-696.54707 L 1581.4394,-657.5393 C 1604.1816,-703.11574 1565.2889,-821.24848 1582.9831,-869.01211 C 1533.8239,-834.52431 1536.5283,-641.55752 1539.7189,-672.13189 L 1510.0795,-919.83042 C 1508.7756,-919.85772 1518.7966,-757.31733 1513.3854,-703.02219 C 1512.9639,-698.79391 1510.4748,-758.30868 1501.7593,-755.95527 C 1492.1471,-753.35978 1476.2313,-671.32955 1475.919,-671.42203 C 1469.7506,-673.2479 1487.2467,-924.76811 1484.6996,-911.2023 C 1472.5993,-846.75726 1455.6879,-725.1061 1434.7589,-707.82392 C 1402.9152,-681.52908 1421.2533,-727.96183 1421.1434,-721.99926 C 1420.6638,-695.98835 1467.5342,-909.50723 1455.4681,-950.45505 C 1449.5179,-970.64774 1426.0447,-812.97805 1404.586,-728.93321 C 1402.9294,-722.44517 1398.8989,-744.70653 1393.5483,-741.08182 C 1386.1368,-736.06106 1376.9625,-706.02255 1374.9595,-702.04276 C 1371.6734,-695.51351 1388.1041,-782.40712 1378.2055,-785.35054 C 1370.8133,-787.54865 1335.7573,-700.27963 1336.9981,-722.83694 C 1338.0882,-742.65549 1382.4227,-811.84017 1383.4945,-831.65963 C 1386.1892,-881.48523 1396.9812,-906.73331 1392.0551,-901.66898 L 1335.7892,-848.61621"
             id="path3143"
             sodipodi:nodetypes="cssccccccccccssssssssssssscc" />
        </g>
        <path
           transform="matrix(1.2646105,0,0,1.2868596,711.3919,-1647.4792)"
           d="M 720.00001,438.57144 A 24.285715,15.714286 0 1 1 671.42858,438.57144 A 24.285715,15.714286 0 1 1 720.00001,438.57144 z"
           sodipodi:ry="15.714286"
           sodipodi:rx="24.285715"
           sodipodi:cy="438.57144"
           sodipodi:cx="695.71429"
           id="path3135"
           style="fill:#ffffff;fill-opacity:1;stroke:#ffffff;stroke-width:7.55867195;stroke-miterlimit:1;stroke-dasharray:none;stroke-opacity:1"
           sodipodi:type="arc" />
        <path
           transform="matrix(0.4104241,0,0,0.5497471,1320.2455,-1330.5434)"
           d="M 720.00001,438.57144 A 24.285715,15.714286 0 1 1 671.42858,438.57144 A 24.285715,15.714286 0 1 1 720.00001,438.57144 z"
           sodipodi:ry="15.714286"
           sodipodi:rx="24.285715"
           sodipodi:cy="438.57144"
           sodipodi:cx="695.71429"
           id="path3137"
           style="fill:#91aabf;fill-opacity:1;stroke:#91aabf;stroke-width:18.42656517;stroke-miterlimit:1;stroke-dasharray:none;stroke-opacity:1"
           sodipodi:type="arc" />
      </g>
    </g>
  </g>
</svg>
