<?xml version="1.0" encoding="UTF-8" standalone="no"?>
<!DOCTYPE svg PUBLIC "-//W3C//DTD SVG 20010904//EN"
"http://www.w3.org/TR/2001/REC-SVG-20010904/DTD/svg10.dtd">
<!-- Created with Sodipodi ("http://www.sodipodi.com/") -->
<svg
   width="8.34112in"
   height="8.34112in"
   viewBox="0 0 600 600"
   id="svg602"
   sodipodi:version="0.32"
   sodipodi:docname="nu-gnu.svg"
   sodipodi:docbase="/home/sven"
   inkscape:version="0.39"
   xmlns="http://www.w3.org/2000/svg"
   xmlns:cc="http://web.resource.org/cc/"
   xmlns:inkscape="http://www.inkscape.org/namespaces/inkscape"
   xmlns:sodipodi="http://sodipodi.sourceforge.net/DTD/sodipodi-0.dtd"
   xmlns:rdf="http://www.w3.org/1999/02/22-rdf-syntax-ns#"
   xmlns:dc="http://purl.org/dc/elements/1.1/"
   xmlns:xlink="http://www.w3.org/1999/xlink">
  <defs
     id="defs605">
    <linearGradient
       id="linearGradient659">
      <stop
         style="stop-color:#a0a0a0;stop-opacity:1.0000000;"
         offset="0.0000000"
         id="stop660" />
      <stop
         style="stop-color:#000000;stop-opacity:1.0000000;"
         offset="1.0000000"
         id="stop661" />
    </linearGradient>
    <linearGradient
       xlink:href="#linearGradient659"
       id="linearGradient662"
       x1="0.46587536"
       y1="0.96732026"
       x2="0.45994064"
       y2="0.052287582" />
  </defs>
  <sodipodi:namedview
     id="base"
     inkscape:zoom="1.0000000"
     inkscape:cx="434.58488"
     inkscape:cy="295.12811"
     inkscape:window-width="1152"
     inkscape:window-height="778"
     inkscape:window-x="0"
     inkscape:window-y="28" />
  <path
     style="stroke-width:4.9952502;stroke-dasharray:none;stroke-linejoin:round;stroke-linecap:round;fill:none;stroke:#000000;stroke-opacity:1;stroke-miterlimit:4.0000000;stroke-dashoffset:0.0000000;"
     d="M 335.2118 491.4533 C 334.4359 503.2184 327.4246 515.8152 319.2938 522.2128 C 317.8149 513.6562 313.2017 507.5042 309.6694 505.3849 C 307.0583 511.1487 305.418 515.2081 299.06 522.566 C 299.06 523.566 252.7627 494.3132 244.2655 464.9962 C 234.5004 429.2 224.9888 427.4315 209.4996 384.4678 "
     id="path629"
     sodipodi:nodetypes="ccccsc" />
  <path
     style="stroke-width:4.9952502;stroke-dasharray:none;stroke-linejoin:round;stroke-linecap:round;fill:url(#linearGradient662);stroke:#000000;stroke-opacity:1;fill-opacity:1.0000000;fill-rule:nonzero;stroke-miterlimit:4.0000000;stroke-dashoffset:0.0000000;"
     d="M 178.6188 224.9427 C 209.9263 200.0186 227.9012 188.7853 246.9171 186.1561 C 261.5269 184.0816 269.5056 193.4981 281.4995 193 C 292.4995 196 312.5061 181.9991 322.9963 182.9981 C 332.9869 181.9991 352.5014 191.4986 362 192 C 386.9841 181.0121 420.9981 188.0019 437 211 C 455 232 471 264 471 264 C 471 264 541 274 562 195 C 570 147 563 121 552 97.00001 C 541 75.99997 514 55.99998 486 58.99999 C 458 61.99999 439 77.99999 426 78.99998 C 413 80.00002 402 77.00002 402 77.00002 C 402 77.00002 403 90.99999 416 95.00001 C 429 99 473 97.00001 484 106 C 495 115 511 148 507 175 C 503 202 484.9556 206.4053 480 207 C 459.9556 209.4053 439.1432 183.3722 425 163 C 409.6371 140.8708 396.4483 126.9078 371 126 C 350.9767 125.3036 328.9976 145.5967 321.5298 145.5871 C 307.0384 147.066 283.2767 121.5307 263 123 C 214.2767 126.5307 176.4986 212.2563 136.8234 212.9403 C 118.4986 213.2563 111 190 110 176 C 109 162 125 97.00001 167 95.99999 C 209 95.00001 229 99 243 95.00001 C 257 90.99999 262.5275 81.41526 265 77.00002 C 260.7613 78.76613 253.9356 81.99754 239.2339 78.5871 C 223.2387 74.58949 198.8759 49.64917 150 58.00001 C 93 68.99998 49 136 50 167 C 51 198 60 253 98 273 C 136 293 148 287 148 287 C 148 287 155.6681 243.5802 178.6188 224.9427 z "
     id="path630"
     sodipodi:nodetypes="cscccccccccccccssscsssccccccccs" />
  <path
     style="stroke-width:4.9952502;stroke-dasharray:none;stroke-linejoin:round;stroke-linecap:round;fill:none;stroke:#000000;stroke-opacity:1;stroke-miterlimit:4.0000000;stroke-dashoffset:0.0000000;"
     d="M 147.8855 287.5226 C 147.8855 287.5226 138.2336 319.0482 131 332 C 124.4432 343.5633 117.8306 355.4057 108 363 C 116.537 361.7637 188.7613 340.5323 213 318 C 233 299 238 231 248 222 C 258 213 275 211 275 211 "
     id="path631"
     sodipodi:nodetypes="cscccc" />
  <path
     style="stroke-width:4.9952502;stroke-dasharray:none;stroke-linejoin:round;stroke-linecap:round;fill:none;stroke:#000000;stroke-opacity:1;stroke-miterlimit:4.0000000;stroke-dashoffset:0.0000000;"
     d="M 470.7963 263.5462 C 473.0972 269.1725 481.6145 303.6388 503 297 C 495.3934 312.3229 489.6746 314.409 466 313.75 C 442.5789 313.089 421.93 296.24 415 283.5 C 413.5243 289.5267 417 303 416 307 C 415.6505 310.6747 415.301 311.8691 415.301 318.0486 "
     id="path632"
     sodipodi:nodetypes="ccsccc" />
  <path
     style="stroke-width:4.9952502;stroke-dasharray:none;stroke-linejoin:round;stroke-linecap:round;fill:none;stroke:#000000;stroke-opacity:1;stroke-miterlimit:4.0000000;stroke-dashoffset:0.0000000;"
     d=""
     id="path633"
     sodipodi:nodetypes="c" />
  <path
     style="stroke-width:4.9952502;stroke-dasharray:none;stroke-linejoin:round;stroke-linecap:round;fill:none;stroke:#000000;stroke-opacity:1;stroke-miterlimit:4.0000000;stroke-dashoffset:0.0000000;"
     d="M 386.4582 343.6468 C 382.5727 325.6323 361.2984 311.5323 342 313 C 311 318 320 347 323 351 "
     id="path634"
     sodipodi:nodetypes="ccc" />
  <path
     style="font-size:12;stroke:#000000;stroke-width:4.2332773;stroke-linecap:round;stroke-linejoin:round;stroke-miterlimit:4.0000000;stroke-dasharray:none;stroke-dashoffset:0.0000000;"
     d="M 340.4276 333.0441 C 345.7303 329.3446 356.1831 330.9939 362.3405 339.2184 C 367.1419 345.4742 372.3137 356.9504 369.5237 359.2252 C 367.0865 361.4963 362.6976 355.4697 357.0041 353.0151 C 349.4282 349.5512 345.9981 352.0334 340.4276 345.756 C 336.7364 341.8237 337.0539 335.3979 340.4276 333.0441 z "
     id="path635"
     sodipodi:nodetypes="csssss" />
  <path
     style="stroke-width:4.9952502;stroke-dasharray:none;stroke-linejoin:round;stroke-linecap:round;fill:none;stroke:#000000;stroke-opacity:1;stroke-miterlimit:4.0000000;stroke-dashoffset:0.0000000;"
     d="M 388 211 C 381.75 214.25 375 225.75 374 245.75 C 378.5 261.25 401 286 409.5 307.5 C 410.5 318.5 424 325.5023 428 325.5023 C 432 325.5023 438.2588 318.442 445.9953 323.851 C 456.8243 331.7752 451.0364 352.6884 448.5033 359 C 445.0844 368.0178 440.3088 370.4733 439.8165 382.0894 C 439.4637 390.767 442.5165 392.5343 441 402 C 438.9255 415.4478 426 421 420 421 C 414 421 389.7773 416.6949 377.5042 416.4958 C 357.7237 416.1911 306.1779 434.9516 284.5126 387.9804 "
     id="path636"
     sodipodi:nodetypes="cccssssscsc" />
  <path
     style="stroke-width:4.9952502;stroke-dasharray:none;stroke-linejoin:round;stroke-linecap:round;fill:none;stroke:#000000;stroke-opacity:1;stroke-miterlimit:4.0000000;stroke-dashoffset:0.0000000;"
     d="M 434.5774 415.0769 C 437.6681 420.2869 436.381 436.5243 430.6953 447.9338 C 423.0276 459.3297 406.9192 478.7491 400.1143 485.1289 C 393.435 491.887 384.8897 512.3211 366.7203 522.9106 C 365.0255 509.5247 359.5967 512.4819 357.6787 498.4092 C 355.457 513.4889 346.6287 519.8411 339.7953 525.5323 C 340.5348 510.0465 333.4013 511.4827 332.8434 502.3056 "
     id="path637"
     sodipodi:nodetypes="ccscccc" />
  <path
     style="stroke-width:4.9952502;stroke-dasharray:none;stroke-linejoin:round;stroke-linecap:round;fill:none;stroke:#000000;stroke-opacity:1;stroke-dashoffset:0.0000000;stroke-miterlimit:4.0000000;"
     d="M 319 211 C 323.246 214.4967 335.4958 234.9869 337.2479 247.4837 "
     id="path638"
     sodipodi:nodetypes="cc" />
  <path
     style="stroke-width:4.9952502;stroke-dasharray:none;stroke-linejoin:round;stroke-linecap:round;fill:none;stroke:#000000;stroke-opacity:1;stroke-miterlimit:4.0000000;stroke-dashoffset:0.0000000;"
     d="M 394 200 C 394 200 406 211 407 215 C 408 219 410 241 405 242 "
     id="path639" />
  <path
     style="stroke-width:4.9952502;stroke-dasharray:none;stroke-linejoin:round;stroke-linecap:round;fill:none;stroke:#000000;stroke-opacity:1;stroke-miterlimit:4.0000000;stroke-dashoffset:0.0000000;"
     d="M 407.5 276 C 410.4271 280.228 415.5509 298.9247 415.5509 298.9247 "
     id="path640"
     sodipodi:nodetypes="cc" />
  <path
     style="stroke-width:4.9952502;stroke-dasharray:none;stroke-linejoin:round;stroke-linecap:round;fill:none;stroke:#000000;stroke-opacity:1;stroke-miterlimit:4.0000000;stroke-dashoffset:0.0000000;"
     d="M 407.5 249 C 407.5 249 407.5 241.5 407.5 241.5 "
     id="path641" />
  <path
     style="stroke-width:4.9952502;stroke-dasharray:none;stroke-linejoin:round;stroke-linecap:round;fill:#000000;stroke:#000000;stroke-opacity:1;fill-opacity:1;stroke-miterlimit:4.0000000;stroke-dashoffset:0.0000000;"
     d="M 378.5 250.75 C 378.5 250.75 392 245.25 395.75 245.75 C 399.5 246.25 412.5 254 412.5 254 C 412.5 254 411 261.25 409.75 260.5 C 408.5 259.75 404.25 253.25 399 252.5 C 393.75 251.75 378.5 250.75 378.5 250.75 z "
     id="path642" />
  <path
     style="font-size:12;stroke:#000000;stroke-width:4.4517350;stroke-linecap:round;stroke-linejoin:round;stroke-miterlimit:4.0000000;stroke-dasharray:none;stroke-dashoffset:0.0000000;"
     d="M 394.3958 252.1301 C 389.5081 251.9495 384.1834 254.9414 384.4866 261.0313 C 384.7339 265.8262 387.7268 267.4235 392.4543 267.8002 C 397.8957 268.217 401.1806 264.8412 401.0161 260.2463 C 400.8885 256.4698 398.6357 252.2801 394.3958 252.1301 z "
     id="path643"
     sodipodi:nodetypes="cssss" />
  <path
     style="stroke-width:4.9952502;stroke-dasharray:none;stroke-linejoin:round;stroke-linecap:round;fill:#000000;stroke:#000000;stroke-opacity:1;fill-opacity:1;stroke-miterlimit:4.0000000;stroke-dashoffset:0.0000000;"
     d="M 319.25 255.5 C 319.25 255.5 318.9962 251.2449 314 245.75 C 310.0028 245.2505 293.2495 247.4993 287.2495 249.9993 C 281.2495 252.4993 278.2439 258.2488 272 265 C 280.5 259.75 288.1727 255.8962 295.7467 254.5007 C 305.4947 252.7507 319.25 255.5 319.25 255.5 z "
     id="path644"
     sodipodi:nodetypes="ccccsc" />
  <path
     style="stroke-width:4.9952502;stroke-dasharray:none;stroke-linejoin:round;stroke-linecap:round;fill:none;stroke:#000000;stroke-opacity:1;stroke-miterlimit:4.0000000;stroke-dashoffset:0.0000000;"
     d="M 277.7472 265.4998 C 283.2421 270.2453 288.5179 274.0021 303.0082 272.5024 C 317.2486 268.2552 317.5 262.5 317.5 262.5 "
     id="path645"
     sodipodi:nodetypes="ccc" />
  <path
     style="stroke-width:4.9952502;stroke-dasharray:none;stroke-linejoin:round;stroke-linecap:round;fill:#000000;stroke:#000000;stroke-opacity:1;fill-opacity:1;stroke-miterlimit:4.0000000;stroke-dashoffset:0.0000000;"
     d="M 300.5238 252.6786 C 294.633 253.5973 290.9987 258.3661 292.0595 263.1213 C 292.9181 267.1623 296.2061 270.7279 301.3929 270.5238 C 307.5467 270.0435 310.9203 265.7623 310.1704 260.5788 C 309.3011 256.0176 304.8788 252.0257 300.5238 252.6786 z "
     id="path646"
     sodipodi:nodetypes="cssss" />
  <path
     style="stroke-width:4.9952502;stroke-dasharray:none;stroke-linejoin:round;stroke-linecap:round;fill:none;stroke:#000000;stroke-opacity:1;stroke-miterlimit:4.0000000;stroke-dashoffset:0.0000000;"
     d="M 275.24997,247.74203 C 278.74787,236.00253 286.75533,231.49930 293.75373,230.50000 C 309.00443,230.49910 314.00050,238.25190 315.25000,241.00000"
     id="path647"
     sodipodi:nodetypes="ccc" />
  <path
     style="stroke-width:4.9952502;stroke-dasharray:none;stroke-linejoin:round;stroke-linecap:round;fill:none;stroke:#000000;stroke-opacity:1;stroke-miterlimit:4.0000000;stroke-dashoffset:0.0000000;"
     d="M 374.7512 237.753 C 381.2451 233.7568 378.5019 234 387.2481 232.5 C 397.9926 230.5005 403.7448 237.4991 403.7448 237.4991 "
     id="path648"
     sodipodi:nodetypes="ccc" />
  <path
     style="fill:none;fill-rule:evenodd;stroke:black;stroke-opacity:1;stroke-width:4.9952502;stroke-linejoin:round;stroke-linecap:round;stroke-dasharray:none;stroke-dashoffset:0.0000000;fill-opacity:1;stroke-miterlimit:4.0000000;"
     d="M 386.8886 268.5594 C 390.094 268.9342 394.0485 270.0582 398.5027 269.6835 C 403.2067 269.4753 404.9135 268.0184 408.3685 266.0619 "
     id="path652"
     sodipodi:nodetypes="ccc" />
  <path
     style="fill:#000000;fill-rule:evenodd;stroke:black;stroke-opacity:1;stroke-width:4.9952502;stroke-linejoin:round;stroke-linecap:round;stroke-dasharray:none;stroke-dashoffset:0.0000000;fill-opacity:1;stroke-miterlimit:4.0000000;"
     d="M 426.917 453.2415 C 419.5347 458.1564 405.9031 459.6821 395.8892 460.2315 C 386.2148 460.7622 354.3059 463.0154 338.9408 458.7767 C 355.0124 463.0154 343.2971 458.4308 358.9315 461.7304 C 363.9692 468.2091 396.2584 470.8825 412.0629 469.8858 C 415.9639 465.8422 422.8268 458.186 426.917 453.2415 z "
     id="path656"
     sodipodi:nodetypes="cscccc" />
  <path
     sodipodi:type="arc"
     style="fill-rule:evenodd;stroke:none;fill:#ffffff;fill-opacity:1;stroke-opacity:1;stroke-width:3.1250000;stroke-linejoin:round;stroke-linecap:round;stroke-miterlimit:4.0000000;stroke-dasharray:none;stroke-dashoffset:0.0000000;"
     id="path657"
     d="M 299.72 261.4412 A 2.247894 2.372787 0 1 0 295.2242 261.4412 A 2.247894 2.372787 0 1 0  299.72 261.4412 z"
     sodipodi:cx="297.472137"
     sodipodi:cy="261.441223"
     sodipodi:rx="2.24789429"
     sodipodi:ry="2.37278748"
     transform="matrix(1.33334,0,0,1.33334,-98.4101,-87.60663)" />
  <path
     sodipodi:type="arc"
     style="fill-rule:evenodd;stroke:none;fill:#f2f2f2;fill-opacity:1;stroke-opacity:1;stroke-width:3.1250000;stroke-linejoin:round;stroke-linecap:round;stroke-miterlimit:4.0000000;stroke-dasharray:none;stroke-dashoffset:0.0000000;"
     id="path658"
     d="M 299.72 261.4412 A 2.247894 2.372787 0 1 0 295.2242 261.4412 A 2.247894 2.372787 0 1 0  299.72 261.4412 z"
     sodipodi:cx="297.472137"
     sodipodi:cy="261.441223"
     sodipodi:rx="2.24789429"
     sodipodi:ry="2.37278748"
     transform="matrix(1.166669,0,0,1.166672,43.45883,-46.17665)" />
  <path
     style="fill:none;fill-rule:evenodd;stroke:black;stroke-opacity:1;stroke-width:4.9952502;stroke-linejoin:round;stroke-linecap:round;stroke-dasharray:none;stroke-dashoffset:0.0000000;fill-opacity:1;stroke-miterlimit:4.0000000;"
     d="M 309.731 505.1258 C 311.1439 501.5936 310.9673 496.6483 310.4375 492.0565 "
     id="path736"
     sodipodi:nodetypes="cc" />
  <path
     style="fill:none;fill-rule:evenodd;stroke:black;stroke-opacity:1;stroke-width:4.9952502;stroke-linejoin:round;stroke-linecap:round;stroke-dasharray:none;stroke-dashoffset:0.0000000;fill-opacity:1;stroke-miterlimit:4.0000000;"
     d="M 357.6535 498.5306 C 357.6535 494.9983 357.1383 492.6523 356.7244 489.7157 "
     id="path737"
     sodipodi:nodetypes="cc" />
  <metadata
     id="metadata1601">
    <rdf:RDF
       id="RDF1602">
      <cc:Work
         rdf:about=""
         id="Work1603">
        <dc:format
           id="format1604">image/svg+xml</dc:format>
        <dc:type
           id="type1606"
           rdf:resource="http://purl.org/dc/dcmitype/StillImage" />
      </cc:Work>
    </rdf:RDF>
  </metadata>
</svg>
