<?xml version="1.0" encoding="UTF-8" standalone="no"?>
<!-- Created with Inkscape (http://www.inkscape.org/) -->

<svg
   xmlns:dc="http://purl.org/dc/elements/1.1/"
   xmlns:cc="http://creativecommons.org/ns#"
   xmlns:rdf="http://www.w3.org/1999/02/22-rdf-syntax-ns#"
   xmlns:svg="http://www.w3.org/2000/svg"
   xmlns="http://www.w3.org/2000/svg"
   xmlns:sodipodi="http://sodipodi.sourceforge.net/DTD/sodipodi-0.dtd"
   xmlns:inkscape="http://www.inkscape.org/namespaces/inkscape"
   version="1.1"
   width="986.69"
   height="292.60501"
   id="svg2"
   xml:space="preserve"
   inkscape:version="0.48.4 r9939"
   sodipodi:docname="switch_to_linux.choose_a_distribution.ubuntu.svg"
   inkscape:export-filename="/home/serrano/public_html/getgnulinux/images/UbuntuLogo.png"
   inkscape:export-xdpi="23.077156"
   inkscape:export-ydpi="23.077156"><sodipodi:namedview
     pagecolor="#ffffff"
     bordercolor="#666666"
     borderopacity="1"
     objecttolerance="10"
     gridtolerance="10"
     guidetolerance="10"
     inkscape:pageopacity="0"
     inkscape:pageshadow="2"
     inkscape:window-width="1920"
     inkscape:window-height="1029"
     id="namedview19"
     showgrid="false"
     inkscape:zoom="0.489"
     inkscape:cx="498.26947"
     inkscape:cy="72.433934"
     inkscape:window-x="0"
     inkscape:window-y="25"
     inkscape:window-maximized="1"
     inkscape:current-layer="svg2"
     fit-margin-left="20"
     fit-margin-top="40"
     fit-margin-bottom="40"
     fit-margin-right="20"><inkscape:grid
       type="xygrid"
       id="grid2996"
       empspacing="5"
       visible="true"
       enabled="true"
       snapvisiblegridlinesonly="true"
       originx="-1.25875px"
       originy="-177.5162px" /></sodipodi:namedview><metadata
     id="metadata8"><rdf:RDF><cc:Work
         rdf:about=""><dc:format>image/svg+xml</dc:format><dc:type
           rdf:resource="http://purl.org/dc/dcmitype/StillImage" /><dc:title></dc:title></cc:Work></rdf:RDF></metadata><defs
     id="defs6"><clipPath
       id="clipPath20"><path
         d="m 0,8418.9 11905.5,0 L 11905.5,0 0,0 0,8418.9 z"
         id="path22"
         inkscape:connector-curvature="0" /></clipPath></defs><g
     transform="matrix(1.25,0,0,-1.25,-280.53125,842.8075)"
     id="g12"><g
       transform="matrix(0.1,0,0,0.1,24,113.6)"
       id="g14"><g
         id="g16"><g
           clip-path="url(#clipPath20)"
           id="g18"><path
             d="m 9737.77,4833.2 c 0,-250.31 -202.93,-453.25 -453.26,-453.25 -250.33,0 -453.26,202.94 -453.26,453.25 0,250.33 202.93,453.26 453.26,453.26 250.33,0 453.26,-202.93 453.26,-453.26"
             id="path24"
             style="fill:#dd4814;fill-opacity:1;fill-rule:nonzero;stroke:none"
             inkscape:connector-curvature="0" /><path
             d="m 9408.36,5047.75 c 28.95,-16.72 65.94,-6.82 82.64,22.13 16.72,28.94 6.81,65.94 -22.13,82.66 -28.95,16.69 -65.94,6.77 -82.66,-22.17 -16.7,-28.93 -6.78,-65.92 22.15,-82.62 m -123.85,-391.31 c -26.6,0 -51.83,5.92 -74.45,16.45 l -42.05,-75.35 c 35.12,-17.41 74.67,-27.23 116.5,-27.23 24.34,0 47.87,3.38 70.24,9.57 3.94,24.32 18.38,46.7 41.38,60 22.99,13.26 49.55,14.57 72.56,5.88 44.75,44 73.87,103.85 78.11,170.51 l -86.25,1.27 c -7.93,-90.32 -83.69,-161.1 -176.04,-161.1 m 0,353.54 c 92.35,0 168.11,-70.8 176.06,-161.1 l 86.23,1.27 c -4.24,66.66 -33.36,126.51 -78.11,170.51 -23.01,-8.69 -49.59,-7.36 -72.56,5.88 -23,13.28 -37.44,35.68 -41.38,60 -22.37,6.17 -45.9,9.55 -70.24,9.55 -41.83,0 -81.38,-9.82 -116.5,-27.21 l 42.05,-75.35 c 22.62,10.53 47.85,16.45 74.45,16.45 M 9107.75,4833.2 c 0,59.8 29.71,112.64 75.16,144.63 l -44.24,74.1 c -52.95,-35.39 -92.34,-89.47 -108.71,-152.81 19.1,-15.59 31.33,-39.32 31.33,-65.92 0,-26.58 -12.23,-50.31 -31.33,-65.9 16.35,-63.36 55.74,-117.44 108.71,-152.83 l 44.24,74.12 c -45.45,31.97 -75.16,84.8 -75.16,144.61 m 300.63,-214.51 c -28.95,-16.72 -38.87,-53.71 -22.15,-82.64 16.7,-28.94 53.69,-38.87 82.64,-22.15 28.94,16.7 38.87,53.69 22.15,82.64 -16.7,28.92 -53.71,38.85 -82.64,22.15 m -432.07,275.04 c -33.44,0 -60.53,-27.09 -60.53,-60.53 0,-33.42 27.09,-60.51 60.53,-60.51 33.42,0 60.51,27.09 60.51,60.51 0,33.44 -27.09,60.53 -60.51,60.53"
             id="path26"
             style="fill:#ffffff;fill-opacity:1;fill-rule:nonzero;stroke:none"
             inkscape:connector-curvature="0" /><path
             d="m 3070.76,3643.89 c -46.06,-11.53 -106.84,-23.75 -182.38,-36.69 -75.54,-12.96 -162.96,-19.42 -262.24,-19.42 -86.34,0 -159.01,12.6 -218,37.75 -59.02,25.16 -106.5,60.79 -142.45,106.85 -35.98,46.03 -61.88,100.37 -77.7,162.96 -15.85,62.59 -23.74,131.99 -23.74,208.28 l 0,630.23 200.72,0 0,-587.06 c 0,-136.72 21.59,-234.56 64.76,-293.53 43.16,-59.03 115.81,-88.51 217.99,-88.51 21.58,0 43.87,0.72 66.91,2.18 23,1.4 44.58,3.23 64.75,5.39 20.13,2.16 38.48,4.3 55.04,6.46 16.53,2.16 28.4,4.65 35.61,7.55 l 0,947.52 200.73,0"
             id="path28"
             style="fill:#000000;fill-opacity:1;fill-rule:nonzero;stroke:none"
             inkscape:connector-curvature="0" /><path
             d="m 3560.68,3786.33 c 20.13,-5.76 48.56,-11.15 85.26,-16.17 36.69,-5.06 82.35,-7.57 137.05,-7.57 107.92,0 194.25,35.62 259,106.84 64.75,71.24 97.13,172.31 97.13,303.27 0,57.51 -5.77,111.48 -17.27,161.87 -11.53,50.35 -30.21,93.87 -56.11,130.56 -25.9,36.7 -59.36,65.47 -100.37,86.35 -41.01,20.84 -90.31,31.29 -147.84,31.29 -54.71,0 -105.06,-9.37 -151.09,-28.06 -46.07,-18.72 -81.31,-38.15 -105.76,-58.27 l 0,-710.11 z m 0,897.89 c 24.45,15.81 61.51,32.37 111.15,49.62 49.65,17.28 106.84,25.9 171.59,25.9 80.57,0 152.17,-14.38 214.76,-43.15 62.59,-28.8 115.47,-69.07 158.64,-120.88 43.17,-51.8 75.88,-113.68 98.21,-185.62 22.29,-71.96 33.45,-151.07 33.45,-237.39 0,-90.67 -13.32,-172.36 -39.93,-245 -26.64,-72.66 -64.41,-134.17 -113.31,-184.52 -48.94,-50.39 -107.92,-89.23 -176.99,-116.57 -69.06,-27.31 -146.77,-40.99 -233.1,-40.99 -93.55,0 -176.28,6.46 -248.22,19.42 -71.96,12.95 -130.95,25.89 -176.98,38.85 l 0,1607.98 200.73,34.52"
             id="path30"
             style="fill:#000000;fill-opacity:1;fill-rule:nonzero;stroke:none"
             inkscape:connector-curvature="0" /><path
             d="m 5468.64,3643.89 c -46.07,-11.53 -106.84,-23.75 -182.38,-36.69 -75.55,-12.96 -162.96,-19.42 -262.24,-19.42 -86.34,0 -159.01,12.6 -218,37.75 -59.02,25.16 -106.51,60.79 -142.45,106.85 -35.99,46.03 -61.88,100.37 -77.69,162.96 -15.86,62.59 -23.76,131.99 -23.76,208.28 l 0,630.23 200.73,0 0,-587.06 c 0,-136.72 21.59,-234.56 64.75,-293.53 43.17,-59.03 115.82,-88.51 218,-88.51 21.58,0 43.87,0.72 66.91,2.18 23,1.4 44.58,3.23 64.75,5.39 20.13,2.16 38.48,4.3 55.04,6.46 16.52,2.16 28.4,4.65 35.61,7.55 l 0,947.52 200.73,0"
             id="path32"
             style="fill:#000000;fill-opacity:1;fill-rule:nonzero;stroke:none"
             inkscape:connector-curvature="0" /><path
             d="m 5757.83,4701.47 c 46.04,11.51 107.17,23.75 183.47,36.71 76.25,12.94 164.02,19.41 263.3,19.41 89.22,0 163.3,-12.6 222.32,-37.76 58.99,-25.2 106.1,-60.43 141.37,-105.76 35.23,-45.33 60.06,-99.67 74.47,-162.96 14.36,-63.33 21.58,-133.12 21.58,-209.37 l 0,-630.23 -200.74,0 0,587.08 c 0,69.05 -4.69,128.04 -14.02,176.97 -9.38,48.9 -24.81,88.49 -46.41,118.7 -21.58,30.24 -50.37,52.16 -86.33,65.84 -35.99,13.67 -80.6,20.51 -133.8,20.51 -21.61,0 -43.93,-0.74 -66.92,-2.16 -23.04,-1.44 -44.99,-3.25 -65.83,-5.41 -20.89,-2.15 -39.6,-4.69 -56.11,-7.55 -16.56,-2.9 -28.44,-5.06 -35.62,-6.46 l 0,-947.52 -200.73,0"
             id="path34"
             style="fill:#000000;fill-opacity:1;fill-rule:nonzero;stroke:none"
             inkscape:connector-curvature="0" /><path
             d="m 7128.37,4733.84 425.2,0 0,-168.35 -425.2,0 0,-517.99 c 0,-56.12 4.3,-102.53 12.95,-139.21 8.63,-36.71 21.58,-65.49 38.85,-86.34 17.26,-20.88 38.84,-35.62 64.74,-44.25 25.9,-8.63 56.12,-12.96 90.65,-12.96 61.85,0 110.8,6.82 146.77,20.51 35.94,13.66 60.43,23.37 73.38,29.13 l 43.17,-164.03 c -20.16,-10.08 -55.78,-23.04 -106.84,-38.84 -51.09,-15.82 -108.98,-23.74 -173.75,-23.74 -76.27,0 -139.2,9.7 -188.85,29.13 -49.64,19.44 -89.57,48.57 -119.78,87.41 -30.22,38.86 -51.47,86.68 -63.67,143.55 -12.25,56.81 -18.36,122.64 -18.36,197.48 l 0,1001.47 200.74,34.53"
             id="path36"
             style="fill:#000000;fill-opacity:1;fill-rule:nonzero;stroke:none"
             inkscape:connector-curvature="0" /><path
             d="m 8645.68,3643.89 c -46.07,-11.53 -106.87,-23.75 -182.39,-36.69 -75.55,-12.96 -162.95,-19.42 -262.25,-19.42 -86.33,0 -159,12.6 -217.99,37.75 -59.01,25.16 -106.5,60.79 -142.46,106.85 -35.97,46.03 -61.87,100.37 -77.69,162.96 -15.86,62.59 -23.75,131.99 -23.75,208.28 l 0,630.23 200.74,0 0,-587.06 c 0,-136.72 21.58,-234.56 64.74,-293.53 43.17,-59.03 115.82,-88.51 217.99,-88.51 21.59,0 43.87,0.72 66.92,2.18 23,1.4 44.59,3.23 64.75,5.39 20.14,2.16 38.48,4.3 55.03,6.46 16.54,2.16 28.4,4.65 35.61,7.55 l 0,947.52 200.75,0"
             id="path38"
             style="fill:#000000;fill-opacity:1;fill-rule:nonzero;stroke:none"
             inkscape:connector-curvature="0" /></g></g></g></g></svg>