<?xml version="1.0" encoding="UTF-8" standalone="no"?>
<svg
   xmlns:dc="http://purl.org/dc/elements/1.1/"
   xmlns:cc="http://creativecommons.org/ns#"
   xmlns:rdf="http://www.w3.org/1999/02/22-rdf-syntax-ns#"
   xmlns:svg="http://www.w3.org/2000/svg"
   xmlns="http://www.w3.org/2000/svg"
   id="svg40"
   version="1.1"
   width="180"
   viewBox="0 0 179.99669 180.00374"
   height="180">
  <metadata
     id="metadata46">
    <rdf:RDF>
      <cc:Work
         rdf:about="">
        <dc:format>image/svg+xml</dc:format>
        <dc:type
           rdf:resource="http://purl.org/dc/dcmitype/StillImage" />
        <dc:title></dc:title>
      </cc:Work>
    </rdf:RDF>
  </metadata>
  <defs
     id="defs44" />
  <path
     style="fill:#d70751"
     id="path2"
     d="m 96.969756,65.515363 c -1.494,0.02 0.281,0.768 2.232002,1.069 0.541,-0.422 1.027002,-0.846 1.463002,-1.26 -1.213002,0.297 -2.449002,0.304 -3.695004,0.191" />
  <path
     style="fill:#d70751"
     id="path4"
     d="m 104.98675,63.516363 c 0.893,-1.229 1.541,-2.573 1.77,-3.963 -0.201,0.99 -0.736,1.845 -1.244,2.749 -2.793,1.759 -0.264,-1.044 -0.002,-2.111 -3.002,3.783 -0.414,2.268 -0.524,3.325" />
  <path
     style="fill:#d70751"
     id="path6"
     d="m 107.94975,55.812363 c 0.182,-2.691 -0.529,-1.839 -0.768,-0.814 0.278,0.146 0.499,1.898 0.768,0.814" />
  <path
     style="fill:#d70751"
     id="path8"
     d="m 91.301756,19.033363 c 0.798,0.142 1.724,0.252 1.591,0.443001 0.876,-0.193001 1.073,-0.367001 -1.591,-0.443001" />
  <path
     style="fill:#d70751"
     id="path10"
     d="m 92.893756,19.476364 -0.561,0.116999 0.523,-0.048 0.038,-0.069" />
  <path
     style="fill:#d70751"
     id="path12"
     d="m 117.76274,56.832363 c 0.09,2.416 -0.705,3.59 -1.424,5.666 l -1.293,0.643 c -1.057,2.054 0.105,1.304 -0.652,2.937 -1.652,1.467 -5.00599,4.589 -6.07999,4.875 -0.785,-0.017 0.531,-0.926 0.703,-1.281 -2.209,1.516 -1.773,2.276 -5.152,3.199 l -0.098,-0.221 c -8.329994,3.92 -19.901994,-3.847 -19.749994,-14.443 -0.088,0.672 -0.253,0.504 -0.437,0.774 -0.43,-5.451 2.518,-10.926 7.49,-13.165 4.863,-2.406 10.564004,-1.42 14.044994,1.829 -1.912,-2.506 -5.720992,-5.163 -10.231994,-4.917 -4.421,0.072 -8.558,2.881 -9.938,5.932 -2.264,1.425 -2.528,5.496 -3.514,6.242 -1.329,9.76 2.497,13.975 8.97,18.936 1.016,0.686 0.286,0.791 0.422,1.313 -2.15,-1.006 -4.118,-2.526 -5.738,-4.387 0.86,1.257 1.787,2.479 2.986,3.439 -2.029,-0.685 -4.738,-4.913 -5.527,-5.085 3.495,6.258 14.178,10.975 19.774994,8.634 -2.589992,0.096 -5.878994,0.053 -8.786994,-1.022 -1.225,-0.629 -2.884,-1.93 -2.587,-2.173 7.636002,2.851 15.521994,2.158 22.127984,-3.137 1.682,-1.31 3.518,-3.537 4.049,-3.567 -0.799,1.202 0.137,0.578 -0.477,1.639 1.672,-2.701 -0.729,-1.1 1.73,-4.664 l 0.908,1.25 c -0.34,-2.244 2.78499,-4.966 2.467,-8.512 0.71699,-1.084 0.79899,1.168 0.039,3.662 1.05499,-2.767 0.27899,-3.212 0.54899,-5.496 0.291,0.768 0.678,1.583 0.875,2.394 -0.688,-2.675 0.703,-4.503 1.049,-6.058 -0.342,-0.15 -1.061,1.182 -1.227,-1.976 0.025,-1.372 0.383,-0.719 0.52,-1.057 -0.268,-0.155 -0.975,-1.207 -1.404,-3.224 0.309,-0.475 0.832,1.229 1.256,1.298 -0.273,-1.603 -0.742,-2.826 -0.762,-4.057 -1.23999,-2.59 -0.439,0.346 -1.44299,-1.112 -1.32,-4.114 1.09399,-0.955 1.25799,-2.823 1.998,2.895 3.137,7.385 3.662,9.244 -0.4,-2.267 -1.045,-4.464 -1.834,-6.589 0.609,0.257 -0.979,-4.663 0.791,-1.405 -1.889,-6.945 -8.07799,-13.435 -13.77298,-16.479 0.69499,0.637 1.57399,1.437 1.25999,1.563 -2.83399,-1.685 -2.33599,-1.818 -2.74199,-2.53 -2.305,-0.939 -2.459,0.077 -3.984,0.002 -4.34999,-2.308 -5.18799,-2.063 -9.190994,-3.507 l 0.182,0.852 c -2.881,-0.96 -3.357,0.362 -6.47,0.002 -0.189,-0.147 0.998,-0.536 1.976,-0.677 -2.786,0.368 -2.656,-0.55 -5.382,0.101 0.671,-0.471 1.383,-0.784 2.099,-1.184 -2.271,0.138 -5.424,1.322 -4.451,0.244 -3.705,1.654 -10.286,3.975 -13.979,7.438 l -0.116,-0.776 c -1.692,2.031 -7.379,6.066 -7.832,8.699 l -0.453,0.105 c -0.879,1.491 -1.45,3.18 -2.148,4.713 -1.151,1.963 -1.688,0.756 -1.524,1.064 -2.265,4.592 -3.392,8.45 -4.363,11.616 0.692,1.035 0.017,6.232 0.278,10.391 -1.136,20.544 14.418,40.489017 31.42,45.093017 2.492,0.893 6.197,0.861 9.349,0.949 -3.718,-1.064 -4.198,-0.563 -7.822,-1.826 -2.613,-1.232 -3.185,-2.637 -5.037,-4.244 l 0.733,1.295 c -3.63,-1.285 -2.111,-1.59 -5.065,-2.525 l 0.783,-1.021002 c -1.177,-0.09 -3.117,-1.982002 -3.647,-3.033002 l -1.288,0.051 c -1.546,-1.906002 -2.371,-3.283004 -2.31,-4.350004 l -0.416,0.742 c -0.471,-0.809 -5.691,-7.158008 -2.983,-5.680006 -0.503,-0.458 -1.172,-0.747 -1.897,-2.066002 l 0.551,-0.629 c -1.301,-1.677001 -2.398,-3.826001 -2.314,-4.542001 0.695,0.938 1.177,1.114 1.655,1.275 -3.291,-8.164 -3.476,-0.449 -5.967,-8.31 l 0.526,-0.042 c -0.403,-0.611 -0.65,-1.27 -0.974,-1.919 l 0.23,-2.285 c -2.368,-2.736 -0.662,-11.645 -0.319,-16.53 0.235,-1.986 1.977,-4.101 3.3,-7.418 l -0.806,-0.138 c 1.542,-2.688 8.802,-10.799 12.166,-10.383 1.629,-2.046 -0.324,-0.008 -0.643,-0.522 3.579,-3.703 4.704,-2.616 7.119,-3.283 2.603,-1.545 -2.235,0.604 -1.001,-0.589 4.503,-1.149 3.19,-2.614 9.063,-3.197 0.62,0.352 -1.437,0.544 -1.953,1.001 3.75,-1.836 11.869002,-1.417 17.144994,1.018 6.117,2.861 12.99399,11.314 13.26599,19.267 l 0.309,0.083 c -0.156,3.162 0.484,6.819 -0.627,10.177 l 0.751,-1.591" />
  <path
     style="fill:#d70751"
     id="path14"
     d="m 80.658756,67.565363 -0.211,1.047 c 0.983,1.335 1.763,2.781 3.016,3.821 -0.902,-1.759 -1.571,-2.486 -2.805,-4.868" />
  <path
     style="fill:#d70751"
     id="path16"
     d="m 82.979756,67.475363 c -0.52,-0.576 -0.826,-1.268 -1.172,-1.956 0.33,1.211 1.006,2.252 1.633,3.312 l -0.461,-1.356" />
  <path
     style="fill:#d70751"
     id="path18"
     d="m 124.06373,58.545363 -0.219,0.552 c -0.402,2.858 -1.273,5.686 -2.60499,8.309 1.47199,-2.767 2.42099,-5.794 2.82399,-8.861" />
  <path
     style="fill:#d70751"
     id="path20"
     d="m 91.598756,18.316363 c 1.009,-0.369 2.482,-0.202999 3.556,-0.446 -1.398,0.117 -2.789,0.187 -4.162,0.362001 l 0.606,0.084" />
  <path
     style="fill:#d70751"
     id="path22"
     d="m 56.127756,37.178363 c 0.233,2.154 -1.62,2.991 0.41,1.569 1.09,-2.454 -0.424,-0.677 -0.41,-1.569" />
  <path
     style="fill:#d70751"
     id="path24"
     d="m 53.739756,47.152363 c 0.469,-1.437 0.553,-2.299 0.732,-3.132 -1.293,1.654 -0.596,2.007 -0.732,3.132" />
  <path
     id="path26"
     d="m 49.437756,143.38038 c -0.045,0.047 -0.045,7.506 -0.138,9.453 -0.092,1.574 -0.232,4.957 -3.568,4.957 -3.429001,0 -4.263001,-3.939 -4.541001,-5.652 -0.324,-1.9 -0.324,-3.477 -0.324,-4.17 0,-2.225 0.139,-8.436 5.375001,-8.436 1.576,0 2.456,0.465 3.151,0.834 l 0.045,3.02 z m -13.437002,5.47 c 0,13.066 6.951001,13.066 7.970001,13.066 2.873001,0 4.727001,-1.576 5.514001,-4.309 l 0.093,4.123 c 0.881,-0.047 1.761,-0.139 3.197,-0.139 0.51,0 0.926,0 1.298,0.047 0.371,0 0.741,0.045 1.158,0.092 -0.741,-1.482 -1.297,-4.818 -1.297,-12.049 0,-7.043 0,-18.951 0.602,-22.566 -1.667,0.789 -3.105,1.299 -6.256,1.576 1.251,1.344 1.251,2.039 1.251,8.154 -0.879,-0.277 -1.992,-0.602 -3.892,-0.602 -8.294002,0 -9.638002,7.23 -9.638002,12.61" />
  <path
     id="path28"
     d="m 61.130756,146.48038 c 0.047,-3.846 0.835,-7.275 4.124,-7.275 3.615,0 3.891,3.984 3.799,7.275 z m 12.51,0.46 c 0,-5.422 -1.065,-10.752 -7.923,-10.752 -9.452,0 -9.452,10.475 -9.452,12.697 0,9.406 4.216,13.113 11.306,13.113 3.149,0 4.68,-0.461 5.514,-0.695 -0.046,-1.668 0.185,-2.734 0.465,-4.17 -0.975,0.604 -2.226,1.391 -5.006,1.391 -7.229,0 -7.322,-6.582 -7.322,-8.852 h 12.328 l 0.09,-2.74" />
  <path
     id="path30"
     d="m 88.715756,148.94038 c 0,4.309 -0.787,10.102 -6.162,10.102 -0.742,0 -1.668,-0.141 -2.27,-0.279 -0.093,-1.668 -0.093,-4.541 -0.093,-7.877 0,-3.986 0.416,-6.068 0.742,-7.09 0.972,-3.289 3.15,-3.334 3.566,-3.334 3.522,0 4.217,4.86 4.217,8.48 z m -13.298,5.05 c 0,3.43 0,5.375 -0.556,6.857 1.9,0.742 4.262,1.158 7.09,1.158 1.807,0 7.043,0 9.869,-5.791 1.344,-2.688 1.807,-6.303 1.807,-9.037 0,-1.668 -0.186,-5.328 -1.529,-7.646 -1.296,-2.176 -3.382,-3.289 -5.605,-3.289 -4.449,0 -5.746,3.707 -6.44,5.607 0,-2.363 0.045,-10.611 0.415,-14.828 -3.011,1.391 -4.866,1.621 -6.857,1.807 1.807,0.74 1.807,3.801 1.807,13.764 v 11.397" />
  <path
     id="path32"
     d="m 102.53575,161.73038 c -0.92799,-0.139 -1.57799,-0.232 -2.921992,-0.232 -1.48,0 -2.502002,0.094 -3.566002,0.232 0.463,-0.881 0.648,-1.299 0.787,-4.309 0.186,-4.125 0.232,-15.154 -0.092,-17.471 -0.232,-1.762 -0.648,-2.039 -1.297,-2.502 3.799002,-0.371 4.865004,-0.648 6.624994,-1.482 -0.36899,2.037 -0.41799,3.059 -0.41799,6.162 -0.091,15.98 -0.138,17.7 0.88299,19.6" />
  <path
     id="path34"
     d="m 117.37374,148.61038 c -0.092,2.92 -0.139,4.959 -0.928,6.58 -0.973,2.086 -2.594,2.688 -3.799,2.688 -2.78299,0 -3.38299,-2.316 -3.38299,-4.586 0,-4.355 3.89299,-4.682 5.65199,-4.682 z m -12.74399,5.7 c 0,2.92 0.881,5.838 3.477,7.09 1.158,0.51 2.316,0.51 2.688,0.51 4.26399,0 5.69899,-3.152 6.57999,-5.098 -0.047,2.039 0,3.289 0.139,4.912 0.834,-0.047 1.668,-0.139 3.059,-0.139 0.787,0 1.52899,0.092 2.31599,0.139 -0.51,-0.787 -0.787,-1.252 -0.92799,-3.059 -0.092,-1.76 -0.092,-3.521 -0.092,-5.977 l 0.047,-9.453 c 0,-3.523 -0.928,-6.998 -7.879,-6.998 -4.58599,0 -7.27299,1.391 -8.61699,2.086 0.557,1.02 1.02,1.898 1.436,3.893 1.809,-1.576 4.172,-2.41 6.57999,-2.41 3.848,0 3.848,2.549 3.848,6.162 -0.881,-0.045 -1.623,-0.137 -2.875,-0.137 -5.88699,0.01 -9.77899,2.28 -9.77899,8.49" />
  <path
     id="path36"
     d="m 144.06072,157.14038 c 0.047,1.576 0.047,3.244 0.695,4.588 -1.021,-0.092 -1.623,-0.232 -3.521,-0.232 -1.113,0 -1.715,0.094 -2.596,0.232 0.184,-0.602 0.279,-0.834 0.371,-1.623 0.139,-1.064 0.232,-4.633 0.232,-5.885 v -5.004 c 0,-2.178 0,-5.33 -0.141,-6.441 -0.092,-0.787 -0.322,-2.918 -3.012,-2.918 -2.641,0 -3.521,1.945 -3.846,3.521 -0.36899,1.621 -0.36899,3.383 -0.36899,10.24 0.045,5.932 0.045,6.486 0.50799,8.109 -0.78699,-0.092 -1.75999,-0.184 -3.14999,-0.184 -1.113,0 -1.854,0.045 -2.779,0.184 0.324,-0.742 0.51,-1.113 0.602,-3.707 0.094,-2.549 0.279,-15.061 -0.141,-18.025 -0.23,-1.809 -0.695,-2.225 -1.203,-2.688 3.754,-0.186 4.957,-0.789 6.117,-1.389 v 4.91 c 0.55499,-1.438 1.71299,-4.635 6.34799,-4.635 5.793,0 5.838,4.217 5.885,6.996 v 13.928" />
  <path
     style="fill:#d70751"
     id="path38"
     d="m 102.92675,129.40038 -3.837992,3.836 -3.836002,-3.836 3.836002,-3.836 3.837992,3.84" />
</svg>
