<?xml version="1.0" encoding="UTF-8" standalone="no"?>
<!-- Created with Inkscape (http://www.inkscape.org/) -->
<svg id="svg3077" xmlns:rdf="http://www.w3.org/1999/02/22-rdf-syntax-ns#" xmlns="http://www.w3.org/2000/svg" height="142.41" width="146.25" version="1.1" xmlns:cc="http://creativecommons.org/ns#" xmlns:xlink="http://www.w3.org/1999/xlink" xmlns:dc="http://purl.org/dc/elements/1.1/">
 <defs id="defs3">
  <linearGradient id="linearGradient3435" y2="14.203" gradientUnits="userSpaceOnUse" x2="35.391" y1="32.416" x1="12.274">
   <stop id="stop3437" stop-color="#ffffc8" offset="0"/>
   <stop id="stop3439" stop-color="#9a91ef" stop-opacity="0.0000000" offset="1"/>
  </linearGradient>
  <linearGradient id="linearGradient4236">
   <stop id="stop4238" stop-color="#FFF" stop-opacity="0.32673267" offset="0"/>
   <stop id="stop4240" stop-color="#FFF" stop-opacity="0.60396039" offset="1"/>
  </linearGradient>
  <linearGradient id="linearGradient23353" y2="18.367" gradientUnits="userSpaceOnUse" x2="17.743" y1="31.495" x1="28.703">
   <stop id="stop6030" stop-color="#FFF" offset="0"/>
   <stop id="stop6032" stop-color="#FFF" stop-opacity="0" offset="1"/>
  </linearGradient>
  <radialGradient id="radialGradient23368" xlink:href="#linearGradient3435" gradientUnits="userSpaceOnUse" cy="23.914" cx="133.84" gradientTransform="matrix(-0.14083848,0.03871904,-0.35833014,-1.3034133,113.74077,8.941743)" r="21.333"/>
  <radialGradient id="radialGradient23371" xlink:href="#linearGradient3435" gradientUnits="userSpaceOnUse" cy="21.618" cx="35.511" gradientTransform="matrix(0.29549124,-0.05340469,0.29234707,1.6175827,62.754215,-81.244971)" r="21.333"/>
  <radialGradient id="radialGradient23374" xlink:href="#linearGradient3435" gradientUnits="userSpaceOnUse" cy="33.378" cx="16.885" gradientTransform="matrix(0.01446341,-0.3427627,1.5192149,0.06410617,17.615062,-27.700778)" r="21.333"/>
  <radialGradient id="radialGradient23377" gradientUnits="userSpaceOnUse" cy="48.238" cx="53.557" gradientTransform="matrix(0.44205396,-0.44355491,1.2077517,1.2036617,7.34591,-59.244349)" r="21.333">
   <stop id="stop3423" stop-color="#FFF" offset="0"/>
   <stop id="stop3427" stop-color="#b8c04c" stop-opacity="0.0000000" offset="1"/>
  </radialGradient>
  <radialGradient id="radialGradient23380" gradientUnits="userSpaceOnUse" cy="38.807" cx="26.138" gradientTransform="matrix(2.1468032,-3.4664061,1.8700459,1.158187,-45.81474,14.30919)" r="21.333">
   <stop id="stop3408" stop-color="#b307ff" stop-opacity="0.82178217" offset="0"/>
   <stop id="stop3410" stop-color="#f0ff8b" stop-opacity="0.64356434" offset="1"/>
   <stop id="stop3412" stop-color="#FFF" stop-opacity="0.0000000" offset="1"/>
  </radialGradient>
  <radialGradient id="radialGradient23383" gradientUnits="userSpaceOnUse" cy="27.569" cx="37.751" gradientTransform="matrix(2.367713,2.6727456,-2.1820057,1.9329127,67.09117,-158.35943)" r="21.333">
   <stop id="stop3396" stop-color="#fff307" offset="0"/>
   <stop id="stop3398" stop-color="#166eff" offset="0.5"/>
   <stop id="stop3400" stop-color="#FFF" stop-opacity="0.0000000" offset="1"/>
  </radialGradient>
  <linearGradient id="linearGradient23387" y2="54.698" gradientUnits="userSpaceOnUse" x2="48.799" gradientTransform="matrix(2.7898641,0,0,2.7898641,14.94451,-101.09529)" y1="3.61" x1="10.502">
   <stop id="stop6038" stop-color="#FFF" offset="0"/>
   <stop id="stop6040" stop-color="#FFF" stop-opacity="0" offset="1"/>
  </linearGradient>
  <linearGradient id="linearGradient23390" y2="28" xlink:href="#linearGradient4236" gradientUnits="userSpaceOnUse" x2="29" gradientTransform="matrix(3.4873301,0,0,3.4873301,-0.826578,-108.36056)" y1="14.625" x1="21.125"/>
  <linearGradient id="linearGradient23397" y2="14.203" gradientUnits="userSpaceOnUse" x2="35.391" gradientTransform="matrix(3.3212663,0,0,3.3212663,3.158941,-108.06996)" y1="32.416" x1="12.274">
   <stop id="stop3043" stop-color="#FBFBFB" offset="0"/>
   <stop id="stop3045" stop-color="#B6B6B6" offset="0.5"/>
   <stop id="stop3047" stop-color="#E4E4E4" offset="1"/>
  </linearGradient>
  <linearGradient id="linearGradient23400" y2="34.307" gradientUnits="userSpaceOnUse" x2="32.511" gradientTransform="matrix(3.3212662,0,0,3.3212662,3.158941,-108.06995)" y1="11.188" x1="14.997">
   <stop id="stop3034" stop-color="#EBEBEB" offset="0"/>
   <stop id="stop3036" stop-color="#FFF" offset="0.5"/>
   <stop id="stop3038" stop-color="#EBEBEB" offset="1"/>
  </linearGradient>
  <radialGradient id="radialGradient23425" gradientUnits="userSpaceOnUse" cy="41.636" cx="23.335" gradientTransform="matrix(1,0,0,0.25,0,31.22703)" r="22.627">
   <stop id="stop23421" stop-color="#000" offset="0"/>
   <stop id="stop23423" stop-color="#000" stop-opacity="0" offset="1"/>
  </radialGradient>
 </defs>
 <metadata id="metadata4">
  <rdf:RDF>
   <cc:Work rdf:about="">
    <dc:format>image/svg+xml</dc:format>
    <dc:type rdf:resource="http://purl.org/dc/dcmitype/StillImage"/>
    <dc:title/>
    <dc:creator>
     <cc:Agent>
      <dc:title>Jakub Steiner</dc:title>
     </cc:Agent>
    </dc:creator>
    <dc:source>http://jimmac.musichall.cz</dc:source>
    <dc:subject>
     <rdf:Bag>
      <rdf:li>cdrom</rdf:li>
      <rdf:li>media</rdf:li>
      <rdf:li>removable</rdf:li>
      <rdf:li>cd</rdf:li>
      <rdf:li>audio</rdf:li>
     </rdf:Bag>
    </dc:subject>
    <cc:license rdf:resource="http://creativecommons.org/licenses/publicdomain/"/>
   </cc:Work>
   <cc:License rdf:about="http://creativecommons.org/licenses/publicdomain/">
    <cc:permits rdf:resource="http://creativecommons.org/ns#Reproduction"/>
    <cc:permits rdf:resource="http://creativecommons.org/ns#Distribution"/>
    <cc:permits rdf:resource="http://creativecommons.org/ns#DerivativeWorks"/>
   </cc:License>
  </rdf:RDF>
 </metadata>
 <g id="layer1" transform="translate(-9.707108,100.86579)">
  <path id="path23417" opacity="0.55" style="color:#000000;" d="m45.962,41.636c0,3.1242-10.131,5.6569-22.627,5.6569-12.497,0-22.627-2.5327-22.627-5.6569s10.131-5.6569,22.627-5.6569c12.497,0,22.627,2.5327,22.627,5.6569z" fill-rule="evenodd" transform="matrix(2.7898641,0,0,2.9748069,17.734374,-109.14435)" fill="url(#radialGradient23425)"/>
  <path id="path3040" d="m82.869-89.471c-32.216,0-58.122,25.906-58.122,58.122s25.906,58.122,58.122,58.122,58.122-25.906,58.122-58.122-25.906-58.122-58.122-58.122zm0,72.071c-7.6389,0-13.949-6.3104-13.949-13.949,0-7.6389,6.3104-13.949,13.949-13.949,7.6389,0,13.949,6.3104,13.949,13.949,0,7.6389-6.3104,13.949-13.949,13.949z" fill-rule="nonzero" fill="url(#linearGradient23400)"/>
  <path id="path3049" d="m82.869-89.471c-32.216,0-58.122,25.906-58.122,58.122s25.906,58.122,58.122,58.122,58.122-25.906,58.122-58.122-25.906-58.122-58.122-58.122zm0,72.071c-7.6389,0-13.949-6.3104-13.949-13.949,0-7.6389,6.3104-13.949,13.949-13.949,7.6389,0,13.949,6.3104,13.949,13.949,0,7.6389-6.3104,13.949-13.949,13.949z" fill-rule="nonzero" stroke="#808080" stroke-miterlimit="4" stroke-width="2.78986406" fill="url(#linearGradient23397)"/>
  <path id="path3051" opacity="0.10999995" d="m82.869-59.538c-15.742,0-28.189,12.813-28.189,28.189,0,15.742,12.813,28.189,28.189,28.189,15.742,0,28.189-12.813,28.189-28.189,0-15.742-12.813-28.189-28.189-28.189zm0,43.565c-8.4202,0-15.376-6.9558-15.376-15.376s6.9558-15.376,15.376-15.376,15.376,6.9558,15.376,15.376-6.9558,15.376-15.376,15.376z" fill-rule="nonzero"/>
  <path id="path3916" fill-rule="nonzero" fill="url(#linearGradient23390)" d="m98.423-85.279-10.034,39.043c3.1378,0.83561,5.6471,2.7772,7.3516,5.4641l34.573-21.061c-7.073-11.521-18.425-19.998-31.89-23.446z"/>
  <path id="path4214" d="m63.231,21.006,13.211-38.086c-3.0584-1.0908-5.3996-3.2322-6.8774-6.0501l-36.188,18.147c6.1016,12.064,16.718,21.445,29.854,25.989z" fill-rule="nonzero" fill="url(#linearGradient23390)"/>
  <path id="path5264" opacity="0.54644811" fill="none" stroke="url(#linearGradient23387)" stroke-miterlimit="4" stroke-width="2.78986406" d="m82.869-86.581c-30.615,0-55.233,24.618-55.233,55.233s24.618,55.233,55.233,55.233,55.233-24.618,55.233-55.233-24.618-55.233-55.233-55.233z"/>
  <path id="path6026" opacity="0.67213111" stroke-linejoin="miter" style="color:#000000;" fill="none" transform="matrix(2.7898641,0,0,2.7898641,15.191101,-100.8487)" stroke-dashoffset="0" stroke="url(#linearGradient23353)" stroke-linecap="butt" stroke-miterlimit="4" stroke-width="0.93053865" d="m30.406,24.931c0,3.3683-2.7305,6.0988-6.0988,6.0988s-6.0988-2.7305-6.0988-6.0988,2.7305-6.0988,6.0988-6.0988,6.0988,2.7305,6.0988,6.0988z"/>
  <path id="path3390" opacity="0.1142857" fill-rule="nonzero" fill="url(#radialGradient23383)" d="m82.869-89.471c-32.216,0-58.122,25.906-58.122,58.122s25.906,58.122,58.122,58.122,58.122-25.906,58.122-58.122-25.906-58.122-58.122-58.122zm0,72.071c-7.6389,0-13.949-6.3104-13.949-13.949,0-7.6389,6.3104-13.949,13.949-13.949,7.6389,0,13.949,6.3104,13.949,13.949,0,7.6389-6.3104,13.949-13.949,13.949z"/>
  <path id="path3404" opacity="0.09714284" d="m82.869-89.471c-32.216,0-58.122,25.906-58.122,58.122s25.906,58.122,58.122,58.122,58.122-25.906,58.122-58.122-25.906-58.122-58.122-58.122zm0,72.071c-7.6389,0-13.949-6.3104-13.949-13.949,0-7.6389,6.3104-13.949,13.949-13.949,7.6389,0,13.949,6.3104,13.949,13.949,0,7.6389-6.3104,13.949-13.949,13.949z" fill-rule="nonzero" fill="url(#radialGradient23380)"/>
  <path id="path3419" opacity="0.71428576" fill-rule="nonzero" fill="url(#radialGradient23377)" d="m82.869-89.471c-32.216,0-58.122,25.906-58.122,58.122s25.906,58.122,58.122,58.122,58.122-25.906,58.122-58.122-25.906-58.122-58.122-58.122zm0,72.071c-7.6389,0-13.949-6.3104-13.949-13.949,0-7.6389,6.3104-13.949,13.949-13.949,7.6389,0,13.949,6.3104,13.949,13.949,0,7.6389-6.3104,13.949-13.949,13.949z"/>
  <path id="path3431" opacity="0.62285713" d="m82.869-89.471c-32.216,0-58.122,25.906-58.122,58.122s25.906,58.122,58.122,58.122,58.122-25.906,58.122-58.122-25.906-58.122-58.122-58.122zm0,72.071c-7.6389,0-13.949-6.3104-13.949-13.949,0-7.6389,6.3104-13.949,13.949-13.949,7.6389,0,13.949,6.3104,13.949,13.949,0,7.6389-6.3104,13.949-13.949,13.949z" fill-rule="nonzero" fill="url(#radialGradient23374)"/>
  <path id="path3441" opacity="0.37142861" fill-rule="nonzero" fill="url(#radialGradient23371)" d="m82.869-89.471c-32.216,0-58.122,25.906-58.122,58.122s25.906,58.122,58.122,58.122,58.122-25.906,58.122-58.122-25.906-58.122-58.122-58.122zm0,72.071c-7.6389,0-13.949-6.3104-13.949-13.949,0-7.6389,6.3104-13.949,13.949-13.949,7.6389,0,13.949,6.3104,13.949,13.949,0,7.6389-6.3104,13.949-13.949,13.949z"/>
  <path id="path3445" opacity="0.23428572" d="m82.869-89.471c-32.216,0-58.122,25.906-58.122,58.122s25.906,58.122,58.122,58.122,58.122-25.906,58.122-58.122-25.906-58.122-58.122-58.122zm0,72.071c-7.6389,0-13.949-6.3104-13.949-13.949,0-7.6389,6.3104-13.949,13.949-13.949,7.6389,0,13.949,6.3104,13.949,13.949,0,7.6389-6.3104,13.949-13.949,13.949z" fill-rule="nonzero" fill="url(#radialGradient23368)"/>
 </g>
</svg>
