<?xml version="1.0" encoding="UTF-8" standalone="no"?>
<svg
   xmlns:dc="http://purl.org/dc/elements/1.1/"
   xmlns:cc="http://creativecommons.org/ns#"
   xmlns:rdf="http://www.w3.org/1999/02/22-rdf-syntax-ns#"
   xmlns:svg="http://www.w3.org/2000/svg"
   xmlns="http://www.w3.org/2000/svg"
   viewBox="0 0 550.08203 374.98514"
   height="374.98514"
   width="550.08203"
   xml:space="preserve"
   id="svg2"
   version="1.1"><metadata
     id="metadata8"><rdf:RDF><cc:Work
         rdf:about=""><dc:format>image/svg+xml</dc:format><dc:type
           rdf:resource="http://purl.org/dc/dcmitype/StillImage" /><dc:title></dc:title></cc:Work></rdf:RDF></metadata><defs
     id="defs6" /><g
     transform="matrix(1.3333333,0,0,-1.3333333,-65.1932,600.2221)"
     id="g10"><g
       transform="scale(0.1)"
       id="g12"><path
         id="path20"
         style="fill:#63cab7;fill-opacity:1;fill-rule:nonzero;stroke:none"
         d="m 2420.7564,2579.3074 -0.2,0.33 26.34,248.27 c 0.07,-0.01 0.15,-0.02 0.23,-0.03 l -26.37,-248.57" /><g
         transform="translate(-41.878387,566.67271)"
         id="g872"><g
           id="g855"><path
             id="path34"
             style="fill:#f0c20b;fill-opacity:1;fill-rule:nonzero;stroke:none"
             d="m 1845.07,1705.13 -49.97,265.01 -229.71,-13.71 z" /></g><g
           id="g865"><path
             d="m 1883.93,1967.56 -859.27,-96.38 c -68.515,-6.51 -136.293,43.48 -151.617,112.72 l -188.031,849.51 c -19.035,85.99 28.652,162.94 106.84,170.38 l 965.818,106.5 c 78.19,7.43 148.39,-58.32 156.66,-145.33 l 81.69,-859.62 c 6.66,-70.06 -43.57,-131.27 -112.09,-137.78"
             style="fill:#f0c20b;fill-opacity:1;fill-rule:nonzero;stroke:none"
             id="path16" /><path
             id="path38"
             style="fill:#ffffff;fill-opacity:1;fill-rule:nonzero;stroke:none"
             d="m 1357.7,2237.12 c -6.93,16.09 -12.45,32.3 -16.56,48.62 -4.1,16.3 -6.96,33.41 -8.59,51.3 16.09,6.95 32.3,12.47 48.61,16.58 16.3,4.1 33.42,6.96 51.33,8.57 7.05,-16.53 12.57,-32.74 16.56,-48.58 4.22,-16.78 7.08,-33.89 8.58,-51.34 -16.54,-7.04 -32.73,-12.56 -48.59,-16.56 -16.76,-4.21 -33.89,-7.08 -51.34,-8.59 z m -61.28,272.24 c 9.97,4.44 20.19,9.78 30.66,16.02 10.47,6.26 19.73,13.52 27.76,21.81 8.03,8.28 13.99,17.62 17.89,28 3.9,10.39 4.19,22.12 0.88,35.27 -4.9,19.49 -15.67,32.57 -32.27,39.22 -16.63,6.67 -36.48,7.09 -59.6,1.28 -9.52,-2.41 -17.92,-4.88 -25.22,-7.46 -7.32,-2.55 -13.95,-5.44 -19.89,-8.61 -5.94,-3.18 -11.96,-6.61 -18,-10.31 -6.06,-3.69 -12.37,-7.82 -18.93,-12.35 -9.32,10.17 -17.6,21.1 -24.87,32.76 -7.27,11.65 -13.07,24.17 -17.4,37.56 10.75,7.04 20.74,13.27 29.97,18.73 9.22,5.45 18.38,10.29 27.43,14.5 9.06,4.19 18.27,7.85 27.61,10.93 9.35,3.04 19.46,5.98 30.34,8.71 54.36,13.68 98.47,11.64 132.34,-6.09 33.85,-17.75 56.2,-48.12 67.04,-91.17 5.37,-21.31 5.91,-40.7 1.63,-58.13 -4.28,-17.47 -10.87,-32.98 -19.74,-46.52 -8.87,-13.58 -18.6,-25.17 -29.18,-34.83 -10.59,-9.64 -19.33,-17.03 -26.24,-22.14 l 15.57,-61.84 c -15.17,-6.7 -30.01,-11.91 -44.5,-15.55 -14.96,-3.76 -29.58,-5.98 -43.85,-6.68 l -29.43,116.89" /></g></g><g
         transform="translate(85.38835,570.77871)"
         id="g898"><g
           id="g839"
           style="fill:#ed1742;fill-opacity:1"><g
             id="g833"
             style="fill:#ed1742;fill-opacity:1" /><g
             id="g860"><path
               id="path18"
               style="fill:#ed1742;fill-opacity:1;fill-rule:nonzero;stroke:none"
               d="m 3068.36,2045.41 981.96,-106.73 c 60.5,-6.58 121.72,43.28 136.98,112.41 l 187.2,848.23 c 18.95,85.87 -21.39,162.77 -90.43,170.28 l -1076.03,116.95 c -69.04,7.5 -132.8,-58.09 -142.24,-144.99 l -93.3,-858.43 c -7.61,-69.97 35.37,-131.15 95.86,-137.72" /><path
               d="m 3089.67,1705.13 261.04,330.96 -219.09,37.29 z"
               style="fill:#ed1742;fill-opacity:1;fill-rule:nonzero;stroke:none"
               id="path36" /></g></g><path
           d="m 3695.3,2845.95 c 18.41,-0.58 36.35,-2.46 53.82,-5.71 17.91,-3.31 35.57,-8.01 53.01,-14.07 l -69.31,-335.73 c -16.6,0.2 -32.25,1.67 -46.94,4.39 -15.64,2.9 -30.99,7.18 -46.11,12.83 z m -89.01,-496.04 c 0.4,17.5 2.12,34.52 5.18,51.07 3.06,16.53 7.6,33.28 13.58,50.24 17.52,-0.4 34.53,-2.12 51.08,-5.18 16.54,-3.06 33.27,-7.6 50.23,-13.58 -0.47,-17.98 -2.21,-35.02 -5.18,-51.08 -3.14,-17 -7.66,-33.75 -13.58,-50.23 -17.97,0.47 -35,2.19 -51.07,5.16 -17.01,3.16 -33.75,7.7 -50.24,13.6"
           style="fill:#ffffff;fill-opacity:1;fill-rule:nonzero;stroke:none"
           id="path40" /></g><g
         transform="translate(52.966103,768.00849)"
         id="g885"><g
           transform="translate(-278.98638,1343.4224)"
           id="g906"><g
             id="g846"
             style="fill:#63cab7;fill-opacity:1"><g
               id="g851"
               style="fill:#ca6563;fill-opacity:1" /></g><g
             id="g912"><path
               style="fill:#359496;fill-opacity:0.83682006;fill-rule:nonzero;stroke:none;stroke-width:0.99999994"
               d="m 2754.3548,2015.235 c -301.44,0 -562.831,-171.5684 -691.831,-422.3584 -54.75,-106.45 -85.6348,-227.1722 -85.6348,-355.1222 0,-209.2099 82.6598,-399.03019 217.0898,-538.74019 65.98,-68.56996 144.4344,-125.07961 231.6944,-165.84961 l 194.1064,-317.47561 26.3379,248.27641 c 0.07,-0.01 0.1544,-0.0193 0.2344,-0.0293 l 0.4248,3.94043 c 35.18,-4.86998 71.0581,-7.5732 107.5781,-7.5732 166.97,0 321.6301,52.61235 448.3301,142.19235 199.12,140.79001 329.1358,372.84879 329.1358,635.25872 0,173.0301 -56.5148,332.8418 -152.0948,462.0118 -141.62,191.38 -369.0111,315.4688 -625.3711,315.4688 z"
               id="path28" /><path
               d="m 2692.6998,843.4296 -363.73,340.99 155.15,145.47 208.58,-195.55 419.24,392.99 155.15,-145.45 -574.39,-538.45"
               style="fill:#ffffff;fill-opacity:1;fill-rule:nonzero;stroke:none"
               id="path42" /></g></g></g><path
         id="path44"
         style="fill:#000000;fill-opacity:0.24454148;fill-rule:nonzero;stroke:none"
         d="m 2506.1864,2064.2774 c -613.91,0 -1111.59,37.44 -1111.59,83.62 0,46.19 497.68,83.63 1111.59,83.63 613.91,0 1111.59,-37.44 1111.59,-83.63 0,-46.18 -497.68,-83.62 -1111.59,-83.62" /></g></g></svg>