<?xml version="1.0" encoding="UTF-8" standalone="no"?>
<svg
   xmlns:dc="http://purl.org/dc/elements/1.1/"
   xmlns:cc="http://creativecommons.org/ns#"
   xmlns:rdf="http://www.w3.org/1999/02/22-rdf-syntax-ns#"
   xmlns:svg="http://www.w3.org/2000/svg"
   xmlns="http://www.w3.org/2000/svg"
   viewBox="0 0 479.83465 490.82767"
   height="490.82767"
   width="479.83466"
   xml:space="preserve"
   id="svg2"
   version="1.1"><metadata
     id="metadata8"><rdf:RDF><cc:Work
         rdf:about=""><dc:format>image/svg+xml</dc:format><dc:type
           rdf:resource="http://purl.org/dc/dcmitype/StillImage" /><dc:title></dc:title></cc:Work></rdf:RDF></metadata><defs
     id="defs6"><clipPath
       id="clipPath34"
       clipPathUnits="userSpaceOnUse"><path
         id="path32"
         d="M 1345.33,1778.21 H 4301.56 V 3585.67 H 1345.33 Z" /></clipPath><clipPath
       id="clipPath46"
       clipPathUnits="userSpaceOnUse"><path
         id="path44"
         d="M 1345.34,1778.21 H 4301.56 V 3741.24 H 1345.34 Z" /></clipPath><clipPath
       id="clipPath88"
       clipPathUnits="userSpaceOnUse"><path
         id="path86"
         d="M 1345.34,1778.21 H 4301.56 V 3453.46 H 1345.34 Z" /></clipPath><clipPath
       id="clipPath166"
       clipPathUnits="userSpaceOnUse"><path
         id="path164"
         d="m 2780.75,3764.89 c -1.28,0 -2.56,0.49 -3.53,1.46 -1.95,1.95 -1.95,5.12 0,7.07 l 78.09,78.1 c 0.98,0.97 2.26,1.46 3.54,1.46 1.28,0 2.56,-0.49 3.53,-1.46 1.95,-1.96 1.95,-5.12 0,-7.07 l -78.09,-78.1 c -0.98,-0.97 -2.26,-1.46 -3.54,-1.46" /></clipPath></defs><g
     transform="matrix(1.3333333,0,0,-1.3333333,-136.54266,614.34232)"
     id="g10"><g
       transform="scale(0.1)"
       id="g12"><path
         id="path16"
         style="fill:#000000;fill-opacity:0.16157209;fill-rule:nonzero;stroke:none"
         d="m 2849.8,1076.36 c -857.5,0 -1552.64,27.43 -1552.64,61.26 0,33.84 695.14,61.27 1552.64,61.27 857.5,0 1552.63,-27.43 1552.63,-61.27 0,-33.83 -695.13,-61.26 -1552.63,-61.26" /><path
         id="path18"
         style="fill:#d8d7d5;fill-opacity:1;fill-rule:nonzero;stroke:none"
         d="m 3213.58,1665.26 h -780.26 l -62.93,-448.24 h 906.12 l -62.93,448.24" /><path
         id="path20"
         style="fill:#a4a4a3;fill-opacity:1;fill-rule:nonzero;stroke:none"
         d="m 3241.26,1433.86 h -835.63 l 20.71,173.09 h 794.21 l 20.71,-173.09" /><path
         id="path22"
         style="fill:#f5f5f5;fill-opacity:1;fill-rule:nonzero;stroke:none"
         d="m 2172.76,1166.36 v 0 c 0,41.16 33.37,74.53 74.54,74.53 h 1152.3 c 41.17,0 74.54,-33.37 74.54,-74.53 H 2172.76" /><path
         id="path24"
         style="fill:#222020;fill-opacity:1;fill-rule:nonzero;stroke:none"
         d="M 4400.13,3756.93 H 1246.77 c -40.15,0 -72.7,-32.54 -72.7,-72.7 V 1679.65 c 0,-40.15 32.55,-72.7 72.7,-72.7 h 3153.36 c 40.15,0 72.7,32.55 72.7,72.7 v 2004.58 c 0,40.16 -32.55,72.7 -72.7,72.7" /><path
         id="path26"
         style="fill:#5cc8c6;fill-opacity:1;fill-rule:nonzero;stroke:none"
         d="M 1345.33,1778.21 H 4301.56 V 3585.67 H 1345.33 Z" /><g
         id="g28"><g
           clip-path="url(#clipPath34)"
           id="g30"><path
             id="path36"
             style="fill:#61cac7;fill-opacity:1;fill-rule:nonzero;stroke:none"
             d="m 1345.33,1778.21 v 0 16.07 h 0.01 v -16.07 m 1204.51,51.06 -76.47,24.33 c 33.63,13.49 63.61,34.16 88.03,60.11 l -11.56,-84.44 m -375.97,119.62 -194.78,61.97 -513.13,-51.02 1122.9,1541.04 c 2.72,-41.31 6.96,-82.52 12.75,-123.69 l -0.66,-0.51 c -55.12,-43.23 -83.26,-111.98 -72.42,-176.94 l 47.93,-287.22 h 21.89 l 31.62,142.7 c 5.17,23.3 14.76,45.16 27.81,64.65 l 2.26,-8.25 h 65.4 -49.18 l -0.02,-0.03 8.06,-14.78 c 5.46,-10.01 15.96,-16.24 27.36,-16.24 h 9.53 l -120.88,-882.74 c -41.34,78.66 -123.85,132.32 -218.88,132.32 -136.48,0 -247.11,-110.64 -247.11,-247.11 0,-49.45 14.53,-95.52 39.55,-134.15 m 934.06,537.9 -28.25,593.78 h 9.63 c 11.4,0 22.45,6.23 28.81,16.24 l 9.38,14.78 -0.02,0.03 h 16.23 l 2.95,8.14 c 10.4,-17.95 17.69,-37.92 21.17,-59.16 v 0 c 0.03,-0.13 0.05,-0.27 0.07,-0.4 0,-0.01 0,-0.02 0,-0.04 0.02,-0.12 0.04,-0.24 0.06,-0.37 0.01,-0.01 0.01,-0.03 0.01,-0.05 0.02,-0.12 0.04,-0.24 0.06,-0.36 0,-0.02 0.01,-0.04 0.01,-0.07 0.02,-0.11 0.04,-0.22 0.05,-0.34 0.01,-0.03 0.01,-0.06 0.02,-0.09 0.01,-0.11 0.03,-0.21 0.04,-0.31 0.01,-0.04 0.02,-0.09 0.02,-0.13 0.02,-0.1 0.03,-0.19 0.05,-0.29 0,-0.04 0.01,-0.09 0.02,-0.14 0.01,-0.09 0.03,-0.18 0.04,-0.27 0.01,-0.06 0.01,-0.11 0.02,-0.17 0.01,-0.08 0.03,-0.16 0.04,-0.25 0.01,-0.06 0.02,-0.12 0.03,-0.18 0.01,-0.08 0.02,-0.16 0.03,-0.24 0.01,-0.07 0.02,-0.13 0.03,-0.2 0.01,-0.08 0.02,-0.14 0.03,-0.21 0.01,-0.08 0.02,-0.16 0.03,-0.24 0.01,-0.07 0.02,-0.12 0.03,-0.18 0.01,-0.1 0.02,-0.2 0.04,-0.3 0,-0.04 0.01,-0.09 0.01,-0.12 0.02,-0.15 0.04,-0.28 0.06,-0.43 v 0 l 18.87,-142.7 h 21.89 l 57.42,224.1 c 15.33,-23.34 24.52,-51.17 25.82,-81.4 l 6.12,-142.7 h 21.89 l 99.26,287.22 c 22.44,64.96 6.59,133.71 -40.8,176.94 l -128.39,117.12 -3.01,-5.01 c 5.25,32.29 9.56,64.59 12.94,96.88 h 648.01 L 3107.94,2486.79" /><path
             id="path38"
             style="fill:#61cac7;fill-opacity:1;fill-rule:nonzero;stroke:none"
             d="m 3137.26,1870.75 -4.95,104.06 c 21.56,-11.26 44.98,-19.43 69.69,-23.94 l -55.6,-76.31 -9.14,-3.81 m 327.49,440.71 c -41.77,77.58 -123.75,130.32 -218.04,130.32 -27.82,0 -54.57,-4.59 -79.53,-13.05 L 3610,3036.44 c -0.01,-0.6 -0.02,-1.2 -0.02,-1.8 0,-33.39 27.06,-60.46 60.45,-60.46 h 272.52 c 1.6,0 3.19,0.03 4.77,0.09 l -482.97,-662.81 m 185.47,780.17 359.99,494.04 h 291.35 v -125.79 l -243.98,-334.83 c -13.94,50.2 -59.98,87.04 -114.63,87.04 -49.26,0 -91.54,-29.94 -109.6,-72.63 -16.33,13.82 -37.44,22.15 -60.5,22.15 -42.76,0 -78.83,-28.63 -90.08,-67.78 -3.98,0.83 -8.11,1.27 -12.34,1.27 -7.09,0 -13.89,-1.22 -20.21,-3.47" /></g></g><g
         id="g40"><g
           clip-path="url(#clipPath46)"
           id="g42"><path
             id="path48"
             style="fill:#92dad8;fill-opacity:1;fill-rule:nonzero;stroke:none"
             d="m 1837.65,2770.38 h -155.36 c -47.27,0 -85.59,38.33 -85.59,85.6 0,47.27 38.32,85.59 85.59,85.59 21.07,0 40.33,-7.64 55.24,-20.27 16.49,39 55.11,66.37 100.12,66.37 60,0 108.64,-48.64 108.64,-108.64 0,-60 -48.64,-108.65 -108.64,-108.65" /><path
             id="path50"
             style="fill:#92dad8;fill-opacity:1;fill-rule:nonzero;stroke:none"
             d="m 3947.72,2974.27 109.86,150.78 c 2.82,-10.16 4.33,-20.86 4.33,-31.91 0,-64.11 -50.7,-116.37 -114.19,-118.87 M 3610,3036.44 c 0.75,25.52 17.31,47.07 40.22,55.19 L 3610,3036.44" /><path
             id="path52"
             style="fill:#98dcda;fill-opacity:1;fill-rule:nonzero;stroke:none"
             d="m 3942.95,2974.18 h -272.52 c -33.39,0 -60.45,27.07 -60.45,60.46 0,0.6 0.01,1.2 0.02,1.8 l 40.22,55.19 c 6.32,2.25 13.12,3.47 20.21,3.47 4.23,0 8.36,-0.44 12.34,-1.27 11.25,39.15 47.32,67.78 90.08,67.78 23.06,0 44.17,-8.33 60.5,-22.15 18.06,42.69 60.34,72.63 109.6,72.63 54.65,0 100.69,-36.84 114.63,-87.04 l -109.86,-150.78 c -1.58,-0.06 -3.17,-0.09 -4.77,-0.09" /><path
             id="path54"
             style="fill:#ffffff;fill-opacity:1;fill-rule:nonzero;stroke:none"
             d="M 4442.2,1148.5 H 1232.42 v 788.12 l 746.68,74.24 847.48,-269.62 800.75,333.81 814.87,-138.43 V 1148.5" /><path
             id="path56"
             style="fill:#52c5ba;fill-opacity:1;fill-rule:nonzero;stroke:none"
             d="m 3085.16,2113 c 0,-87.46 -70.9,-158.35 -158.35,-158.35 -87.45,0 -158.35,70.89 -158.35,158.35 0,87.45 70.9,158.35 158.35,158.35 87.45,0 158.35,-70.9 158.35,-158.35" /><path
             id="path58"
             style="fill:#52c5ba;fill-opacity:1;fill-rule:nonzero;stroke:none"
             d="m 3494.18,2194.31 c 0,-136.67 -110.8,-247.47 -247.47,-247.47 -136.68,0 -247.47,110.8 -247.47,247.47 0,136.68 110.79,247.47 247.47,247.47 136.67,0 247.47,-110.79 247.47,-247.47" /><path
             id="path60"
             style="fill:#52c5ba;fill-opacity:1;fill-rule:nonzero;stroke:none"
             d="m 2863.86,2018.84 c 0,-87.45 -70.89,-158.35 -158.35,-158.35 -87.45,0 -158.35,70.9 -158.35,158.35 0,87.46 70.9,158.35 158.35,158.35 87.46,0 158.35,-70.89 158.35,-158.35" /><path
             id="path62"
             style="fill:#52c5ba;fill-opacity:1;fill-rule:nonzero;stroke:none"
             d="m 2628.54,2083.04 c 0,-136.47 -110.63,-247.11 -247.1,-247.11 -136.48,0 -247.11,110.64 -247.11,247.11 0,136.47 110.63,247.11 247.11,247.11 136.47,0 247.1,-110.64 247.1,-247.11" /><path
             id="path64"
             style="fill:#49c1c1;fill-opacity:1;fill-rule:nonzero;stroke:none"
             d="m 3120.07,1863.59 -17.76,129.72 c 9.51,-6.84 19.54,-13.04 30,-18.5 l 4.95,-104.06 -17.19,-7.16" /><path
             id="path66"
             style="fill:#1c1d1d;fill-opacity:1;fill-rule:nonzero;stroke:none"
             d="m 3260.65,3585.67 h -171.36 c 0.8,51.96 -0.8,103.86 -4.79,155.57 h 185.25 c -0.63,-51.7 -3.66,-103.62 -9.1,-155.57" /><path
             id="path68"
             style="fill:#45bebd;fill-opacity:1;fill-rule:nonzero;stroke:none"
             d="m 3053.59,2349.08 -7.28,53.13 61.63,84.58 4.04,-84.86 c -22.17,-14.42 -41.89,-32.29 -58.39,-52.85" /><path
             id="path70"
             style="fill:#49c1c1;fill-opacity:1;fill-rule:nonzero;stroke:none"
             d="m 3046.31,2402.21 -92.89,678.36 h 9.63 c 11.41,0 21.9,6.23 27.36,16.24 l 8.06,14.78 -0.02,0.03 h 16.23 l 19.94,73.11 c 0.29,1.08 0.55,2.16 0.84,3.24 v 0 0 h -0.09 c 1.17,4.49 2.31,8.97 3.44,13.47 46.26,-11.87 84.74,-41.79 107.86,-81.68 l -2.95,-8.14 h -16.23 l 0.02,-0.03 -9.38,-14.78 c -6.36,-10.01 -17.41,-16.24 -28.81,-16.24 h -9.63 l 28.25,-593.78 -61.63,-84.58 m 274.34,510.31 h -21.89 l -6.12,142.7 c -1.3,30.23 -10.49,58.06 -25.82,81.4 l 16.17,63.12 c 3.68,14.34 5.47,28.86 5.48,43.25 0.03,50.81 -22.14,100 -62.08,133.69 l -138.86,117.12 -2.52,-4.92 c 2.36,32.25 3.78,64.53 4.28,96.79 h 171.36 c -3.38,-32.29 -7.69,-64.59 -12.94,-96.88 l 3.01,5.01 128.39,-117.12 c 47.39,-43.23 63.24,-111.98 40.8,-176.94 l -99.26,-287.22 m -722.29,0 h -21.89 l -47.93,287.22 c -10.84,64.96 17.3,133.71 72.42,176.94 l 0.66,0.51 c 8.91,-63.43 21.48,-126.64 37.73,-189.22 h -0.09 c 0.29,-1.08 0.55,-2.16 0.84,-3.24 l 17.69,-64.86 c -13.05,-19.49 -22.64,-41.35 -27.81,-64.65 l -31.62,-142.7" /><path
             id="path72"
             style="fill:#c1e4e6;fill-opacity:1;fill-rule:nonzero;stroke:none"
             d="m 3141.66,1778.21 h -9.9 l -11.69,85.38 17.19,7.16 4.4,-92.54" /><path
             id="path74"
             style="fill:#42aead;fill-opacity:1;fill-rule:nonzero;stroke:none"
             d="m 3132.31,1974.81 c -10.46,5.46 -20.49,11.66 -30,18.5 l -48.72,355.77 c 16.5,20.56 36.22,38.43 58.39,52.85 l 20.33,-427.12" /><path
             id="path76"
             style="fill:#f25d19;fill-opacity:1;fill-rule:nonzero;stroke:none"
             d="m 3146.93,1667.4 h -619.24 l 207.2,1513.17 h 204.84 l 207.2,-1513.17" /><path
             id="path78"
             style="fill:#f8ae0c;fill-opacity:1;fill-rule:nonzero;stroke:none"
             d="M 3058.72,1667.4 H 2615.9 l 148.17,1513.17 h 146.48 L 3058.72,1667.4" /><path
             id="path80"
             style="fill:#f9df20;fill-opacity:1;fill-rule:nonzero;stroke:none"
             d="m 2875.15,1667.4 h -75.68 l -4.92,1513.17 h 85.52 l -4.92,-1513.17" /></g></g><g
         id="g82"><g
           clip-path="url(#clipPath88)"
           id="g84"><path
             id="path90"
             style="fill:#ffffff;fill-opacity:1;fill-rule:nonzero;stroke:none"
             d="m 2863.86,1741.24 c 0,-87.46 -70.89,-158.35 -158.35,-158.35 -87.45,0 -158.35,70.89 -158.35,158.35 0,87.45 70.9,158.34 158.35,158.34 87.46,0 158.35,-70.89 158.35,-158.34" /><path
             id="path92"
             style="fill:#ffffff;fill-opacity:1;fill-rule:nonzero;stroke:none"
             d="m 2655.29,1858.39 c 0,-130.29 -105.62,-235.92 -235.92,-235.92 -130.29,0 -235.91,105.63 -235.91,235.92 0,130.3 105.62,235.92 235.91,235.92 130.3,0 235.92,-105.62 235.92,-235.92" /><path
             id="path94"
             style="fill:#ffffff;fill-opacity:1;fill-rule:nonzero;stroke:none"
             d="m 2320.41,2054.72 c 0,-188.5 -152.81,-341.3 -341.31,-341.3 -188.5,0 -341.31,152.8 -341.31,341.3 0,188.5 152.81,341.31 341.31,341.31 188.5,0 341.31,-152.81 341.31,-341.31" /><path
             id="path96"
             style="fill:#ffffff;fill-opacity:1;fill-rule:nonzero;stroke:none"
             d="m 1793.06,1936.62 c 0,-154.82 -125.5,-280.32 -280.32,-280.32 -154.82,0 -280.32,125.5 -280.32,280.32 0,154.81 125.5,280.32 280.32,280.32 154.82,0 280.32,-125.51 280.32,-280.32" /><path
             id="path98"
             style="fill:#ffffff;fill-opacity:1;fill-rule:nonzero;stroke:none"
             d="m 3494.18,1965.92 c 0,-122.91 -99.64,-222.54 -222.54,-222.54 -122.91,0 -222.55,99.63 -222.55,222.54 0,122.91 99.64,222.54 222.55,222.54 122.9,0 222.54,-99.63 222.54,-222.54" /><path
             id="path100"
             style="fill:#ffffff;fill-opacity:1;fill-rule:nonzero;stroke:none"
             d="m 3978.27,2094.31 c 0,-167.81 -136.04,-303.86 -303.86,-303.86 -167.81,0 -303.86,136.05 -303.86,303.86 0,167.82 136.05,303.86 303.86,303.86 167.82,0 303.86,-136.04 303.86,-303.86" /><path
             id="path102"
             style="fill:#ffffff;fill-opacity:1;fill-rule:nonzero;stroke:none"
             d="m 4442.2,1983.04 c 0,-200.32 -162.39,-362.71 -362.7,-362.71 -200.32,0 -362.71,162.39 -362.71,362.71 0,200.32 162.39,362.7 362.71,362.7 200.31,0 362.7,-162.38 362.7,-362.7" /><path
             id="path104"
             style="fill:#ffffff;fill-opacity:1;fill-rule:nonzero;stroke:none"
             d="m 3190.76,1774.39 c 0,-105.77 -85.75,-191.52 -191.52,-191.52 -105.78,0 -191.53,85.75 -191.53,191.52 0,105.78 85.75,191.53 191.53,191.53 105.77,0 191.52,-85.75 191.52,-191.53" /></g></g><path
         id="path106"
         style="fill:#ef381f;fill-opacity:1;fill-rule:nonzero;stroke:none"
         d="m 2587.09,3493.8 -138.86,-117.12 c -51.25,-43.23 -73.24,-111.98 -56.6,-176.94 l 73.59,-287.23 h 21.89 l 18.87,142.71 c 9.68,73.22 64.35,132.44 136.55,147.94 v 182.09 l -55.44,108.55" /><path
         id="path108"
         style="fill:#ec2622;fill-opacity:1;fill-rule:nonzero;stroke:none"
         d="m 3087.53,3493.8 138.86,-117.12 c 51.25,-43.23 73.25,-111.98 56.6,-176.94 l -73.59,-287.22 h -21.89 l -18.87,142.7 c -9.68,73.22 -64.35,132.44 -136.55,147.94 v 182.09 l 55.44,108.55" /><path
         id="path110"
         style="fill:#ffffff;fill-opacity:1;fill-rule:nonzero;stroke:none"
         d="m 3014.68,3111.62 h -354.63 l -15.39,56.42 c -116.4,426.71 -60.43,882.09 155.82,1267.92 v 0 c 16.15,28.81 57.61,28.81 73.76,0 v 0 c 216.26,-385.83 272.22,-841.21 155.82,-1267.92 l -15.38,-56.42" /><path
         id="path112"
         style="fill:#c2c0be;fill-opacity:1;fill-rule:nonzero;stroke:none"
         d="m 2704.49,4147.75 c 0,-3.03 -2.46,-5.49 -5.49,-5.49 -3.04,0 -5.5,2.46 -5.5,5.49 0,3.04 2.46,5.5 5.5,5.5 3.03,0 5.49,-2.46 5.49,-5.5" /><path
         id="path114"
         style="fill:#c2c0be;fill-opacity:1;fill-rule:nonzero;stroke:none"
         d="m 2751.3,4153.58 c 0,-3.04 -2.46,-5.49 -5.49,-5.49 -3.04,0 -5.5,2.45 -5.5,5.49 0,3.03 2.46,5.49 5.5,5.49 3.03,0 5.49,-2.46 5.49,-5.49" /><path
         id="path116"
         style="fill:#c2c0be;fill-opacity:1;fill-rule:nonzero;stroke:none"
         d="m 2798.28,4157.07 c 0,-3.03 -2.46,-5.49 -5.49,-5.49 -3.03,0 -5.49,2.46 -5.49,5.49 0,3.04 2.46,5.5 5.49,5.5 3.03,0 5.49,-2.46 5.49,-5.5" /><path
         id="path118"
         style="fill:#c2c0be;fill-opacity:1;fill-rule:nonzero;stroke:none"
         d="m 2845.35,4158.24 c 0,-3.03 -2.46,-5.49 -5.49,-5.49 -3.03,0 -5.49,2.46 -5.49,5.49 0,3.03 2.46,5.49 5.49,5.49 3.03,0 5.49,-2.46 5.49,-5.49" /><path
         id="path120"
         style="fill:#c2c0be;fill-opacity:1;fill-rule:nonzero;stroke:none"
         d="m 2892.42,4157.07 c 0,-3.03 -2.46,-5.49 -5.49,-5.49 -3.03,0 -5.49,2.46 -5.49,5.49 0,3.04 2.46,5.5 5.49,5.5 3.03,0 5.49,-2.46 5.49,-5.5" /><path
         id="path122"
         style="fill:#c2c0be;fill-opacity:1;fill-rule:nonzero;stroke:none"
         d="m 2939.41,4153.58 c 0,-3.04 -2.46,-5.49 -5.5,-5.49 -3.03,0 -5.49,2.45 -5.49,5.49 0,3.03 2.46,5.49 5.49,5.49 3.04,0 5.5,-2.46 5.5,-5.49" /><path
         id="path124"
         style="fill:#c2c0be;fill-opacity:1;fill-rule:nonzero;stroke:none"
         d="m 2986.22,4147.75 c 0,-3.03 -2.46,-5.49 -5.5,-5.49 -3.03,0 -5.49,2.46 -5.49,5.49 0,3.04 2.46,5.5 5.49,5.5 3.04,0 5.5,-2.46 5.5,-5.5" /><path
         id="path126"
         style="fill:#ef381f;fill-opacity:1;fill-rule:nonzero;stroke:none"
         d="m 2998.55,4165.14 c -31.05,87.82 -69.71,173.4 -115.85,255.73 l -8.46,15.09 c -16.15,28.81 -57.61,28.81 -73.76,0 l -8.46,-15.09 c -46.14,-82.33 -84.8,-167.91 -115.85,-255.73 l 13.27,2.37 c 102.3,18.28 207.1,17.48 309.11,-2.37" /><path
         id="path128"
         style="fill:#cce3dc;fill-opacity:1;fill-rule:nonzero;stroke:none"
         d="m 2639.26,3187.97 c 0.29,-1.08 0.55,-2.16 0.84,-3.24 l 19.95,-73.11 h 354.63 l 19.94,73.11 c 0.29,1.08 0.55,2.16 0.84,3.24 h -396.2" /><path
         id="path130"
         style="fill:#ec2622;fill-opacity:1;fill-rule:nonzero;stroke:none"
         d="m 2676.27,3111.62 -0.02,-0.03 8.06,-14.78 c 5.46,-10.01 15.96,-16.24 27.36,-16.24 h 251.38 c 11.41,0 21.9,6.23 27.36,16.24 l 8.06,14.78 -0.02,0.03 h -322.18" /><path
         id="path132"
         style="fill:#c2c0be;fill-opacity:1;fill-rule:nonzero;stroke:none"
         d="m 2657.94,3205.04 c 0,-3.04 -2.46,-5.5 -5.49,-5.5 -3.04,0 -5.5,2.46 -5.5,5.5 0,3.03 2.46,5.49 5.5,5.49 3.03,0 5.49,-2.46 5.49,-5.49" /><path
         id="path134"
         style="fill:#c2c0be;fill-opacity:1;fill-rule:nonzero;stroke:none"
         d="m 2704.79,3205.04 c 0,-3.04 -2.46,-5.5 -5.49,-5.5 -3.03,0 -5.49,2.46 -5.49,5.5 0,3.03 2.46,5.49 5.49,5.49 3.03,0 5.49,-2.46 5.49,-5.49" /><path
         id="path136"
         style="fill:#c2c0be;fill-opacity:1;fill-rule:nonzero;stroke:none"
         d="m 2751.65,3205.04 c 0,-3.04 -2.46,-5.5 -5.5,-5.5 -3.03,0 -5.49,2.46 -5.49,5.5 0,3.03 2.46,5.49 5.49,5.49 3.04,0 5.5,-2.46 5.5,-5.49" /><path
         id="path138"
         style="fill:#c2c0be;fill-opacity:1;fill-rule:nonzero;stroke:none"
         d="m 2798.5,3205.04 c 0,-3.04 -2.46,-5.5 -5.49,-5.5 -3.04,0 -5.5,2.46 -5.5,5.5 0,3.03 2.46,5.49 5.5,5.49 3.03,0 5.49,-2.46 5.49,-5.49" /><path
         id="path140"
         style="fill:#c2c0be;fill-opacity:1;fill-rule:nonzero;stroke:none"
         d="m 2845.35,3205.04 c 0,-3.04 -2.46,-5.5 -5.49,-5.5 -3.03,0 -5.49,2.46 -5.49,5.5 0,3.03 2.46,5.49 5.49,5.49 3.03,0 5.49,-2.46 5.49,-5.49" /><path
         id="path142"
         style="fill:#c2c0be;fill-opacity:1;fill-rule:nonzero;stroke:none"
         d="m 2892.21,3205.04 c 0,-3.04 -2.46,-5.5 -5.5,-5.5 -3.03,0 -5.49,2.46 -5.49,5.5 0,3.03 2.46,5.49 5.49,5.49 3.04,0 5.5,-2.46 5.5,-5.49" /><path
         id="path144"
         style="fill:#c2c0be;fill-opacity:1;fill-rule:nonzero;stroke:none"
         d="m 2939.06,3205.04 c 0,-3.04 -2.46,-5.5 -5.49,-5.5 -3.04,0 -5.5,2.46 -5.5,5.5 0,3.03 2.46,5.49 5.5,5.49 3.03,0 5.49,-2.46 5.49,-5.49" /><path
         id="path146"
         style="fill:#c2c0be;fill-opacity:1;fill-rule:nonzero;stroke:none"
         d="m 2985.91,3205.04 c 0,-3.04 -2.46,-5.5 -5.49,-5.5 -3.03,0 -5.49,2.46 -5.49,5.5 0,3.03 2.46,5.49 5.49,5.49 3.03,0 5.49,-2.46 5.49,-5.49" /><path
         id="path148"
         style="fill:#c2c0be;fill-opacity:1;fill-rule:nonzero;stroke:none"
         d="m 3032.77,3205.04 c 0,-3.04 -2.46,-5.5 -5.5,-5.5 -3.03,0 -5.49,2.46 -5.49,5.5 0,3.03 2.46,5.49 5.49,5.49 3.04,0 5.5,-2.46 5.5,-5.49" /><path
         id="path150"
         style="fill:#f3f3f3;fill-opacity:1;fill-rule:nonzero;stroke:none"
         d="m 2975.7,3799.06 c 0,-76.4 -61.94,-138.33 -138.34,-138.33 -76.4,0 -138.34,61.93 -138.34,138.33 0,76.4 61.94,138.34 138.34,138.34 76.4,0 138.34,-61.94 138.34,-138.34" /><path
         id="path152"
         style="fill:#70cfcc;fill-opacity:1;fill-rule:nonzero;stroke:none"
         d="m 2950.87,3799.06 c 0,-62.69 -50.82,-113.5 -113.51,-113.5 -62.69,0 -113.51,50.81 -113.51,113.5 0,62.69 50.82,113.51 113.51,113.51 62.69,0 113.51,-50.82 113.51,-113.51" /><path
         id="path154"
         style="fill:#70cfcc;fill-opacity:1;fill-rule:nonzero;stroke:none"
         d="m 2950.87,3799.06 c 0,-62.69 -50.82,-113.5 -113.51,-113.5 -62.69,0 -113.51,50.81 -113.51,113.5 0,62.69 50.82,113.51 113.51,113.51 62.69,0 113.51,-50.82 113.51,-113.51" /><path
         id="path156"
         style="fill:#48abaa;fill-opacity:1;fill-rule:nonzero;stroke:none"
         d="m 2950.87,3799.06 c 0,-62.69 -50.82,-113.5 -113.51,-113.5 -62.69,0 -113.51,50.81 -113.51,113.5 0,62.69 50.82,113.51 113.51,113.51 62.69,0 113.51,-50.82 113.51,-113.51" /><path
         id="path158"
         style="fill:#70cfcc;fill-opacity:1;fill-rule:nonzero;stroke:none"
         d="m 2946.48,3791.56 c 0,-56.73 -45.99,-102.72 -102.72,-102.72 -56.73,0 -102.72,45.99 -102.72,102.72 0,56.73 45.99,102.72 102.72,102.72 56.73,0 102.72,-45.99 102.72,-102.72" /><g
         id="g160"><g
           clip-path="url(#clipPath166)"
           id="g162"><path
             id="path168"
             style="fill:#c5ecef;fill-opacity:1;fill-rule:nonzero;stroke:none"
             d="m 2775.27,3764.89 h 89.0625 v 88.0898 H 2775.27 Z" /></g></g><path
         id="path170"
         style="fill:#c5ecef;fill-opacity:1;fill-rule:nonzero;stroke:none"
         d="m 2793.59,3732.07 c -1.27,0 -2.55,0.49 -3.52,1.45 -1.96,1.95 -1.97,5.12 -0.02,7.07 l 108.4,108.99 c 0.97,0.98 2.26,1.47 3.54,1.47 1.28,0 2.55,-0.49 3.52,-1.46 1.96,-1.94 1.97,-5.11 0.02,-7.06 l -108.4,-108.99 c -0.97,-0.98 -2.26,-1.47 -3.54,-1.47" /><path
         id="path172"
         style="fill:#c2c0be;fill-opacity:1;fill-rule:nonzero;stroke:none"
         d="m 2842.85,3954.68 c 0,-3.03 -2.46,-5.49 -5.49,-5.49 -3.03,0 -5.49,2.46 -5.49,5.49 0,3.04 2.46,5.5 5.49,5.5 3.03,0 5.49,-2.46 5.49,-5.5" /><path
         id="path174"
         style="fill:#c2c0be;fill-opacity:1;fill-rule:nonzero;stroke:none"
         d="m 2885.89,3948.65 c 0,-3.03 -2.46,-5.49 -5.49,-5.49 -3.03,0 -5.5,2.46 -5.5,5.49 0,3.04 2.47,5.49 5.5,5.49 3.03,0 5.49,-2.45 5.49,-5.49" /><path
         id="path176"
         style="fill:#c2c0be;fill-opacity:1;fill-rule:nonzero;stroke:none"
         d="m 2924.3,3931.67 c 0,-3.04 -2.46,-5.49 -5.5,-5.49 -3.03,0 -5.49,2.45 -5.49,5.49 0,3.03 2.46,5.49 5.49,5.49 3.04,0 5.5,-2.46 5.5,-5.49" /><path
         id="path178"
         style="fill:#c2c0be;fill-opacity:1;fill-rule:nonzero;stroke:none"
         d="m 2956.39,3905.43 c 0,-3.04 -2.46,-5.5 -5.5,-5.5 -3.03,0 -5.49,2.46 -5.49,5.5 0,3.03 2.46,5.49 5.49,5.49 3.04,0 5.5,-2.46 5.5,-5.49" /><path
         id="path180"
         style="fill:#c2c0be;fill-opacity:1;fill-rule:nonzero;stroke:none"
         d="m 2980.47,3871.6 c 0,-3.03 -2.46,-5.49 -5.49,-5.49 -3.04,0 -5.5,2.46 -5.5,5.49 0,3.03 2.46,5.49 5.5,5.49 3.03,0 5.49,-2.46 5.49,-5.49" /><path
         id="path182"
         style="fill:#c2c0be;fill-opacity:1;fill-rule:nonzero;stroke:none"
         d="m 2994.87,3831.88 c 0,-3.03 -2.45,-5.49 -5.49,-5.49 -3.03,0 -5.49,2.46 -5.49,5.49 0,3.03 2.46,5.49 5.49,5.49 3.04,0 5.49,-2.46 5.49,-5.49" /><path
         id="path184"
         style="fill:#c2c0be;fill-opacity:1;fill-rule:nonzero;stroke:none"
         d="m 2997.92,3788.13 c 0,-3.03 -2.46,-5.49 -5.5,-5.49 -3.03,0 -5.49,2.46 -5.49,5.49 0,3.03 2.46,5.49 5.49,5.49 3.04,0 5.5,-2.46 5.5,-5.49" /><path
         id="path186"
         style="fill:#c2c0be;fill-opacity:1;fill-rule:nonzero;stroke:none"
         d="m 2988.99,3746.09 c 0,-3.03 -2.46,-5.49 -5.5,-5.49 -3.03,0 -5.49,2.46 -5.49,5.49 0,3.04 2.46,5.5 5.49,5.5 3.04,0 5.5,-2.46 5.5,-5.5" /><path
         id="path188"
         style="fill:#c2c0be;fill-opacity:1;fill-rule:nonzero;stroke:none"
         d="m 2969.53,3709.11 c 0,-3.04 -2.46,-5.49 -5.49,-5.49 -3.03,0 -5.49,2.45 -5.49,5.49 0,3.03 2.46,5.49 5.49,5.49 3.03,0 5.49,-2.46 5.49,-5.49" /><path
         id="path190"
         style="fill:#c2c0be;fill-opacity:1;fill-rule:nonzero;stroke:none"
         d="m 2941.24,3678.86 c 0,-3.03 -2.46,-5.49 -5.5,-5.49 -3.03,0 -5.49,2.46 -5.49,5.49 0,3.04 2.46,5.5 5.49,5.5 3.04,0 5.5,-2.46 5.5,-5.5" /><path
         id="path192"
         style="fill:#c2c0be;fill-opacity:1;fill-rule:nonzero;stroke:none"
         d="m 2905.78,3657.04 c 0,-3.03 -2.46,-5.49 -5.49,-5.49 -3.04,0 -5.5,2.46 -5.5,5.49 0,3.03 2.46,5.49 5.5,5.49 3.03,0 5.49,-2.46 5.49,-5.49" /><path
         id="path194"
         style="fill:#c2c0be;fill-opacity:1;fill-rule:nonzero;stroke:none"
         d="m 2864.85,3645.32 c 0,-3.03 -2.46,-5.49 -5.5,-5.49 -3.03,0 -5.49,2.46 -5.49,5.49 0,3.04 2.46,5.5 5.49,5.5 3.04,0 5.5,-2.46 5.5,-5.5" /><path
         id="path196"
         style="fill:#c2c0be;fill-opacity:1;fill-rule:nonzero;stroke:none"
         d="m 2820.86,3645.32 c 0,-3.03 -2.46,-5.49 -5.49,-5.49 -3.04,0 -5.5,2.46 -5.5,5.49 0,3.04 2.46,5.5 5.5,5.5 3.03,0 5.49,-2.46 5.49,-5.5" /><path
         id="path198"
         style="fill:#c2c0be;fill-opacity:1;fill-rule:nonzero;stroke:none"
         d="m 2779.93,3657.04 c 0,-3.03 -2.46,-5.49 -5.49,-5.49 -3.04,0 -5.5,2.46 -5.5,5.49 0,3.04 2.46,5.49 5.5,5.49 3.03,0 5.49,-2.45 5.49,-5.49" /><path
         id="path200"
         style="fill:#c2c0be;fill-opacity:1;fill-rule:nonzero;stroke:none"
         d="m 2744.47,3678.86 c 0,-3.03 -2.46,-5.49 -5.49,-5.49 -3.03,0 -5.49,2.46 -5.49,5.49 0,3.04 2.46,5.5 5.49,5.5 3.03,0 5.49,-2.46 5.49,-5.5" /><path
         id="path202"
         style="fill:#c2c0be;fill-opacity:1;fill-rule:nonzero;stroke:none"
         d="m 2716.18,3709.11 c 0,-3.04 -2.46,-5.49 -5.5,-5.49 -3.03,0 -5.49,2.45 -5.49,5.49 0,3.03 2.46,5.49 5.49,5.49 3.04,0 5.5,-2.46 5.5,-5.49" /><path
         id="path204"
         style="fill:#c2c0be;fill-opacity:1;fill-rule:nonzero;stroke:none"
         d="m 2696.72,3746.09 c 0,-3.03 -2.46,-5.49 -5.49,-5.49 -3.04,0 -5.5,2.46 -5.5,5.49 0,3.04 2.46,5.5 5.5,5.5 3.03,0 5.49,-2.46 5.49,-5.5" /><path
         id="path206"
         style="fill:#c2c0be;fill-opacity:1;fill-rule:nonzero;stroke:none"
         d="m 2687.79,3788.13 c 0,-3.03 -2.46,-5.49 -5.49,-5.49 -3.04,0 -5.5,2.46 -5.5,5.49 0,3.03 2.46,5.49 5.5,5.49 3.03,0 5.49,-2.46 5.49,-5.49" /><path
         id="path208"
         style="fill:#c2c0be;fill-opacity:1;fill-rule:nonzero;stroke:none"
         d="m 2690.84,3831.88 c 0,-3.03 -2.46,-5.49 -5.5,-5.49 -3.03,0 -5.49,2.46 -5.49,5.49 0,3.03 2.46,5.49 5.49,5.49 3.04,0 5.5,-2.46 5.5,-5.49" /><path
         id="path210"
         style="fill:#c2c0be;fill-opacity:1;fill-rule:nonzero;stroke:none"
         d="m 2705.24,3871.6 c 0,-3.03 -2.46,-5.49 -5.5,-5.49 -3.03,0 -5.49,2.46 -5.49,5.49 0,3.03 2.46,5.49 5.49,5.49 3.04,0 5.5,-2.46 5.5,-5.49" /><path
         id="path212"
         style="fill:#c2c0be;fill-opacity:1;fill-rule:nonzero;stroke:none"
         d="m 2729.32,3905.43 c 0,-3.04 -2.45,-5.5 -5.49,-5.5 -3.03,0 -5.49,2.46 -5.49,5.5 0,3.03 2.46,5.49 5.49,5.49 3.04,0 5.49,-2.46 5.49,-5.49" /><path
         id="path214"
         style="fill:#c2c0be;fill-opacity:1;fill-rule:nonzero;stroke:none"
         d="m 2761.41,3931.67 c 0,-3.03 -2.46,-5.49 -5.49,-5.49 -3.04,0 -5.49,2.46 -5.49,5.49 0,3.03 2.45,5.49 5.49,5.49 3.03,0 5.49,-2.46 5.49,-5.49" /><path
         id="path216"
         style="fill:#c2c0be;fill-opacity:1;fill-rule:nonzero;stroke:none"
         d="m 2799.82,3948.65 c 0,-3.03 -2.46,-5.49 -5.5,-5.49 -3.03,0 -5.49,2.46 -5.49,5.49 0,3.04 2.46,5.49 5.49,5.49 3.04,0 5.5,-2.45 5.5,-5.49" /><path
         id="path218"
         style="fill:#c2c0be;fill-opacity:1;fill-rule:nonzero;stroke:none"
         d="m 2842.85,3954.68 c 0,-3.03 -2.46,-5.49 -5.49,-5.49 -3.03,0 -5.49,2.46 -5.49,5.49 0,3.04 2.46,5.5 5.49,5.5 3.03,0 5.49,-2.46 5.49,-5.5" /><path
         id="path220"
         style="fill:#ef381f;fill-opacity:1;fill-rule:nonzero;stroke:none"
         d="m 2829.58,2912.52 -10.75,550.91 c -0.39,20.15 7.92,30.37 18.53,30.37 10.61,0 18.92,-10.22 18.53,-30.37 l -10.74,-550.91 h -15.57" /><path
         id="path222"
         style="fill:#eecc1c;fill-opacity:1;fill-rule:nonzero;stroke:none"
         d="m 2845.15,2912.52 h -10.78 10.78 l 3.27,168.05 h 31.33 -31.33 l -3.27,-168.05" /><path
         id="path224"
         style="fill:#53c5bd;fill-opacity:1;fill-rule:nonzero;stroke:none"
         d="m 3168.58,3055.65 c 0,0.03 -0.01,0.08 -0.01,0.12 0,-0.04 0.01,-0.08 0.01,-0.12 m -0.05,0.42 c -0.01,0.06 -0.02,0.11 -0.03,0.18 0.01,-0.06 0.02,-0.12 0.03,-0.18 m -0.06,0.42 c -0.01,0.07 -0.02,0.13 -0.03,0.21 0.01,-0.07 0.02,-0.14 0.03,-0.21 m -0.06,0.41 c -0.01,0.08 -0.02,0.16 -0.03,0.24 0.01,-0.08 0.02,-0.16 0.03,-0.24 m -0.06,0.42 c -0.01,0.09 -0.03,0.17 -0.04,0.25 0.01,-0.08 0.03,-0.17 0.04,-0.25 m -0.06,0.42 c -0.01,0.09 -0.03,0.18 -0.04,0.27 0.01,-0.09 0.02,-0.18 0.04,-0.27 m -0.06,0.41 c -0.02,0.1 -0.03,0.19 -0.05,0.29 0.02,-0.1 0.03,-0.19 0.05,-0.29 m -0.07,0.42 c -0.01,0.1 -0.03,0.2 -0.04,0.31 0.01,-0.11 0.03,-0.21 0.04,-0.31 m -0.06,0.4 c -0.01,0.12 -0.03,0.23 -0.05,0.34 0.02,-0.11 0.04,-0.22 0.05,-0.34 m -0.06,0.41 c -0.02,0.12 -0.04,0.24 -0.06,0.36 0.02,-0.12 0.04,-0.24 0.06,-0.36 m -0.07,0.41 c -0.02,0.13 -0.04,0.25 -0.06,0.37 0.02,-0.12 0.04,-0.24 0.06,-0.37 m -0.06,0.41 c -0.02,0.13 -0.04,0.27 -0.07,0.4 0.03,-0.13 0.05,-0.27 0.07,-0.4 m -0.07,0.4 c -3.48,21.24 -10.77,41.21 -21.17,59.16 l 0.01,0.04 c 10.4,-17.97 17.68,-37.95 21.16,-59.2" /><path
         id="path226"
         style="fill:#41b2b0;fill-opacity:1;fill-rule:nonzero;stroke:none"
         d="m 3146.67,3119.76 c -23.12,39.89 -61.6,69.81 -107.86,81.68 0.01,0.02 0.03,0.1 0.03,0.13 46.27,-11.86 84.74,-41.85 107.84,-81.77 l -0.01,-0.04" /><path
         id="path228"
         style="fill:#41b2b0;fill-opacity:1;fill-rule:nonzero;stroke:none"
         d="m 3085.01,3488.87 v 0.01 l 2.52,4.92 -2.52,-4.93" /><path
         id="path230"
         style="fill:#51c3a5;fill-opacity:1;fill-rule:nonzero;stroke:none"
         d="m 2998.55,4165.14 c -0.88,0.17 -1.77,0.29 -2.65,0.45 -0.01,0.02 -0.01,0.04 -0.02,0.06 0.89,-0.17 1.78,-0.34 2.67,-0.51 v 0" /><path
         id="path232"
         style="fill:#e22524;fill-opacity:1;fill-rule:nonzero;stroke:none"
         d="m 3209.4,2912.52 h -21.89 l -18.87,142.7 v 0 c -0.02,0.15 -0.04,0.28 -0.06,0.43 0,0.04 -0.01,0.08 -0.01,0.12 -0.02,0.1 -0.03,0.2 -0.04,0.3 -0.01,0.06 -0.02,0.12 -0.03,0.18 -0.01,0.07 -0.02,0.16 -0.03,0.24 -0.01,0.07 -0.02,0.14 -0.03,0.21 -0.01,0.07 -0.02,0.14 -0.03,0.2 -0.01,0.08 -0.02,0.16 -0.03,0.24 -0.01,0.06 -0.02,0.12 -0.03,0.18 -0.01,0.08 -0.03,0.17 -0.04,0.25 0,0.06 -0.01,0.11 -0.02,0.17 -0.02,0.09 -0.03,0.18 -0.04,0.27 -0.01,0.05 -0.02,0.09 -0.02,0.14 -0.02,0.1 -0.03,0.19 -0.05,0.29 0,0.04 -0.01,0.08 -0.02,0.13 -0.01,0.1 -0.03,0.2 -0.04,0.31 -0.01,0.03 -0.01,0.06 -0.02,0.09 -0.01,0.12 -0.03,0.23 -0.05,0.34 0,0.03 -0.01,0.05 -0.01,0.07 -0.02,0.12 -0.04,0.24 -0.06,0.36 0,0.01 0,0.04 -0.01,0.05 -0.02,0.13 -0.04,0.25 -0.06,0.37 0,0.02 0,0.03 0,0.04 -0.02,0.13 -0.04,0.27 -0.07,0.4 v 0 c -3.48,21.25 -10.76,41.23 -21.16,59.2 -23.1,39.92 -61.57,69.91 -107.84,81.77 23.8,94.86 39.14,190.95 46.17,287.3 l 2.52,4.93 138.86,-117.12 c 39.94,-33.69 62.11,-82.88 62.08,-133.69 -0.01,-14.39 -1.8,-28.91 -5.48,-43.25 l -16.17,-63.12 -57.42,-224.1" /><path
         id="path234"
         style="fill:#f4eeea;fill-opacity:1;fill-rule:nonzero;stroke:none"
         d="m 3035.24,3187.97 h -184.72 l 5.37,275.46 c 0.39,20.15 -7.92,30.37 -18.53,30.37 -1.02,0 -2.02,-0.1 -2.99,-0.28 v 165.25 c 35.34,0 67.62,13.07 92.29,34.64 30,25.37 49.04,63.29 49.04,105.65 0,42.35 -19.03,80.26 -49.01,105.64 -24.67,21.58 -56.97,34.65 -92.32,34.65 v 10.73 c 0.86,-0.56 1.89,-0.89 2.99,-0.89 3.03,0 5.49,2.46 5.49,5.49 v 0 0 c 0,3.04 -2.46,5.5 -5.49,5.5 -1.1,0 -2.13,-0.33 -2.99,-0.89 v 198.95 c 0,-3.03 2.46,-5.49 5.49,-5.49 3.03,0 5.49,2.46 5.49,5.49 0,3.03 -2.46,5.49 -5.49,5.49 -3.03,0 -5.49,-2.46 -5.49,-5.49 v 22.4 c 1.09,0 2.18,0.01 3.27,0.01 53,0 105.97,-5 158.24,-15 0.01,-0.02 0.01,-0.04 0.02,-0.06 -0.03,0 -0.06,0.01 -0.09,0.02 75.57,-217.24 105.91,-447.62 89.16,-676.82 l 0.04,0.09 v -0.01 c -7.03,-96.35 -22.37,-192.44 -46.17,-287.3 0,-0.03 -0.02,-0.11 -0.03,-0.13 -0.02,0 -0.05,0.01 -0.07,0.01 -1.13,-4.5 -2.33,-8.99 -3.5,-13.48 m -7.97,22.56 c -3.03,0 -5.49,-2.46 -5.49,-5.49 0,-3.04 2.46,-5.5 5.49,-5.5 3.04,0 5.5,2.46 5.5,5.5 0,3.03 -2.46,5.49 -5.5,5.49 m -46.85,0 c -3.03,0 -5.49,-2.46 -5.49,-5.49 0,-3.04 2.46,-5.5 5.49,-5.5 3.03,0 5.49,2.46 5.49,5.5 0,3.03 -2.46,5.49 -5.49,5.49 m -46.85,0 c -3.04,0 -5.5,-2.46 -5.5,-5.49 0,-3.04 2.46,-5.5 5.5,-5.5 3.03,0 5.49,2.46 5.49,5.5 0,3.03 -2.46,5.49 -5.49,5.49 m -46.86,0 c -3.03,0 -5.49,-2.46 -5.49,-5.49 0,-3.04 2.46,-5.5 5.49,-5.5 3.04,0 5.5,2.46 5.5,5.5 0,3.03 -2.46,5.49 -5.5,5.49 m -27.36,440.29 c -3.03,0 -5.49,-2.46 -5.49,-5.5 0,-3.03 2.46,-5.49 5.49,-5.49 3.04,0 5.5,2.46 5.5,5.49 0,3.04 -2.46,5.5 -5.5,5.5 m 40.94,11.71 c -3.04,0 -5.5,-2.46 -5.5,-5.49 0,-3.03 2.46,-5.49 5.5,-5.49 3.03,0 5.49,2.46 5.49,5.49 0,3.03 -2.46,5.49 -5.49,5.49 m 35.45,21.83 c -3.03,0 -5.49,-2.46 -5.49,-5.5 0,-3.03 2.46,-5.49 5.49,-5.49 3.04,0 5.5,2.46 5.5,5.49 0,3.04 -2.46,5.5 -5.5,5.5 m 28.3,30.24 c -3.03,0 -5.49,-2.46 -5.49,-5.49 0,-3.04 2.46,-5.49 5.49,-5.49 3.03,0 5.49,2.45 5.49,5.49 0,3.03 -2.46,5.49 -5.49,5.49 m 19.45,36.99 c -3.03,0 -5.49,-2.46 -5.49,-5.5 0,-3.03 2.46,-5.49 5.49,-5.49 3.04,0 5.5,2.46 5.5,5.49 0,3.04 -2.46,5.5 -5.5,5.5 m 8.93,42.03 c -3.03,0 -5.49,-2.46 -5.49,-5.49 0,-3.03 2.46,-5.49 5.49,-5.49 3.04,0 5.5,2.46 5.5,5.49 0,3.03 -2.46,5.49 -5.5,5.49 m -3.04,43.75 c -3.03,0 -5.49,-2.46 -5.49,-5.49 0,-3.03 2.46,-5.49 5.49,-5.49 3.04,0 5.49,2.46 5.49,5.49 0,3.03 -2.45,5.49 -5.49,5.49 m -14.4,39.72 c -3.04,0 -5.5,-2.46 -5.5,-5.49 0,-3.03 2.46,-5.49 5.5,-5.49 3.03,0 5.49,2.46 5.49,5.49 0,3.03 -2.46,5.49 -5.49,5.49 m -24.09,33.83 c -3.03,0 -5.49,-2.46 -5.49,-5.49 0,-3.04 2.46,-5.5 5.49,-5.5 3.04,0 5.5,2.46 5.5,5.5 0,3.03 -2.46,5.49 -5.5,5.49 m -32.09,26.24 c -3.03,0 -5.49,-2.46 -5.49,-5.49 0,-3.04 2.46,-5.49 5.49,-5.49 3.04,0 5.5,2.45 5.5,5.49 0,3.03 -2.46,5.49 -5.5,5.49 m -38.4,16.98 c -3.03,0 -5.5,-2.45 -5.5,-5.49 0,-3.03 2.47,-5.49 5.5,-5.49 3.03,0 5.49,2.46 5.49,5.49 0,3.04 -2.46,5.49 -5.49,5.49 m 100.32,199.11 c -3.03,0 -5.49,-2.46 -5.49,-5.5 0,-3.03 2.46,-5.49 5.49,-5.49 3.04,0 5.5,2.46 5.5,5.49 0,3.04 -2.46,5.5 -5.5,5.5 m -46.81,5.82 c -3.03,0 -5.49,-2.46 -5.49,-5.49 0,-3.04 2.46,-5.49 5.49,-5.49 3.04,0 5.5,2.45 5.5,5.49 0,3.03 -2.46,5.49 -5.5,5.49 m -46.98,3.5 c -3.03,0 -5.49,-2.46 -5.49,-5.5 0,-3.03 2.46,-5.49 5.49,-5.49 3.03,0 5.49,2.46 5.49,5.49 0,3.04 -2.46,5.5 -5.49,5.5 m -12.68,273.37 -0.01,0.02 v 0 l 0.01,-0.02" /><path
         id="path236"
         style="fill:#b6b0ad;fill-opacity:1;fill-rule:nonzero;stroke:none"
         d="m 2839.86,4152.75 c -3.03,0 -5.49,2.46 -5.49,5.49 v 0 c 0,3.03 2.46,5.49 5.49,5.49 3.03,0 5.49,-2.46 5.49,-5.49 0,-3.03 -2.46,-5.49 -5.49,-5.49" /><path
         id="path238"
         style="fill:#b6b0ad;fill-opacity:1;fill-rule:nonzero;stroke:none"
         d="m 2886.93,4151.58 c -3.03,0 -5.49,2.46 -5.49,5.49 0,3.04 2.46,5.5 5.49,5.5 3.03,0 5.49,-2.46 5.49,-5.5 0,-3.03 -2.46,-5.49 -5.49,-5.49" /><path
         id="path240"
         style="fill:#b6b0ad;fill-opacity:1;fill-rule:nonzero;stroke:none"
         d="m 2933.91,4148.09 c -3.03,0 -5.49,2.45 -5.49,5.49 0,3.03 2.46,5.49 5.49,5.49 3.04,0 5.5,-2.46 5.5,-5.49 0,-3.04 -2.46,-5.49 -5.5,-5.49" /><path
         id="path242"
         style="fill:#b6b0ad;fill-opacity:1;fill-rule:nonzero;stroke:none"
         d="m 2980.72,4142.26 c -3.03,0 -5.49,2.46 -5.49,5.49 0,3.04 2.46,5.5 5.49,5.5 3.04,0 5.5,-2.46 5.5,-5.5 0,-3.03 -2.46,-5.49 -5.5,-5.49" /><path
         id="path244"
         style="fill:#ef3320;fill-opacity:1;fill-rule:nonzero;stroke:none"
         d="m 2998.55,4165.14 c -0.89,0.17 -1.78,0.34 -2.67,0.51 -52.27,10 -105.24,15 -158.24,15 -1.09,0 -2.18,-0.01 -3.27,-0.01 v 276.74 c 1.01,0.07 2.01,0.11 3.02,0.11 14.4,0 28.78,-7.13 36.85,-21.53 v 0 l 0.01,-0.02 0.02,-0.03 8.43,-15.04 c 46.14,-82.33 84.8,-167.91 115.85,-255.73" /><path
         id="path246"
         style="fill:#c0cfc7;fill-opacity:1;fill-rule:nonzero;stroke:none"
         d="m 3014.68,3111.62 h -165.65 l 1.49,76.35 h 184.72 v 0 h 0.22 c -0.29,-1.08 -0.55,-2.16 -0.84,-3.24 l -19.94,-73.11" /><path
         id="path248"
         style="fill:#e22524;fill-opacity:1;fill-rule:nonzero;stroke:none"
         d="m 2963.05,3080.57 h -114.63 l 0.61,31.05 h 149.42 l 0.02,-0.03 -8.06,-14.78 c -5.46,-10.01 -15.95,-16.24 -27.36,-16.24" /><path
         id="path250"
         style="fill:#b6b0ad;fill-opacity:1;fill-rule:nonzero;stroke:none"
         d="m 2886.71,3199.54 c -3.03,0 -5.49,2.46 -5.49,5.5 0,3.03 2.46,5.49 5.49,5.49 3.04,0 5.5,-2.46 5.5,-5.49 0,-3.04 -2.46,-5.5 -5.5,-5.5" /><path
         id="path252"
         style="fill:#b6b0ad;fill-opacity:1;fill-rule:nonzero;stroke:none"
         d="m 2933.57,3199.54 c -3.04,0 -5.5,2.46 -5.5,5.5 0,3.03 2.46,5.49 5.5,5.49 3.03,0 5.49,-2.46 5.49,-5.49 0,-3.04 -2.46,-5.5 -5.49,-5.5" /><path
         id="path254"
         style="fill:#b6b0ad;fill-opacity:1;fill-rule:nonzero;stroke:none"
         d="m 2980.42,3199.54 c -3.03,0 -5.49,2.46 -5.49,5.5 0,3.03 2.46,5.49 5.49,5.49 3.03,0 5.49,-2.46 5.49,-5.49 0,-3.04 -2.46,-5.5 -5.49,-5.5" /><path
         id="path256"
         style="fill:#b6b0ad;fill-opacity:1;fill-rule:nonzero;stroke:none"
         d="m 3027.27,3199.54 c -3.03,0 -5.49,2.46 -5.49,5.5 0,3.03 2.46,5.49 5.49,5.49 3.04,0 5.5,-2.46 5.5,-5.49 0,-3.04 -2.46,-5.5 -5.5,-5.5" /><path
         id="path258"
         style="fill:#e6dfda;fill-opacity:1;fill-rule:nonzero;stroke:none"
         d="m 2926.66,3693.41 c 29.42,25.71 48,63.51 48,105.65 0,42.13 -18.57,79.92 -47.97,105.64 29.98,-25.38 49.01,-63.29 49.01,-105.64 0,-42.36 -19.04,-80.28 -49.04,-105.65" /><path
         id="path260"
         style="fill:#b6b0ad;fill-opacity:1;fill-rule:nonzero;stroke:none"
         d="m 2880.4,3943.16 c -3.03,0 -5.5,2.46 -5.5,5.49 0,3.04 2.47,5.49 5.5,5.49 3.03,0 5.49,-2.45 5.49,-5.49 0,-3.03 -2.46,-5.49 -5.49,-5.49" /><path
         id="path262"
         style="fill:#b6b0ad;fill-opacity:1;fill-rule:nonzero;stroke:none"
         d="m 2918.8,3926.18 c -3.03,0 -5.49,2.45 -5.49,5.49 0,3.03 2.46,5.49 5.49,5.49 3.04,0 5.5,-2.46 5.5,-5.49 0,-3.04 -2.46,-5.49 -5.5,-5.49" /><path
         id="path264"
         style="fill:#b6b0ad;fill-opacity:1;fill-rule:nonzero;stroke:none"
         d="m 2950.89,3899.93 c -3.03,0 -5.49,2.46 -5.49,5.5 0,3.03 2.46,5.49 5.49,5.49 3.04,0 5.5,-2.46 5.5,-5.49 0,-3.04 -2.46,-5.5 -5.5,-5.5" /><path
         id="path266"
         style="fill:#b6b0ad;fill-opacity:1;fill-rule:nonzero;stroke:none"
         d="m 2974.98,3866.11 c -3.04,0 -5.5,2.46 -5.5,5.49 0,3.03 2.46,5.49 5.5,5.49 3.03,0 5.49,-2.46 5.49,-5.49 0,-3.03 -2.46,-5.49 -5.49,-5.49" /><path
         id="path268"
         style="fill:#b6b0ad;fill-opacity:1;fill-rule:nonzero;stroke:none"
         d="m 2989.38,3826.39 c -3.03,0 -5.49,2.46 -5.49,5.49 0,3.03 2.46,5.49 5.49,5.49 3.04,0 5.49,-2.46 5.49,-5.49 0,-3.03 -2.45,-5.49 -5.49,-5.49" /><path
         id="path270"
         style="fill:#b6b0ad;fill-opacity:1;fill-rule:nonzero;stroke:none"
         d="m 2992.42,3782.64 c -3.03,0 -5.49,2.46 -5.49,5.49 0,3.03 2.46,5.49 5.49,5.49 3.04,0 5.5,-2.46 5.5,-5.49 0,-3.03 -2.46,-5.49 -5.5,-5.49" /><path
         id="path272"
         style="fill:#b6b0ad;fill-opacity:1;fill-rule:nonzero;stroke:none"
         d="m 2983.49,3740.6 c -3.03,0 -5.49,2.46 -5.49,5.49 0,3.04 2.46,5.5 5.49,5.5 3.04,0 5.5,-2.46 5.5,-5.5 0,-3.03 -2.46,-5.49 -5.5,-5.49" /><path
         id="path274"
         style="fill:#b6b0ad;fill-opacity:1;fill-rule:nonzero;stroke:none"
         d="m 2964.04,3703.62 c -3.03,0 -5.49,2.45 -5.49,5.49 0,3.03 2.46,5.49 5.49,5.49 3.03,0 5.49,-2.46 5.49,-5.49 0,-3.04 -2.46,-5.49 -5.49,-5.49" /><path
         id="path276"
         style="fill:#b6b0ad;fill-opacity:1;fill-rule:nonzero;stroke:none"
         d="m 2935.74,3673.37 c -3.03,0 -5.49,2.46 -5.49,5.49 0,3.04 2.46,5.5 5.49,5.5 3.04,0 5.5,-2.46 5.5,-5.5 0,-3.03 -2.46,-5.49 -5.5,-5.49" /><path
         id="path278"
         style="fill:#b6b0ad;fill-opacity:1;fill-rule:nonzero;stroke:none"
         d="m 2900.29,3651.55 c -3.04,0 -5.5,2.46 -5.5,5.49 0,3.03 2.46,5.49 5.5,5.49 3.03,0 5.49,-2.46 5.49,-5.49 0,-3.03 -2.46,-5.49 -5.49,-5.49" /><path
         id="path280"
         style="fill:#b6b0ad;fill-opacity:1;fill-rule:nonzero;stroke:none"
         d="m 2859.35,3639.83 c -3.03,0 -5.49,2.46 -5.49,5.49 0,3.04 2.46,5.5 5.49,5.5 3.04,0 5.5,-2.46 5.5,-5.5 0,-3.03 -2.46,-5.49 -5.5,-5.49" /><path
         id="path282"
         style="fill:#b6b0ad;fill-opacity:1;fill-rule:nonzero;stroke:none"
         d="m 2837.36,3949.19 c -1.1,0 -2.13,0.33 -2.99,0.89 v 9.21 c 0.86,0.56 1.89,0.89 2.99,0.89 3.03,0 5.49,-2.46 5.49,-5.5 v 0 c 0,-3.03 -2.46,-5.49 -5.49,-5.49" /><path
         id="path284"
         style="fill:#ef3320;fill-opacity:1;fill-rule:nonzero;stroke:none"
         d="m 2845.15,2912.52 h -10.78 v 581 c 0.97,0.18 1.97,0.28 2.99,0.28 10.61,0 18.92,-10.22 18.53,-30.37 l -5.37,-275.46 -1.49,-76.35 -0.61,-31.05 -3.27,-168.05" /></g></g></svg>