<?xml version="1.0" encoding="UTF-8" standalone="no"?>
<svg
   xmlns:dc="http://purl.org/dc/elements/1.1/"
   xmlns:cc="http://creativecommons.org/ns#"
   xmlns:rdf="http://www.w3.org/1999/02/22-rdf-syntax-ns#"
   xmlns:svg="http://www.w3.org/2000/svg"
   xmlns="http://www.w3.org/2000/svg"
   viewBox="0 0 530.00665 447.25623"
   height="447.25623"
   width="530.00665"
   xml:space="preserve"
   id="svg2"
   version="1.1"><metadata
     id="metadata8"><rdf:RDF><cc:Work
         rdf:about=""><dc:format>image/svg+xml</dc:format><dc:type
           rdf:resource="http://purl.org/dc/dcmitype/StillImage" /><dc:title></dc:title></cc:Work></rdf:RDF></metadata><defs
     id="defs6"><clipPath
       id="clipPath48"
       clipPathUnits="userSpaceOnUse"><path
         id="path46"
         d="m 1653.83,1043.02 173.68,667.33 c 41.46,159.29 174.02,278.44 336.82,302.74 l 127.63,19.05 c 383.46,57.23 773.29,57.23 1156.75,0 l 127.63,-19.05 c 162.8,-24.3 295.36,-143.45 336.81,-302.74 l 173.69,-667.33 H 1653.83" /></clipPath></defs><g
     transform="matrix(1.3333333,0,0,-1.3333333,-118.26933,566.32555)"
     id="g10"><g
       transform="scale(0.1)"
       id="g12"><path
         id="path16"
         style="fill:#92dacf;fill-opacity:1;fill-rule:nonzero;stroke:none"
         d="m 4384.12,3091.43 c 57.7,-105.77 105.07,-219.27 140.17,-339.7 111.93,-384.14 81.86,-775.93 -59.25,-1119.33 98.01,320.71 106.92,672.62 6.1,1018.62 -126.19,433.08 -402.28,781.63 -755.27,1005.88 -221.52,96.94 -466.1,150.95 -723.38,150.95 -955.44,0 -1737.6,-741.44 -1802.76,-1680.32 -0.31,13.32 -0.74,26.6 -0.74,39.99 0,849.44 615.59,1555.02 1424.96,1695.19 -891.4,-126.57 -1576.93,-892.69 -1576.93,-1819.04 0,-369.12 108.97,-712.72 296.31,-1000.65 h 3082.44 c 187.34,287.93 296.3,631.53 296.3,1000.65 0,389.45 -121.26,750.54 -327.95,1047.76" /><path
         id="path18"
         style="fill:#cd1454;fill-opacity:1;fill-rule:nonzero;stroke:none"
         d="m 2132.55,1043.02 31.6,667.33 c 28.12,159.29 118,278.44 228.38,302.74 l 86.54,19.05 c 262.55,47.25 530.43,33.32 784.33,0 l 86.54,-19.05 c 110.38,-24.3 200.26,-143.45 228.37,-302.74 l 28.52,-667.33 H 2132.55" /><path
         id="path20"
         style="fill:#7798a6;fill-opacity:1;fill-rule:nonzero;stroke:none"
         d="m 3606.83,1043.02 -23.26,544.33 10.63,-248.81 12.63,-295.52" /><path
         id="path22"
         style="fill:#bf1841;fill-opacity:1;fill-rule:nonzero;stroke:none"
         d="m 3606.83,1043.02 v 0 m 0,0 -1434.28,10.58 c 0,0 -39.91,192.78 321.37,192.78 h 343.9 c 149.01,0 548.73,148.5 591.57,306.42 l 55.29,137.13 95.81,-30.61 3.08,-71.97 23.26,-544.33" /><path
         id="path24"
         style="fill:#cd1454;fill-opacity:1;fill-rule:nonzero;stroke:none"
         d="m 2310.23,1641.07 -581.75,-283.7 c -121.79,-59.39 -263.81,28.89 -264.44,164.4 l -4.82,1037.31 253.71,-30.96 26.64,-819.69 557.74,243.59 12.92,-310.95" /><path
         id="path26"
         style="fill:#e71669;fill-opacity:1;fill-rule:nonzero;stroke:none"
         d="m 1459.22,2559.08 6.77,-1063.56 72.89,63.86 c 68.75,116.06 45.43,351.64 45.43,351.64 l -14.33,604.87 c 2.3,18.85 -7.32,31.87 -25.16,34.05 l -85.6,9.14" /><path
         id="path28"
         style="fill:#f8d099;fill-opacity:1;fill-rule:nonzero;stroke:none"
         d="m 1341.63,2917.16 141.93,-361.01 109.53,-12.38 -112.09,311.55 c -19.7,54.76 -80.07,83.18 -134.82,63.48 l -4.55,-1.64" /><path
         id="path30"
         style="fill:#f8d099;fill-opacity:1;fill-rule:nonzero;stroke:none"
         d="m 1548.27,2634.77 33.02,-91.81 75.99,27.34 -33.03,91.8 -75.98,-27.33" /><path
         id="path32"
         style="fill:#f8d099;fill-opacity:1;fill-rule:nonzero;stroke:none"
         d="m 1570.42,2670.33 17.7,-126.98 107.99,-13.57 -75.54,247.07 c -43.26,-15.56 -65.72,-63.26 -50.15,-106.52" /><path
         id="path34"
         style="fill:#cd1454;fill-opacity:1;fill-rule:nonzero;stroke:none"
         d="m 3349.81,1733.02 612.27,-195.61 c 128.18,-40.95 277.63,68.84 278.3,204.43 l 5.08,1038.04 -267.02,-69.37 -28.04,-823.72 -586.99,159.14 -13.6,-312.91" /><path
         id="path36"
         style="fill:#f8d099;fill-opacity:1;fill-rule:nonzero;stroke:none"
         d="m 4369.21,3155.77 -149.38,-382.5 -115.26,-28.96 117.97,328.52 c 20.73,57.74 84.26,95.3 141.89,83.89 l 4.78,-0.95" /><path
         id="path38"
         style="fill:#f8d099;fill-opacity:1;fill-rule:nonzero;stroke:none"
         d="m 4151.74,2842.09 -34.76,-96.81 -79.97,15.84 34.76,96.8 79.97,-15.83" /><path
         id="path40"
         style="fill:#f8d099;fill-opacity:1;fill-rule:nonzero;stroke:none"
         d="m 4128.43,2874.3 -18.64,-129.66 -113.65,-29.92 79.5,258.51 c 45.53,-9.02 69.17,-53.31 52.79,-98.93" /><g
         id="g42"><g
           clip-path="url(#clipPath48)"
           id="g44"><path
             id="path50"
             style="fill:#ffffff;fill-opacity:1;fill-rule:nonzero;stroke:none"
             d="m 3364.2,2166.3 c 0,-240.06 -219.23,-434.67 -489.65,-434.67 -270.43,0 -489.65,194.61 -489.65,434.67 0,240.05 219.22,434.66 489.65,434.66 270.42,0 489.65,-194.61 489.65,-434.66" /><path
             id="path52"
             style="fill:#f8d099;fill-opacity:1;fill-rule:nonzero;stroke:none"
             d="m 3271.2,2166.3 c 0,-194.47 -177.58,-352.12 -396.65,-352.12 -219.07,0 -396.66,157.65 -396.66,352.12 0,194.46 177.59,352.11 396.66,352.11 219.07,0 396.65,-157.65 396.65,-352.11" /></g></g><path
         id="path54"
         style="fill:#2c1e15;fill-opacity:1;fill-rule:nonzero;stroke:none"
         d="m 2349.44,1613.25 c 0,0 -63.09,562.89 538.01,626.77 601.1,63.87 618.93,-103.87 618.93,-103.87 l 36.07,724.81 -1492.72,-57.03 299.71,-1190.68" /><path
         id="path56"
         style="fill:#f8d099;fill-opacity:1;fill-rule:nonzero;stroke:none"
         d="m 3159.62,1946.66 -1.16,-1.16 c -159.6,-159.09 -417.98,-158.58 -576.94,1.16 l 44.39,362.25 h 489.32 l 44.39,-362.25" /><path
         id="path58"
         style="fill:#f5b56b;fill-opacity:1;fill-rule:nonzero;stroke:none"
         d="m 3030.93,2125.97 c -166.49,0.01 -355.16,47.85 -416.23,72.39 l 7.19,61.2 c 63.59,-22.72 131.75,-34.99 202.22,-34.99 21.35,0 42.92,1.12 64.62,3.43 v 0 c 81.9,8.7 158.25,33.39 226.25,70.61 l 19.42,-165.19 c -32.45,-5.21 -67.42,-7.45 -103.47,-7.45" /><path
         id="path60"
         style="fill:#f8d099;fill-opacity:1;fill-rule:nonzero;stroke:none"
         d="m 2888.73,2228 v 0 c -331.98,-35.28 -629.7,205.25 -664.98,537.23 l -51.41,483.79 c -22.63,212.97 131.67,403.96 344.63,426.59 l 430.99,45.8 c 212.96,22.63 403.95,-131.67 426.58,-344.64 l 51.41,-483.79 C 3461.23,2561 3220.71,2263.28 2888.73,2228" /><path
         id="path62"
         style="fill:#f5b56b;fill-opacity:1;fill-rule:nonzero;stroke:none"
         d="m 2426.76,2605.47 -46.5,65.96 c -128.42,483.06 97.64,789.87 536.64,915.35 -275.46,-164.12 -401.88,-375.6 -455.35,-625.16 -55.65,-16.11 -93.51,-48.76 -89.78,-81.82 2.86,-25.34 29.48,-45 67.81,-54.3 -8.09,-70.75 -11.86,-144.17 -12.82,-220.03" /><path
         id="path64"
         style="fill:#2b1c14;fill-opacity:1;fill-rule:nonzero;stroke:none"
         d="m 3177.24,2260.57 c 36.9,46.77 68.8,99.37 94.06,160.98 81.12,88.93 135.56,201.63 152.48,324.73 1.82,-40.27 1.4,-80.66 -1.21,-120.97 -33.26,-148.81 -121.92,-278.91 -245.33,-364.74" /><path
         id="path66"
         style="fill:#f5b56b;fill-opacity:1;fill-rule:nonzero;stroke:none"
         d="m 3271.3,2421.55 c 31.63,77.15 52.86,168.43 60.5,280.1 l 2.69,131.64 c -2.51,115.18 -17,248.74 -45.98,405.56 33.19,-69.91 61.72,-141.8 85.46,-215.21 29.17,-90.19 45.57,-183.47 49.81,-277.36 -16.92,-123.1 -71.36,-235.8 -152.48,-324.73" /><path
         id="path68"
         style="fill:#3b2717;fill-opacity:1;fill-rule:nonzero;stroke:none"
         d="m 2252.22,1510.43 -29.02,1259.99 159,-214.97 11.7,68.38 c -175.55,572.67 130.52,909.23 698.34,1001.66 v 0 l 174.23,-341.85 c 42.74,-83.86 78.66,-170.81 107.5,-260 62.25,-192.48 66.36,-399.07 18.17,-595.55 l -111.95,-456.45 c 318.44,261.2 484,665.15 440.48,1074.71 l -24.85,233.82 C 3642.5,3782 3192.46,4145.58 2690.63,4092.25 h -0.01 c -501.83,-53.32 -865.41,-503.36 -812.08,-1005.2 l 29.42,-276.89 c 43.22,-406.74 143.31,-805.4 297.35,-1184.32 l 46.91,-115.41" /><path
         id="path70"
         style="fill:#2c2a2a;fill-opacity:1;fill-rule:nonzero;stroke:none"
         d="m 3021.89,3056.82 177.21,-7.96 c 8.19,-0.37 15.12,5.97 15.49,14.16 0.37,8.18 -5.97,15.12 -14.16,15.49 l -177.21,7.96 c -8.18,0.36 -15.12,-5.98 -15.49,-14.16 -0.36,-8.19 5.97,-15.13 14.16,-15.49" /><path
         id="path72"
         style="fill:#2c2a2a;fill-opacity:1;fill-rule:nonzero;stroke:none"
         d="m 2445.74,2976.27 150.22,23.69 c 8.1,1.28 13.62,8.88 12.35,16.97 -1.28,8.1 -8.88,13.63 -16.97,12.35 l -150.22,-23.69 c -8.1,-1.28 -13.63,-8.87 -12.35,-16.97 1.28,-8.1 8.87,-13.62 16.97,-12.35" /><path
         id="path74"
         style="fill:#6f131d;fill-opacity:1;fill-rule:nonzero;stroke:none"
         d="m 3058.4,2564.14 c -9.48,107.39 -104.23,186.75 -211.62,177.27 -107.4,-9.49 -186.76,-104.24 -177.27,-211.63 l 388.89,34.36" /><path
         id="path76"
         style="fill:#952a31;fill-opacity:1;fill-rule:nonzero;stroke:none"
         d="m 2860.83,2618.85 c -104.77,0 -119.81,90.75 -6.78,107.22 6.5,0.94 13.12,1.72 19.83,2.31 6.71,0.59 13.36,0.99 19.93,1.2 2.2,0.07 4.34,0.1 6.46,0.1 113.51,0 106.42,-98.69 -11.61,-109.12 l -10.42,-0.92 c -6.05,-0.54 -11.86,-0.79 -17.41,-0.79" /><path
         id="path78"
         style="fill:#f5c392;fill-opacity:1;fill-rule:nonzero;stroke:none"
         d="m 3104.53,2888.73 c -64.71,0 -115.98,24.45 -120.01,60.18 -4.64,41.11 55.04,81.59 133.28,90.42 10.25,1.15 20.32,1.71 30.07,1.71 64.71,0 115.98,-24.45 120.01,-60.17 4.63,-41.12 -55.04,-81.6 -133.29,-90.42 -10.24,-1.16 -20.31,-1.72 -30.06,-1.72" /><path
         id="path80"
         style="fill:#f5c392;fill-opacity:1;fill-rule:nonzero;stroke:none"
         d="m 2491.78,2819.63 c -18.81,0 -36.49,2.06 -52.2,5.87 5.32,46.54 12.5,91.92 21.97,136.12 13.56,3.93 28.17,6.87 43.5,8.6 10.25,1.16 20.32,1.71 30.07,1.71 64.71,0 115.98,-24.44 120.01,-60.17 4.63,-41.11 -55.04,-81.6 -133.29,-90.42 -10.24,-1.16 -20.31,-1.71 -30.06,-1.71" /><path
         id="path82"
         style="fill:#f1a967;fill-opacity:1;fill-rule:nonzero;stroke:none"
         d="m 2439.58,2825.5 c -38.33,9.3 -64.95,28.96 -67.81,54.3 -3.73,33.06 34.13,65.71 89.78,81.82 -9.47,-44.2 -16.65,-89.58 -21.97,-136.12" /><path
         id="path84"
         style="fill:#7a7b7c;fill-opacity:1;fill-rule:nonzero;stroke:none"
         d="m 3854.83,3417.77 c -45.26,205.42 -128.14,397.36 -241.52,570.13 -3.85,5.87 -11.73,7.5 -17.6,3.65 -5.87,-3.85 -7.5,-11.73 -3.65,-17.6 111.76,-170.31 193.37,-359.36 237.94,-561.65 1.51,-6.85 8.29,-11.18 15.15,-9.67 6.85,1.51 11.19,8.29 9.68,15.14" /><path
         id="path86"
         style="fill:#7a7b7c;fill-opacity:1;fill-rule:nonzero;stroke:none"
         d="m 3719.51,3933.91 c 47.3,-85.15 87.37,-174.34 119.43,-266.98 2.3,-6.64 9.54,-10.15 16.17,-7.86 6.63,2.3 10.15,9.54 7.85,16.17 -32.56,94.06 -73.23,184.61 -121.23,271.02 -3.41,6.13 -11.14,8.34 -17.28,4.93 -6.14,-3.4 -8.35,-11.14 -4.94,-17.28" /></g></g></svg>