<?xml version="1.0" encoding="UTF-8" standalone="no"?>
<!-- Created with Inkscape (http://www.inkscape.org/) -->
<svg id="svg2" xmlns:rdf="http://www.w3.org/1999/02/22-rdf-syntax-ns#" xmlns="http://www.w3.org/2000/svg" height="158" width="155.14" version="1.0" xmlns:cc="http://creativecommons.org/ns#" xmlns:xlink="http://www.w3.org/1999/xlink" xmlns:dc="http://purl.org/dc/elements/1.1/">
 <defs id="defs4">
  <linearGradient id="linearGradient3533" y2="15.465" xlink:href="#linearGradient8112" gradientUnits="userSpaceOnUse" y1="50.395" x2="21.795" x1="29.854"/>
  <linearGradient id="linearGradient3531" y2="2.4396" xlink:href="#linearGradient8112" gradientUnits="userSpaceOnUse" y1="43.543" x2="25.368" x1="33.112"/>
  <linearGradient id="linearGradient8112">
   <stop id="stop8114" stop-color="#FFF" offset="0"/>
   <stop id="stop8116" stop-color="#FFF" stop-opacity="0" offset="1"/>
  </linearGradient>
  <filter id="filter3490" height="1.20925" width="1.0572767" color-interpolation-filters="sRGB" y="-0.104625" x="-0.028638335">
   <feGaussianBlur id="feGaussianBlur3492" stdDeviation="1.4251155"/>
  </filter>
 </defs>
 <metadata id="metadata7">
  <rdf:RDF>
   <cc:Work rdf:about="">
    <dc:format>image/svg+xml</dc:format>
    <dc:type rdf:resource="http://purl.org/dc/dcmitype/StillImage"/>
    <dc:title/>
   </cc:Work>
  </rdf:RDF>
 </metadata>
 <g id="layer1" transform="translate(17.767747,19.393716)">
  <g id="g2996" transform="matrix(0.4719459,0,0,0.4549383,-2.5995727,-12.178716)">
   <g id="g2712" transform="matrix(4.17736,0,0,4.17736,28.3674,21.0493)">
    <path id="path12028" opacity="0.50211002" stroke-linejoin="round" d="M27.865,43.71c-1.113-0.15-2.337-0.449-2.88-0.703-1.256-0.586-2.458-1.418-2.886-1.999-0.112-0.152-0.39-0.423-0.619-0.603-0.907-0.715-1.437-1.467-2.518-3.576-0.12285-0.23958-0.50667-2.1794-0.64795-3.2748-0.11164-0.86558-0.10266-2.5949,0.01758-3.3865,0.14921-0.98217,0.45399-2.2739,0.60164-2.5497,0.12425-0.23218,0.433-1.2322,0.52896-1.7134,0.03626-0.1818,0.11759-0.39429,0.18075-0.4722,0.06314-0.07791,0.19347-0.4179,0.2896-0.75552,0.09614-0.33762,0.32023-0.90812,0.498-1.2678,0.39813-0.80548,0.58524-1.4056,0.58658-1.8814,0.000572-0.19977,0.07085-0.60342,0.15619-0.89698,0.20897-0.71881,0.12841-2.7429-0.13964-3.509-0.20358-0.58187-0.70075-1.5591-1.2231-2.4041-1.0823-1.7508-4.176-3.905-6.0171-4.1897-0.70574-0.10916-3.0416,0.01163-4.0456,0.2092-0.85962,0.16915-1.6693,0.54535-2.0844,0.96845-1.0647,1.0852-1.687,1.8184-1.9321,2.2765-0.35364,0.6608-0.57293,1.6744-0.63311,2.9264-0.068369,1.4228-0.00892,1.7203,0.62209,3.1119,0.53253,1.1745,1.9646,2.361,3.5401,2.9331,0.73541,0.26706,1.0154,0.31659,2.0777,0.36755,1.4649,0.07027,2.0893-0.03592,2.7459-0.46702,0.25579-0.16794,0.65632-0.41766,0.89005-0.55494,1.0669-0.62661,1.6242-1.8084,1.6196-3.4347-0.0028-1.0081-0.36205-1.9189-0.97086-2.4615-0.37857-0.33743-1.7142-1.1411-2.1023-1.265-0.67618-0.21582-1.5485-0.07892-2.4793,0.3891-0.45314,0.22784-0.90441,0.5245-1.0028,0.65925-0.098411,0.13475-0.32131,0.62348-0.49531,1.0861-0.17401,0.46258-0.35127,0.84106-0.39392,0.84106-0.1692,0-0.12581-0.73363,0.076692-1.2971,0.28969-0.80598,0.58063-1.2253,1.1544-1.6639,0.64686-0.49442,1.2811-0.73889,2.1384-0.82429,1.1147-0.11104,1.2893-0.0798,2.2534,0.40316,1.1217,0.56187,1.4607,0.89328,2.0145,1.9693,0.66103,1.2845,0.742,1.638,0.59545,2.5994-0.16656,1.0927-0.54104,2.1968-0.97697,2.8804-0.39747,0.62332-1.1385,1.1911-2.4698,1.8925-0.95485,0.50306-1.2809,0.59088-2.5499,0.68686-1.3887,0.10504-2.1983,0.01486-3.2582-0.36292-0.46747-0.16663-1.0489-0.35987-1.292-0.42941-0.32408-0.09271-0.74334-0.38039-1.5711-1.0781-1.4207-1.1974-1.6489-1.5846-1.9251-3.265-0.10242-0.6233-0.1996-1.4387-0.21598-1.8119-0.016374-0.37325-0.056261-0.72152-0.088657-0.77393-0.067758-0.10963,0.089476-2.0085,0.24727-2.9861,0.13008-0.80596,0.18958-0.9285,1.1192-2.3052,0.55171-0.81699,0.91446-1.2401,1.43-1.6681,1.6671-1.3839,2.7562-1.9577,4.6493-2.4495,1.3126-0.34103,1.3161-0.34138,2.9276-0.29857,1.7043,0.045279,2.6115,0.15172,3.2241,0.37831,4.143,1.5323,5.7772,2.8738,7.8999,6.4848,0.67878,1.1547,1.3268,1.9802,2.4981,3.1821,0.86194,0.88447,1.1378,1.1063,1.6883,1.3576,0.88719,0.40512,1.9251,0.55263,3.9165,0.55667,1.8965,0.0038,2.6141-0.13977,3.4409-0.68856,0.26294-0.17454,0.69003-0.41107,0.9491-0.52563,0.25906-0.11456,0.55655-0.28516,0.66108-0.37912,0.10452-0.09396,0.42379-0.29356,0.70948-0.44356,0.65602-0.34445,1.4217-1.1118,1.7013-1.705,0.33673-0.7145,0.85186-1.5632,1.1374-1.8739,0.19465-0.21181,0.28435-0.44112,0.35538-0.90855,0.05227-0.34388,0.18417-0.79998,0.29313-1.0136,0.27381-0.53671,0.36642-1.6707,0.16781-2.0548-0.08092-0.15647-0.20803-0.60708-0.28248-1.0014-0.26428-1.3996-1.6489-3.0321-3.2379-3.8174-0.57633-0.28484-0.82075-0.34548-1.7211-0.42704-1.8712-0.1695-3.2409,0.11926-4.3199,0.91065-1.0197,0.74789-1.4599,1.1168-1.4599,1.2234,0,0.11168-0.46982,0.66047-0.61949,0.72362-0.20734,0.087491-0.60823,0.7537-0.60823,1.0108,0,0.15269-0.08309,0.46544-0.18464,0.695-0.38722,0.87538-0.31933,1.5844,0.29242,3.0537,0.34802,0.83586,0.45462,1.031,0.79971,1.4638,0.46264,0.58026,0.94901,0.84918,1.8105,1.0011,1.0025,0.17672,1.5044,0.16396,2.1389-0.05435,1.2546-0.43164,2.128-1.1679,2.5795-2.1744,0.20312-0.45282,0.22812-0.62263,0.19504-1.3244-0.03327-0.7054-0.07787-0.87481-0.36061-1.3694-0.17747-0.31042-0.48761-0.74352-0.68921-0.96246-0.20161-0.21893-0.35179-0.44236-0.33374-0.4965,0.05236-0.15708,1.0022,0.53556,1.302,0.9495,0.45987,0.63483,0.60762,1.2724,0.54023,2.3312-0.07399,1.1624-0.39128,1.8419-1.2887,2.7598-0.6924,0.70818-1.388,1.0487-2.5487,1.2478-0.9447,0.162-2.1442-0.05862-2.9016-0.53368-0.9182-0.5759-1.4903-1.1662-2.012-2.076-0.42858-0.74745-0.50913-0.9787-0.70733-2.0305-0.23612-1.2531-0.23566-2.2758,0.0012-2.5563,0.06579-0.077913,0.16964-0.38645,0.23078-0.68564s0.20658-0.66042,0.32321-0.80274,0.34842-0.54536,0.51511-0.89563c0.2452-0.5153,0.37467-0.6734,0.67824-0.82827,0.20634-0.10527,0.37518-0.23373,0.37518-0.28545,0-0.051727,0.14544-0.1634,0.32318-0.24816,0.17776-0.084764,0.34392-0.23342,0.36927-0.33035,0.02719-0.104,0.27212-0.27537,0.5976-0.41811,0.30335-0.13303,0.78282-0.35024,1.0655-0.48268,0.2827-0.13244,1.0689-0.37803,1.7471-0.54576,1.1725-0.28996,1.2889-0.30165,2.3664-0.23765,1.0821,0.064269,1.1584,0.082714,1.6894,0.4082,0.30583,0.18749,0.70957,0.39059,0.89718,0.45134,0.18761,0.060751,0.67337,0.34897,1.0795,0.64049,0.4061,0.29152,0.88044,0.61597,1.0541,0.72099,0.17365,0.10503,0.596,0.47823,0.93859,0.82934,0.71097,0.72869,1.457,2.0874,1.7024,3.1006,0.08009,0.3306,0.23041,0.89857,0.33405,1.2622,0.16123,0.56567,0.18021,0.83145,0.1315,1.8416-0.15171,3.1461-1.2216,5.5676-3.2936,7.4542-0.2597,0.23648-0.78077,0.73668-1.1579,1.1115-0.76319,0.75855-1.6738,1.3851-2.8086,1.9324-0.41554,0.20043-0.99165,0.48834-1.2803,0.6398-0.88208,0.46292-2.2311,0.66702-4.4089,0.66702-2.13,0-2.3665,0.03229-4.8118,0.65693-0.87473,0.22345-1.162,0.345-1.6669,0.70526-0.85378,0.60925-1.8389,1.8784-2.6078,3.3598-0.12133,0.23374-0.29656,0.50998-0.3894,0.61386-0.30774,0.34436-0.54562,1.0506-0.56211,1.6689-0.04061,1.5228,0.02199,4.2238,0.1058,4.5642,0.12996,0.52783,0.37204,1.083,0.61766,1.4166,0.3185,0.43252,0.85083,1.4051,0.975,1.7813,0.06667,0.20198,0.29062,0.48662,0.56097,0.71297,0.2475,0.20722,0.57185,0.5526,0.72078,0.76749,0.32368,0.46706,1.4941,1.1016,2.1953,1.1903,0.24559,0.03104,0.53323,0.11023,0.6392,0.17598s0.4247,0.16759,0.7083,0.22631c0.61492,0.12732,2.0071-0.04731,2.8103-0.35251,0.49381-0.18763,1.6588-0.86854,2.2792-1.3321,0.46494-0.34742,1.0984-1.2469,1.2846-1.8241,0.08794-0.27262,0.21186-0.58066,0.27535-0.68455,0.32708-0.5351,0.40392-1.6235,0.24767-3.5082-0.05986-0.72207-0.13714-1.0713-0.31344-1.4166-0.12869-0.25203-0.33231-0.66309-0.45249-0.91346-0.36789-0.76643-2.1392-2.0485-2.8504-2.0632-0.11839-0.0024-0.50026-0.06373-0.84862-0.1362-0.66891-0.13914-1.6453-0.06897-2.0494,0.14729-0.49679,0.26588-1.1313,0.74115-1.5375,1.1517-0.36101,0.36485-0.48736,0.58868-0.68444,1.2126-0.22624,0.71615-0.23628,0.82757-0.15693,1.7413,0.09698,1.1168,0.28734,1.6335,0.81845,2.2214,0.42361,0.46888,0.78445,0.66584,1.7405,0.94999,0.69427,0.20635,1.3506,0.21983,1.9598,0.04024,0.3577-0.10546,0.23596,0.109-0.16435,0.28951-0.56544,0.25498-1.9011,0.15748-2.7826-0.20312-0.88174-0.3607-1.6497-1.0725-2.0584-1.908-0.29431-0.60157-0.30687-0.67364-0.30687-1.7605,0-1.0809,0.01347-1.1595,0.29147-1.6999,0.1603-0.31165,0.38949-0.75777,0.5093-0.99137,0.1198-0.2336,0.4675-0.66527,0.77264-0.95926,0.45042-0.43394,0.69226-0.58208,1.2851-0.78717,1.6319-0.56456,3.618-0.41817,4.8384,0.35663,1.116,0.70852,2.0944,1.5328,2.4666,2.0781,0.68374,1.0017,1.178,2.1859,1.2499,2.9946,0.03466,0.38957,0.10153,1.0812,0.14862,1.5371,0.08071,0.78139,0.06696,0.90284-0.24073,2.1249-0.48051,1.9085-0.74334,2.4159-1.6767,3.2364-0.422,0.37102-0.92546,0.75584-1.1188,0.85516-0.19335,0.09932-0.49083,0.30045-0.66108,0.44695-0.46162,0.39721-1.3376,0.86575-1.6186,0.86575-0.13597,0-0.51328,0.10139-0.83848,0.22532-0.64238,0.24481-1.8348,0.53713-2.1158,0.51872-0.09646-0.0063-0.55786-0.0633-1.0253-0.12662z" stroke-dashoffset="0" stroke="#002568" stroke-linecap="butt" stroke-miterlimit="4" stroke-dasharray="none" stroke-width="1.5" fill="none"/>
    <path id="path2243" fill-rule="nonzero" fill="#004db1" d="M27.865,43.71c-1.113-0.15-2.337-0.449-2.88-0.703-1.256-0.586-2.458-1.418-2.886-1.999-0.112-0.152-0.39-0.423-0.619-0.603-0.907-0.715-1.437-1.467-2.518-3.576-0.123-0.239-0.507-2.179-0.648-3.275-0.111-0.865-0.102-2.594,0.018-3.386,0.14921-0.98217,0.45399-2.2739,0.60164-2.5497,0.12425-0.23218,0.433-1.2322,0.52896-1.7134,0.03626-0.1818,0.11759-0.39429,0.18075-0.4722,0.06314-0.07791,0.19347-0.4179,0.2896-0.75552,0.09614-0.33762,0.32023-0.90812,0.498-1.2678,0.39813-0.80548,0.58524-1.4056,0.58658-1.8814,0.000572-0.19977,0.07085-0.60342,0.15619-0.89698,0.20897-0.71881,0.12841-2.7429-0.13964-3.509-0.20358-0.58187-0.70075-1.5591-1.2231-2.4041-1.0823-1.7508-4.176-3.905-6.0171-4.1897-0.70574-0.10916-3.0416,0.01163-4.0456,0.2092-0.85962,0.16915-1.6693,0.54535-2.0844,0.96845-1.0647,1.0852-1.687,1.8184-1.9321,2.2765-0.35364,0.6608-0.57293,1.6744-0.63311,2.9264-0.068369,1.4228-0.00892,1.7203,0.62209,3.1119,0.53253,1.1745,1.9646,2.361,3.5401,2.9331,0.73541,0.26706,1.0154,0.31659,2.0777,0.36755,1.4649,0.07027,2.0893-0.03592,2.7459-0.46702,0.25579-0.16794,0.65632-0.41766,0.89005-0.55494,1.0669-0.62661,1.6242-1.8084,1.6196-3.4347-0.0028-1.0081-0.36205-1.9189-0.97086-2.4615-0.37857-0.33743-1.7142-1.1411-2.1023-1.265-0.67618-0.21582-1.5485-0.07892-2.4793,0.3891-0.45314,0.22784-0.90441,0.5245-1.0028,0.65925-0.098411,0.13475-0.32131,0.62348-0.49531,1.0861-0.17401,0.46258-0.35127,0.84106-0.39392,0.84106-0.1692,0-0.12581-0.73363,0.076692-1.2971,0.28969-0.80598,0.58063-1.2253,1.1544-1.6639,0.64686-0.49442,1.2811-0.73889,2.1384-0.82429,1.1147-0.11104,1.2893-0.0798,2.2534,0.40316,1.1217,0.56187,1.4607,0.89328,2.0145,1.9693,0.66103,1.2845,0.742,1.638,0.59545,2.5994-0.16656,1.0927-0.54104,2.1968-0.97697,2.8804-0.39747,0.62332-1.1385,1.1911-2.4698,1.8925-0.95485,0.50306-1.2809,0.59088-2.5499,0.68686-1.3887,0.10504-2.1983,0.01486-3.2582-0.36292-0.46747-0.16663-1.0489-0.35987-1.292-0.42941-0.32408-0.09271-0.74334-0.38039-1.5711-1.0781-1.4207-1.1974-1.6489-1.5846-1.9251-3.265-0.10242-0.6233-0.1996-1.4387-0.21598-1.8119-0.016374-0.37325-0.056261-0.72152-0.088657-0.77393-0.067758-0.10963,0.089476-2.0085,0.24727-2.9861,0.13008-0.80596,0.18958-0.9285,1.1192-2.3052,0.55171-0.81699,0.91446-1.2401,1.43-1.6681,1.6671-1.3839,2.7562-1.9577,4.6493-2.4495,1.3126-0.34103,1.3161-0.34138,2.9276-0.29857,1.7043,0.045279,2.6115,0.15172,3.2241,0.37831,4.143,1.5323,5.7772,2.8738,7.8999,6.4848,0.67878,1.1547,1.3268,1.9802,2.4981,3.1821,0.86194,0.88447,1.1378,1.1063,1.6883,1.3576,0.88719,0.40512,1.9251,0.55263,3.9165,0.55667,1.8965,0.0038,2.6141-0.13977,3.4409-0.68856,0.26294-0.17454,0.69003-0.41107,0.9491-0.52563,0.25906-0.11456,0.55655-0.28516,0.66108-0.37912s0.42379-0.29356,0.70948-0.44356c0.65603-0.34445,1.4217-1.1118,1.7013-1.705,0.33673-0.7145,0.85186-1.5632,1.1374-1.8739,0.19465-0.21181,0.28435-0.44112,0.35538-0.90855,0.05227-0.34388,0.18417-0.79998,0.29313-1.0136,0.27381-0.53671,0.36642-1.6707,0.16781-2.0548-0.08092-0.15647-0.20804-0.60708-0.28248-1.0014-0.26428-1.3996-1.6489-3.0321-3.2379-3.8174-0.57633-0.28484-0.82075-0.34548-1.7211-0.42704-1.8712-0.1695-3.2409,0.11926-4.3199,0.91065-1.0197,0.74789-1.4599,1.1168-1.4599,1.2234,0,0.11168-0.46982,0.66047-0.61949,0.72362-0.20734,0.087491-0.60823,0.7537-0.60823,1.0108,0,0.15269-0.08309,0.46544-0.18464,0.695-0.38722,0.87538-0.31933,1.5844,0.29242,3.0537,0.34802,0.83586,0.45462,1.031,0.79971,1.4638,0.46264,0.58026,0.94901,0.84918,1.8105,1.0011,1.0025,0.17672,1.5044,0.16396,2.1389-0.05435,1.2546-0.43164,2.128-1.1679,2.5795-2.1744,0.20312-0.45282,0.22812-0.62263,0.19504-1.3244-0.03327-0.7054-0.07787-0.87481-0.36061-1.3694-0.17747-0.31042-0.48761-0.74352-0.68921-0.96246-0.20161-0.21893-0.35179-0.44236-0.33374-0.4965,0.05236-0.15708,1.0022,0.53556,1.302,0.9495,0.45986,0.63483,0.60762,1.2724,0.54022,2.3312-0.07398,1.1624-0.39127,1.8419-1.2887,2.7598-0.6924,0.70818-1.388,1.0487-2.5487,1.2478-0.9447,0.162-2.1442-0.05862-2.9016-0.53368-0.9182-0.5759-1.4903-1.1662-2.012-2.076-0.42858-0.74745-0.50913-0.9787-0.70733-2.0305-0.23612-1.2531-0.23566-2.2758,0.0012-2.5563,0.06579-0.077913,0.16964-0.38645,0.23078-0.68564s0.20658-0.66042,0.32321-0.80274,0.34842-0.54536,0.51511-0.89563c0.2452-0.5153,0.37467-0.6734,0.67824-0.82827,0.20634-0.10527,0.37518-0.23373,0.37518-0.28545,0-0.051727,0.14544-0.1634,0.32318-0.24816,0.17776-0.084764,0.34392-0.23342,0.36927-0.33035,0.02719-0.104,0.27212-0.27537,0.5976-0.41811,0.30335-0.13303,0.78282-0.35024,1.0655-0.48268,0.2827-0.13244,1.0689-0.37803,1.7471-0.54576,1.1725-0.28996,1.2889-0.30165,2.3664-0.23765,1.0821,0.064268,1.1584,0.082714,1.6894,0.4082,0.30583,0.18749,0.70957,0.39059,0.89718,0.45134,0.18761,0.060752,0.67337,0.34897,1.0795,0.64049,0.4061,0.29152,0.88044,0.61597,1.0541,0.72099,0.17364,0.10503,0.596,0.47823,0.93858,0.82934,0.71098,0.72869,1.457,2.0874,1.7024,3.1006,0.08008,0.3306,0.23041,0.89857,0.33405,1.2622,0.16122,0.56567,0.18021,0.83145,0.13149,1.8416-0.1517,3.1461-1.2216,5.5676-3.2936,7.4542-0.2597,0.23648-0.78077,0.73668-1.1579,1.1115-0.76319,0.75855-1.6738,1.3851-2.8086,1.9324-0.41554,0.20043-0.99165,0.48834-1.2803,0.6398-0.88208,0.46292-2.2311,0.66702-4.4089,0.66702-2.13,0-2.3665,0.03229-4.8118,0.65693-0.87473,0.22345-1.162,0.345-1.6669,0.70526-0.85378,0.60925-1.8389,1.8784-2.6078,3.3598-0.12133,0.23374-0.29656,0.50998-0.3894,0.61386-0.30774,0.34436-0.54562,1.0506-0.56211,1.6689-0.04061,1.5228,0.02199,4.2238,0.1058,4.5642,0.12996,0.52783,0.37204,1.083,0.61766,1.4166,0.3185,0.43252,0.85083,1.4051,0.975,1.7813,0.06667,0.20198,0.29062,0.48662,0.56097,0.71297,0.2475,0.20722,0.57185,0.5526,0.72078,0.76749,0.32368,0.46706,1.4941,1.1016,2.1953,1.1903,0.24559,0.03104,0.53323,0.11023,0.6392,0.17598s0.4247,0.16759,0.7083,0.22631c0.61492,0.12732,2.0071-0.04731,2.8103-0.35251,0.49381-0.18763,1.6588-0.86854,2.2792-1.3321,0.46494-0.34742,1.0984-1.2469,1.2846-1.8241,0.08794-0.27262,0.21186-0.58066,0.27535-0.68455,0.32708-0.5351,0.40392-1.6235,0.24767-3.5082-0.05986-0.72207-0.13714-1.0713-0.31344-1.4166-0.12869-0.25203-0.33231-0.66309-0.45249-0.91346-0.36789-0.76643-2.1392-2.0485-2.8504-2.0632-0.11839-0.0024-0.50026-0.06373-0.84862-0.1362-0.66891-0.13914-1.6453-0.06897-2.0494,0.14729-0.49679,0.26588-1.1313,0.74115-1.5375,1.1517-0.36101,0.36485-0.48736,0.58868-0.68444,1.2126-0.22624,0.71615-0.23628,0.82757-0.15693,1.7413,0.09698,1.1168,0.28734,1.6335,0.81845,2.2214,0.42361,0.46888,0.78445,0.66584,1.7405,0.94999,0.69427,0.20635,1.3506,0.21983,1.9598,0.04024,0.3577-0.10546,0.23596,0.109-0.16435,0.28951-0.56544,0.25498-1.9011,0.15748-2.7826-0.20312-0.88174-0.3607-1.6497-1.0725-2.0584-1.908-0.29431-0.60157-0.30687-0.67364-0.30687-1.7605,0-1.0809,0.01347-1.1595,0.29147-1.6999,0.1603-0.31165,0.38949-0.75777,0.5093-0.99137,0.1198-0.2336,0.4675-0.66527,0.77264-0.95926,0.45042-0.43394,0.69226-0.58208,1.2851-0.78717,1.6319-0.56456,3.618-0.41817,4.8384,0.35663,1.116,0.70852,2.0944,1.5328,2.4666,2.0781,0.68374,1.0017,1.178,2.1859,1.2499,2.9946,0.03466,0.38957,0.10153,1.0812,0.14862,1.5371,0.08071,0.78139,0.06696,0.90284-0.24073,2.1249-0.48051,1.9085-0.74334,2.4159-1.6767,3.2364-0.422,0.37102-0.92546,0.75584-1.1188,0.85516-0.19335,0.09932-0.49083,0.30045-0.66108,0.44695-0.46162,0.39721-1.3376,0.86575-1.6186,0.86575-0.13597,0-0.51328,0.10139-0.83848,0.22532-0.64238,0.24481-1.8348,0.53713-2.1158,0.51872-0.09646-0.0063-0.55786-0.0633-1.0253-0.12662z"/>
    <path id="path7116" opacity="0.797468" d="m20.156,24.125,21.312-4.8438c0.02465-0.02278,0.07241-0.07432,0.09375-0.09375,2.0719-1.8867,3.1296-4.2914,3.2812-7.4375,0.04872-1.0101,0.03622-1.2781-0.125-1.8438-0.103-0.3635-0.263-0.9506-0.343-1.2812-0.245-1.0132-0.977-2.3651-1.687-3.0938-0.343-0.3511-0.764-0.7074-0.938-0.8124-0.174-0.1051-0.656-0.4585-1.062-0.75-0.407-0.2916-0.875-0.5643-1.063-0.625-0.188-0.0608-0.6-0.2501-0.906-0.4376-0.531-0.3254-0.606-0.3732-1.688-0.4374-1.0775-0.063999-1.2025-0.039958-2.375,0.25-0.67822,0.16773-1.4673,0.43006-1.75,0.5625-0.282,0.1324-0.759,0.3357-1.062,0.4687-0.326,0.1427-0.567,0.3022-0.594,0.4062-0.025,0.097-0.197,0.259-0.375,0.3438-0.17774,0.084764-0.3125,0.19827-0.3125,0.25,0,0.051727-0.16866,0.17598-0.375,0.28125-0.303,0.1549-0.442,0.3285-0.687,0.8438-0.167,0.3503-0.383,0.7327-0.5,0.875s-0.283,0.5133-0.344,0.8125-0.153,0.6096-0.218,0.6875c-0.23684,0.28047-0.23612,1.3094,0,2.5625,0.1982,1.0518,0.25892,1.2838,0.6875,2.0312,0.52169,0.90982,1.1131,1.4866,2.0312,2.0625,0.75741,0.47505,1.9615,0.69325,2.9062,0.53125,1.1607-0.19904,1.8388-0.54182,2.5312-1.25,0.89743-0.91788,1.2385-1.5876,1.3125-2.75,0.0674-1.0588-0.10264-1.7089-0.5625-2.3438-0.29985-0.41394-1.2289-1.0946-1.2812-0.9375-0.01805,0.054146,0.11089,0.28107,0.3125,0.5s0.51003,0.65833,0.6875,0.96875c0.28274,0.49457,0.34173,0.63836,0.375,1.3438,0.03308,0.70177,0.01561,0.89093-0.1875,1.3438-0.45149,1.0065-1.3392,1.7246-2.5938,2.1562-0.63453,0.21831-1.1225,0.23922-2.125,0.0625-0.86152-0.15187-1.3499-0.41974-1.8125-1-0.346-0.432-0.466-0.632-0.814-1.468-0.612-1.469-0.668-2.1554-0.281-3.0308,0.102-0.2295,0.187-0.566,0.187-0.7187,0-0.2571,0.38641-0.91251,0.59375-1,0.14968-0.063151,0.625-0.60707,0.625-0.71875,0-0.10661,0.4491-0.47086,1.4688-1.2188,1.079-0.79139,2.4413-1.107,4.3125-0.9375,0.90035,0.081558,1.1424,0.15266,1.7188,0.4375,1.589,0.78534,2.9857,2.4129,3.25,3.8125,0.07444,0.39427,0.20033,0.84353,0.28125,1,0.19861,0.38408,0.08631,1.5258-0.1875,2.0625-0.10896,0.21358-0.22898,0.68737-0.28125,1.0312-0.07103,0.46743-0.18035,0.69444-0.375,0.90625-0.28554,0.31073-0.78827,1.1605-1.125,1.875-0.2796,0.59325-1.0315,1.343-1.6875,1.6875-0.28569,0.15-0.61422,0.34354-0.71875,0.4375s-0.39719,0.26044-0.65625,0.375-0.70581,0.35671-0.96875,0.53125c-0.82676,0.5488-1.541,0.69134-3.4375,0.6875-1.9914-0.004-3.0191-0.15738-3.9062-0.5625-0.55047-0.25136-0.82556-0.45928-1.6875-1.3438-1.1713-1.2019-1.8212-2.0328-2.5-3.1875-2.121-3.612-3.762-4.937-7.905-6.4692-0.613-0.2266-1.514-0.3298-3.219-0.375-1.611-0.0429-1.625-0.0598-2.937,0.2812-1.8934,0.4919-2.9582,1.0849-4.6252,2.469-0.5156,0.428-0.8858,0.839-1.4376,1.656-0.92963,1.3767-0.99492,1.5065-1.125,2.3125-0.15779,0.97764-0.31776,2.8591-0.25,2.9688,0.032396,0.05241,0.077376,0.408,0.09375,0.78125,0.016373,0.37325,0.11633,1.1892,0.21875,1.8125,0.27612,1.6805,0.48558,2.0526,1.9062,3.25,0.82776,0.69768,1.2697,1.001,1.5938,1.0938,0.24313,0.06955,0.81378,0.27087,1.2812,0.4375,1.0599,0.37778,1.8613,0.44879,3.25,0.34375,1.269-0.09598,1.6077-0.18444,2.5625-0.6875,1.3313-0.70142,2.0713-1.2517,2.4688-1.875,0.43592-0.68362,0.80219-1.7823,0.96875-2.875,0.14656-0.96147,0.06728-1.3405-0.59375-2.625-0.55376-1.0761-0.87828-1.4069-2-1.9688-0.96417-0.48296-1.1353-0.48604-2.25-0.375-0.85733,0.0854-1.5094,0.31808-2.1562,0.8125-0.5738,0.43858-0.86656,0.85027-1.1562,1.6562-0.2025,0.56344-0.2317,1.3125-0.0625,1.3125,0.042644,0,0.20099-0.38117,0.375-0.84375,0.174-0.46258,0.40159-0.959,0.5-1.0938,0.09842-0.13475,0.54686-0.42841,1-0.65625,0.93084-0.46802,1.8238-0.62207,2.5-0.40625,0.38812,0.12388,1.7152,0.94382,2.0938,1.2812,0.6088,0.54264,0.96594,1.4607,0.96875,2.4688,0.0045,1.6263-0.55809,2.8109-1.625,3.4375-0.23373,0.13728-0.61921,0.36331-0.875,0.53125-0.65662,0.4311-1.2851,0.53902-2.75,0.46875-1.064-0.05-1.3596-0.076-2.095-0.343-1.5755-0.572-2.9987-1.763-3.5312-2.938-0.63102-1.3917-0.69337-1.7022-0.625-3.125,0.060175-1.252,0.27136-2.2767,0.625-2.9375,0.24516-0.45808,0.87277-1.1648,1.9375-2.25,0.4151-0.422,1.2341-0.799,2.0937-0.968,1.0041-0.19757,3.3255-0.32791,4.0312-0.21875,1.8411,0.28476,4.9489,2.4367,6.0312,4.1875,0.52238,0.84502,1.0152,1.8244,1.2188,2.4062,0.26805,0.76615,0.36522,2.7812,0.15625,3.5-0.08534,0.29356-0.15568,0.70648-0.15625,0.90625-0.0013,0.4758-0.19562,1.0695-0.59375,1.875-0.09976,0.20183-0.18311,0.46254-0.28125,0.71875z" fill-rule="nonzero" fill="url(#linearGradient3531)"/>
    <path id="path8099" opacity="0.36286902" d="m20.156,24.125c-0.07674,0.20035-0.17656,0.41434-0.21875,0.5625-0.09614,0.33762-0.21811,0.67209-0.28125,0.75-0.06315,0.07791-0.15124,0.28695-0.1875,0.46875-0.09597,0.4812-0.407,1.4866-0.53125,1.7188-0.14765,0.27587-0.44454,1.5491-0.59375,2.5312-0.12025,0.79155-0.14289,2.5407-0.03125,3.4062,0.14128,1.0953,0.5334,3.0417,0.65625,3.2812,1.0813,2.1087,1.5929,2.8479,2.5,3.5625,0.22818,0.17976,0.5128,0.44167,0.625,0.59375,0.4282,0.58039,1.6505,1.4139,2.9062,2,0.54329,0.25358,1.762,0.568,2.875,0.71875,0.46747,0.06332,0.90354,0.11868,1,0.125,0.28103,0.01842,1.4826-0.28644,2.125-0.53125,0.3252-0.12392,0.70778-0.21875,0.84375-0.21875,0.281,0,1.1634-0.47779,1.625-0.875,0.17025-0.1465,0.4629-0.33818,0.65625-0.4375,0.19334-0.09932,0.70301-0.47273,1.125-0.84375,0.93335-0.82057,1.1757-1.3415,1.6562-3.25,0.30769-1.2221,0.33071-1.3436,0.25-2.125-0.046-0.456-0.12-1.142-0.155-1.532-0.07193-0.80877-0.56626-1.9983-1.25-3-0.37221-0.54529-1.3527-1.354-2.4688-2.0625-1.2204-0.7748-3.1806-0.93956-4.8125-0.375-0.59281,0.20509-0.83083,0.34731-1.2812,0.78125-0.30514,0.29399-0.66144,0.73515-0.78125,0.96875-0.1198,0.2336-0.37095,0.68835-0.53125,1-0.278,0.54044-0.28125,0.60661-0.28125,1.6875,0,1.0869,0.01819,1.1484,0.3125,1.75,0.40874,0.83547,1.1808,1.5768,2.0625,1.9375,0.88152,0.3606,2.2158,0.44248,2.7812,0.1875,0.4003-0.18051,0.51395-0.38671,0.15625-0.28125-0.60911,0.17959-1.2745,0.14385-1.9688-0.0625-0.95603-0.28415-1.2951-0.46862-1.7188-0.9375-0.53111-0.58787-0.71552-1.1019-0.8125-2.2188-0.07935-0.91374-0.06999-1.0338,0.15625-1.75,0.19708-0.62387,0.29524-0.8539,0.65625-1.2188,0.40627-0.41058,1.0657-0.85912,1.5625-1.125,0.40409-0.21626,1.3623-0.29539,2.0312-0.15625,0.34836,0.07246,0.72536,0.12255,0.84375,0.125,0.71124,0.01469,2.5071,1.2961,2.875,2.0625,0.12018,0.25037,0.30881,0.65422,0.4375,0.90625,0.1763,0.34526,0.25264,0.71543,0.3125,1.4375,0.15624,1.8847,0.07708,2.9649-0.25,3.5-0.06349,0.10388-0.19331,0.41488-0.28125,0.6875-0.18621,0.5772-0.81631,1.4651-1.2812,1.8125-0.62034,0.46354-1.7874,1.1561-2.2812,1.3438-0.80324,0.3052-2.1976,0.47107-2.8125,0.34375-0.28361-0.05872-0.58153-0.153-0.6875-0.21875s-0.41066-0.15646-0.65625-0.1875c-0.70119-0.08862-1.8638-0.72044-2.1875-1.1875-0.14892-0.2149-0.47125-0.54278-0.71875-0.75-0.27035-0.22635-0.49583-0.51677-0.5625-0.71875-0.12417-0.37625-0.65025-1.3487-0.96875-1.7812-0.24562-0.33356-0.49504-0.87842-0.625-1.4062-0.08381-0.34038-0.13437-3.0397-0.09375-4.5625,0.01649-0.61828,0.25476-1.3431,0.5625-1.6875,0.09285-0.10388,0.25367-0.36001,0.375-0.59375,0.76899-1.4815,1.7712-2.7658,2.625-3.375,0.50485-0.36026,0.78152-0.4953,1.6562-0.71875,2.4452-0.62464,2.6825-0.65625,4.8125-0.65625,2.1777,0,3.5242-0.19333,4.4062-0.65625,0.28861-0.15146,0.86571-0.42457,1.2812-0.625,1.1348-0.54734,2.0493-1.1789,2.8125-1.9375,0.34616-0.34406,0.78722-0.77683,1.0625-1.0312l-21.306,4.844z" fill-rule="nonzero" fill="url(#linearGradient3533)"/>
   </g>
  </g>
  <path id="path2708" d="m537.69,810.23c0.47886,0,0.93113-0.0532,1.3568-0.15963,0.43629-0.10641,0.87791-0.23943,1.3249-0.39905v3.6234c-0.4576,0.23412-1.0269,0.42566-1.708,0.57465-0.67042,0.15962-1.4047,0.23943-2.2028,0.23943-0.77684,0-1.5005-0.0904-2.1709-0.27136-0.67042-0.18091-1.2504-0.49483-1.7399-0.94178-0.48952-0.45758-0.87794-1.0642-1.1652-1.8197-0.27669-0.76619-0.41503-1.7239-0.41502-2.8732v-8.6037h-2.3305v-2.0591l2.6817-1.6282,1.4047-3.7671h3.1126v3.799h4.3418v3.6554h-4.3418v8.6037c0,0.69171,0.17026,1.2025,0.5108,1.5324,0.34052,0.32989,0.78746,0.49483,1.3408,0.49483m15.595-14.621c0.12769,0.00001,0.26603,0.005,0.41502,0.016,0.15962,0.00002,0.3086,0.0107,0.44695,0.0319,0.14897,0.0107,0.28199,0.0266,0.39906,0.0479,0.12768,0.0107,0.22346,0.0266,0.28732,0.0479v4.5652c-0.0851-0.0213-0.2022-0.0426-0.35117-0.0639-0.149-0.0213-0.30862-0.0372-0.47887-0.0479-0.15964-0.0213-0.31926-0.0319-0.47887-0.0319-0.15964-0.0106-0.29265-0.016-0.39906-0.016-0.62786,0.00001-1.2078,0.0798-1.7399,0.23943-0.52145,0.15964-0.97371,0.42035-1.3568,0.78215-0.37246,0.35119-0.6651,0.81942-0.87793,1.4047-0.20219,0.57465-0.30329,1.2823-0.30328,2.123v9.0826h-4.8685v-17.846h3.6873l0.7183,2.6817h0.23944c0.25539-0.45757,0.53207-0.87259,0.83004-1.2451,0.29795-0.37243,0.62784-0.68636,0.98966-0.94177,0.37245-0.26602,0.78747-0.46821,1.2451-0.60657,0.46822-0.14896,1.0003-0.22346,1.5962-0.22347m4.661-4.2779c0-0.45757,0.0692-0.83534,0.20751-1.1333,0.13834-0.30858,0.32457-0.55333,0.55868-0.73427,0.24475-0.19152,0.52675-0.32454,0.846-0.39905,0.32989-0.0745,0.67574-0.11171,1.0376-0.11174,0.3618,0.00003,0.70233,0.0373,1.0216,0.11174,0.31924,0.0745,0.59592,0.20753,0.83004,0.39905,0.24475,0.18094,0.4363,0.42569,0.57465,0.73427,0.14897,0.29799,0.22346,0.67576,0.22347,1.1333-0.00001,0.44696-0.0745,0.82474-0.22347,1.1333-0.13835,0.30863-0.3299,0.5587-0.57465,0.75023-0.23412,0.18093-0.5108,0.31394-0.83004,0.39906-0.31925,0.0745-0.65978,0.11175-1.0216,0.11173-0.36182,0.00002-0.70767-0.0372-1.0376-0.11173-0.31925-0.0851-0.60125-0.21813-0.846-0.39906-0.23411-0.19153-0.42034-0.4416-0.55868-0.75023-0.13834-0.30858-0.20751-0.68636-0.20751-1.1333m5.076,22.459-4.8685,0,0-17.846,4.8685,0,0,17.846m16.984-5.2995c-0.00001,0.93646-0.17028,1.7558-0.51079,2.4582-0.34055,0.70235-0.82474,1.2876-1.4526,1.7559-0.62787,0.46822-1.3887,0.8194-2.2826,1.0535-0.8939,0.23411-1.8942,0.35117-3.0009,0.35117-0.58529,0-1.128-0.0213-1.6282-0.0639-0.50015-0.0319-0.9737-0.0904-1.4206-0.17558-0.44695-0.0851-0.87793-0.19155-1.293-0.31925-0.41502-0.1277-0.83536-0.28732-1.261-0.47887v-4.0225c0.44694,0.22347,0.91517,0.42566,1.4047,0.60656,0.50015,0.18091,0.99498,0.34054,1.4845,0.47887,0.4895,0.12771,0.96305,0.2288,1.4206,0.30329,0.46822,0.0745,0.89921,0.11174,1.293,0.11173,0.4363,0.00001,0.80875-0.0372,1.1174-0.11173,0.3086-0.0851,0.55867-0.19687,0.75023-0.33521,0.20218-0.14898,0.34584-0.31924,0.43098-0.5108,0.0958-0.20218,0.14366-0.41501,0.14366-0.63849,0-0.22347-0.0372-0.42033-0.11173-0.5906-0.0639-0.1809-0.21816-0.36713-0.46291-0.55868-0.24476-0.20219-0.60658-0.42566-1.0854-0.67042-0.46823-0.25539-1.1014-0.564-1.8995-0.92582-0.77684-0.35116-1.4526-0.69701-2.0272-1.0376-0.564-0.35116-1.0322-0.73957-1.4047-1.1652-0.36181-0.42565-0.63317-0.90984-0.81408-1.4526-0.18091-0.55334-0.27136-1.2078-0.27136-1.9634,0-0.83003,0.15962-1.5536,0.47887-2.1709,0.31925-0.62783,0.77151-1.1493,1.3568-1.5643,0.58528-0.41501,1.2876-0.72361,2.107-0.92582,0.83003-0.21281,1.7505-0.31923,2.7615-0.31924,1.0641,0.00001,2.0751,0.12239,3.0328,0.36713,0.95772,0.24477,1.9421,0.61191,2.953,1.1014l-1.4685,3.4479c-0.80877-0.38308-1.5803-0.69701-2.3145-0.94178-0.73428-0.24474-1.4686-0.36712-2.2028-0.36713-0.65979,0.00001-1.1387,0.11707-1.4366,0.35117-0.28733,0.23413-0.43099,0.55337-0.43099,0.95774,0,0.21284,0.0372,0.40439,0.11174,0.57464,0.0745,0.15964,0.22347,0.3299,0.44695,0.5108,0.22346,0.17027,0.53739,0.36182,0.94177,0.57464,0.40437,0.2022,0.93113,0.45228,1.5803,0.75023,0.75554,0.3299,1.4366,0.65979,2.0432,0.98966,0.60655,0.31926,1.128,0.68639,1.5643,1.1014,0.43628,0.41503,0.77149,0.89922,1.0056,1.4526,0.2341,0.55337,0.35116,1.2238,0.35117,2.0113m10.87,1.8037c0.58527,0,1.0748-0.0958,1.4685-0.28732,0.40437-0.20219,0.72893-0.50015,0.9737-0.89389,0.24474-0.39374,0.42565-0.88857,0.54272-1.4845,0.11704-0.60656,0.18089-1.3089,0.19155-2.107v-0.5906c-0.00001-0.86196-0.0532-1.6282-0.15963-2.2986-0.0958-0.67041-0.27137-1.2291-0.52675-1.676-0.24477-0.45757-0.57466-0.80342-0.98967-1.0376-0.40438-0.2341-0.91518-0.35116-1.5324-0.35117-1.0216,0.00001-1.7718,0.46292-2.2507,1.3887-0.47888,0.91519-0.71831,2.2507-0.71831,4.0065,0,1.7878,0.23943,3.1233,0.71831,4.0065,0.4895,0.88326,1.2504,1.3249,2.2826,1.3249m-1.8037,3.815c-0.92583,0-1.7665-0.19687-2.522-0.59061-0.75555-0.39373-1.4047-0.9737-1.9474-1.7399-0.54272-0.77683-0.96307-1.7399-1.261-2.8892-0.29796-1.1493-0.44694-2.4795-0.44694-3.9906,0-1.5217,0.14898-2.8572,0.44694-4.0065,0.30861-1.1599,0.73959-2.1283,1.293-2.9051,0.564-0.78746,1.2344-1.3781,2.0112-1.7718,0.77683-0.40436,1.6335-0.60655,2.5699-0.60656,0.59591,0.00001,1.1333,0.0692,1.6122,0.20751,0.47886,0.12771,0.90984,0.31394,1.293,0.55868,0.39372,0.23413,0.73957,0.51081,1.0376,0.83004,0.29795,0.30862,0.56399,0.64915,0.79811,1.0216h0.1277l0.3831-2.2826h4.1183v25.699h-4.8685v-7.4863c-0.00001-0.20219,0.0106-0.45227,0.0319-0.75023,0.0319-0.30861,0.0585-0.60657,0.0798-0.89389,0.0319-0.34053,0.0638-0.68638,0.0958-1.0376h-0.20751c-0.21284,0.36181-0.46292,0.70766-0.75023,1.0376-0.28733,0.31925-0.62254,0.59593-1.0056,0.83004-0.37246,0.23411-0.79812,0.42034-1.277,0.55868s-1.0163,0.20751-1.6122,0.20751m26.274-0.31925-0.65445-2.2826-0.2554,0c-0.26605,0.45759-0.5853,0.85133-0.95774,1.1812-0.36182,0.31925-0.76088,0.58529-1.1972,0.79812s-0.89922,0.36713-1.3887,0.46291c-0.48952,0.10641-0.98967,0.15962-1.5004,0.15962-0.87262,0-1.6654-0.12238-2.3784-0.36713-0.71299-0.2554-1.3249-0.64914-1.8357-1.1812-0.5108-0.53208-0.90454-1.2078-1.1812-2.0272-0.27668-0.81939-0.41502-1.8037-0.41502-2.953v-11.637h4.8685v10.423c-0.00001,1.2876,0.19154,2.256,0.57464,2.9051,0.39373,0.6385,1.0163,0.95774,1.8676,0.95774,0.63849,0,1.1706-0.1277,1.5962-0.3831,0.42565-0.25539,0.76085-0.63317,1.0056-1.1333,0.25539-0.50015,0.43629-1.1174,0.54272-1.8516,0.1064-0.73426,0.15961-1.5749,0.15962-2.522v-8.3962h4.8685v17.846h-3.7192m16.042-14.717c-0.86198,0.00001-1.5803,0.3033-2.1549,0.90985-0.564,0.60658-0.88857,1.559-0.9737,2.8573h6.2093c-0.0106-0.54271-0.0798-1.0429-0.20751-1.5005-0.12771-0.45758-0.31925-0.85131-0.57464-1.1812-0.25541-0.34052-0.57465-0.60656-0.95774-0.79812-0.3831-0.19153-0.83005-0.28731-1.3408-0.28732m0.62253,15.036c-1.277,0-2.4529-0.18623-3.5277-0.55868s-2.0006-0.93113-2.7774-1.676c-0.77683-0.75555-1.3834-1.7026-1.8197-2.8413-0.42566-1.1493-0.6385-2.4954-0.63849-4.0385-0.00001-1.5643,0.19686-2.9317,0.5906-4.1023s0.94178-2.1442,1.6441-2.9211c0.71298-0.78746,1.5643-1.3781,2.554-1.7718,1.0003-0.39372,2.107-0.59059,3.3202-0.5906,1.1812,0.00001,2.2454,0.18092,3.1925,0.54272,0.95772,0.35118,1.7665,0.87262,2.4263,1.5643,0.6704,0.69172,1.1812,1.543,1.5324,2.554,0.3618,1.0003,0.5427,2.1496,0.54272,3.4479v2.3624h-10.886c0.0213,0.68106,0.12769,1.2983,0.31925,1.8516,0.20218,0.54273,0.47886,1.0056,0.83004,1.3887,0.3618,0.37245,0.79278,0.65978,1.2929,0.86196,0.51079,0.20219,1.0908,0.30329,1.7399,0.30328,0.5427,0.00001,1.0535-0.0266,1.5324-0.0798,0.4895-0.0638,0.96305-0.1543,1.4206-0.27136,0.45758-0.11705,0.90984-0.26071,1.3568-0.43098,0.44693-0.1809,0.90452-0.38841,1.3728-0.62253v3.7671c-0.42568,0.22347-0.85666,0.41502-1.293,0.57464-0.42567,0.14898-0.87794,0.27668-1.3568,0.3831-0.47889,0.10641-0.995,0.1809-1.5484,0.22347-0.55337,0.0532-1.1599,0.0798-1.8197,0.0798m16.058-0.31925-4.8685,0,0-24.837,4.8685,0,0,24.837" transform="matrix(0.9118586,0,0,0.9118586,-476.69437,-635.15657)" filter="url(#filter3490)" fill="#000"/>
  <path id="path2519" d="m537.69,810.23c0.47886,0,0.93113-0.0532,1.3568-0.15963,0.43629-0.10641,0.87791-0.23943,1.3249-0.39905v3.6234c-0.4576,0.23412-1.0269,0.42566-1.708,0.57465-0.67042,0.15962-1.4047,0.23943-2.2028,0.23943-0.77684,0-1.5005-0.0904-2.1709-0.27136-0.67042-0.18091-1.2504-0.49483-1.7399-0.94178-0.48952-0.45758-0.87794-1.0642-1.1652-1.8197-0.27669-0.76619-0.41503-1.7239-0.41502-2.8732v-8.6037h-2.3305v-2.0591l2.6817-1.6282,1.4047-3.7671h3.1126v3.799h4.3418v3.6554h-4.3418v8.6037c0,0.69171,0.17026,1.2025,0.5108,1.5324,0.34052,0.32989,0.78746,0.49483,1.3408,0.49483m15.595-14.621c0.12769,0.00001,0.26603,0.005,0.41502,0.016,0.15962,0.00002,0.3086,0.0107,0.44695,0.0319,0.14897,0.0107,0.28199,0.0266,0.39906,0.0479,0.12768,0.0107,0.22346,0.0266,0.28732,0.0479v4.5652c-0.0851-0.0213-0.2022-0.0426-0.35117-0.0639-0.149-0.0213-0.30862-0.0372-0.47887-0.0479-0.15964-0.0213-0.31926-0.0319-0.47887-0.0319-0.15964-0.0106-0.29265-0.016-0.39906-0.016-0.62786,0.00001-1.2078,0.0798-1.7399,0.23943-0.52145,0.15964-0.97371,0.42035-1.3568,0.78215-0.37246,0.35119-0.6651,0.81942-0.87793,1.4047-0.20219,0.57465-0.30329,1.2823-0.30328,2.123v9.0826h-4.8685v-17.846h3.6873l0.7183,2.6817h0.23944c0.25539-0.45757,0.53207-0.87259,0.83004-1.2451,0.29795-0.37243,0.62784-0.68636,0.98966-0.94177,0.37245-0.26602,0.78747-0.46821,1.2451-0.60657,0.46822-0.14896,1.0003-0.22346,1.5962-0.22347m4.661-4.2779c0-0.45757,0.0692-0.83534,0.20751-1.1333,0.13834-0.30858,0.32457-0.55333,0.55868-0.73427,0.24475-0.19152,0.52675-0.32454,0.846-0.39905,0.32989-0.0745,0.67574-0.11171,1.0376-0.11174,0.3618,0.00003,0.70233,0.0373,1.0216,0.11174,0.31924,0.0745,0.59592,0.20753,0.83004,0.39905,0.24475,0.18094,0.4363,0.42569,0.57465,0.73427,0.14897,0.29799,0.22346,0.67576,0.22347,1.1333-0.00001,0.44696-0.0745,0.82474-0.22347,1.1333-0.13835,0.30863-0.3299,0.5587-0.57465,0.75023-0.23412,0.18093-0.5108,0.31394-0.83004,0.39906-0.31925,0.0745-0.65978,0.11175-1.0216,0.11173-0.36182,0.00002-0.70767-0.0372-1.0376-0.11173-0.31925-0.0851-0.60125-0.21813-0.846-0.39906-0.23411-0.19153-0.42034-0.4416-0.55868-0.75023-0.13834-0.30858-0.20751-0.68636-0.20751-1.1333m5.076,22.459-4.8685,0,0-17.846,4.8685,0,0,17.846m16.984-5.2995c-0.00001,0.93646-0.17028,1.7558-0.51079,2.4582-0.34055,0.70235-0.82474,1.2876-1.4526,1.7559-0.62787,0.46822-1.3887,0.8194-2.2826,1.0535-0.8939,0.23411-1.8942,0.35117-3.0009,0.35117-0.58529,0-1.128-0.0213-1.6282-0.0639-0.50015-0.0319-0.9737-0.0904-1.4206-0.17558-0.44695-0.0851-0.87793-0.19155-1.293-0.31925-0.41502-0.1277-0.83536-0.28732-1.261-0.47887v-4.0225c0.44694,0.22347,0.91517,0.42566,1.4047,0.60656,0.50015,0.18091,0.99498,0.34054,1.4845,0.47887,0.4895,0.12771,0.96305,0.2288,1.4206,0.30329,0.46822,0.0745,0.89921,0.11174,1.293,0.11173,0.4363,0.00001,0.80875-0.0372,1.1174-0.11173,0.3086-0.0851,0.55867-0.19687,0.75023-0.33521,0.20218-0.14898,0.34584-0.31924,0.43098-0.5108,0.0958-0.20218,0.14366-0.41501,0.14366-0.63849,0-0.22347-0.0372-0.42033-0.11173-0.5906-0.0639-0.1809-0.21816-0.36713-0.46291-0.55868-0.24476-0.20219-0.60658-0.42566-1.0854-0.67042-0.46823-0.25539-1.1014-0.564-1.8995-0.92582-0.77684-0.35116-1.4526-0.69701-2.0272-1.0376-0.564-0.35116-1.0322-0.73957-1.4047-1.1652-0.36181-0.42565-0.63317-0.90984-0.81408-1.4526-0.18091-0.55334-0.27136-1.2078-0.27136-1.9634,0-0.83003,0.15962-1.5536,0.47887-2.1709,0.31925-0.62783,0.77151-1.1493,1.3568-1.5643,0.58528-0.41501,1.2876-0.72361,2.107-0.92582,0.83003-0.21281,1.7505-0.31923,2.7615-0.31924,1.0641,0.00001,2.0751,0.12239,3.0328,0.36713,0.95772,0.24477,1.9421,0.61191,2.953,1.1014l-1.4685,3.4479c-0.80877-0.38308-1.5803-0.69701-2.3145-0.94178-0.73428-0.24474-1.4686-0.36712-2.2028-0.36713-0.65979,0.00001-1.1387,0.11707-1.4366,0.35117-0.28733,0.23413-0.43099,0.55337-0.43099,0.95774,0,0.21284,0.0372,0.40439,0.11174,0.57464,0.0745,0.15964,0.22347,0.3299,0.44695,0.5108,0.22346,0.17027,0.53739,0.36182,0.94177,0.57464,0.40437,0.2022,0.93113,0.45228,1.5803,0.75023,0.75554,0.3299,1.4366,0.65979,2.0432,0.98966,0.60655,0.31926,1.128,0.68639,1.5643,1.1014,0.43628,0.41503,0.77149,0.89922,1.0056,1.4526,0.2341,0.55337,0.35116,1.2238,0.35117,2.0113m10.87,1.8037c0.58527,0,1.0748-0.0958,1.4685-0.28732,0.40437-0.20219,0.72893-0.50015,0.9737-0.89389,0.24474-0.39374,0.42565-0.88857,0.54272-1.4845,0.11704-0.60656,0.18089-1.3089,0.19155-2.107v-0.5906c-0.00001-0.86196-0.0532-1.6282-0.15963-2.2986-0.0958-0.67041-0.27137-1.2291-0.52675-1.676-0.24477-0.45757-0.57466-0.80342-0.98967-1.0376-0.40438-0.2341-0.91518-0.35116-1.5324-0.35117-1.0216,0.00001-1.7718,0.46292-2.2507,1.3887-0.47888,0.91519-0.71831,2.2507-0.71831,4.0065,0,1.7878,0.23943,3.1233,0.71831,4.0065,0.4895,0.88326,1.2504,1.3249,2.2826,1.3249m-1.8037,3.815c-0.92583,0-1.7665-0.19687-2.522-0.59061-0.75555-0.39373-1.4047-0.9737-1.9474-1.7399-0.54272-0.77683-0.96307-1.7399-1.261-2.8892-0.29796-1.1493-0.44694-2.4795-0.44694-3.9906,0-1.5217,0.14898-2.8572,0.44694-4.0065,0.30861-1.1599,0.73959-2.1283,1.293-2.9051,0.564-0.78746,1.2344-1.3781,2.0112-1.7718,0.77683-0.40436,1.6335-0.60655,2.5699-0.60656,0.59591,0.00001,1.1333,0.0692,1.6122,0.20751,0.47886,0.12771,0.90984,0.31394,1.293,0.55868,0.39372,0.23413,0.73957,0.51081,1.0376,0.83004,0.29795,0.30862,0.56399,0.64915,0.79811,1.0216h0.1277l0.3831-2.2826h4.1183v25.699h-4.8685v-7.4863c-0.00001-0.20219,0.0106-0.45227,0.0319-0.75023,0.0319-0.30861,0.0585-0.60657,0.0798-0.89389,0.0319-0.34053,0.0638-0.68638,0.0958-1.0376h-0.20751c-0.21284,0.36181-0.46292,0.70766-0.75023,1.0376-0.28733,0.31925-0.62254,0.59593-1.0056,0.83004-0.37246,0.23411-0.79812,0.42034-1.277,0.55868s-1.0163,0.20751-1.6122,0.20751m26.274-0.31925-0.65445-2.2826-0.2554,0c-0.26605,0.45759-0.5853,0.85133-0.95774,1.1812-0.36182,0.31925-0.76088,0.58529-1.1972,0.79812s-0.89922,0.36713-1.3887,0.46291c-0.48952,0.10641-0.98967,0.15962-1.5004,0.15962-0.87262,0-1.6654-0.12238-2.3784-0.36713-0.71299-0.2554-1.3249-0.64914-1.8357-1.1812-0.5108-0.53208-0.90454-1.2078-1.1812-2.0272-0.27668-0.81939-0.41502-1.8037-0.41502-2.953v-11.637h4.8685v10.423c-0.00001,1.2876,0.19154,2.256,0.57464,2.9051,0.39373,0.6385,1.0163,0.95774,1.8676,0.95774,0.63849,0,1.1706-0.1277,1.5962-0.3831,0.42565-0.25539,0.76085-0.63317,1.0056-1.1333,0.25539-0.50015,0.43629-1.1174,0.54272-1.8516,0.1064-0.73426,0.15961-1.5749,0.15962-2.522v-8.3962h4.8685v17.846h-3.7192m16.042-14.717c-0.86198,0.00001-1.5803,0.3033-2.1549,0.90985-0.564,0.60658-0.88857,1.559-0.9737,2.8573h6.2093c-0.0106-0.54271-0.0798-1.0429-0.20751-1.5005-0.12771-0.45758-0.31925-0.85131-0.57464-1.1812-0.25541-0.34052-0.57465-0.60656-0.95774-0.79812-0.3831-0.19153-0.83005-0.28731-1.3408-0.28732m0.62253,15.036c-1.277,0-2.4529-0.18623-3.5277-0.55868s-2.0006-0.93113-2.7774-1.676c-0.77683-0.75555-1.3834-1.7026-1.8197-2.8413-0.42566-1.1493-0.6385-2.4954-0.63849-4.0385-0.00001-1.5643,0.19686-2.9317,0.5906-4.1023s0.94178-2.1442,1.6441-2.9211c0.71298-0.78746,1.5643-1.3781,2.554-1.7718,1.0003-0.39372,2.107-0.59059,3.3202-0.5906,1.1812,0.00001,2.2454,0.18092,3.1925,0.54272,0.95772,0.35118,1.7665,0.87262,2.4263,1.5643,0.6704,0.69172,1.1812,1.543,1.5324,2.554,0.3618,1.0003,0.5427,2.1496,0.54272,3.4479v2.3624h-10.886c0.0213,0.68106,0.12769,1.2983,0.31925,1.8516,0.20218,0.54273,0.47886,1.0056,0.83004,1.3887,0.3618,0.37245,0.79278,0.65978,1.2929,0.86196,0.51079,0.20219,1.0908,0.30329,1.7399,0.30328,0.5427,0.00001,1.0535-0.0266,1.5324-0.0798,0.4895-0.0638,0.96305-0.1543,1.4206-0.27136,0.45758-0.11705,0.90984-0.26071,1.3568-0.43098,0.44693-0.1809,0.90452-0.38841,1.3728-0.62253v3.7671c-0.42568,0.22347-0.85666,0.41502-1.293,0.57464-0.42567,0.14898-0.87794,0.27668-1.3568,0.3831-0.47889,0.10641-0.995,0.1809-1.5484,0.22347-0.55337,0.0532-1.1599,0.0798-1.8197,0.0798m16.058-0.31925-4.8685,0,0-24.837,4.8685,0,0,24.837" transform="matrix(0.9118586,0,0,0.9118586,-476.69437,-635.15657)" filter="url(#filter3490)" fill="#000"/>
  <g id="g3006" transform="matrix(0.2861954,0,0,0.2861954,-65.646224,63.34337)">
   <path id="path3628" fill="#FFF" transform="matrix(2.747,0,0,2.747,-1211.67,-1814.56)" d="m541.89,711.84c0.55542,0,1.08-0.0617,1.5737-0.18514,0.50603-0.12343,1.0183-0.27771,1.5367-0.46285v4.2027c-0.53076,0.27153-1.1911,0.4937-1.981,0.66651-0.77759,0.18513-1.6292,0.2777-2.5549,0.2777-0.90104,0-1.7403-0.10492-2.5179-0.31474-0.77757-0.20983-1.4503-0.57394-2.018-1.0923-0.56777-0.53072-1.0183-1.2343-1.3515-2.1106-0.32092-0.88868-0.48137-1.9995-0.48137-3.3325v-9.9791h-2.703v-2.3883l3.1104-1.8884,1.6292-4.3693h3.6103v4.4064h5.0358v4.2397h-5.0358v9.9791c0,0.80229,0.19746,1.3947,0.59244,1.7774,0.39496,0.38263,0.91335,0.57393,1.5552,0.57393m18.08-16.97c0.1481,0.00001,0.30856,0.006,0.48136,0.0185,0.18515,0.00003,0.35794,0.0124,0.5184,0.037,0.17279,0.0124,0.32708,0.0309,0.46286,0.0556,0.1481,0.0123,0.25919,0.0309,0.33327,0.0555v5.295c-0.0988-0.0247-0.23454-0.0494-0.40732-0.0741-0.17282-0.0247-0.35796-0.0432-0.55543-0.0555-0.18515-0.0247-0.37029-0.037-0.55542-0.037-0.18517-0.0123-0.33944-0.0185-0.46286-0.0185-0.72822,0.00001-1.4009,0.0926-2.018,0.27769-0.60482,0.18518-1.1294,0.48756-1.5737,0.90719-0.43199,0.40735-0.77143,0.95041-1.0183,1.6293-0.23453,0.66651-0.35178,1.4873-0.35176,2.4624v10.534h-5.6468v-20.699h4.2768l0.83313,3.1104h0.27773c0.29621-0.53073,0.61712-1.0121,0.96273-1.4441,0.34558-0.43196,0.72819-0.79609,1.1479-1.0923,0.432-0.30854,0.91335-0.54306,1.4441-0.70354,0.54306-0.17277,1.1602-0.25918,1.8514-0.25919m5.4061-4.9618c0-0.53073,0.0802-0.96888,0.24069-1.3145,0.16045-0.35792,0.37645-0.64179,0.64798-0.85165,0.28388-0.22214,0.61097-0.37642,0.98125-0.46285,0.38262-0.0864,0.78377-0.12957,1.2034-0.1296,0.41963,0.00003,0.8146,0.0432,1.1849,0.1296,0.37029,0.0864,0.69119,0.24071,0.96274,0.46285,0.28387,0.20986,0.50604,0.49373,0.66651,0.85165,0.17279,0.34563,0.25918,0.78378,0.2592,1.3145-0.00002,0.5184-0.0864,0.95657-0.2592,1.3145-0.16047,0.35797-0.38264,0.64801-0.66651,0.87016-0.27155,0.20985-0.59245,0.36413-0.96274,0.46285-0.37028,0.0864-0.76525,0.12963-1.1849,0.12959-0.41966,0.00004-0.82081-0.0432-1.2034-0.12959-0.37028-0.0987-0.69737-0.253-0.98125-0.46285-0.27153-0.22215-0.48753-0.51219-0.64798-0.87016-0.16046-0.35792-0.24069-0.79609-0.24069-1.3145m5.8875,26.049-5.6468,0,0-20.699,5.6468,0,0,20.699m19.699-6.1467c-0.00001,1.0862-0.19752,2.0366-0.59245,2.8512-0.39498,0.81463-0.95658,1.4935-1.6848,2.0366-0.72823,0.54308-1.6107,0.9504-2.6475,1.2219-1.0368,0.27153-2.197,0.40731-3.4806,0.40731-0.67885,0-1.3083-0.0247-1.8884-0.0741-0.58011-0.037-1.1294-0.10491-1.6478-0.20365-0.51841-0.0988-1.0183-0.22217-1.4996-0.37029-0.48137-0.14812-0.96891-0.33326-1.4626-0.55542v-4.6656c0.51839,0.25919,1.0615,0.49371,1.6292,0.70353,0.58012,0.20983,1.154,0.39497,1.7218,0.55542,0.56774,0.14813,1.117,0.26538,1.6477,0.35178,0.54307,0.0864,1.043,0.1296,1.4996,0.12958,0.50605,0.00002,0.93803-0.0432,1.296-0.12958,0.35793-0.0987,0.64798-0.22835,0.87016-0.3888,0.2345-0.1728,0.40114-0.37027,0.49988-0.59245,0.11108-0.23452,0.16662-0.48136,0.16662-0.74057s-0.0432-0.48753-0.12959-0.68502c-0.0741-0.20983-0.25302-0.42583-0.53691-0.64799-0.28389-0.23451-0.70354-0.49371-1.259-0.77759-0.54308-0.29622-1.2775-0.65416-2.2032-1.0738-0.90103-0.4073-1.6848-0.80843-2.3513-1.2034-0.65415-0.4073-1.1972-0.85781-1.6292-1.3515-0.41966-0.49368-0.73438-1.0553-0.94421-1.6848-0.20984-0.6418-0.31475-1.4009-0.31475-2.2772,0-0.96272,0.18514-1.802,0.55542-2.5179,0.37029-0.72819,0.89484-1.333,1.5737-1.8144,0.67885-0.48136,1.4934-0.83928,2.4438-1.0738,0.96273-0.24684,2.0304-0.37027,3.2029-0.37028,1.2343,0.00001,2.4068,0.14196,3.5177,0.42582,1.1108,0.28389,2.2525,0.70973,3.4251,1.2775l-1.7033,3.999c-0.93808-0.44433-1.8329-0.80844-2.6846-1.0923-0.85166-0.28387-1.7033-0.42582-2.555-0.42582-0.76525,0-1.3207,0.13578-1.6663,0.4073-0.33327,0.27157-0.4999,0.64184-0.4999,1.1109,0,0.24685,0.0432,0.46903,0.12961,0.6665,0.0864,0.18515,0.25919,0.38264,0.51839,0.59245,0.2592,0.1975,0.62331,0.41967,1.0923,0.6665,0.46901,0.23452,1.08,0.52458,1.8329,0.87017,0.87633,0.38264,1.6663,0.76526,2.3698,1.1479,0.70351,0.37029,1.3083,0.79611,1.8144,1.2775,0.50602,0.48136,0.89482,1.043,1.1664,1.6848,0.27152,0.64183,0.4073,1.4194,0.40731,2.3328m12.608,2.0921c0.67885,0,1.2466-0.11108,1.7033-0.33326,0.46901-0.23451,0.84544-0.5801,1.1293-1.0368,0.28386-0.45669,0.4937-1.0306,0.62948-1.7218,0.13576-0.70352,0.20982-1.5181,0.22218-2.4439v-0.685c0-0.99976-0.0617-1.8884-0.18515-2.666-0.1111-0.77758-0.31474-1.4256-0.61095-1.944-0.28391-0.53072-0.66653-0.93186-1.1479-1.2034-0.46903-0.27152-1.0615-0.40729-1.7773-0.40731-1.1849,0.00002-2.0551,0.53692-2.6105,1.6107-0.55544,1.0615-0.83314,2.6105-0.83314,4.647,0,2.0736,0.2777,3.6226,0.83314,4.647,0.56775,1.0245,1.4503,1.5367,2.6475,1.5367m-2.0921,4.4249c-1.0738,0-2.0489-0.22834-2.9252-0.68502-0.87634-0.45668-1.6292-1.1294-2.2587-2.018-0.62948-0.90102-1.117-2.018-1.4626-3.351-0.34558-1.333-0.51838-2.8759-0.51838-4.6285,0-1.765,0.1728-3.314,0.51838-4.647,0.35796-1.3453,0.85784-2.4685,1.4996-3.3696,0.65417-0.91334,1.4318-1.5984,2.3328-2.0551,0.90101-0.469,1.8946-0.70351,2.9808-0.70352,0.69117,0.00001,1.3145,0.0802,1.8699,0.24068,0.55541,0.14813,1.0553,0.36413,1.4997,0.648,0.45665,0.27155,0.8578,0.59246,1.2034,0.96273,0.34558,0.35794,0.65416,0.75292,0.9257,1.1849h0.14811l0.44434-2.6475h4.7766v29.808h-5.6468v-8.6831c-0.00001-0.2345,0.0123-0.52456,0.037-0.87016,0.037-0.35795,0.0679-0.70354,0.0926-1.0368,0.037-0.39496,0.074-0.79611,0.11108-1.2034h-0.24068c-0.24686,0.41964-0.53692,0.82078-0.87017,1.2034-0.33325,0.37029-0.72206,0.69119-1.1664,0.96273-0.43201,0.27153-0.92571,0.48754-1.4811,0.648-0.55545,0.16046-1.1788,0.24068-1.8699,0.24068m30.474-0.37029-0.75907-2.6475-0.29622,0c-0.30859,0.53074-0.67887,0.98742-1.1108,1.37-0.41966,0.37028-0.88252,0.67885-1.3886,0.9257s-1.043,0.42582-1.6107,0.53693c-0.56778,0.1234-1.1479,0.18512-1.7403,0.18512-1.0121,0-1.9316-0.14194-2.7586-0.42582-0.82698-0.29623-1.5367-0.75293-2.1291-1.37-0.59244-0.61714-1.0491-1.4009-1.37-2.3513-0.32091-0.95039-0.48137-2.0921-0.48137-3.4251v-13.497h5.6468v12.09c-0.00001,1.4935,0.22215,2.6167,0.66649,3.3696,0.45668,0.74057,1.1787,1.1108,2.1662,1.1108,0.74056,0,1.3577-0.1481,1.8514-0.44434,0.4937-0.29621,0.88249-0.73437,1.1664-1.3145,0.29622-0.5801,0.50603-1.296,0.62948-2.1476,0.12342-0.85163,0.18513-1.8267,0.18514-2.9252v-9.7384h5.6468v20.699h-4.3138m18.607-17.07c-0.99978,0-1.8329,0.35178-2.4994,1.0553-0.65418,0.70356-1.0306,1.8082-1.1294,3.314h7.202c-0.0123-0.62947-0.0926-1.2096-0.24068-1.7403-0.14813-0.53074-0.37029-0.98741-0.66652-1.37-0.29623-0.39496-0.66651-0.70354-1.1108-0.92571-0.44434-0.22215-0.96275-0.33325-1.5552-0.33325m0.72205,17.44c-1.4812,0-2.845-0.216-4.0916-0.64799s-2.3204-1.08-3.2215-1.944c-0.90102-0.87634-1.6046-1.9748-2.1106-3.2955-0.4937-1.333-0.74056-2.8944-0.74056-4.6841,0-1.8144,0.22834-3.4004,0.68501-4.7581,0.4567-1.3577,1.0923-2.487,1.907-3.3881,0.82695-0.91334,1.8144-1.5984,2.9623-2.0551,1.1602-0.45666,2.4438-0.685,3.8509-0.68501,1.37,0.00001,2.6043,0.20983,3.7028,0.62948,1.1108,0.40732,2.0489,1.0121,2.8142,1.8144,0.77757,0.80229,1.37,1.7897,1.7774,2.9622,0.41963,1.1602,0.62945,2.4932,0.62948,3.999v2.7401h-12.627c0.0247,0.78995,0.1481,1.5058,0.37029,2.1476,0.23449,0.62948,0.55541,1.1664,0.96273,1.6107,0.41963,0.43199,0.91951,0.76525,1.4996,0.99975,0.59244,0.23452,1.2651,0.35177,2.018,0.35177,0.62946,0,1.2219-0.0309,1.7774-0.0926,0.56776-0.074,1.117-0.17895,1.6477-0.31473,0.53074-0.13576,1.0553-0.30239,1.5737-0.49987,0.51839-0.20983,1.0491-0.45051,1.5922-0.72206v4.3693c-0.49373,0.2592-0.99361,0.48136-1.4996,0.6665-0.49372,0.17279-1.0183,0.32091-1.5737,0.44434-0.55543,0.12343-1.1541,0.20983-1.7959,0.2592-0.64183,0.0617-1.3454,0.0926-2.1106,0.0926m18.625-0.37029-5.6468,0,0-28.808,5.6468,0,0,28.808"/>
  </g>
  <path id="text3063" fill="#000" d="m77.591,110.76,0,0.81055-0.7959,0.24902c0.0651,0.11068,0.11067,0.22624,0.13672,0.34668,0.02604,0.11719,0.03906,0.24415,0.03906,0.38086-0.000005,0.2767-0.04395,0.5306-0.13184,0.76172-0.08789,0.22787-0.2181,0.42318-0.39062,0.58594-0.17253,0.16276-0.389,0.28971-0.64941,0.38086-0.26042,0.0879-0.56315,0.13184-0.9082,0.13183-0.07487,0.00001-0.15625-0.003-0.24414-0.01-0.08789-0.01-0.153-0.0195-0.19531-0.0293-0.06511,0.0553-0.11719,0.11393-0.15625,0.17578-0.03581,0.0586-0.05371,0.13021-0.05371,0.21485-0.000002,0.0684,0.02116,0.1237,0.06348,0.16601,0.04232,0.0391,0.09765,0.0716,0.16602,0.0977,0.06836,0.0228,0.14811,0.0391,0.23926,0.0488,0.09114,0.007,0.18554,0.01,0.2832,0.01h0.84961c0.26367,0,0.49967,0.0309,0.70801,0.0928,0.20833,0.0586,0.38411,0.14974,0.52734,0.27343,0.14648,0.1237,0.25878,0.28158,0.33691,0.47364,0.07812,0.1888,0.11718,0.41503,0.11719,0.67871-0.000006,0.30924-0.06186,0.58756-0.18555,0.83496-0.1237,0.25065-0.30925,0.46224-0.55664,0.63476-0.24414,0.17578-0.54851,0.30925-0.91309,0.40039-0.36459,0.0944-0.78614,0.1416-1.2646,0.14161-0.3711-0.00001-0.69499-0.0358-0.97168-0.10743-0.27669-0.0684-0.50781-0.16927-0.69336-0.30273-0.18555-0.13021-0.32552-0.28809-0.41992-0.47363-0.09115-0.18555-0.13672-0.39551-0.13672-0.62989,0-0.19857,0.03418-0.37109,0.10254-0.51758,0.06836-0.14648,0.1595-0.2718,0.27344-0.37597,0.11393-0.10417,0.24251-0.1888,0.38574-0.25391,0.14648-0.0651,0.29622-0.11556,0.44922-0.15136-0.06836-0.0293-0.13672-0.07-0.20508-0.12208-0.06511-0.0521-0.12533-0.1123-0.18066-0.18066-0.05208-0.0684-0.09603-0.14323-0.13184-0.22461-0.03255-0.0846-0.04883-0.17252-0.04883-0.26367,0-0.10417,0.01465-0.19857,0.04395-0.2832,0.03255-0.0846,0.07812-0.16276,0.13672-0.23438,0.05859-0.0749,0.13184-0.14485,0.21973-0.20996,0.08789-0.0651,0.18717-0.13183,0.29785-0.2002-0.28646-0.12369-0.51432-0.32226-0.68359-0.5957-0.16602-0.27343-0.24902-0.5957-0.24902-0.9668,0-0.29296,0.04557-0.555,0.13672-0.78613,0.09114-0.23111,0.22461-0.42643,0.40039-0.58594,0.17578-0.16275,0.39388-0.28645,0.6543-0.37109,0.26041-0.0846,0.55989-0.12695,0.89844-0.12695,0.0651,0,0.13834,0.005,0.21973,0.0147,0.08138,0.007,0.16113,0.0163,0.23926,0.0293,0.08138,0.01,0.15625,0.0212,0.22461,0.0342s0.12207,0.0244,0.16113,0.0342h1.8555m-3.9062,6.2207c-0.000001,0.0814,0.01628,0.1595,0.04883,0.23437,0.03581,0.0781,0.09277,0.14648,0.1709,0.20508,0.07812,0.0586,0.18066,0.10416,0.30762,0.13672,0.12695,0.0358,0.2832,0.0537,0.46875,0.0537,0.50781,0,0.8903-0.0716,1.1475-0.21485,0.25716-0.14323,0.38574-0.33528,0.38574-0.57617-0.000004-0.20508-0.07976-0.34179-0.23926-0.41015-0.15951-0.0684-0.4069-0.10254-0.74219-0.10254h-0.68848c-0.08789,0-0.18229,0.01-0.2832,0.0293-0.10091,0.0228-0.19369,0.0602-0.27832,0.11231-0.08464,0.0521-0.15625,0.12044-0.21484,0.20508-0.05534,0.0879-0.08301,0.19694-0.08301,0.32715m0.53711-4.4434c-0.000002,0.29622,0.05534,0.52572,0.16602,0.68847,0.11068,0.16277,0.27832,0.24415,0.50293,0.24414,0.23437,0.00001,0.40364-0.0814,0.50781-0.24414,0.10416-0.16275,0.15625-0.39225,0.15625-0.68847-0.000004-0.29297-0.05209-0.52572-0.15625-0.69825-0.10092-0.17252-0.27019-0.25878-0.50781-0.25879-0.44597,0.00001-0.66895,0.31902-0.66894,0.95704m9.1162,3.6719-1.4893,0,0-3.1885c-0.000004-0.39387-0.06023-0.68847-0.18066-0.88378-0.11719-0.19857-0.30599-0.29785-0.56641-0.29786-0.19532,0.00001-0.35808,0.0391-0.48828,0.11719-0.13021,0.0781-0.23438,0.19369-0.3125,0.34668-0.07487,0.153-0.12858,0.3418-0.16113,0.56641s-0.04883,0.48177-0.04883,0.77148v2.5684h-1.4893v-5.459h1.1377l0.2002,0.69824h0.08301c0.07812-0.13997,0.17252-0.26041,0.2832-0.36133,0.11393-0.10091,0.23763-0.18391,0.37109-0.24902,0.13346-0.0651,0.27506-0.1123,0.4248-0.1416,0.14974-0.0326,0.30273-0.0488,0.45898-0.0488,0.26692,0,0.50944,0.0391,0.72754,0.11719,0.21809,0.0749,0.40527,0.19369,0.56152,0.35644,0.15624,0.16277,0.27669,0.3711,0.36133,0.625,0.08463,0.25066,0.12695,0.55176,0.12695,0.90332v3.5596m5.1025,0-0.2002-0.69824-0.07813,0c-0.08138,0.13997-0.17904,0.26042-0.29297,0.36133-0.11068,0.0977-0.23275,0.17903-0.36621,0.24414-0.13347,0.0651-0.27507,0.1123-0.4248,0.1416-0.14974,0.0326-0.30274,0.0488-0.45898,0.0488-0.26693,0-0.50944-0.0374-0.72754-0.11231-0.2181-0.0781-0.40528-0.19856-0.56152-0.36133-0.15625-0.16276-0.27669-0.36946-0.36133-0.62011s-0.12695-0.55176-0.12695-0.90332v-3.5596h1.4893v3.1885c-0.000003,0.39389,0.05859,0.69011,0.17578,0.88868,0.12044,0.19531,0.31087,0.29297,0.57129,0.29296,0.19531,0.00001,0.35807-0.0391,0.48828-0.11718,0.1302-0.0781,0.23274-0.19369,0.30762-0.34668,0.07812-0.153,0.13346-0.3418,0.16602-0.56641,0.03255-0.22461,0.04882-0.48177,0.04883-0.77148v-2.5684h1.4893v5.459h-1.1377m3.6572,0-0.88867,0,0-7.5976,0.88867,0,0,7.5976m2.5977,0-0.88867,0,0-5.3613,0.88867,0,0,5.3613m-0.95703-6.8115c-0.000001-0.19531,0.04883-0.33691,0.14648-0.42481,0.10091-0.0879,0.22461-0.13183,0.37109-0.13183,0.07161,0,0.13834,0.0114,0.2002,0.0342,0.0651,0.0195,0.12044,0.0521,0.16602,0.0976,0.04883,0.0456,0.08626,0.10418,0.1123,0.17578,0.0293,0.0684,0.04394,0.15138,0.04394,0.24903-0.000002,0.18881-0.05208,0.33041-0.15625,0.4248-0.10091,0.0911-0.22298,0.13673-0.36621,0.13672-0.14648,0.00001-0.27018-0.0456-0.37109-0.13672-0.09766-0.0911-0.14649-0.23274-0.14648-0.4248m6.0156,6.8115,0-3.4522c-0.000004-0.42317-0.08627-0.74055-0.25879-0.95215-0.16927-0.21158-0.4362-0.31737-0.80078-0.31738-0.26368,0.00001-0.48503,0.0423-0.66406,0.12695-0.17904,0.0846-0.3239,0.20997-0.43457,0.37598-0.10742,0.16602-0.18555,0.36947-0.23438,0.61035-0.04557,0.24089-0.06836,0.51758-0.06836,0.83008v2.7783h-0.88867v-5.3613h0.72266l0.12695,0.72266h0.04883c0.08138-0.13997,0.17741-0.26041,0.28809-0.36133,0.11393-0.10416,0.23763-0.19042,0.37109-0.25879,0.13346-0.0683,0.27506-0.11881,0.4248-0.15136,0.14974-0.0326,0.30273-0.0488,0.45898-0.0488,0.5957,0,1.0433,0.15625,1.3428,0.46875,0.30273,0.30925,0.45409,0.80567,0.4541,1.4892v3.501h-0.88868m6.0205,0-0.13183-0.71777-0.0488,0c-0.0814,0.13997-0.17904,0.26204-0.29297,0.36621-0.11068,0.10091-0.23275,0.18555-0.36621,0.25391-0.13347,0.0651-0.27507,0.11393-0.4248,0.14648-0.14975,0.0326-0.30274,0.0488-0.45899,0.0488-0.29623,0-0.55664-0.0374-0.78125-0.11231-0.22461-0.0749-0.41178-0.19205-0.56152-0.35156-0.14974-0.1595-0.26368-0.36295-0.3418-0.61035-0.0749-0.2474-0.1123-0.54199-0.1123-0.88379v-3.501h0.88867v3.4522c0,0.42318,0.0863,0.74056,0.25879,0.95215,0.17252,0.21159,0.43945,0.31738,0.80078,0.31738,0.26367,0,0.48502-0.0423,0.66406-0.12695,0.17903-0.0846,0.32226-0.20833,0.42969-0.37109,0.11067-0.16602,0.1888-0.36947,0.23437-0.61036,0.0488-0.24088,0.0732-0.51757,0.0733-0.83007v-2.7832h0.88867v5.3613h-0.71778m3.5693-2.749-1.7236-2.6123,1.0107,0,1.2207,2.002,1.2207-2.002,1.0107,0-1.7334,2.6123,1.8213,2.749-1.0107,0-1.3086-2.1289-1.3184,2.1289-1.0107,0,1.8213-2.749"/>
 </g>
</svg>
