<?xml version="1.0" encoding="UTF-8" standalone="no"?>
<!-- Generator: Adobe Illustrator 16.0.4, SVG Export Plug-In . SVG Version: 6.00 Build 0)  -->

<svg
   xmlns:dc="http://purl.org/dc/elements/1.1/"
   xmlns:cc="http://creativecommons.org/ns#"
   xmlns:rdf="http://www.w3.org/1999/02/22-rdf-syntax-ns#"
   xmlns:svg="http://www.w3.org/2000/svg"
   xmlns="http://www.w3.org/2000/svg"
   xmlns:sodipodi="http://sodipodi.sourceforge.net/DTD/sodipodi-0.dtd"
   xmlns:inkscape="http://www.inkscape.org/namespaces/inkscape"
   version="1.1"
   id="ubuntu__x5F__black_x26_orange"
   x="0px"
   y="0px"
   width="180.00053"
   height="149.371"
   viewBox="0 0 180.00053 149.371"
   enable-background="new 0 0 1190.551 841.89"
   xml:space="preserve"
   sodipodi:docname="UbuntuLogoStacked.svg"
   inkscape:version="0.92.5 (2060ec1f9f, 2020-04-08)"><metadata
   id="metadata31"><rdf:RDF><cc:Work
       rdf:about=""><dc:format>image/svg+xml</dc:format><dc:type
         rdf:resource="http://purl.org/dc/dcmitype/StillImage" /><dc:title /></cc:Work></rdf:RDF></metadata><defs
   id="defs29" /><sodipodi:namedview
   pagecolor="#ffffff"
   bordercolor="#666666"
   borderopacity="1"
   objecttolerance="10"
   gridtolerance="10"
   guidetolerance="10"
   inkscape:pageopacity="0"
   inkscape:pageshadow="2"
   inkscape:window-width="2491"
   inkscape:window-height="1376"
   id="namedview27"
   showgrid="false"
   fit-margin-top="0"
   fit-margin-left="0"
   fit-margin-right="0"
   fit-margin-bottom="0"
   inkscape:zoom="1.5857387"
   inkscape:cx="29.373345"
   inkscape:cy="-5.3784308"
   inkscape:window-x="1989"
   inkscape:window-y="27"
   inkscape:window-maximized="1"
   inkscape:current-layer="ubuntu__x5F__black_x26_orange" />
<g
   id="g24"
   transform="matrix(0.24994404,0,0,0.24994404,-58.785297,-24.505042)">
	<g
   id="g16">
		<g
   id="g14">
			<path
   d="m 361.854,659.952 c -4.606,1.153 -10.684,2.375 -18.238,3.669 -7.555,1.296 -16.296,1.942 -26.225,1.942 -8.633,0 -15.901,-1.261 -21.799,-3.775 -5.902,-2.516 -10.65,-6.079 -14.245,-10.685 -3.599,-4.604 -6.188,-10.037 -7.77,-16.296 -1.585,-6.26 -2.375,-13.199 -2.375,-20.828 v -63.022 h 20.073 v 58.705 c 0,13.672 2.158,23.456 6.476,29.354 4.316,5.902 11.581,8.851 21.799,8.851 2.158,0 4.387,-0.072 6.691,-0.218 2.3,-0.141 4.458,-0.323 6.475,-0.539 2.013,-0.216 3.848,-0.431 5.504,-0.646 1.652,-0.216 2.839,-0.465 3.561,-0.755 v -94.751 h 20.073 z"
   id="path2"
   inkscape:connector-curvature="0" />
			<path
   d="m 410.846,555.92 c 2.445,-1.581 6.151,-3.237 11.115,-4.963 4.964,-1.728 10.684,-2.59 17.159,-2.59 8.057,0 15.216,1.438 21.476,4.315 6.259,2.88 11.547,6.907 15.863,12.088 4.317,5.18 7.588,11.368 9.821,18.562 2.229,7.196 3.346,15.107 3.346,23.739 0,9.066 -1.333,17.235 -3.993,24.5 -2.664,7.266 -6.441,13.417 -11.332,18.452 -4.894,5.039 -10.792,8.923 -17.698,11.656 -6.907,2.731 -14.677,4.1 -23.311,4.1 -9.355,0 -17.627,-0.646 -24.821,-1.942 -7.196,-1.295 -13.095,-2.589 -17.698,-3.885 V 499.154 l 20.073,-3.452 z m 0,89.788 c 2.013,0.576 4.856,1.115 8.526,1.617 3.669,0.506 8.235,0.757 13.705,0.757 10.792,0 19.425,-3.562 25.9,-10.684 6.475,-7.124 9.713,-17.231 9.713,-30.327 0,-5.751 -0.577,-11.147 -1.727,-16.187 -1.153,-5.035 -3.021,-9.388 -5.611,-13.057 -2.59,-3.67 -5.936,-6.547 -10.037,-8.635 -4.101,-2.084 -9.032,-3.129 -14.785,-3.129 -5.47,0 -10.505,0.938 -15.108,2.806 -4.607,1.872 -8.131,3.815 -10.576,5.827 z"
   id="path4"
   inkscape:connector-curvature="0" />
			<path
   d="m 601.644,659.952 c -4.607,1.153 -10.685,2.375 -18.239,3.669 -7.555,1.296 -16.295,1.942 -26.224,1.942 -8.634,0 -15.901,-1.261 -21.8,-3.775 -5.902,-2.516 -10.65,-6.079 -14.245,-10.685 -3.599,-4.604 -6.188,-10.037 -7.77,-16.296 -1.585,-6.26 -2.375,-13.199 -2.375,-20.828 v -63.022 h 20.073 v 58.705 c 0,13.672 2.158,23.456 6.475,29.354 4.316,5.902 11.581,8.851 21.799,8.851 2.158,0 4.388,-0.072 6.691,-0.218 2.3,-0.141 4.458,-0.323 6.475,-0.539 2.013,-0.216 3.848,-0.431 5.504,-0.646 1.652,-0.216 2.84,-0.465 3.561,-0.755 v -94.751 h 20.074 v 108.994 z"
   id="path6"
   inkscape:connector-curvature="0" />
			<path
   d="m 630.565,554.194 c 4.604,-1.151 10.717,-2.375 18.346,-3.671 7.625,-1.294 16.402,-1.941 26.33,-1.941 8.922,0 16.33,1.261 22.232,3.776 5.898,2.52 10.609,6.043 14.137,10.576 3.523,4.533 6.006,9.967 7.447,16.296 1.436,6.333 2.158,13.312 2.158,20.937 v 63.022 h -20.074 v -58.708 c 0,-6.904 -0.469,-12.803 -1.402,-17.696 -0.938,-4.89 -2.48,-8.849 -4.641,-11.87 -2.158,-3.023 -5.037,-5.216 -8.633,-6.584 -3.6,-1.367 -8.061,-2.051 -13.381,-2.051 -2.16,0 -4.393,0.074 -6.691,0.216 -2.303,0.145 -4.498,0.325 -6.582,0.541 -2.09,0.215 -3.961,0.469 -5.611,0.755 -1.656,0.29 -2.844,0.506 -3.562,0.646 v 94.751 H 630.566 V 554.194 Z"
   id="path8"
   inkscape:connector-curvature="0" />
			<path
   d="m 767.618,550.957 h 42.52 v 16.835 h -42.52 v 51.799 c 0,5.611 0.43,10.253 1.295,13.921 0.863,3.671 2.158,6.549 3.885,8.634 1.727,2.088 3.885,3.562 6.475,4.425 2.59,0.863 5.611,1.296 9.064,1.296 6.186,0 11.08,-0.682 14.678,-2.051 3.594,-1.366 6.043,-2.337 7.338,-2.913 l 4.316,16.403 c -2.016,1.008 -5.578,2.304 -10.684,3.884 -5.109,1.582 -10.898,2.374 -17.375,2.374 -7.627,0 -13.92,-0.97 -18.885,-2.913 -4.965,-1.943 -8.957,-4.856 -11.979,-8.741 -3.021,-3.886 -5.146,-8.668 -6.367,-14.354 -1.225,-5.682 -1.836,-12.264 -1.836,-19.748 V 519.66 l 20.074,-3.453 v 34.75 z"
   id="path10"
   inkscape:connector-curvature="0" />
			<path
   d="m 919.349,659.952 c -4.607,1.153 -10.686,2.375 -18.238,3.669 -7.555,1.296 -16.295,1.942 -26.225,1.942 -8.633,0 -15.9,-1.261 -21.799,-3.775 -5.902,-2.516 -10.65,-6.079 -14.246,-10.685 -3.598,-4.604 -6.188,-10.037 -7.77,-16.296 -1.586,-6.26 -2.375,-13.199 -2.375,-20.828 v -63.022 h 20.074 v 58.705 c 0,13.672 2.158,23.456 6.475,29.354 4.316,5.902 11.58,8.851 21.799,8.851 2.158,0 4.387,-0.072 6.691,-0.218 2.299,-0.141 4.459,-0.323 6.475,-0.539 2.014,-0.216 3.848,-0.431 5.504,-0.646 1.652,-0.216 2.84,-0.465 3.561,-0.755 v -94.751 h 20.074 z"
   id="path12"
   inkscape:connector-curvature="0" />
		</g>
	</g>
	<g
   id="g22">
		<path
   d="m 771.724,297.998 c 0,93.934 -76.138,170.083 -170.076,170.083 -93.939,0 -170.084,-76.15 -170.084,-170.083 0,-93.927 76.146,-170.075 170.084,-170.075 93.938,-0.001 170.076,76.148 170.076,170.075 z"
   id="path18"
   inkscape:connector-curvature="0"
   style="fill:#e95420" />
		<path
   d="m 513.375,297.998 c 0,12.078 -9.792,21.87 -21.874,21.87 -12.071,0 -21.862,-9.792 -21.862,-21.87 0,-12.071 9.791,-21.863 21.862,-21.863 12.082,0 21.874,9.791 21.874,21.863 z m 124.414,106.328 c 6.039,10.451 19.407,14.035 29.866,8.003 10.458,-6.039 14.042,-19.415 8.003,-29.873 -6.039,-10.459 -19.407,-14.036 -29.866,-7.996 -10.459,6.039 -14.042,19.407 -8.003,29.866 z m 37.869,-190.78 c 6.039,-10.459 2.463,-23.834 -8.003,-29.866 -10.451,-6.039 -23.827,-2.455 -29.866,8.003 -6.039,10.458 -2.456,23.827 8.003,29.866 10.459,6.039 23.834,2.456 29.866,-8.003 z m -74.011,22.096 c 32.587,0 59.323,24.978 62.115,56.837 l 31.647,-0.499 c -1.503,-23.673 -11.771,-44.964 -27.594,-60.661 -8.378,3.23 -18.096,2.791 -26.48,-2.052 -8.392,-4.845 -13.632,-13.046 -15.017,-21.929 -7.865,-2.14 -16.139,-3.283 -24.672,-3.283 -14.968,0 -29.113,3.503 -41.675,9.726 l 15.398,27.651 c 7.983,-3.709 16.895,-5.79 26.278,-5.79 z m -62.364,62.356 c 0,-21.093 10.48,-39.746 26.517,-51.025 l -16.249,-27.16 c -18.82,12.569 -32.842,31.74 -38.756,54.219 6.999,5.636 11.484,14.277 11.484,23.966 0,9.696 -4.485,18.337 -11.484,23.973 5.914,22.479 19.936,41.649 38.756,54.226 L 565.8,349.037 C 549.763,337.75 539.283,319.105 539.283,297.998 Z m 62.364,62.368 c -9.383,0 -18.295,-2.079 -26.277,-5.795 l -15.398,27.651 c 12.562,6.23 26.707,9.726 41.675,9.726 8.533,0 16.807,-1.136 24.672,-3.276 1.385,-8.89 6.625,-17.091 15.017,-21.929 8.385,-4.844 18.103,-5.284 26.48,-2.052 15.823,-15.704 26.091,-36.995 27.594,-60.668 l -31.647,-0.491 c -2.792,31.851 -29.529,56.834 -62.116,56.834 z"
   id="path20"
   inkscape:connector-curvature="0"
   style="fill:#ffffff" />
	</g>
</g>
</svg>