<?xml version="1.0" encoding="UTF-8" standalone="no"?>
<!-- Generator: Adobe Illustrator 14.0.0, SVG Export Plug-In . SVG Version: 6.00 Build 43363)  -->

<svg
   xmlns:dc="http://purl.org/dc/elements/1.1/"
   xmlns:cc="http://creativecommons.org/ns#"
   xmlns:rdf="http://www.w3.org/1999/02/22-rdf-syntax-ns#"
   xmlns:svg="http://www.w3.org/2000/svg"
   xmlns="http://www.w3.org/2000/svg"
   xmlns:sodipodi="http://sodipodi.sourceforge.net/DTD/sodipodi-0.dtd"
   xmlns:inkscape="http://www.inkscape.org/namespaces/inkscape"
   id="Layer_1"
   enable-background="new 0 0 648.143 538"
   xml:space="preserve"
   height="149.369"
   viewBox="0 0 179.9999 149.369"
   width="179.99947"
   version="1.1"
   y="0px"
   x="0px"
   sodipodi:docname="UbuntuIcon.svg"
   inkscape:version="0.92.5 (2060ec1f9f, 2020-04-08)"><defs
     id="defs14" /><sodipodi:namedview
     pagecolor="#ffffff"
     bordercolor="#666666"
     borderopacity="1"
     objecttolerance="10"
     gridtolerance="10"
     guidetolerance="10"
     inkscape:pageopacity="0"
     inkscape:pageshadow="2"
     inkscape:window-width="1920"
     inkscape:window-height="1043"
     id="namedview12"
     showgrid="false"
     fit-margin-top="0"
     fit-margin-left="0"
     fit-margin-right="0"
     fit-margin-bottom="0"
     inkscape:zoom="0.90466738"
     inkscape:cx="-76.106389"
     inkscape:cy="-72.727167"
     inkscape:window-x="0"
     inkscape:window-y="0"
     inkscape:window-maximized="1"
     inkscape:current-layer="Layer_1" /><metadata
     id="metadata23"><rdf:RDF><cc:Work
         rdf:about=""><dc:format>image/svg+xml</dc:format><dc:type
           rdf:resource="http://purl.org/dc/dcmitype/StillImage" /><dc:title></dc:title></cc:Work></rdf:RDF></metadata><path
     id="path3"
     d="m 130.83633,51.808859 c 0,21.73753 -17.62266,39.359733 -39.362038,39.359733 -21.739388,0 -39.362048,-17.623127 -39.362048,-39.359733 0,-21.738921 17.62266,-39.362049 39.362048,-39.362049 21.739168,0 39.362038,17.622661 39.362038,39.362049 z"
     inkscape:connector-curvature="0"
     style="fill:#dd4814;stroke-width:0.23143256" /><path
     id="path5"
     d="m 64.709112,46.553024 c -2.903778,0 -5.256294,2.35274 -5.256294,5.256293 0,2.902171 2.352516,5.254678 5.256294,5.254678 2.90217,0 5.254677,-2.352507 5.254677,-5.254678 0,-2.903553 -2.352507,-5.256293 -5.254677,-5.256293 z m 37.522158,23.883844 c -2.513574,1.451777 -3.375437,4.664058 -1.92343,7.176258 1.45015,2.513592 4.66245,3.375214 7.17602,1.923438 2.51336,-1.45016 3.37523,-4.662441 1.92345,-7.176265 -1.45017,-2.511966 -4.66429,-3.373589 -7.17604,-1.923431 z M 76.123373,51.808859 c 0,-5.193343 2.579542,-9.7815 6.526628,-12.559843 L 78.80799,32.814031 c -4.597872,3.073429 -8.018912,7.769886 -9.440596,13.27034 1.658903,1.35365 2.720718,3.414331 2.720718,5.724255 0,2.308541 -1.061815,4.369213 -2.720718,5.722864 1.419834,5.50208 4.840874,10.19877 9.440596,13.272199 l 3.842011,-6.436603 C 78.704074,61.589893 76.123598,57.002903 76.123598,51.809551 Z M 91.473135,36.457473 c 8.019129,0 14.598295,6.148473 15.288885,13.989635 l 7.48825,-0.110392 c -0.36845,-5.788823 -2.89732,-10.985641 -6.78307,-14.807058 -1.99818,0.754939 -4.30625,0.639454 -6.3012,-0.510537 -1.99843,-1.153224 -3.251405,-3.098654 -3.593924,-5.210468 -1.94218,-0.536003 -3.986194,-0.829456 -6.099407,-0.829456 -3.632792,0 -7.067482,0.85329 -10.117069,2.362691 l 3.65154,6.543527 c 1.964398,-0.914165 4.155838,-1.427942 6.465995,-1.427942 z m 0,30.70185 c -2.310157,0 -4.501597,-0.514012 -6.46576,-1.427944 l -3.65155,6.543294 c 3.049587,1.511252 6.484277,2.364775 10.11731,2.364775 2.113206,0 4.15722,-0.293686 6.099174,-0.831306 0.34252,-2.111824 1.595958,-4.055393 3.593911,-5.210702 1.99635,-1.151842 4.30303,-1.265242 6.30122,-0.510313 3.88576,-3.821407 6.4146,-9.018227 6.78305,-14.80705 l -7.49008,-0.110392 C 106.07143,61.01293 99.492508,67.159323 91.473135,67.159323 Z M 102.22826,33.178075 c 2.51361,1.451544 5.72612,0.591772 7.17626,-1.921813 1.45178,-2.513591 0.59202,-5.726105 -1.92181,-7.178114 -2.51358,-1.45016 -5.72587,-0.58853 -7.17811,1.925054 -1.449923,2.512201 -0.588301,5.724714 1.92366,7.174873 z"
     inkscape:connector-curvature="0"
     style="fill:#ffffff;stroke-width:0.23143256" /><path
     id="path7"
     d="m 35.979077,135.57355 c -1.065974,0.26662 -2.472859,0.54966 -4.220862,0.84913 -1.748479,0.29993 -3.771426,0.44921 -6.069325,0.44921 -1.997954,0 -3.680008,-0.29184 -5.044993,-0.87343 -1.365917,-0.58251 -2.464757,-1.40688 -3.296763,-2.47309 -0.833156,-1.06552 -1.432102,-2.32289 -1.798463,-3.77142 -0.366585,-1.4483 -0.549186,-3.05421 -0.549186,-4.81981 v -14.58257 h 4.645548 v 13.58625 c 0,3.16414 0.499428,5.42848 1.498752,6.79348 0.998864,1.36591 2.680226,2.04863 5.045233,2.04863 0.499204,0 1.01529,-0.0167 1.548287,-0.0506 0.532295,-0.0326 1.031723,-0.0744 1.498751,-0.12474 0.465878,-0.0501 0.890556,-0.0997 1.273809,-0.1495 0.382094,-0.0501 0.657037,-0.10761 0.82413,-0.17473 v -21.92823 h 4.645548 l -4.66e-4,25.22614 z"
     inkscape:connector-curvature="0"
     style="stroke-width:0.23143256" /><path
     id="path9"
     d="m 47.316961,111.49763 c 0.565621,-0.3659 1.42331,-0.74915 2.572142,-1.1486 1.149059,-0.40016 2.47285,-0.59966 3.971153,-0.59966 1.864878,0 3.521473,0.33282 4.970475,0.99864 1.448535,0.66654 2.672351,1.59852 3.670983,2.79756 0.99909,1.19905 1.756337,2.63094 2.272898,4.29586 0.515863,1.66515 0.774372,3.49602 0.774372,5.49397 0,2.09794 -0.308502,3.98851 -0.923881,5.67009 -0.616537,1.68159 -1.490651,3.10491 -2.622592,4.27017 -1.132858,1.16619 -2.497617,2.06531 -4.095895,2.69759 -1.598502,0.63202 -3.396731,0.94886 -5.395153,0.94886 -2.164823,0 -4.079461,-0.1495 -5.744156,-0.4492 -1.665385,-0.29971 -3.030844,-0.59919 -4.095894,-0.89912 V 98.357114 l 4.645548,-0.799134 v 13.93617 z m 0,20.77986 c 0.465871,0.1333 1.1236,0.25805 1.972964,0.37422 0.849122,0.11712 1.905846,0.17519 3.17178,0.17519 2.497617,0 4.495579,-0.82435 5.994107,-2.47285 1.498518,-1.64872 2.247898,-3.98758 2.247898,-7.01842 0,-1.33121 -0.133534,-2.57977 -0.399911,-3.74643 -0.26661,-1.16527 -0.699163,-2.17269 -1.298342,-3.02181 -0.599404,-0.84936 -1.374009,-1.51518 -2.322882,-1.99865 -0.949106,-0.48231 -2.090306,-0.72416 -3.421732,-0.72416 -1.265942,0 -2.4312,0.21709 -3.496257,0.64962 -1.066207,0.43325 -1.882004,0.88269 -2.447625,1.34834 z"
     inkscape:connector-curvature="0"
     style="stroke-width:0.23143256" /><path
     id="path11"
     d="m 91.474292,135.57355 c -1.066215,0.26662 -2.472857,0.54966 -4.22087,0.84913 -1.74847,0.29993 -3.771191,0.44921 -6.069082,0.44921 -1.998422,0 -3.680016,-0.29184 -5.045233,-0.87343 -1.365919,-0.58251 -2.46476,-1.40688 -3.296756,-2.47309 -0.833156,-1.06552 -1.432102,-2.32289 -1.798463,-3.77142 -0.366819,-1.44877 -0.549654,-3.05467 -0.549654,-4.82027 v -14.58257 h 4.645549 v 13.58626 c 0,3.16413 0.499428,5.42846 1.498527,6.79347 0.998856,1.3659 2.680218,2.04864 5.045225,2.04864 0.499203,0 1.015523,-0.0167 1.548285,-0.0506 0.532295,-0.0326 1.031724,-0.0744 1.498528,-0.12474 0.466102,-0.0501 0.890781,-0.0998 1.2738,-0.14951 0.382326,-0.0501 0.657504,-0.10761 0.824364,-0.17473 v -21.92828 h 4.645548 l 2.32e-4,25.22614 z"
     inkscape:connector-curvature="0"
     style="stroke-width:0.23143256" /><path
     id="path13"
     d="m 98.167321,111.09956 c 1.065517,-0.26614 2.480269,-0.54964 4.245849,-0.84959 1.76467,-0.29946 3.79597,-0.44899 6.09363,-0.44899 2.06484,0 3.7793,0.29186 5.14498,0.87367 1.36499,0.58345 2.45527,1.39855 3.27199,2.44762 0.8151,1.04911 1.38999,2.3067 1.72324,3.77143 0.33257,1.46568 0.49944,3.08083 0.49944,4.84575 v 14.58511 h -4.64578 v -13.58694 c 0,-1.59758 -0.10854,-2.96305 -0.32423,-4.09521 -0.21709,-1.13193 -0.57396,-2.04817 -1.07431,-2.74711 -0.4992,-0.69962 -1.16551,-1.20715 -1.99796,-1.52375 -0.83316,-0.31637 -1.86557,-0.47489 -3.09681,-0.47489 -0.49988,0 -1.01667,0.0172 -1.54852,0.0503 -0.53298,0.0337 -1.04074,0.075 -1.52328,0.12521 -0.48368,0.0498 -0.91671,0.10853 -1.29834,0.17473 -0.38326,0.067 -0.65819,0.1171 -0.82435,0.1495 v 21.92847 h -4.651799 l -2.32e-4,-25.22615 z"
     inkscape:connector-curvature="0"
     style="stroke-width:0.23143256" /><path
     id="path15"
     d="m 129.88515,110.34971 h 9.84052 v 3.89618 h -9.84052 v 11.98796 c 0,1.29857 0.0995,2.3729 0.2997,3.22179 0.19973,0.84958 0.49944,1.51565 0.89913,1.99818 0.39992,0.48323 0.89912,0.82436 1.49874,1.02409 0.59941,0.19972 1.29834,0.30017 2.09749,0.30017 1.43186,0 2.56426,-0.15806 3.39695,-0.47489 0.83202,-0.31591 1.39856,-0.54088 1.69849,-0.67417 l 0.99863,3.79618 c -0.46657,0.23329 -1.29093,0.53322 -2.47261,0.8989 -1.1824,0.36611 -2.52217,0.54941 -4.02116,0.54941 -1.76513,0 -3.22154,-0.22448 -4.37082,-0.67417 -1.14907,-0.44944 -2.07295,-1.12359 -2.77235,-2.02295 -0.69937,-0.89934 -1.19093,-2.00606 -1.47352,-3.32197 -0.28351,-1.31501 -0.42491,-2.8383 -0.42491,-4.57034 v -23.17797 l 4.64577,-0.79915 4.7e-4,8.04253 z"
     inkscape:connector-curvature="0"
     style="stroke-width:0.23143256" /><path
     id="path17"
     d="m 165.00041,135.57355 c -1.06598,0.26662 -2.47308,0.54966 -4.22063,0.84913 -1.74871,0.29993 -3.77119,0.44921 -6.06955,0.44921 -1.99795,0 -3.67955,-0.29184 -5.045,-0.87343 -1.36568,-0.58251 -2.46453,-1.40688 -3.29698,-2.47309 -0.83269,-1.06552 -1.43211,-2.32289 -1.79825,-3.77142 -0.36705,-1.44877 -0.54964,-3.05467 -0.54964,-4.82027 v -14.58257 h 4.64578 v 13.58626 c 0,3.16413 0.49919,5.42846 1.49852,6.79347 0.99886,1.3659 2.67998,2.04864 5.04499,2.04864 0.49945,0 1.01531,-0.0167 1.54852,-0.0506 0.53206,-0.0326 1.03197,-0.0744 1.49853,-0.12474 0.4661,-0.0501 0.89056,-0.0998 1.27381,-0.14951 0.38232,-0.0501 0.65726,-0.10761 0.82435,-0.17473 v -21.92824 h 4.64555 v 25.22615 z"
     inkscape:connector-curvature="0"
     style="stroke-width:0.23143256" /></svg>