<?xml version="1.0" encoding="UTF-8" standalone="no"?>
<!-- Created with Inkscape (http://www.inkscape.org/) -->
<svg id="svg3077" xmlns:rdf="http://www.w3.org/1999/02/22-rdf-syntax-ns#" xmlns="http://www.w3.org/2000/svg" height="180" width="180" version="1.1" xmlns:cc="http://creativecommons.org/ns#" xmlns:xlink="http://www.w3.org/1999/xlink" xmlns:dc="http://purl.org/dc/elements/1.1/">
 <defs id="defs3">
  <linearGradient id="linearGradient3435" y2="14.203" gradientUnits="userSpaceOnUse" x2="35.391" y1="32.416" x1="12.274">
   <stop id="stop3437" stop-color="#ffffc8" offset="0"/>
   <stop id="stop3439" stop-color="#9a91ef" stop-opacity="0" offset="1"/>
  </linearGradient>
  <linearGradient id="linearGradient4236">
   <stop id="stop4238" stop-color="#fff" stop-opacity=".32673" offset="0"/>
   <stop id="stop4240" stop-color="#fff" stop-opacity=".60396" offset="1"/>
  </linearGradient>
  <linearGradient id="linearGradient23353" y2="18.367" gradientUnits="userSpaceOnUse" x2="17.743" y1="31.495" x1="28.703">
   <stop id="stop6030" stop-color="#fff" offset="0"/>
   <stop id="stop6032" stop-color="#fff" stop-opacity="0" offset="1"/>
  </linearGradient>
  <radialGradient id="radialGradient23368" xlink:href="#linearGradient3435" gradientUnits="userSpaceOnUse" cy="23.914" cx="133.84" gradientTransform="matrix(-.14084 .038719 -.35833 -1.3034 113.74 8.9417)" r="21.333"/>
  <radialGradient id="radialGradient23371" xlink:href="#linearGradient3435" gradientUnits="userSpaceOnUse" cy="21.618" cx="35.511" gradientTransform="matrix(.29549 -.053405 .29235 1.6176 62.754 -81.245)" r="21.333"/>
  <radialGradient id="radialGradient23374" xlink:href="#linearGradient3435" gradientUnits="userSpaceOnUse" cy="33.378" cx="16.885" gradientTransform="matrix(.014463 -.34276 1.5192 .064106 17.615 -27.701)" r="21.333"/>
  <radialGradient id="radialGradient23377" gradientUnits="userSpaceOnUse" cy="48.238" cx="53.557" gradientTransform="matrix(.44205 -.44355 1.2078 1.2037 7.3459 -59.244)" r="21.333">
   <stop id="stop3423" stop-color="#fff" offset="0"/>
   <stop id="stop3427" stop-color="#b8c04c" stop-opacity="0" offset="1"/>
  </radialGradient>
  <radialGradient id="radialGradient23380" gradientUnits="userSpaceOnUse" cy="38.807" cx="26.138" gradientTransform="matrix(2.1468 -3.4664 1.87 1.1582 -45.815 14.309)" r="21.333">
   <stop id="stop3408" stop-color="#b307ff" stop-opacity=".82178" offset="0"/>
   <stop id="stop3410" stop-color="#f0ff8b" stop-opacity=".64356" offset="1"/>
   <stop id="stop3412" stop-color="#fff" stop-opacity="0" offset="1"/>
  </radialGradient>
  <radialGradient id="radialGradient23383" gradientUnits="userSpaceOnUse" cy="27.569" cx="37.751" gradientTransform="matrix(2.3677 2.6727 -2.182 1.9329 67.091 -158.36)" r="21.333">
   <stop id="stop3396" stop-color="#fff307" offset="0"/>
   <stop id="stop3398" stop-color="#166eff" offset=".5"/>
   <stop id="stop3400" stop-color="#fff" stop-opacity="0" offset="1"/>
  </radialGradient>
  <linearGradient id="linearGradient23387" y2="54.698" gradientUnits="userSpaceOnUse" x2="48.799" gradientTransform="matrix(2.7899 0 0 2.7899 14.945 -101.1)" y1="3.61" x1="10.502">
   <stop id="stop6038" stop-color="#fff" offset="0"/>
   <stop id="stop6040" stop-color="#fff" stop-opacity="0" offset="1"/>
  </linearGradient>
  <linearGradient id="linearGradient23390" y2="28" xlink:href="#linearGradient4236" gradientUnits="userSpaceOnUse" x2="29" gradientTransform="matrix(3.4873 0 0 3.4873 -.82658 -108.36)" y1="14.625" x1="21.125"/>
  <linearGradient id="linearGradient23397" y2="14.203" gradientUnits="userSpaceOnUse" x2="35.391" gradientTransform="matrix(3.3213 0 0 3.3213 3.1589 -108.07)" y1="32.416" x1="12.274">
   <stop id="stop3043" stop-color="#FBFBFB" offset="0"/>
   <stop id="stop3045" stop-color="#B6B6B6" offset=".5"/>
   <stop id="stop3047" stop-color="#E4E4E4" offset="1"/>
  </linearGradient>
  <linearGradient id="linearGradient23400" y2="34.307" gradientUnits="userSpaceOnUse" x2="32.511" gradientTransform="matrix(3.3213 0 0 3.3213 3.1589 -108.07)" y1="11.188" x1="14.997">
   <stop id="stop3034" stop-color="#EBEBEB" offset="0"/>
   <stop id="stop3036" stop-color="#fff" offset=".5"/>
   <stop id="stop3038" stop-color="#EBEBEB" offset="1"/>
  </linearGradient>
  <radialGradient id="radialGradient23425" gradientUnits="userSpaceOnUse" cy="41.636" cx="23.335" gradientTransform="matrix(1 0 0 .25 0 31.227)" r="22.627">
   <stop id="stop23421" offset="0"/>
   <stop id="stop23423" stop-opacity="0" offset="1"/>
  </radialGradient>
 </defs>
 <metadata id="metadata4">
  <rdf:RDF>
   <cc:Work rdf:about="">
    <dc:format>image/svg+xml</dc:format>
    <dc:type rdf:resource="http://purl.org/dc/dcmitype/StillImage"/>
    <dc:title>Media CD-ROM</dc:title>
    <dc:creator>
     <cc:Agent>
      <dc:title>Jakub Steiner</dc:title>
     </cc:Agent>
    </dc:creator>
    <dc:source>http://jimmac.musichall.cz</dc:source>
    <dc:subject>
     <rdf:Bag>
      <rdf:li>cdrom</rdf:li>
      <rdf:li>media</rdf:li>
      <rdf:li>removable</rdf:li>
      <rdf:li>cd</rdf:li>
      <rdf:li>audio</rdf:li>
     </rdf:Bag>
    </dc:subject>
    <cc:license rdf:resource="http://creativecommons.org/licenses/publicdomain/"/>
   </cc:Work>
   <cc:License rdf:about="http://creativecommons.org/licenses/publicdomain/">
    <cc:permits rdf:resource="http://creativecommons.org/ns#Reproduction"/>
    <cc:permits rdf:resource="http://creativecommons.org/ns#Distribution"/>
    <cc:permits rdf:resource="http://creativecommons.org/ns#DerivativeWorks"/>
   </cc:License>
  </rdf:RDF>
 </metadata>
 <g id="layer1" transform="translate(8.2929 122.46)">
  <path id="path23417" opacity=".55" style="color:#000000" d="m45.962 41.636a22.627 5.6569 0 1 1 -45.255 0 22.627 5.6569 0 1 1 45.255 0z" fill-rule="evenodd" transform="matrix(2.7899 0 0 2.9748 17.734 -109.14)" fill="url(#radialGradient23425)"/>
  <path id="path3040" d="m82.869-89.471c-32.216 0-58.122 25.906-58.122 58.122s25.906 58.122 58.122 58.122 58.122-25.906 58.122-58.122-25.906-58.122-58.122-58.122zm0 72.071c-7.6389 0-13.949-6.3104-13.949-13.949 0-7.6389 6.3104-13.949 13.949-13.949 7.6389 0 13.949 6.3104 13.949 13.949 0 7.6389-6.3104 13.949-13.949 13.949z" fill="url(#linearGradient23400)"/>
  <path id="path3049" d="m82.869-89.471c-32.216 0-58.122 25.906-58.122 58.122s25.906 58.122 58.122 58.122 58.122-25.906 58.122-58.122-25.906-58.122-58.122-58.122zm0 72.071c-7.6389 0-13.949-6.3104-13.949-13.949 0-7.6389 6.3104-13.949 13.949-13.949 7.6389 0 13.949 6.3104 13.949 13.949 0 7.6389-6.3104 13.949-13.949 13.949z" stroke="#808080" stroke-width="2.7899" fill="url(#linearGradient23397)"/>
  <path id="path3051" opacity="0.11" d="m82.869-59.538c-15.742 0-28.189 12.813-28.189 28.189 0 15.742 12.813 28.189 28.189 28.189 15.742 0 28.189-12.813 28.189-28.189 0-15.742-12.813-28.189-28.189-28.189zm0 43.565c-8.4202 0-15.376-6.9558-15.376-15.376s6.9558-15.376 15.376-15.376 15.376 6.9558 15.376 15.376-6.9558 15.376-15.376 15.376z"/>
  <path id="path3916" fill="url(#linearGradient23390)" d="m98.423-85.279-10.034 39.043c3.1378 0.83561 5.6471 2.7772 7.3516 5.4641l34.573-21.061c-7.073-11.521-18.425-19.998-31.89-23.446z"/>
  <path id="path4214" d="m63.231 21.006 13.211-38.086c-3.0584-1.0908-5.3996-3.2322-6.8774-6.0501l-36.188 18.147c6.1016 12.064 16.718 21.445 29.854 25.989z" fill="url(#linearGradient23390)"/>
  <path id="path5264" opacity=".54645" fill="none" stroke="url(#linearGradient23387)" stroke-width="2.7899" d="m82.869-86.581c-30.615 0-55.233 24.618-55.233 55.233s24.618 55.233 55.233 55.233 55.233-24.618 55.233-55.233-24.618-55.233-55.233-55.233z"/>
  <path id="path6026" opacity=".67213" style="color:#000000" fill="none" transform="matrix(2.7899 0 0 2.7899 15.191 -100.85)" stroke="url(#linearGradient23353)" stroke-width=".93054" d="m30.406 24.931a6.0988 6.0988 0 1 1 -12.198 0 6.0988 6.0988 0 1 1 12.198 0z"/>
  <path id="path3390" opacity=".11429" fill="url(#radialGradient23383)" d="m82.869-89.471c-32.216 0-58.122 25.906-58.122 58.122s25.906 58.122 58.122 58.122 58.122-25.906 58.122-58.122-25.906-58.122-58.122-58.122zm0 72.071c-7.6389 0-13.949-6.3104-13.949-13.949 0-7.6389 6.3104-13.949 13.949-13.949 7.6389 0 13.949 6.3104 13.949 13.949 0 7.6389-6.3104 13.949-13.949 13.949z"/>
  <path id="path3404" opacity=".097143" d="m82.869-89.471c-32.216 0-58.122 25.906-58.122 58.122s25.906 58.122 58.122 58.122 58.122-25.906 58.122-58.122-25.906-58.122-58.122-58.122zm0 72.071c-7.6389 0-13.949-6.3104-13.949-13.949 0-7.6389 6.3104-13.949 13.949-13.949 7.6389 0 13.949 6.3104 13.949 13.949 0 7.6389-6.3104 13.949-13.949 13.949z" fill="url(#radialGradient23380)"/>
  <path id="path3419" opacity=".71429" fill="url(#radialGradient23377)" d="m82.869-89.471c-32.216 0-58.122 25.906-58.122 58.122s25.906 58.122 58.122 58.122 58.122-25.906 58.122-58.122-25.906-58.122-58.122-58.122zm0 72.071c-7.6389 0-13.949-6.3104-13.949-13.949 0-7.6389 6.3104-13.949 13.949-13.949 7.6389 0 13.949 6.3104 13.949 13.949 0 7.6389-6.3104 13.949-13.949 13.949z"/>
  <path id="path3431" opacity=".62286" d="m82.869-89.471c-32.216 0-58.122 25.906-58.122 58.122s25.906 58.122 58.122 58.122 58.122-25.906 58.122-58.122-25.906-58.122-58.122-58.122zm0 72.071c-7.6389 0-13.949-6.3104-13.949-13.949 0-7.6389 6.3104-13.949 13.949-13.949 7.6389 0 13.949 6.3104 13.949 13.949 0 7.6389-6.3104 13.949-13.949 13.949z" fill="url(#radialGradient23374)"/>
  <path id="path3441" opacity=".37143" fill="url(#radialGradient23371)" d="m82.869-89.471c-32.216 0-58.122 25.906-58.122 58.122s25.906 58.122 58.122 58.122 58.122-25.906 58.122-58.122-25.906-58.122-58.122-58.122zm0 72.071c-7.6389 0-13.949-6.3104-13.949-13.949 0-7.6389 6.3104-13.949 13.949-13.949 7.6389 0 13.949 6.3104 13.949 13.949 0 7.6389-6.3104 13.949-13.949 13.949z"/>
  <path id="path3445" opacity=".23429" d="m82.869-89.471c-32.216 0-58.122 25.906-58.122 58.122s25.906 58.122 58.122 58.122 58.122-25.906 58.122-58.122-25.906-58.122-58.122-58.122zm0 72.071c-7.6389 0-13.949-6.3104-13.949-13.949 0-7.6389 6.3104-13.949 13.949-13.949 7.6389 0 13.949 6.3104 13.949 13.949 0 7.6389-6.3104 13.949-13.949 13.949z" fill="url(#radialGradient23368)"/>
 </g>
</svg>
