<?xml version="1.0" encoding="UTF-8" standalone="no"?>
<!-- Created with Inkscape (http://www.inkscape.org/) -->
<svg id="svg3189" xmlns:rdf="http://www.w3.org/1999/02/22-rdf-syntax-ns#" xmlns="http://www.w3.org/2000/svg" height="158.57" width="279.25" version="1.1" xmlns:cc="http://creativecommons.org/ns#" xmlns:dc="http://purl.org/dc/elements/1.1/">
 <metadata id="metadata3194">
  <rdf:RDF>
   <cc:Work rdf:about="">
    <dc:format>image/svg+xml</dc:format>
    <dc:type rdf:resource="http://purl.org/dc/dcmitype/StillImage"/>
    <dc:title/>
   </cc:Work>
  </rdf:RDF>
 </metadata>
 <g id="layer1" transform="translate(-57.63331,-499.40863)">
  <g id="g5206" transform="matrix(0.54882466,0,0,0.54882466,176.14986,295.96757)">
   <path id="path5140" fill="none" d="M-49.323,507.53z"/>
   <path id="path5142" fill="#FFF" d="m-136.75,423.46c-6.7402,0.46967-24.021,10.684-24.743,15.557-0.38813,2.6218,5.1279-2.1143,7.9197-1.4347,3.3321,0.81129,5.844,3.6775,6.3538,0.82976,1.9039-10.634,13.526-15.165,10.469-14.952z"/>
   <path id="path5144" fill="#ee7000" d="m-123.84,508.4-5.5587,22.206-8.3381,19.43,4.7646,4.7586,19.455-7.5342,11.911-8.3271,6.3528,8.3271,9.9262,20.223,12.309,22.602,14.294,17.844,17.47,6.7412,14.691,0.79292,11.912-15.465,3.9705-5.1549,9.5292,0,2.7793-3.1722,1.5882-4.3619-2.3823-5.5515-0.39705-3.9651,6.7499-0.79324,1.5882-5.948-3.5734-5.9479,2.7793-7.5342,5.5587-3.9654,4.3675-6.7409-0.79411-8.7237-3.1764-3.1722-6.3528-0.79302-5.9558-1.9827-5.1616-3.5688,1.5882-5.5515,1.9852-13.482,6.7499,6.3444,13.897,9.1203,14.691,0.39651,3.1764-3.1724-7.1469-6.3444-7.544-11.103,14.691-3.9651,13.897-8.7237,10.323-15.861,2.3823-17.051-5.5587-20.223-7.941-12.292-15.882-13.086-17.073,1.9827-16.279,4.7586-8.338-0.39662,2.3823,3.9654,11.514,1.9824,10.323,0.79313,13.897,5.5515,7.941,15.465-0.7941,12.689-2.3823,10.31-6.3528,8.3271-8.3381,1.1895-11.514-5.9478-11.514-13.482-16.279-13.482-14.294-3.9653-13.103,4.362-5.9558,3.1722-9.5292-5.9478-20.647-2.7759-11.912,3.5688-10.72,8.3271-8.338,10.31-9.5292,11.499-9.9262,5.9479-14.294-1.1895-8.3381-7.5342,0-13.085,3.5735-11.896,6.3528-9.9134,7.941-7.5339,13.103-6.3447,13.5-0.3963,14.691,0.3963,10.323-3.9651-11.911-3.1724-11.514-5.1549-12.309-3.1723-13.897,1.9828-18.661,7.1375-13.5,9.5166-9.5292,17.051-2.3823,17.447-0.39705,9.9132,2.7794,12.689,5.9558,11.896,10.72,11.499,14.294,3.5688,12.706-1.5862z"/>
   <path id="path5146" fill="#000" d="m-119.92,407.13c-26.77,0.0247-63.744,17.891-59.203,61.977,4.8574,47.153,37.278,50.41,49.919,49.853-2.5982,11.781-4.7095,22.429-14.409,32.777-13.602,14.511,28.992,9.3263,43.257-6.1064-1.3214,7.0514-2.7478,17.163,2.9373,26.027,1.0593,1.6519,1.7237-4.3925,3.0497-3.9062,1.2389,0.45409-0.03953,13.912,6.886,17.937,1.2833,0.74586,2.263-2.7917,3.0871-4.1308,2.4453-3.972,1.0071,16.259,11.202,20.34,1.4852,0.59439,1.778-2.2772,2.8325-3.4272,11.318,26.124,59.062,35.674,56.91,6.9744-1.0277-6.4998,4.7977-10.26,9.9357-7.865,5.1382,2.3946,13.36-7.8712,6.1668-16.081,6.6169-2.5661,14.113-8.3449,8.7294-12.318-7.5484-5.2597,0.82174-10.276,5.6573-15.221,7.9443-8.1234,2.8371-23.106-4.4584-21.035-6.0599,1.7197-10.782-2.131-13.185-4.6589,0.75124-4.3269,2.6762-8.7093,2.5376-14.19,18.42,25.101,44.547,14.22,44.216,9.2708-0.28992-4.3446-8.1861,1.4795-17.878-15.318,20.205-2.2655,26.537-6.9434,37.241-32.148,11.505-27.092-14.989-72.698-42.875-62.411-14.63,5.3968-21.703,6.2467-31.089,6.4657-2.4589,0.0569,1.5463,5.57,8.0848,7.0043,9.535,2.0916,22.28-1.6187,33.179,9.0248,12.529,12.235,5.8079,48.862-10.662,43.298-16.471-5.5637-20.587-26.845-41.901-35.553-13.921-5.6877-25.049,0.74694-31.096,5.897-1.0466-0.96662-2.1467-1.8846-3.297-2.754-17.924-13.546-40.561-8.8789-58.131,16.935-14.654,21.529-31.522,18.271-36.574,7.7378-8.0956-16.879,12.841-49.109,43.602-44.997,6.6716,0.82944,24.142,0.47794,24.457-6.196,0.12899-2.7321-6.8203,0.75929-17.676-7.588-4.7402-3.6449-12.529-5.621-21.453-5.6127zm54.565,62.994c17.647-0.14932,27.788,9.465,34.476,8.9502,5.5372-0.42627,9.9213-4.4138,12.527-5.1661,15.499-4.4738,29.803,7.5035,35.631,22.475,7.2372,18.593,13.308,24.903,17.496,25.855,2.3673,0.53788-7.6041,4.2246-16.477-6.892-2.2366-2.8022-2.6997,4.8057-7.1398-0.56979-5.9542-7.209-6.7951-16.889-9.3653-24.277-1.5859-4.5589-6.1247-9.5088-7.1065-8.2745-1.3133,1.6509,3.946,10.077,3.0152,14.474-5.0588-4.2107-11.737-1.0395-13.556-1.1527-1.5996-0.0999-2.2467-2.8392-2.7114-2.5486-0.61263,0.38297-0.16161,1.8623-0.49634,4.4406-0.17744,1.3659-1.2051,2.3354-0.83299,3.6908,1.0262,3.7372,9.1833,11.954,11.495,19.822,2.3016,7.8321,9.3537,18.619,18.073,15.73,6.7929-2.2505,8.9008,11.467,2.7351,16.598-6.1659,5.1313-13.488,9.3624-7.7029,14.877,3.7679,3.592,3.8962,8.9208-3.7691,8.209-10.532-2.151-21.98,4.7357-29.455,4.3629-9.9338-0.68431-18.498-12.225-20.554-16.673-2.0554-4.447-2.3999,2.2238,2.053,8.3814,4.4532,6.1576,16.102,16.934,31.516,10.776,15.414-6.1575,20.55,4.4463,16.44,8.2092-4.1105,3.7633-20.554-0.68399-27.747,4.7893-4.8217,3.6689-6.5038,10.946-2.4429,16.808-29.35-2.9873-37.389-27.889-41.556-55.982,0.33667-4.953-5.5631,3.9402-6.3167,6.5777-1.2459,4.3602-6.445-20.732-5.2751-25.795,2.0067-8.6864-2.9807-3.2687-5.0804,0.93547-1.8386,3.6815-3.248-5.9579-1.431-9.5113,4.7028-9.1972,5.0519-11.026,6.6088-30.876,1.2643-16.12,9.6865-14.127,11.479-16.074,1.0884-1.1817,0.14723-2.2102-4.6232-1.3695-5.8232,1.0262-16.103,5.8155-16.103,23.946,0,9.0927-6.1582,19.129-7.9877,16.852-2.8713-3.5736-5.3046,12.494-6.7586,13.59-1.4545,1.0952-1.5782-4.8364-4.5934-0.91301-3.6293,4.7228-4.9872,8.6823-14.746,12.894-14.591,6.2967,2.4592-7.7772,3.4319-20.699,1.0555-14.023,5.3758-42.505,32.707-48.581,7.5566-1.6804,16.693-7.8243,24.143-7.8877zm55.671,28.656c2.974,0.28188,6.4476,0.59977,7.8868,3.3951,2.4805,4.8185,0.97134,11.215-0.34864,20.328-0.69272,4.7838-2.6186,0.96126-4.6584-6.7608-2.3345-8.8374-8.997-9.9248-9.7026-14.122-0.4949-2.945,3.2269-3.181,6.8229-2.8403z"/>
   <path id="path5148" d="m-1172.1,1842.7c0,11.243-9.1142,20.357-20.357,20.357s-20.357-9.1142-20.357-20.357,9.1142-20.357,20.357-20.357,20.357,9.1142,20.357,20.357z" transform="matrix(0.25239811,0,0,0.25206824,249.80375,39.758391)" fill="#000"/>
   <path id="path5150" fill="#000" d="m-57.384,512.49c1.9132,0.2863,1.3732-0.45794,0.81357-1.1334-6.9752-8.4187,2.1992-15.551,12.662-9.6525,1.4432,0.81365,4.2861-1.8031,1.3639-4.2176-0.4141-0.34204-0.52631-5.7254-1.361-6.0333-0.83443-0.30788-0.77017,4.7726-1.9019,4.6479-5.3809-1.3281-13.572-0.47106-16.051,5.36-1.2864,3.026-0.8342,8.2116,4.4745,11.029z"/>
   <path id="path5152" fill="#000" d="m-11.485,544.34s-13.067-14.719-25.741-9.4162c-12.674,5.3026-5.9736,19.833-3.7472,19.833-1.3099-6.1753-1.5238-15.213,7.3648-17.618,7.7072-1.8816,16.752,8.3456,19.867,10.947,2.8529,2.3825,5.4686-1.4842,2.2561-3.7456z"/>
   <path id="path5154" fill="#000" d="m-23.307,554.08c0.32011-1.6154-3.8468-11.81-11.143-9.8504-9.0979,2.4438-1.1884,10.865,3.2394,7.846,1.3356-0.91087,1.6928-1.5829,2.4414-1.4017,2.1081,0.51006,2.5548,3.0235,2.6668,4.542,0.17096,2.3201,2.5776-0.0355,2.7956-1.1359z"/>
   <path id="path5156" fill="none" d="M-44.36,498.84z"/>
   <path id="path5158" d="m-1172.1,1842.7c0,11.243-9.1142,20.357-20.357,20.357s-20.357-9.1142-20.357-20.357,9.1142-20.357,20.357-20.357,20.357,9.1142,20.357,20.357z" transform="matrix(0.25239811,0,0,0.25206824,293.47621,39.758391)" fill="#000"/>
   <path id="path5160" d="m-1172.1,1842.7c0,11.243-9.1142,20.357-20.357,20.357s-20.357-9.1142-20.357-20.357,9.1142-20.357,20.357-20.357,20.357,9.1142,20.357,20.357z" transform="matrix(0.0966394,0,0,0.0965131,66.495475,324.09923)" fill="#FFF"/>
   <path id="path5162" d="m-1172.1,1842.7c0,11.243-9.1142,20.357-20.357,20.357s-20.357-9.1142-20.357-20.357,9.1142-20.357,20.357-20.357,20.357,9.1142,20.357,20.357z" transform="matrix(0.0966394,0,0,-0.0965131,110.23152,679.7923)" fill="#FFF"/>
   <path id="path5164" fill="#2e3436" d="m-117.31,412.8c-2.2184,0.0118-4.6644,0.19756-7.3809,0.59879,6.5894,4.2141-1.1361,4.0193-3.5516,4.1605-15.01,0.87939-26.135,7.3529-23.851,6.8099,5.1941-1.2345,13.963,0.52156,7.8379,2.6341-13.191,4.5498-24.001,7.811-27.769,34.393-2.1383,15.084,8.393,35.042,8.0776,32.245-1.1919-10.571,3.2202-15.873,4.2709-11.053,2.645,12.133,8.8833,21.113,13.967,22.847-3.3212-7.0984-4.4071-17.962,0.50952-12.677,6.2481,6.7166,11.26,9.8876,20.838,9.4812,0,0,12.02-21.465,30.414-27.396,13.521-4.3602-8.7999-4.675,4.9229-7.895,9.1511-2.147,20.249-1.6441,16.755-2.9783-10.382-3.9634-0.065-5.5598,6.9912-4.7369,22.641,2.6404,30.246,22.411,43.108,12.213,2.3611-1.8721,5.5082-6.1103,8.6546-6.1439,3.1466-0.0333-1.5926,4.158,4.4733,3.3452,9.1389-1.2249,5.2996,1.5281,6.8186,1.8333,5.647,1.1342,11.172,5.6872,11.172,5.6872s-22.609-38.259-42.306-25.306c-3.2773,2.1554-1.8722,3.2726,0.66873,2.0634,3.8774-1.8455,13.074-0.24429,6.292,0.7233-9.2245,1.316-10.894,7.987-10.894,7.987-38.831-32.448-60.277-7.0736-71.828,8.8525-7.607,11.371-24.379,20.769-35.472,12.647-9.0322-6.6128-4.1198,5.9208-7.7551,1.085-8.4416-11.229-1.3629-29.153,3.0646-35.987,5.851-9.0308,11.122-14.696,16.979-18.229,5.8573-3.5335-5.1663-6.3057,0.27742-6.8021,5.4434-0.49674,19.007-2.3918,32.655,0.40391,2.3048,0.47203,8.6992,0.78562,12.056-1.0175-9.9609-1.4816-14.466-9.8652-29.995-9.7883z"/>
   <path id="path5166" fill="#2e3436" d="m16.106,481.37s21.616,13.145,27.097-12.276c0.82172-3.8107,4.5018,1.0058,5.8434,3.81,1.2948,2.7056,3.7288-4.0838,1.519-9.5062-1.9573-4.8029-5.2461-13.814-3.4526-12.013,4.1096,4.1288,4.5786,2.1468,3.0282-2.8407-1.5504-4.9878-5.12-12.981-17.807-18.94-5.9446-2.7922-11.394-4.2436-17.387-4.5433-5.9923-0.29983-12.527,0.55206-14.828-1.5042,5.0864,0,18.551-1.4492,24.706-4.354,15.728-7.4227,58.032,28.871,32,67.481-4.1758,6.1936,1.1253-7.3625-2.2702-5.0103-3.6655,2.5396-6.6356,11.3-16.822,13.987-3.5302,0.9316,2.2386-2.3291,1.2236-6.2321-0.77473-2.9802-12.336,3.6042-22.851-8.0588z"/>
  </g>
  <g id="g3264" transform="matrix(0.19895547,0,0,0.19895547,146.39911,478.011)">
   <path id="path6" fill="#FFF" d="m599.88,214.97c-16.1,0-18.8,0.2-29.5,3-13.2,3.5-20.9,7.9-29.9,17-4.6,4.5-6.9,7.4-9.1,11.1-5.5,9.5-9.1,20.3-11.3,34.9-1.2,7.1-1.3,9.7-1.2,27.3,0,18.5,2.2,74.9,3.5,91.8,0.9,11.2,0.5,12.4-8.9,25.5-3.3,4.6-7.9,11.3-10.2,14.9-6.3,9.7-15.2,22.2-22.5,31.8-13.5,17.4-16.9,23.8-25.4,46.9-8.2,22.6-13.2,33.8-25.3,57.3-6.2,11.8-7.8,16.8-8.1,25.2-0.4,7.2,0.6,17.2,1.7,19,0.9,1.2,2,1.5,4.2,0.9-0.3,0.3-0.5,0.5-0.7,0.6-3.5,2.3-7.5,7.2-10,13.4-0.1,0.1-0.1,0.3-0.2,0.4-0.9,1.4-1.9,3.8-3.1,7.5-3.6,10.2-6.6,14.7-12,17.6-4.6,2.5-8.7,3.1-20.7,3.1-12.4,0-15.1,0.6-18.8,3.8-6.6,5.6-7.6,16.7-3.1,32.1,4.1,13.9,3.9,20.3-1.4,35.9-2.9,8.6-3.3,10.4-3.3,14.1,0,2.8,0.3,4.9,0.9,6.2,1.3,2.7,5.4,6,9.4,7.7,4.5,1.7,27.1,7.3,43.3,10.5,25.1,5.1,34.1,7.8,57.4,17.1,20.7,8.2,29.5,11.2,36.5,12.3,3.3,0.5,10.1-0.1,13.2-1.3,3.7-1.3,7.2-3.7,14.9-10.2,13.6-11.4,21-15,36.2-17.4,5.7-0.9,10.9-1,54.4-1,26.4,0,49.7,0.2,51.8,0.5,4.9,0.6,6.8,2.2,10.9,9.4,6.3,11.3,14,16.3,28,18.4,6.6,1,17.9,1.1,23.1,0.3,11.4-1.9,17.1-5.3,30-18.2,15-15.1,29-24.6,48.7-33.2,10-4.4,14.5-6.9,26.3-14.9,14.5-9.8,17.3-12.9,17.3-19.3,0-6.7-3.6-10.9-16.9-19.7-12.7-8.4-18.4-13.5-23.7-21.3-3.7-5.5-5-9.7-5.5-17.9-0.2-3.8-0.6-6.4-1.1-8-0.5-5.7-2.8-12.2-6.9-14.3-5.7-3-7.7-2.1-9.6-0.9,6.4-7.2,8.5-10.6,10.6-16.8,3.7-11,2.9-23.3-3.5-55.3-7.4-37.2-20-63.8-46-97.2-16.5-21.3-23.2-31.9-39.3-62.1-8-15.1-10.3-20.3-12.2-28.4-2.8-11.7-4.1-22.2-6.2-52.1-2-27.9-3.4-39.4-6-49.1-6.9-26.4-27.6-46.4-56.5-54.7-12.3-3.5-17.6-4.2-34.2-4.2z"/>
   <g id="g8" fill="#f8bf11" transform="translate(104.88009,-79.427888)">
    <path id="path10" d="m552,300.4c0,25.1-29.9,30.4-44.4,39.4-13.5,12.5-91.2,47.8-111.8,47.8-33.1-7-73.4-56.4-78.6-89.2,0-19.1,24.3-34.4,37.9-46.9,13.5-12.5,29.1-24.3,55.7-19.3,20.6,0,52.8,9.8,66.3,22.3,27,9,74.9,14.8,74.9,45.9z" transform="matrix(0.55569,0,0,0.55569,249.6684,292.4824)"/>
    <path id="path12" d="m7.597,971.1c30.75,14,102.4,31.9,127.6,34.9,16.9,7,128.5,33,154.2,33,38.1-27,44.4-67.9,33.7-109.3-47.5-76.7-84.2-177.2-173-211.8-8.9,4.4-16.2,16.3-19.4,18.3-6.4,4.1-13.5,13-18,24.1-4.7,11.6-9,25.8-14.24,46.5-10.26,20.6-52.15,2-80.84,17-10.46,31.7,7.39,109.9-10.02,147.3z" transform="matrix(0.55569,0,0,0.55569,249.6684,292.4824)"/>
    <path id="path14" d="m834.2,853.6c19.2,15.7,49.3,27.4,62.9,53.5-25.9,30.9-48.2,41.8-81,57.4-45,21.4-73.2,41.5-93.8,55.5-20.6,18-68.4,29-90.1,26-13.7-9-29.1-118.3-24.1-154,0-19-23.3-95.1,14-141.5,36.1-6.9,67.1,26.1,90,48.6,18.9-12.7,48.8-32.2,71.4-37.1,7.4-1.7,7.7-9.4,23.2-1.3,7.4,3.9,11.7,16.1,12.5,26.5,1.3,16.8,3,52.4,15,66.4z" transform="matrix(0.55569,0,0,0.55569,249.6684,292.4824)"/>
   </g>
   <g id="g16" transform="translate(104.88009,-79.427888)">
    <g id="g18" transform="matrix(0.55569,0,0,0.55569,249.6684,292.4824)">
     <path id="path20" fill="#000" d="m265.5,1063c-12.6-2-28.5-7-65.7-22-42-17-58.1-21-103.3-31-29.1-5-69.91-15.5-77.88-18.7-7.21-2.9-14.7-8.9-16.99-13.8-1.068-2.2-1.63-6.1-1.63-11.1,0-6.8,0.7248-9.8,5.962-25.3,9.516-28.2,9.976-39.7,2.577-64.7-8.194-27.7-6.277-47.7,5.529-57.8,6.67-5.7,11.53-6.7,33.8-6.7,21.64,0,28.95-1.1,37.33-5.7,9.65-5.3,15.08-13.3,21.48-31.7,4.1-11.9,6.8-16.6,9.4-16.6,2.1,0,3.9,5.2,3.9,11.5,0,5.6-6.3,29.2-9.4,35.3-3.3,6.6-7.8,11.7-12.99,14.7-9.68,5.7-28.33,7.2-48.79,4.1-13.07-2.1-20.57-1.6-25.57,1.4-7.4,4.5-8.61,14.6-3.24,27.1,10.4,24.1,12.39,29.3,14.59,37.4,2.61,9.7,3.03,18.2,1.39,28.3-1.63,10-4.5,16.3-12.99,28.2-4.38,6.2-8.39,12.8-8.92,14.8-1.5,5.4,0.71,9.5,6.67,12.6,5.06,2.5,77.22,21.2,128.2,32.7,15.7,4,44.3,11,63.5,16,19.3,5,39.3,9,44.5,10,16.1,2,31,0,41.3-6,14.3-9,24.3-29.7,25.5-53.8,0.8-15.9-2.7-30.2-12-48.7-7.1-14.2-10.6-19.7-44.3-70.6-59.5-89.6-85.3-119.5-107.3-124.1-7.1-1.4-11.8-0.6-21.3,3.7-9.1,4.1-12.2,4.3-14.4,1-2.1-3.2-3.8-21.1-3.2-34.1,0.7-15.1,3.6-24.1,14.6-45.5,21.8-42.2,30.7-62.4,45.6-103,15.3-41.6,21.5-53.1,45.6-84.5,13.2-17.1,29.2-39.7,40.5-57.1,4.3-6.5,12.6-18.6,18.5-26.9,16.8-23.6,17.6-25.8,16-45.9-2.4-30.3-6.4-131.9-6.4-165.1-0.1-31.6,0.1-36.4,2.1-49.2,4.1-26.16,10.5-45.79,20.5-62.79,3.8-6.64,8.1-11.89,16.2-20.07,16.2-16.34,30.2-24.18,53.9-30.38,19.3-5.052,24.2-5.554,53.1-5.528,29.8,0.026,39.3,1.205,61.5,7.583,52,14.94,89.3,50.96,101.8,98.39,4.6,17.5,7.1,38.3,10.7,88.5,3.8,53.7,6.1,72.6,11.2,93.8,3.4,14.4,7.5,23.9,21.9,51,29,54.4,41,73.4,70.7,111.6,46.8,60.2,69.4,108,82.8,175,11.5,57.6,12.9,79.7,6.3,99.6-4,12-7.9,18-21.6,33.1-28.8,31.9-60.9,51.9-82.9,51.9-20,0-38.3-13.6-51.4-38.3-6.1-13.6-5.3-24.5-22.8-20.6-8.5,2.3-15.5,12.6-17.6,25.9-1.6,9.5-1.3,45.9,0.4,55,0.7,4.1,3.1,16.3,5.1,27,3.6,18.5,3.8,20.5,3.8,39.5,0,17.5-0.4,22.8-3.3,42-2.7,18-3.2,24.2-2.9,34,0.4,11.4,0.6,12.5,4,19.6,4.1,9,13.1,19,20.9,24,17.2,11,41.2,12,61.4,2,5.7-3,14-9,28-20,22.7-18.4,39.6-30.1,52.4-36.6,4.9-2.4,16.7-6.9,26.2-10,39.4-12.7,57.4-20.3,67.4-28.6,11.9-9.7,17.6-20.2,15.5-28.1-2.7-9.8-14-16.8-37.1-22.8-17.4-4.6-21.6-6.7-28.7-14.5-6.3-6.9-11.2-16.8-14.8-30-3.5-12.9-4-33.8-1-42,2.1-5.8,4.2-8.5,6.6-8.5,2.8,0,4.2,4.9,5,18,1,14.6,3.3,22.3,10,32.1,9.5,14.1,19.6,23.2,42.5,38.4,23.9,15.8,30.5,23.4,30.5,35.5,0,11.5-5.1,17.1-31.1,34.6-21.3,14.4-29.3,19-47.3,26.8-35.5,15.5-60.7,32.7-87.8,59.7-23.2,23-33.3,30-54,33-9.3,1-29.6,1-41.5-1-25.2-3-38.9-12-50.4-33-7.3-13-10.7-16-19.5-17-3.8,0-45.8-1-93.4-1-78.2,0-87.6,1-97.7,2-27.4,5-40.9,11-65.3,31-13.8,12-20.1,16-26.8,19-5.5,2-17.8,3-23.7,2zm90.2-64.5c2.2-1.9,5.5-6.3,7.4-9.8,3-5.6,3.4-7.3,3.7-15.9,0.7-15.8-2.7-24.7-13.9-36.5-7.7-8.1-8.8-11.6-4.4-13.6,4.1-1.8,9.3,0.5,18.6,8.3,17.6,14.9,28,17.4,66.4,16.6,41.3-1,63.8-5.3,86.5-16.7,14.7-7.4,24.4-15.8,36.7-32.1,8.7-11.4,12.6-15.3,17.5-17.3,8.1-3.4,12.4,3.2,12.2,18.9-0.1,7.3-0.9,11.9-4.2,24.1-9,32.5-11.8,50.8-9.3,60.1,1.5,5.4,6.2,9.5,10.5,9.1,3-0.3,3.1-0.5,3.9-6.3,0.4-3.3,2.1-14.5,3.8-25,1.6-10.4,3.6-23.9,4.5-30,2.1-15.8,3.7-64.8,3.8-118,0.1-45.9,0.1-46,2.5-53,1.9-5.4,3.6-8.1,7.5-12,6.1-6,11.8-8.2,24.7-9.1l8.6-0.7,1.2-6.1c2.9-13.9,11.2-21.8,27.6-26.2,5.3-1.4,10.6-1.9,22-1.9,16.5,0,21.1,1,36,8.2,6.7,3.2,12.5,4.3,12.5,2.4,0-1.5-8.1-9.1-14.6-13.7-3.4-2.5-9.3-5.7-13-7.2-5.1-2.1-7-3.4-7.2-4.9-0.2-1.2,1.3-7.9,3.3-15,5.8-21,7.7-34.3,7.8-54.3,0.2-32.9-5.6-54.7-24.7-91.6-17.7-34.2-36.4-59.3-51.2-68.7-4.3-2.6-9.4-4.4-9.4-3.3,0,0.4,3.6,5.7,7.9,11.9,20.4,28.9,41.6,65.8,50.6,88.3,7.3,18,12.8,42.4,14.5,64.6,2.9,36.4-7,67.5-24,75.1-3.4,1.6-7.2,2.2-15.5,2.4-13.2,0.5-15-0.2-18.5-7.2l-2.5-5-0.6-40c-1.1-68.1-4.3-79.7-40-144.2-11-19.8-13.2-25-17.9-43-9.6-37-18.9-58.7-33.5-78.3-22.3-29.8-25.2-42.2-16.3-69.7,5.7-17.9,5.6-27.1-0.4-33.2-4.4-4.5-7.8-6.1-27.9-12.5-30.5-9.7-44.6-18.4-48.5-29.9-3.9-11.3-1.1-29.7,5.9-38.8,5-6.6,11.4-9.4,21.2-9.4,6.5,0.1,9.1,0.6,13.6,2.6,6.9,3.3,12.4,8,15.2,13.3,3,5.7,2.9,19.2-0.2,29.1-5.1,16.1-4.9,14.4-1.3,17.6,6.5,5.8,16.8,6.3,21.3,0.9,3.9-4.6,5.1-9.3,5.6-22.5,0.6-14.4-0.9-24-6.8-42.1-8.1-24.8-16.2-32-40.7-36-18.3-3-28.3-0.6-37.5,8.9-14.4,15-21.6,38.9-18.7,62.9,1.6,13.3,1.3,13.9-6.2,11.5-6.7-2.1-21.4-3.8-29.9-3.5-9.1,0.4-9.9-0.4-9.9-10.6-0.1-41.5-12.6-64.1-35.5-63.9-15.9,0-28.8,12.1-33.6,31.3-1.9,7.5-1.5,29,0.6,41.5,4.3,24.6,13.6,36.9,20.9,27.3,3-4.1,5.6-9.3,5.6-11,0-0.7-2.3-2.3-5-3.6-3-1.4-5.7-3.6-6.9-5.6-5.7-9.1-8.5-25.4-6.1-34.1,3.1-11,18.2-17.8,28.6-12.9,8.8,4.2,18.2,23.6,17.2,35.8-0.8,9.7-2.6,12.7-11.4,19.2-4.4,3.2-11.5,9-15.9,12.9s-9.8,8.4-12,10c-11.2,8.1-17.5,17.6-17.5,26.6,0,5.9,2.4,9.1,9.9,12.8,5.9,3,11.2,8.2,16.8,16.4,7.5,10.8,16.4,14.2,36.8,14.1,24.9-0.1,47.2-5.4,89-21,22.7-8.5,29-11.2,30.3-13.2,3.7-5.4,8-9.2,10.6-9.2,3.5,0,6.6,3.3,6.6,6.9,0,6.1-9.4,11.1-42,22.2-9.6,3.3-24.5,9.3-33,13.3-17.2,8.2-22,9.9-33.3,12.1-9.3,1.8-30.8,2-42.6,0.4-9.6-1.3-15.4-0.6-14.9,1.9,0.5,2.6,22.7,19.9,27.8,21.8,7.2,2.5,21.4,3,30.6,0.9,13.9-3,57.8-21.9,79.6-34.1,7.3-4.1,11.4-5.8,14-5.8,4.4-0.1,7.8,2.7,7.8,6.2,0,3.8-7.4,10.3-15.5,13.7-14.3,5.8-17.3,7.4-31.5,16.4-19.4,12.4-27.9,18.6-40.7,29.8-13.7,11.9-17.6,13.5-32.8,13.7-12.1,0.1-15.8-1.1-23.7-7.9-6.2-5.3-21-23.7-25.2-31.4-4.4-8-14.2-19.1-16.8-19.1-1.7,0-1.9,0.4-4.8,13-2,9-9.4,26-21.4,49.5-14.4,28.3-15.1,30.8-15.1,60.5,0,24.8,0.6,22.7-11.5,39.5-14.8,20.8-37.8,75.1-43.3,102.5-4.2,20.5-7.1,55.4-6.3,75,0.6,15.6-0.2,20.2-3.9,22.5-3.8,2.4-8.3-0.1-17.6-9.3-14.6-14.7-19.3-26.9-19.2-50.2,0.1-14.8,1.4-26.2,4.3-37.2,2.5-9.4,2.6-12.1,0.3-11.6-2.4,0.4-7.8,11.5-10.4,21.4-1.6,5.9-2.2,12-2.6,24.4-0.4,15.2-0.3,17.4,2.1,28,3,13.3,8.7,25.7,16.6,36.1,12.1,16,73.4,70.4,114.2,101.5,9.8,7.4,20.7,16.7,24.3,20.6,21.6,23.4,17.4,44.8-12.1,61.3-4.6,2.6-8.4,4.9-8.4,5.1s3.8,5.5,8.4,11.6c16.9,22.8,26.7,39.5,30.1,51.2,2.3,7.7,2.2,18.8-0.3,25.9-1,3.2-1.6,5.8-1.2,5.8s2.5-2,4.7-3.5zm17.3-744.6c-3.1-5.9,2.7-11,12.6-11,3.5,0,6.6,0.4,6.9,1,0.7,1.2-2.7,3-5.7,3-1.8,0-2.8,1-4.3,4.3-1.6,3.5-2.5,4.3-5.2,4.5-2.4,0.2-3.4-0.2-4.3-1.8zm59.3-4.3c-5.8-2.1-10.3-5-9.2-6.1,0.3-0.3,3.7-0.8,7.5-1.2,9-0.8,12.4,0.5,12.4,4.5,0,2-0.7,3.4-1.9,4.1-1.1,0.5-2.1,1-2.3,0.9-0.1,0-3.1-1-6.5-2.2zm-208.2,280.3c9.6-9.9,12.3-14.9,11.7-22-0.3-4.9-2.2-6.6-6.2-5.6-2.9,0.7-4.5,3.7-7.1,12.8-1.1,4.4-2.9,7.3-7,11.9-5.5,6.2-6.5,8.5-4.3,10.7,2.3,2.3,4.2,1.2,12.9-7.8zm384.6-168.8c2.1-1.3,6.3-11.6,6.3-15.5,0-3.1-0.6-4.5-3.1-6.8-1.7-1.6-3.5-2.9-4-2.9s-4.4-1.6-8.7-3.7c-5.2-2.5-9.8-5.6-14.3-10-3.6-3.4-7.1-6.3-7.7-6.3s-1.4,1.2-1.8,2.6c-1.1,4.6,0.5,11.7,4.7,20.1,3.6,7.5,4.9,9,13.2,15.8,8.9,7.3,12.2,8.7,15.4,6.7zm-240.6-133.9c1.2-3.1,0.9-5.5-2.2-15.6-1.3-4.4-3.2-8.1-5.2-10.3-2.9-3.1-3.4-3.3-5.7-2.1-3.3,1.8-3,5.8,0.9,10.2,2.9,3.3,5.4,9.6,6.6,16.8,0.8,4.6,4,5.2,5.6,1zm140.9-2.8c2.2-2.6,0.6-15-2.4-19.6-3.1-4.7-10.3-9-16-9.6-3.8-0.5-4.5-0.2-5.6,1.7-1.4,2.6-0.7,3.4,4.2,4.9,6.2,2,11.9,10.5,13.4,19.9,0.6,3.5,1.1,4.2,2.9,4.2,1.3,0,2.8-0.7,3.5-1.5zm6.7-134.7c7.2-4.97,7.7-5.19,14.6-5.37,8.8-0.23,10.7-0.97,10.7-4.07,0-4.83-16.6-19.55-23.6-20.85-7-1.32-9.5,2.48-10.9,16.71-0.6,5.32-1.3,7.54-3.6,10.39-3.1,3.93-3.6,6.24-1.6,8.22,2,2.05,6.3,0.54,14.4-5.03z"/>
    </g>
   </g>
  </g>
 </g>
</svg>
