<?xml version="1.0" encoding="UTF-8" standalone="no"?>
<!-- Created with Inkscape (http://www.inkscape.org/) -->
<svg id="svg6361" xmlns:rdf="http://www.w3.org/1999/02/22-rdf-syntax-ns#" xmlns="http://www.w3.org/2000/svg" height="180" width="180" version="1.1" xmlns:cc="http://creativecommons.org/ns#" xmlns:xlink="http://www.w3.org/1999/xlink" xmlns:dc="http://purl.org/dc/elements/1.1/">
 <defs id="defs3">
  <radialGradient id="radialGradient21650" gradientUnits="userSpaceOnUse" cy="36.75" cx="25.125" gradientTransform="matrix(1 0 0 .59524 0 14.875)" r="15.75">
   <stop id="stop21646" offset="0"/>
   <stop id="stop21648" stop-opacity="0" offset="1"/>
  </radialGradient>
  <radialGradient id="radialGradient2207" gradientUnits="userSpaceOnUse" cy="28.459" cx="26.544" gradientTransform="matrix(1.2383 .0059548 -.0065078 1.3513 -6.9925 -9.7448)" r="22.376">
   <stop id="stop2935" stop-color="#9cbcde" offset="0"/>
   <stop id="stop2937" stop-color="#204a87" offset="1"/>
  </radialGradient>
  <radialGradient id="radialGradient2437" gradientUnits="userSpaceOnUse" cy="16.856" cx="-19.516" gradientTransform="matrix(4.446 0 0 6.8665 67.251 -104.67)" r="8.7536">
   <stop id="stop2433" stop-color="#fff" offset="0"/>
   <stop id="stop2435" stop-color="#b8b8b8" offset="1"/>
  </radialGradient>
 </defs>
 <metadata id="metadata4">
  <rdf:RDF>
   <cc:Work rdf:about="">
    <dc:format>image/svg+xml</dc:format>
    <dc:type rdf:resource="http://purl.org/dc/dcmitype/StillImage"/>
    <dc:title>Help Browser</dc:title>
    <dc:date>2005-11-06</dc:date>
    <dc:creator>
     <cc:Agent>
      <dc:title>Tuomas Kuosmanen</dc:title>
     </cc:Agent>
    </dc:creator>
    <dc:subject>
     <rdf:Bag>
      <rdf:li>help</rdf:li>
      <rdf:li>browser</rdf:li>
      <rdf:li>documentation</rdf:li>
      <rdf:li>docs</rdf:li>
      <rdf:li>man</rdf:li>
      <rdf:li>info</rdf:li>
     </rdf:Bag>
    </dc:subject>
    <cc:license rdf:resource="http://creativecommons.org/licenses/publicdomain/"/>
    <dc:contributor>
     <cc:Agent>
      <dc:title>Jakub Steiner, Andreas Nilsson</dc:title>
     </cc:Agent>
    </dc:contributor>
    <dc:source>http://tigert.com</dc:source>
   </cc:Work>
   <cc:License rdf:about="http://creativecommons.org/licenses/publicdomain/">
    <cc:permits rdf:resource="http://creativecommons.org/ns#Reproduction"/>
    <cc:permits rdf:resource="http://creativecommons.org/ns#Distribution"/>
    <cc:permits rdf:resource="http://creativecommons.org/ns#DerivativeWorks"/>
   </cc:License>
  </rdf:RDF>
 </metadata>
 <g id="layer1" transform="translate(6.9974 122)">
  <path id="path21642" opacity=".63068" style="color:#000000" d="m40.875 36.75a15.75 9.375 0 1 1 -31.5 0 15.75 9.375 0 1 1 31.5 0z" fill-rule="evenodd" transform="matrix(3.2118 0 0 1.6417 3.0939 -42.584)" fill="url(#radialGradient21650)"/>
  <path id="path2093" d="m45.785 23.826a21.876 21.876 0 1 1 -43.752 0 21.876 21.876 0 1 1 43.752 0z" transform="matrix(2.5678 0 0 2.5684 21.067 -93.726)" stroke="#204a87" fill="url(#radialGradient2207)"/>
  <path id="path2209" opacity=".96023" d="m45.785 23.826a21.876 21.876 0 1 1 -43.752 0 21.876 21.876 0 1 1 43.752 0z" transform="matrix(2.3397 0 0 2.34 26.515 -88.278)" stroke="#fff" stroke-width="3.0308" fill="none"/>
  <path id="path1554" d="m-20.25 5.875c-1.059 0.0000263-2.1476 0.12324-3.2812 0.34375-1.1329 0.22043-2.3802 0.53751-3.75 1a0.13496 0.13496 0 0 0 -0.03125 0 0.13496 0.13496 0 0 0 -0.03125 0.03125 0.13496 0.13496 0 0 0 -0.03125 0.03125 0.13496 0.13496 0 0 0 0 0.03125 0.13496 0.13496 0 0 0 0 0.03125v5.1562a0.13496 0.13496 0 0 0 0 0.03125 0.13496 0.13496 0 0 0 0 0.03125 0.13496 0.13496 0 0 0 0.03125 0.03125 0.13496 0.13496 0 0 0 0.03125 0.03125 0.13496 0.13496 0 0 0 0.03125 0 0.13496 0.13496 0 0 0 0.03125 0 0.13496 0.13496 0 0 0 0.03125 0 0.13496 0.13496 0 0 0 0.03125 0c1.1424-0.71904 2.2334-1.2671 3.2812-1.625 1.0481-0.36876 2.0431-0.56248 2.9375-0.5625 0.94922 0.000021 1.6449 0.21054 2.1562 0.625 0.50872 0.40209 0.78124 0.98304 0.78125 1.7188-0.00001 0.48066-0.14419 0.95141-0.4375 1.4375-0.28299 0.48702-0.74026 1.0305-1.375 1.5938l-1.094 0.937c-1.2015 1.0805-1.9892 1.991-2.375 2.7188-0.38311 0.71145-0.5625 1.5193-0.5625 2.4375v0.8125a0.13496 0.13496 0 0 0 0 0.03125 0.13496 0.13496 0 0 0 0 0.03125 0.13496 0.13496 0 0 0 0.03125 0.03125 0.13496 0.13496 0 0 0 0.03125 0.03125 0.13496 0.13496 0 0 0 0.03125 0 0.13496 0.13496 0 0 0 0.03125 0h6.0938a0.13496 0.13496 0 0 0 0.03125 0 0.13496 0.13496 0 0 0 0.03125 0 0.13496 0.13496 0 0 0 0.03125 -0.03125 0.13496 0.13496 0 0 0 0.03125 -0.03125 0.13496 0.13496 0 0 0 0 -0.03125 0.13496 0.13496 0 0 0 0 -0.03125v-0.75c-0.000011-0.4682 0.14837-0.89285 0.375-1.2812 0.2223-0.39128 0.70807-0.95036 1.4688-1.625l1.0625-0.9375c1.0666-0.98231 1.8307-1.8847 2.2812-2.75 0.44927-0.87405 0.68748-1.8734 0.6875-2.9688-0.000018-2.1263-0.74377-3.734-2.2188-4.8438-1.4752-1.121-3.6062-1.6875-6.375-1.6875zm-3.5625 19.156a0.13496 0.13496 0 0 0 -0.03125 0.03125 0.13496 0.13496 0 0 0 -0.03125 0.03125 0.13496 0.13496 0 0 0 0 0.03125 0.13496 0.13496 0 0 0 0 0.03125v5.8438a0.13496 0.13496 0 0 0 0 0.03125 0.13496 0.13496 0 0 0 0 0.03125 0.13496 0.13496 0 0 0 0.03125 0.03125 0.13496 0.13496 0 0 0 0.03125 0.03125 0.13496 0.13496 0 0 0 0.03125 0 0.13496 0.13496 0 0 0 0.03125 0h6.0938a0.13496 0.13496 0 0 0 0.03125 0 0.13496 0.13496 0 0 0 0.03125 0 0.13496 0.13496 0 0 0 0.03125 -0.03125 0.13496 0.13496 0 0 0 0.03125 -0.03125 0.13496 0.13496 0 0 0 0 -0.03125 0.13496 0.13496 0 0 0 0 -0.03125v-5.8438a0.13496 0.13496 0 0 0 0 -0.03125 0.13496 0.13496 0 0 0 0 -0.03125 0.13496 0.13496 0 0 0 -0.03125 -0.03125 0.13496 0.13496 0 0 0 -0.03125 -0.03125 0.13496 0.13496 0 0 0 -0.03125 0 0.13496 0.13496 0 0 0 -0.03125 0h-6.0938a0.13496 0.13496 0 0 0 -0.03125 0 0.13496 0.13496 0 0 0 -0.03125 0z" stroke-opacity=".78613" xlink:href="#text2215" transform="matrix(2.3255 0 0 2.2853 130.97 -74.807)" stroke="#fff" stroke-width="1.0995px" fill="url(#radialGradient2437)"/>
 </g>
</svg>
