<?xml version="1.0" encoding="UTF-8" standalone="no"?>
<!-- Created with Inkscape (http://www.inkscape.org/) -->
<svg id="svg7854" xmlns:rdf="http://www.w3.org/1999/02/22-rdf-syntax-ns#" xmlns="http://www.w3.org/2000/svg" height="180" width="180" version="1.0" xmlns:cc="http://creativecommons.org/ns#" xmlns:xlink="http://www.w3.org/1999/xlink" xmlns:dc="http://purl.org/dc/elements/1.1/">
 <defs id="defs7856">
  <filter id="filter5201" width="1.2008" y="-.90361" x="-.10040" height="2.8072" color-interpolation-filters="sRGB">
   <feGaussianBlur id="feGaussianBlur5203" stdDeviation="1.7884036"/>
  </filter>
  <linearGradient id="linearGradient5221" x1="29.456" gradientUnits="userSpaceOnUse" y1="43.948" gradientTransform="matrix(2.8506 0 0 2.8506 11.548 -102.59)" x2="28.444" y2="15.222">
   <stop id="stop5207" stop-color="#f56e6e" offset="0"/>
   <stop id="stop5209" stop-color="#ff2929" offset="1"/>
  </linearGradient>
  <linearGradient id="linearGradient5229" y2="70.744" gradientUnits="userSpaceOnUse" y1="10.619" gradientTransform="matrix(1.0001159,0,0,0.97642294,-0.00927008,-1.8975077)" x2="26.878" x1="24">
   <stop id="stop5225" stop-color="#fff" offset="0"/>
   <stop id="stop5227" stop-color="#fff" stop-opacity="0" offset="1"/>
  </linearGradient>
  <radialGradient id="radialGradient5245" gradientUnits="userSpaceOnUse" cy="23.839" cx="17.125" gradientTransform="matrix(-4.8005e-7 -15.822 7.3407 -5.8748e-7 -150.99 303.01)" r="2">
   <stop id="stop5241" stop-color="#fff" offset="0"/>
   <stop id="stop5243" stop-color="#fff" stop-opacity="0" offset="1"/>
  </radialGradient>
 </defs>
 <metadata id="metadata7859">
  <rdf:RDF>
   <cc:Work rdf:about="">
    <dc:format>image/svg+xml</dc:format>
    <dc:type rdf:resource="http://purl.org/dc/dcmitype/StillImage"/>
    <dc:creator>
     <cc:Agent>
      <dc:title>Jakub Steiner</dc:title>
     </cc:Agent>
    </dc:creator>
    <dc:source>http://jimmac.musichall.cz</dc:source>
    <cc:license rdf:resource="http://creativecommons.org/licenses/publicdomain/"/>
    <dc:title/>
   </cc:Work>
   <cc:License rdf:about="http://creativecommons.org/licenses/publicdomain/">
    <cc:permits rdf:resource="http://creativecommons.org/ns#Reproduction"/>
    <cc:permits rdf:resource="http://creativecommons.org/ns#Distribution"/>
    <cc:permits rdf:resource="http://creativecommons.org/ns#DerivativeWorks"/>
   </cc:License>
  </rdf:RDF>
 </metadata>
 <g id="layer1" transform="translate(11.917 123.21)">
  <rect id="rect5127" opacity="0.50602" style="color:#000000;" rx="2.5" ry="2.5" transform="matrix(2.8506 0 0 2.8506 11.548 -102.59)" filter="url(#filter5201)" width="42.75" y="37.75" x="2.375" height="4.75"/>
  <path id="path4547" stroke-linejoin="round" style="color:#000000;" d="m129.85,7.1544h-99.771l49.886-88.369,49.886,88.369z" stroke="#a40000" stroke-linecap="round" stroke-width="14.253" fill="url(#linearGradient5221)"/>
  <path id="path5219" opacity="0.59639001" stroke-linejoin="round" style="color:#000000;" d="m79.812-80.225a1.008,0.98414,0,0,0,-0.71883,0.48821l-49.911,86.291a1.008,0.98414,0,0,0,0.8751,1.4646h99.793a1.008,0.98414,0,0,0,0.87511,-1.4646l-49.886-86.291a1.008,0.98414,0,0,0,-1.0313,-0.48821z" xlink:href="#path4547" stroke="url(#linearGradient5229)" stroke-linecap="round" stroke-width="0.98819846" fill="none"/>
  <g id="g5235" fill="url(#radialGradient5245)" transform="matrix(2.8506 0 0 2.8506 11.548 -102.59)">
   <path id="path5231" style="color:#000000;" transform="matrix(.65196 0 0 .65196 9.1495 10.638)" d="m25.721,31.295c0,1.6597-1.3455,3.0052-3.0052,3.0052s-3.0052-1.3455-3.0052-3.0052,1.3455-3.0052,3.0052-3.0052,3.0052,1.3455,3.0052,3.0052z"/>
   <path id="path5233" style="color:#000000;" d="m23,28h2l1-9h-4l1,9z"/>
  </g>
 </g>
</svg>
