<?xml version="1.0" encoding="UTF-8" standalone="no"?>
<!-- Created with Inkscape (http://www.inkscape.org/) -->

<svg
   xmlns:dc="http://purl.org/dc/elements/1.1/"
   xmlns:cc="http://creativecommons.org/ns#"
   xmlns:rdf="http://www.w3.org/1999/02/22-rdf-syntax-ns#"
   xmlns:svg="http://www.w3.org/2000/svg"
   xmlns="http://www.w3.org/2000/svg"
   xmlns:sodipodi="http://sodipodi.sourceforge.net/DTD/sodipodi-0.dtd"
   xmlns:inkscape="http://www.inkscape.org/namespaces/inkscape"
   version="1.0"
   width="420"
   height="270"
   id="svg1910"
   inkscape:version="0.48.0 r9654"
   sodipodi:docname="switch_to_linux.choose_a_distribution.fedora.svg"
   inkscape:export-filename="/home/serrano/public_html/getgnulinux/_style/switch_to_linux.choose_a_distribution.fedora.png"
   inkscape:export-xdpi="30"
   inkscape:export-ydpi="30">
  <metadata
     id="metadata22">
    <rdf:RDF>
      <cc:Work
         rdf:about="">
        <dc:format>image/svg+xml</dc:format>
        <dc:type
           rdf:resource="http://purl.org/dc/dcmitype/StillImage" />
        <dc:title></dc:title>
      </cc:Work>
    </rdf:RDF>
  </metadata>
  <sodipodi:namedview
     pagecolor="#ffffff"
     bordercolor="#666666"
     borderopacity="1"
     objecttolerance="10"
     gridtolerance="10"
     guidetolerance="10"
     inkscape:pageopacity="0"
     inkscape:pageshadow="2"
     inkscape:window-width="1366"
     inkscape:window-height="718"
     id="namedview20"
     showgrid="false"
     inkscape:zoom="1.3138182"
     inkscape:cx="186.0988"
     inkscape:cy="147.88831"
     inkscape:window-x="0"
     inkscape:window-y="25"
     inkscape:window-maximized="1"
     inkscape:current-layer="svg1910">
    <inkscape:grid
       type="xygrid"
       id="grid2999"
       empspacing="5"
       visible="true"
       enabled="true"
       snapvisiblegridlinesonly="true" />
  </sodipodi:namedview>
  <defs
     id="defs1912" />
  <g
     transform="matrix(1.074698,0,0,1.074698,-240.86524,-373.69981)"
     id="layer1">
    <g
       transform="matrix(0.465247,0,0,0.465247,233.4286,400.6678)"
       id="g3">
      <g
         id="g5">
        <g
           id="g7">
          <path
             d="m 186.445,193.993 c 0,0 0,0 -76.259,0 1.234,16.53 14.56,28.874 32.328,28.874 12.588,0 23.444,-5.183 32.084,-13.572 1.729,-1.733 3.701,-2.226 5.922,-2.226 2.962,0 5.924,1.485 7.899,3.952 1.236,1.726 1.977,3.703 1.977,5.676 0,2.716 -1.236,5.676 -3.459,7.899 -10.364,11.103 -27.886,18.507 -45.165,18.507 -31.34,0 -56.513,-25.173 -56.513,-56.516 0,-31.34 24.432,-56.513 55.775,-56.513 31.094,0 54.292,24.183 54.292,56.019 0.001,4.689 -4.19,7.9 -8.881,7.9 m -45.41,-43.684 c -16.535,0 -27.889,10.859 -30.356,26.65 37.265,0 60.709,0 60.709,0 -2.221,-15.05 -14.065,-26.65 -30.353,-26.65 z"
             style="fill:#416fb2"
             id="path9"
             inkscape:connector-curvature="0" />
          <path
             d="m 404.355,243.103 c -31.341,0 -56.513,-25.173 -56.513,-56.516 0,-31.34 25.172,-56.513 56.513,-56.513 31.346,0 56.516,25.173 56.516,56.513 0,31.343 -25.17,56.516 -56.516,56.516 m 0,-91.563 c -19.741,0 -32.577,15.801 -32.577,35.046 0,19.249 12.836,35.044 32.577,35.044 19.743,0 32.582,-15.796 32.582,-35.044 0,-19.245 -12.839,-35.046 -32.582,-35.046 z"
             style="fill:#416fb2"
             id="path11"
             inkscape:connector-curvature="0" />
          <path
             d="m 542.472,130.073 c -16.557,0 -27.511,4.897 -37.181,17.189 l -0.893,-5.715 c -0.751,-5.969 -5.842,-10.581 -12.005,-10.581 -6.69,0 -12.115,5.417 -12.115,12.107 l 0,0.027 0,0.01 0,86.912 c 0,6.663 5.429,12.092 12.095,12.092 6.663,0 12.093,-5.429 12.093,-12.092 l 0,-46.642 c 0,-21.223 18.509,-31.841 38.006,-31.841 5.924,0 10.61,-4.935 10.61,-10.856 0,-5.921 -4.686,-10.61 -10.61,-10.61"
             style="fill:#416fb2"
             id="path13"
             inkscape:connector-curvature="0" />
          <path
             d="m 670.063,186.586 c 0.246,-30.353 -21.471,-56.513 -56.516,-56.513 -31.346,0 -56.764,25.173 -56.764,56.513 0,31.343 24.68,56.516 54.543,56.516 14.903,0 28.316,-7.67 34.303,-15.687 l 2.945,7.479 c 1.58,4.204 5.633,7.193 10.389,7.193 6.125,0 11.093,-4.962 11.1,-11.083 l 0,-28.988 0,-15.43 m -56.516,35.045 c -19.745,0 -32.577,-15.796 -32.577,-35.044 0,-19.246 12.832,-35.046 32.577,-35.046 19.741,0 32.577,15.801 32.577,35.046 10e-4,19.248 -12.836,35.044 -32.577,35.044 z"
             style="fill:#416fb2"
             id="path15"
             inkscape:connector-curvature="0" />
          <g
             id="g17">
            <path
               d="m 328.435,85.399 c 0,-6.658 -5.43,-11.844 -12.093,-11.844 -6.663,0 -12.098,5.186 -12.098,11.844 l 0,63.674 c -6.166,-11.349 -19.492,-19 -35.288,-19 -32.082,0 -53.554,24.183 -53.554,56.513 0,32.33 22.213,56.516 53.554,56.516 13.98,0 26.1,-5.771 33.363,-15.799 l 2.684,6.81 c 1.664,4.676 6.124,8.019 11.364,8.019 6.633,0 12.068,-5.397 12.068,-12.058 l 0,-0.052 0,-144.623 m -56.519,136.232 c -19.743,0 -32.328,-15.796 -32.328,-35.044 0,-19.246 12.585,-35.046 32.328,-35.046 19.746,0 32.328,15.057 32.328,35.046 0,19.989 -12.582,35.044 -32.328,35.044 z"
               style="fill:#416fb2"
               id="path19"
               inkscape:connector-curvature="0" />
            <path
               d="m 76.697,74.286 c -2.204,-0.328 -4.455,-0.492 -6.686,-0.492 -24.994,0 -45.329,20.333 -45.329,45.329 l 0,14.159 -14.808,0 c -5.429,0 -9.874,4.442 -9.874,9.867 0,5.432 4.445,10.909 9.874,10.909 l 14.806,0 0,75.965 c 0,6.663 5.432,12.092 12.092,12.092 6.666,0 12.098,-5.429 12.098,-12.092 l 0,-75.965 16.371,0 c 5.43,0 9.869,-5.477 9.869,-10.909 0,-5.425 -4.439,-9.867 -9.869,-9.867 l -16.363,0 0,-14.159 c 0,-11.655 9.479,-22.703 21.133,-22.703 1.049,0 2.106,0.077 3.141,0.229 6.611,0.98 12.762,-2.017 13.742,-8.625 0.972,-6.609 -3.589,-12.76 -10.197,-13.738"
               style="fill:#416fb2"
               id="path21"
               inkscape:connector-curvature="0" />
          </g>
          <path
             d="m 675.293,227.421 0,3.698 -0.753,0 0,-3.698 -1.264,0 0,-0.744 3.28,0 0,0.744 -1.263,0 m 5.256,3.698 0,-2.345 0,-0.505 -0.18,0.438 -1.106,2.549 -1.084,-2.549 -0.177,-0.428 0.01,0.495 0,2.345 -0.724,0 0,-4.442 0.756,0 1.005,2.3 0.236,0.609 0.236,-0.609 0.979,-2.3 0.767,0 0,4.442 -0.718,0 z"
             style="fill:#416fb2"
             id="path23"
             inkscape:connector-curvature="0" />
          <path
             d="M 800,67.708 C 800,30.313 769.684,0 732.29,0 694.913,0 664.612,30.289 664.584,67.661 l -0.002,-0.002 0,52.397 0.002,0.002 c 0.02,8.486 6.902,15.353 15.393,15.353 l 0.072,-0.002 0.005,0.002 52.266,0 C 769.699,135.396 800,105.095 800,67.708"
             style="fill:#31416e"
             id="path25"
             inkscape:connector-curvature="0" />
          <path
             d="m 752.169,16.049 c -17.55,0 -31.776,14.227 -31.776,31.776 l 0,0.022 0,16.821 -16.768,0 -0.006,0 c -17.549,0 -31.778,14.157 -31.778,31.707 0,17.552 14.229,31.778 31.778,31.778 17.553,0 31.779,-14.227 31.779,-31.778 l 0,-0.02 0,-16.893 16.763,0 0.008,0 c 17.552,0 31.778,-14.084 31.778,-31.637 10e-4,-17.549 -14.226,-31.776 -31.778,-31.776 m -31.776,80.356 c -0.015,9.25 -7.521,16.746 -16.773,16.746 -9.262,0 -16.843,-7.509 -16.843,-16.773 0,-9.264 7.581,-16.916 16.843,-16.916 l 0.022,0.003 14.371,0 0.013,-0.003 c 1.306,0 2.367,1.06 2.367,2.368 l 0,0.005 0,14.57 z m 31.776,-31.737 -0.018,0 -14.381,0 -0.005,0 c -1.311,0 -2.367,-1.06 -2.367,-2.37 l 0,0 0,-14.5 c 0.015,-9.252 7.519,-16.746 16.771,-16.746 9.265,0 16.843,7.508 16.843,16.773 0,9.263 -7.578,16.843 -16.843,16.843 z"
             style="fill:#416fb2"
             id="path27"
             inkscape:connector-curvature="0" />
          <path
             d="m 720.393,64.668 0,-16.82 0,-0.022 c 0,-17.549 14.227,-31.776 31.776,-31.776 2.664,0 4.557,0.299 7.023,0.943 3.592,0.942 6.526,3.887 6.529,7.317 0,4.141 -3.007,7.153 -7.501,7.153 -2.142,0 -2.915,-0.41 -6.052,-0.41 -9.252,0 -16.756,7.494 -16.771,16.746 l 0,14.5 0,0 c 0,1.311 1.057,2.37 2.367,2.37 l 0.005,0 11.016,0 c 4.104,0 7.42,3.283 7.422,7.399 0,4.116 -3.317,7.394 -7.422,7.394 l -13.388,0 0,16.893 0,0.022 c 0,17.549 -14.227,31.776 -31.779,31.776 -2.663,0 -4.554,-0.298 -7.019,-0.945 -3.597,-0.938 -6.531,-3.885 -6.531,-7.312 0,-4.144 3.007,-7.156 7.502,-7.156 2.139,0 2.917,0.411 6.048,0.411 9.253,0 16.759,-7.494 16.773,-16.746 l 0,-14.575 c 0,-1.306 -1.062,-2.365 -2.367,-2.365 l -0.008,0 -11.013,-0.003 c -4.106,0 -7.422,-3.275 -7.422,-7.389 -0.003,-4.144 3.351,-7.404 7.501,-7.404 l 13.311,0"
             style="fill:#ffffff"
             id="path29"
             inkscape:connector-curvature="0" />
          <path
             d="m 783.06,119.995 0,3.699 -0.756,0 0,-3.699 -1.262,0 0,-0.743 3.281,0 0,0.743 -1.263,0 m 5.255,3.699 0,-2.343 0,-0.51 -0.179,0.443 -1.106,2.547 -1.082,-2.547 -0.182,-0.433 0.01,0.5 0,2.343 -0.719,0 0,-4.442 0.756,0 1.003,2.298 0.236,0.612 0.236,-0.612 0.979,-2.298 0.769,0 0,4.442 -0.721,0 0,0 z"
             style="fill:#416fb2"
             id="path31"
             inkscape:connector-curvature="0" />
        </g>
      </g>
    </g>
  </g>
</svg>
