<?xml version="1.0" encoding="UTF-8" standalone="no"?>
<!-- Created with Inkscape (http://www.inkscape.org/) -->
<svg
   xmlns:dc="http://purl.org/dc/elements/1.1/"
   xmlns:cc="http://creativecommons.org/ns#"
   xmlns:rdf="http://www.w3.org/1999/02/22-rdf-syntax-ns#"
   xmlns:svg="http://www.w3.org/2000/svg"
   xmlns="http://www.w3.org/2000/svg"
   xmlns:xlink="http://www.w3.org/1999/xlink"
   xmlns:sodipodi="http://sodipodi.sourceforge.net/DTD/sodipodi-0.dtd"
   xmlns:inkscape="http://www.inkscape.org/namespaces/inkscape"
   width="120"
   height="120"
   id="svg2"
   sodipodi:version="0.32"
   inkscape:version="0.46"
   version="1.0"
   sodipodi:docname="trisquel-badge.svg"
   inkscape:output_extension="org.inkscape.output.svg.inkscape"
   inkscape:export-filename="/home/ru/Escritorio/trisquel_logo.png"
   inkscape:export-xdpi="90"
   inkscape:export-ydpi="90"
   style="display:inline">
  <defs
     id="defs4">
    <inkscape:perspective
       sodipodi:type="inkscape:persp3d"
       inkscape:vp_x="0 : 526.18109 : 1"
       inkscape:vp_y="0 : 1000 : 0"
       inkscape:vp_z="744.09448 : 526.18109 : 1"
       inkscape:persp3d-origin="372.04724 : 350.78739 : 1"
       id="perspective10" />
    <inkscape:perspective
       id="perspective2390"
       inkscape:persp3d-origin="372.04724 : 350.78739 : 1"
       inkscape:vp_z="744.09448 : 526.18109 : 1"
       inkscape:vp_y="0 : 1000 : 0"
       inkscape:vp_x="0 : 526.18109 : 1"
       sodipodi:type="inkscape:persp3d" />
    <filter
       height="2.2109375"
       y="-0.60546881"
       width="1.3314621"
       x="-0.1657311"
       id="filter3939"
       inkscape:collect="always">
      <feGaussianBlur
         id="feGaussianBlur3941"
         stdDeviation="8.2471965"
         inkscape:collect="always" />
    </filter>
    <linearGradient
       y2="15.465387"
       x2="21.795116"
       y1="50.395214"
       x1="29.854376"
       gradientUnits="userSpaceOnUse"
       id="linearGradient3533"
       xlink:href="#linearGradient8112"
       inkscape:collect="always" />
    <linearGradient
       y2="2.4395995"
       x2="25.368185"
       y1="43.542542"
       x1="33.111675"
       gradientUnits="userSpaceOnUse"
       id="linearGradient3531"
       xlink:href="#linearGradient8112"
       inkscape:collect="always" />
    <inkscape:perspective
       sodipodi:type="inkscape:persp3d"
       inkscape:vp_x="0 : 24 : 1"
       inkscape:vp_y="0 : 1000 : 0"
       inkscape:vp_z="48 : 24 : 1"
       inkscape:persp3d-origin="24 : 16 : 1"
       id="perspective2671" />
    <linearGradient
       inkscape:collect="always"
       id="linearGradient8112">
      <stop
         style="stop-color: rgb(255, 255, 255); stop-opacity: 1;"
         offset="0"
         id="stop8114" />
      <stop
         style="stop-color: rgb(255, 255, 255); stop-opacity: 0;"
         offset="1"
         id="stop8116" />
    </linearGradient>
    <linearGradient
       id="linearGradient7108">
      <stop
         style="stop-color: rgb(0, 0, 0); stop-opacity: 1;"
         offset="0"
         id="stop7110" />
      <stop
         style="stop-color: rgb(255, 255, 255); stop-opacity: 1;"
         offset="1"
         id="stop7112" />
    </linearGradient>
    <linearGradient
       id="linearGradient7100">
      <stop
         style="stop-color: rgb(0, 0, 0); stop-opacity: 1;"
         offset="0"
         id="stop7102" />
      <stop
         style="stop-color: rgb(255, 255, 255); stop-opacity: 1;"
         offset="1"
         id="stop7104" />
    </linearGradient>
    <linearGradient
       id="linearGradient2804">
      <stop
         style="stop-color: black; stop-opacity: 0;"
         offset="0"
         id="stop2806" />
      <stop
         id="stop2812"
         offset="0.5"
         style="stop-color: black; stop-opacity: 1;" />
      <stop
         style="stop-color: black; stop-opacity: 0;"
         offset="1"
         id="stop2808" />
    </linearGradient>
    <linearGradient
       inkscape:collect="always"
       id="linearGradient2781">
      <stop
         style="stop-color: black; stop-opacity: 1;"
         offset="0"
         id="stop2783" />
      <stop
         style="stop-color: black; stop-opacity: 0;"
         offset="1"
         id="stop2785" />
    </linearGradient>
    <linearGradient
       inkscape:collect="always"
       id="linearGradient2782">
      <stop
         style="stop-color: white; stop-opacity: 1;"
         offset="0"
         id="stop2784" />
      <stop
         style="stop-color: white; stop-opacity: 0;"
         offset="1"
         id="stop2786" />
    </linearGradient>
    <linearGradient
       id="linearGradient5106">
      <stop
         style="stop-color: rgb(114, 159, 207); stop-opacity: 1;"
         offset="0"
         id="stop5108" />
      <stop
         style="stop-color: rgb(56, 110, 166); stop-opacity: 1;"
         offset="1"
         id="stop5110" />
    </linearGradient>
    <linearGradient
       inkscape:collect="always"
       xlink:href="#linearGradient5106"
       id="linearGradient2780"
       gradientUnits="userSpaceOnUse"
       gradientTransform="matrix(3.13717,0,0,3.18412,-1.60668,-4.86106)"
       x1="8.1771841"
       y1="5.7791729"
       x2="8.1771841"
       y2="15.676654" />
    <linearGradient
       inkscape:collect="always"
       xlink:href="#linearGradient2782"
       id="linearGradient2788"
       x1="26.0625"
       y1="23.265625"
       x2="29.03125"
       y2="55.265625"
       gradientUnits="userSpaceOnUse" />
    <radialGradient
       inkscape:collect="always"
       xlink:href="#linearGradient2781"
       id="radialGradient2827"
       gradientUnits="userSpaceOnUse"
       gradientTransform="matrix(2,0,0,0.8,-13,-79.2)"
       cx="1"
       cy="44"
       fx="1"
       fy="44"
       r="5" />
    <radialGradient
       inkscape:collect="always"
       xlink:href="#linearGradient2781"
       id="radialGradient2829"
       gradientUnits="userSpaceOnUse"
       gradientTransform="matrix(2,0,0,0.8,36,8.8)"
       cx="1"
       cy="44"
       fx="1"
       fy="44"
       r="5" />
    <linearGradient
       inkscape:collect="always"
       xlink:href="#linearGradient2804"
       id="linearGradient2831"
       gradientUnits="userSpaceOnUse"
       x1="21.875"
       y1="48.000977"
       x2="21.875"
       y2="40" />
    <linearGradient
       inkscape:collect="always"
       xlink:href="#linearGradient5106"
       id="linearGradient8141"
       gradientUnits="userSpaceOnUse"
       gradientTransform="matrix(3.30877,0,0,3.35829,-5.96997,-6.33588)"
       x1="8.1771841"
       y1="5.7791729"
       x2="8.1771841"
       y2="15.676654" />
    <linearGradient
       inkscape:collect="always"
       xlink:href="#linearGradient2782"
       id="linearGradient15953"
       x1="77.297218"
       y1="16.647184"
       x2="77.480881"
       y2="52.45615"
       gradientUnits="userSpaceOnUse"
       gradientTransform="translate(-0.860148,-1.86342)" />
    <radialGradient
       inkscape:collect="always"
       xlink:href="#linearGradient2781"
       id="radialGradient19858"
       cx="73.570084"
       cy="23.145077"
       fx="73.570084"
       fy="23.145077"
       r="20.928947"
       gradientTransform="matrix(1,0,0,0.988712,-0.422072,11.2351)"
       gradientUnits="userSpaceOnUse" />
    <radialGradient
       inkscape:collect="always"
       xlink:href="#linearGradient2781"
       id="radialGradient19868"
       gradientUnits="userSpaceOnUse"
       gradientTransform="matrix(2,0,0,0.8,-25.2401,-80.9291)"
       cx="1"
       cy="44"
       fx="1"
       fy="44"
       r="5" />
    <radialGradient
       inkscape:collect="always"
       xlink:href="#linearGradient2781"
       id="radialGradient19870"
       gradientUnits="userSpaceOnUse"
       gradientTransform="matrix(2,0,0,0.8,21.2275,10.5291)"
       cx="1"
       cy="44"
       fx="1"
       fy="44"
       r="5" />
    <linearGradient
       inkscape:collect="always"
       xlink:href="#linearGradient2804"
       id="linearGradient19872"
       gradientUnits="userSpaceOnUse"
       x1="21.875"
       y1="48.000977"
       x2="21.875"
       y2="40"
       gradientTransform="matrix(1,0,0,0.148144,0,40.8891)" />
    <linearGradient
       inkscape:collect="always"
       xlink:href="#linearGradient8112"
       id="linearGradient8118"
       x1="33.111675"
       y1="43.542542"
       x2="25.368185"
       y2="2.4395995"
       gradientUnits="userSpaceOnUse" />
    <linearGradient
       inkscape:collect="always"
       xlink:href="#linearGradient8112"
       id="linearGradient8126"
       x1="29.854376"
       y1="50.395214"
       x2="21.795116"
       y2="15.465387"
       gradientUnits="userSpaceOnUse" />
    <inkscape:perspective
       sodipodi:type="inkscape:persp3d"
       inkscape:vp_x="0 : 526.18109 : 1"
       inkscape:vp_y="0 : 1000 : 0"
       inkscape:vp_z="744.09448 : 526.18109 : 1"
       inkscape:persp3d-origin="372.04724 : 350.78739 : 1"
       id="perspective2466" />
    <inkscape:perspective
       sodipodi:type="inkscape:persp3d"
       inkscape:vp_x="0 : 526.18109 : 1"
       inkscape:vp_y="0 : 1000 : 0"
       inkscape:vp_z="744.09448 : 526.18109 : 1"
       inkscape:persp3d-origin="372.04724 : 350.78739 : 1"
       id="perspective2494" />
    <linearGradient
       y2="-863.40924"
       x2="1178.7058"
       y1="-863.40924"
       x1="-9.0727692"
       gradientUnits="userSpaceOnUse"
       id="linearGradient3234"
       xlink:href="#linearGradient3328"
       inkscape:collect="always" />
    <inkscape:perspective
       sodipodi:type="inkscape:persp3d"
       inkscape:vp_x="0 : 526.18109 : 1"
       inkscape:vp_y="0 : 1000 : 0"
       inkscape:vp_z="744.09448 : 526.18109 : 1"
       inkscape:persp3d-origin="372.04724 : 350.78739 : 1"
       id="perspective3203" />
    <inkscape:perspective
       sodipodi:type="inkscape:persp3d"
       inkscape:vp_x="0 : 526.18109 : 1"
       inkscape:vp_y="0 : 1000 : 0"
       inkscape:vp_z="744.09448 : 526.18109 : 1"
       inkscape:persp3d-origin="372.04724 : 350.78739 : 1"
       id="perspective2492" />
    <inkscape:perspective
       sodipodi:type="inkscape:persp3d"
       inkscape:vp_x="0 : 526.18109 : 1"
       inkscape:vp_y="0 : 1000 : 0"
       inkscape:vp_z="744.09448 : 526.18109 : 1"
       inkscape:persp3d-origin="372.04724 : 350.78739 : 1"
       id="perspective3317" />
    <inkscape:perspective
       sodipodi:type="inkscape:persp3d"
       inkscape:vp_x="0 : 526.18109 : 1"
       inkscape:vp_y="0 : 1000 : 0"
       inkscape:vp_z="744.09448 : 526.18109 : 1"
       inkscape:persp3d-origin="372.04724 : 350.78739 : 1"
       id="perspective3266" />
    <inkscape:perspective
       sodipodi:type="inkscape:persp3d"
       inkscape:vp_x="0 : 526.18109 : 1"
       inkscape:vp_y="0 : 1000 : 0"
       inkscape:vp_z="744.09448 : 526.18109 : 1"
       inkscape:persp3d-origin="372.04724 : 350.78739 : 1"
       id="perspective2535" />
    <inkscape:perspective
       sodipodi:type="inkscape:persp3d"
       inkscape:vp_x="0 : 526.18109 : 1"
       inkscape:vp_y="0 : 1000 : 0"
       inkscape:vp_z="744.09448 : 526.18109 : 1"
       inkscape:persp3d-origin="372.04724 : 350.78739 : 1"
       id="perspective2482" />
    <inkscape:perspective
       sodipodi:type="inkscape:persp3d"
       inkscape:vp_x="0 : 526.18109 : 1"
       inkscape:vp_y="0 : 1000 : 0"
       inkscape:vp_z="744.09448 : 526.18109 : 1"
       inkscape:persp3d-origin="372.04724 : 350.78739 : 1"
       id="perspective2420" />
    <radialGradient
       gradientUnits="userSpaceOnUse"
       gradientTransform="matrix(1,0,0,0.619926,0,214.699)"
       r="194.26131"
       fy="564.88666"
       fx="855.17987"
       cy="564.88666"
       cx="855.17987"
       id="radialGradient3403"
       xlink:href="#linearGradient3397"
       inkscape:collect="always" />
    <linearGradient
       spreadMethod="reflect"
       gradientUnits="userSpaceOnUse"
       y2="414.10834"
       x2="757.67969"
       y1="414.10834"
       x1="666.64209"
       id="linearGradient3325"
       xlink:href="#linearGradient3317"
       inkscape:collect="always" />
    <radialGradient
       r="124.72867"
       fy="407.18372"
       fx="184.9425"
       cy="407.18372"
       cx="184.9425"
       gradientTransform="matrix(1,0,0,3.8046,0,-1141.99)"
       gradientUnits="userSpaceOnUse"
       id="radialGradient3295"
       xlink:href="#linearGradient3297"
       inkscape:collect="always" />
    <radialGradient
       gradientUnits="userSpaceOnUse"
       gradientTransform="matrix(1,0,0,3.8046,0,-1141.99)"
       r="124.72867"
       fy="407.18372"
       fx="184.9425"
       cy="407.18372"
       cx="184.9425"
       id="radialGradient3271"
       xlink:href="#linearGradient3263"
       inkscape:collect="always" />
    <inkscape:perspective
       id="perspective2938"
       inkscape:persp3d-origin="372.04724 : 350.78739 : 1"
       inkscape:vp_z="744.09448 : 526.18109 : 1"
       inkscape:vp_y="0 : 1000 : 0"
       inkscape:vp_x="0 : 526.18109 : 1"
       sodipodi:type="inkscape:persp3d" />
    <linearGradient
       id="linearGradient3175">
      <stop
         id="stop3177"
         offset="0"
         style="stop-color: rgb(0, 69, 0); stop-opacity: 1;" />
      <stop
         style="stop-color: rgb(56, 127, 0); stop-opacity: 1;"
         offset="0.5"
         id="stop3433" />
      <stop
         id="stop3179"
         offset="1"
         style="stop-color: rgb(155, 199, 0); stop-opacity: 1;" />
    </linearGradient>
    <linearGradient
       id="linearGradient3263"
       inkscape:collect="always">
      <stop
         id="stop3265"
         offset="0"
         style="stop-color: rgb(255, 243, 0); stop-opacity: 1;" />
      <stop
         id="stop3267"
         offset="1"
         style="stop-color: rgb(255, 243, 0); stop-opacity: 0;" />
    </linearGradient>
    <linearGradient
       id="linearGradient3297">
      <stop
         style="stop-color: rgb(0, 0, 0); stop-opacity: 0.431507;"
         offset="0"
         id="stop3299" />
      <stop
         style="stop-color: rgb(255, 243, 0); stop-opacity: 0;"
         offset="1"
         id="stop3301" />
    </linearGradient>
    <linearGradient
       id="linearGradient3307">
      <stop
         id="stop3309"
         offset="0"
         style="stop-color: rgb(0, 149, 255); stop-opacity: 1;" />
      <stop
         id="stop3311"
         offset="1"
         style="stop-color: rgb(19, 62, 88); stop-opacity: 0;" />
    </linearGradient>
    <linearGradient
       id="linearGradient3317">
      <stop
         id="stop3319"
         offset="0"
         style="stop-color: rgb(218, 255, 0); stop-opacity: 0.603922;" />
      <stop
         id="stop3321"
         offset="1"
         style="stop-color: rgb(255, 243, 0); stop-opacity: 0;" />
    </linearGradient>
    <linearGradient
       id="linearGradient3349">
      <stop
         id="stop3351"
         offset="0"
         style="stop-color: rgb(19, 107, 6); stop-opacity: 1;" />
      <stop
         id="stop3353"
         offset="1"
         style="stop-color: rgb(0, 0, 0); stop-opacity: 0;" />
    </linearGradient>
    <linearGradient
       id="linearGradient3397">
      <stop
         id="stop3399"
         offset="0"
         style="stop-color: rgb(33, 92, 33); stop-opacity: 1;" />
      <stop
         id="stop3401"
         offset="1"
         style="stop-color: rgb(33, 92, 33); stop-opacity: 0;" />
    </linearGradient>
    <linearGradient
       id="linearGradient3328">
      <stop
         style="stop-color: rgb(25, 55, 127); stop-opacity: 1;"
         offset="0"
         id="stop3330" />
      <stop
         id="stop3332"
         offset="0.5"
         style="stop-color: rgb(51, 101, 162); stop-opacity: 1;" />
      <stop
         style="stop-color: rgb(93, 157, 203); stop-opacity: 1;"
         offset="1"
         id="stop3334" />
    </linearGradient>
    <filter
       height="1.20925"
       y="-0.104625"
       width="1.0572767"
       x="-0.028638335"
       id="filter3490"
       inkscape:collect="always">
      <feGaussianBlur
         id="feGaussianBlur3492"
         stdDeviation="1.4251155"
         inkscape:collect="always" />
    </filter>
  </defs>
  <sodipodi:namedview
     id="base"
     pagecolor="#ffffff"
     bordercolor="#666666"
     borderopacity="1.0"
     inkscape:pageopacity="0.0"
     inkscape:pageshadow="2"
     inkscape:zoom="1"
     inkscape:cx="-45"
     inkscape:cy="4"
     inkscape:document-units="px"
     inkscape:current-layer="layer1"
     showgrid="false"
     inkscape:window-width="1024"
     inkscape:window-height="702"
     inkscape:window-x="0"
     inkscape:window-y="0" />
  <metadata
     id="metadata7">
    <rdf:RDF>
      <cc:Work
         rdf:about="">
        <dc:format>image/svg+xml</dc:format>
        <dc:type
           rdf:resource="http://purl.org/dc/dcmitype/StillImage" />
      </cc:Work>
    </rdf:RDF>
  </metadata>
  <g
     inkscape:label="layer 1"
     inkscape:groupmode="layer"
     id="layer1"
     style="display:inline">
    <g
       style="display:inline"
       id="g2996"
       transform="matrix(0.4719459,0,0,0.4549383,-2.5995727,-12.178716)">
      <g
         transform="matrix(4.17736,0,0,4.17736,28.3674,21.0493)"
         id="g2712"
         inkscape:label="Layer 1"
         style="opacity:1">
        <path
           style="opacity:0.50211002;fill:none;fill-opacity:1;fill-rule:nonzero;stroke:#002568;stroke-width:1.5;stroke-linecap:butt;stroke-linejoin:round;marker:none;stroke-miterlimit:4;stroke-dasharray:none;stroke-dashoffset:0;stroke-opacity:1;visibility:visible;display:inline;overflow:visible"
           d="M 27.865252,43.710325 C 26.7523,43.559574 25.528128,43.260721 24.984834,43.007141 C 23.729072,42.421025 22.527464,41.588657 22.099265,41.008269 C 21.987069,40.856188 21.708587,40.584686 21.48041,40.40493 C 20.573319,39.6903 20.043433,38.937914 18.962163,36.829248 C 18.839315,36.589669 18.455491,34.649803 18.314215,33.554466 C 18.202578,32.688891 18.211551,30.95955 18.331798,30.167998 C 18.481007,29.185828 18.785785,27.894123 18.933434,27.618255 C 19.057686,27.386074 19.366431,26.386017 19.462397,25.904819 C 19.498656,25.723021 19.579991,25.510531 19.643144,25.432618 C 19.706285,25.354706 19.83661,25.014721 19.932745,24.677098 C 20.02888,24.339474 20.252974,23.768981 20.430743,23.409334 C 20.828873,22.603849 21.015979,22.003695 21.017319,21.52789 C 21.017891,21.328116 21.088172,20.924475 21.173512,20.630911 C 21.382481,19.912098 21.301926,17.888042 21.033875,17.12189 C 20.83029,16.540022 20.333125,15.562835 19.810743,14.717814 C 18.728406,12.966979 15.634741,10.812832 13.793677,10.528073 C 13.087934,10.418916 10.752098,10.539702 9.7480274,10.737275 C 8.8884056,10.906423 8.0786986,11.282622 7.6635966,11.705726 C 6.5988686,12.790955 5.9766196,13.524099 5.7314576,13.982182 C 5.3778186,14.642977 5.1585236,15.656594 5.0983486,16.908603 C 5.0299796,18.331422 5.0894266,18.628854 5.7204416,20.020519 C 6.2529686,21.194971 7.6850556,22.381515 9.2605514,22.953637 C 9.9959594,23.220692 10.275976,23.270228 11.338232,23.321185 C 12.803145,23.391458 13.427501,23.285267 14.084124,22.854166 C 14.339911,22.686228 14.740447,22.436504 14.974178,22.299224 C 16.04109,21.672611 16.59834,20.490871 16.593801,18.864534 C 16.590992,17.85647 16.231747,16.94564 15.622945,16.403001 C 15.244375,16.06557 13.908722,15.261921 13.520606,15.138043 C 12.844423,14.922222 11.972109,15.059121 11.04127,15.527141 C 10.588128,15.754977 10.136858,16.05164 10.038435,16.186392 C 9.9400244,16.321145 9.7171274,16.809872 9.5431294,17.272453 C 9.3691194,17.735035 9.1918574,18.113511 9.1492134,18.113511 C 8.9800146,18.113511 9.0234006,17.379877 9.2259054,16.816439 C 9.5155974,16.010463 9.8065384,15.591111 10.380343,15.152533 C 11.027198,14.658109 11.6614,14.413642 12.518733,14.328241 C 13.633427,14.217204 13.808009,14.248438 14.77218,14.7314 C 15.893897,15.293269 16.232905,15.624684 16.786669,16.700746 C 17.4477,17.985239 17.528671,18.338725 17.382115,19.300194 C 17.215556,20.392855 16.84107,21.496969 16.405147,22.18059 C 16.00768,22.803906 15.266679,23.371713 13.935344,24.073129 C 12.980497,24.576186 12.654469,24.66401 11.385454,24.759991 C 9.9967144,24.865029 9.1871364,24.774851 8.1272736,24.397069 C 7.6597996,24.230438 7.0783856,24.0372 6.8352526,23.967655 C 6.5111746,23.874948 6.0919106,23.587263 5.2641526,22.889584 C 3.8434836,21.692172 3.6152156,21.305014 3.3391006,19.624553 C 3.2366846,19.001248 3.1394956,18.185884 3.1231226,17.812633 C 3.1067486,17.439382 3.0668616,17.091114 3.0344656,17.038703 C 2.9667076,16.929077 3.1239416,15.030228 3.2817346,14.052588 C 3.4118126,13.246633 3.4713126,13.124085 4.4009416,11.747422 C 4.9526506,10.930431 5.3154056,10.507273 5.8309736,10.079278 C 7.4980266,8.6954081 8.5871266,8.1216071 10.480314,7.6297481 C 11.792961,7.2887151 11.796408,7.2883641 13.407954,7.3311771 C 15.112281,7.3764561 16.019463,7.4829001 16.632101,7.7094841 C 20.775083,9.2417481 22.409311,10.583236 24.531964,14.194247 C 25.210748,15.348979 25.858774,16.174444 27.030067,17.376348 C 27.892003,18.260815 28.167845,18.482637 28.718319,18.733996 C 29.605511,19.139111 30.64337,19.286629 32.634775,19.290663 C 34.531267,19.294506 35.24891,19.150897 36.075667,18.602099 C 36.338608,18.427562 36.7657,18.19103 37.024765,18.076472 C 37.28383,17.961914 37.581312,17.791309 37.685848,17.697351 C 37.790372,17.603392 38.109638,17.403791 38.395324,17.253795 C 39.051349,16.909346 39.816994,16.142007 40.096594,15.548757 C 40.433327,14.834256 40.948452,13.985557 41.233995,13.674826 C 41.428645,13.463014 41.518342,13.233704 41.589377,12.766272 C 41.641645,12.422394 41.773545,11.966296 41.882503,11.752721 C 42.156315,11.216012 42.248926,10.082025 42.05031,9.6979491 C 41.969391,9.5414771 41.842277,9.0908641 41.767835,8.6965901 C 41.503555,7.2969551 40.118924,5.6645361 38.529903,4.8791951 C 37.953575,4.5943581 37.709154,4.5337141 36.8088,4.4521561 C 34.937642,4.2826601 33.567863,4.5714141 32.488895,5.3628081 C 31.469243,6.1106951 31.029002,6.4796321 31.029002,6.5862401 C 31.029002,6.6979181 30.559187,7.2467141 30.40951,7.3098651 C 30.202167,7.3973561 29.80128,8.0635601 29.80128,8.3206561 C 29.80128,8.4733441 29.718189,8.7860961 29.616644,9.0156601 C 29.229425,9.8910421 29.297313,10.600062 29.909067,12.069345 C 30.257088,12.905204 30.363692,13.100337 30.708774,13.533167 C 31.17141,14.11343 31.65778,14.382349 32.519301,14.534219 C 33.521785,14.710935 34.02371,14.698182 34.658237,14.479872 C 35.912815,14.048236 36.786223,13.311974 37.237713,12.305445 C 37.440829,11.852624 37.465838,11.682812 37.432753,10.981042 C 37.399486,10.275647 37.354878,10.106235 37.072143,9.6116611 C 36.894673,9.3012421 36.584537,8.8681371 36.382929,8.6492051 C 36.181322,8.4302731 36.031137,8.2068471 36.049188,8.1527011 C 36.101548,7.9956171 37.051361,8.6882651 37.35121,9.1022011 C 37.811076,9.7370281 37.958829,10.374588 37.891436,11.433409 C 37.817449,12.595841 37.500159,13.275339 36.602731,14.193221 C 35.910331,14.901399 35.214719,15.241951 34.054026,15.440988 C 33.109323,15.602985 31.909796,15.382364 31.152383,14.907313 C 30.234186,14.331414 29.662123,13.741134 29.14043,12.83131 C 28.711855,12.083857 28.6313,11.852613 28.4331,10.800805 C 28.196977,9.5477181 28.197445,8.5249951 28.434284,8.2445221 C 28.500077,8.1666091 28.603924,7.8580731 28.665062,7.5588871 C 28.7262,7.2597001 28.871638,6.8984671 28.988269,6.7561461 C 29.1049,6.6138251 29.336693,6.2107911 29.503381,5.8605141 C 29.748582,5.3452151 29.87805,5.1871101 30.181618,5.0322441 C 30.38796,4.9269711 30.556794,4.7985181 30.556794,4.7467911 C 30.556794,4.6950641 30.702232,4.5833921 30.879975,4.4986281 C 31.057731,4.4138641 31.223899,4.2652081 31.249246,4.1682781 C 31.27644,4.0642731 31.521368,3.8929111 31.846851,3.7501641 C 32.150199,3.6171301 32.629676,3.3999221 32.912385,3.2674821 C 33.19508,3.1350401 33.9813,2.8894491 34.659524,2.7217221 C 35.832001,2.4317641 35.948411,2.4200741 37.025936,2.4840731 C 38.108012,2.5483421 38.184353,2.5667871 38.715293,2.8922691 C 39.021124,3.0797561 39.42486,3.2828591 39.612474,3.3436111 C 39.800087,3.4043621 40.285847,3.6925841 40.691949,3.9841041 C 41.098051,4.2756221 41.572392,4.6000701 41.746039,4.7050981 C 41.919685,4.8101241 42.342044,5.1833271 42.684628,5.5344371 C 43.3956,6.2631311 44.141607,7.6218181 44.387069,8.6350591 C 44.467155,8.9656541 44.617483,9.5336291 44.721122,9.8972241 C 44.882348,10.462899 44.901336,10.728671 44.852618,11.738805 C 44.700912,14.884907 43.631008,17.306371 41.559062,19.193025 C 41.29936,19.429507 40.778291,19.9297 40.401139,20.304562 C 39.637951,21.063116 38.727336,21.689666 37.592588,22.237003 C 37.177044,22.437432 36.600937,22.72534 36.312324,22.8768 C 35.430242,23.339718 34.081181,23.543817 31.903463,23.543817 C 29.773422,23.543817 29.536922,23.576104 27.091686,24.200745 C 26.216952,24.424199 25.929679,24.545741 25.424828,24.906 C 24.571045,25.515246 23.585975,26.784368 22.816987,28.265822 C 22.695661,28.49956 22.520428,28.775798 22.427583,28.879682 C 22.11984,29.224044 21.881961,29.930261 21.86547,30.548536 C 21.824855,32.071311 21.887462,34.772345 21.971268,35.112728 C 22.101229,35.640558 22.343309,36.195772 22.588927,36.529329 C 22.907425,36.961845 23.439757,37.934425 23.563931,38.310676 C 23.630596,38.512654 23.854546,38.797292 24.1249,39.023645 C 24.372403,39.230868 24.696754,39.576241 24.845677,39.791138 C 25.169352,40.258195 26.339774,40.892787 27.040965,40.981404 C 27.286556,41.012442 27.574194,41.091634 27.680161,41.157384 C 27.786128,41.223135 28.10486,41.324977 28.388466,41.383695 C 29.003381,41.511013 30.395529,41.336387 31.198773,41.031183 C 31.692582,40.843549 32.857594,40.162642 33.477932,39.699101 C 33.94287,39.351679 34.57633,38.452154 34.762539,37.874956 C 34.850481,37.602339 34.974395,37.294294 35.037886,37.190409 C 35.364969,36.655305 35.441804,35.566903 35.285559,33.682166 C 35.225695,32.960096 35.148418,32.610822 34.972119,32.265565 C 34.843432,32.013533 34.639808,31.602477 34.519627,31.352108 C 34.151734,30.585679 32.38047,29.303583 31.669225,29.288892 C 31.550838,29.286447 31.168965,29.22516 30.820606,29.152697 C 30.151693,29.013554 29.175258,29.083726 28.771172,29.299983 C 28.274384,29.565859 27.639896,30.041136 27.233625,30.451716 C 26.872612,30.816565 26.746266,31.040395 26.549184,31.664268 C 26.322945,32.380418 26.312905,32.491835 26.39225,33.405577 C 26.48923,34.522389 26.679588,35.039064 27.210697,35.626937 C 27.634304,36.095822 27.995148,36.292776 28.951178,36.576927 C 29.645451,36.783278 30.301826,36.796757 30.91094,36.617169 C 31.268637,36.511709 31.146895,36.726166 30.746593,36.906676 C 30.18115,37.161656 28.845523,37.064157 27.964,36.703554 C 27.082257,36.342858 26.314309,35.631042 25.905567,34.795574 C 25.611258,34.194007 25.598695,34.121929 25.598695,33.035045 C 25.598695,31.954157 25.612168,31.875568 25.890169,31.335124 C 26.050472,31.023471 26.279663,30.577356 26.399468,30.343755 C 26.519272,30.110155 26.866968,29.678487 27.17211,29.384494 C 27.622534,28.950554 27.864367,28.802417 28.457173,28.597326 C 30.089034,28.032763 32.075158,28.179157 33.295559,28.953952 C 34.411579,29.662477 35.389965,30.486749 35.762175,31.032035 C 36.445914,32.033711 36.940192,33.217899 37.012124,34.026667 C 37.046783,34.416233 37.113656,35.107907 37.160748,35.563721 C 37.241459,36.345108 37.227712,36.466556 36.920021,37.688623 C 36.439515,39.597133 36.176679,40.104484 35.243331,40.925054 C 34.821336,41.29607 34.317876,41.680889 34.12454,41.78021 C 33.931191,41.879531 33.633709,42.080659 33.463457,42.227162 C 33.001835,42.624375 32.125853,43.092915 31.844848,43.092915 C 31.708878,43.092915 31.331569,43.194307 31.006373,43.31823 C 30.363991,43.563037 29.171617,43.855361 28.890586,43.836945 C 28.794126,43.830625 28.332726,43.773645 27.865252,43.710325 z"
           id="path12028" />
        <path
           style="opacity:1;fill:#004db1;fill-opacity:1;fill-rule:nonzero;stroke:none;stroke-width:1;stroke-linecap:butt;stroke-linejoin:miter;marker:none;stroke-miterlimit:0;stroke-dasharray:none;stroke-dashoffset:0;stroke-opacity:1;visibility:visible;display:inline;overflow:visible"
           d="M 27.865254,43.710325 C 26.752302,43.559574 25.52813,43.260721 24.984836,43.007141 C 23.729074,42.421025 22.527466,41.588657 22.099267,41.008269 C 21.987071,40.856188 21.708589,40.584686 21.480412,40.40493 C 20.573321,39.6903 20.043435,38.937914 18.962165,36.829248 C 18.839317,36.589669 18.455493,34.649803 18.314217,33.554466 C 18.20258,32.688891 18.211553,30.95955 18.3318,30.167998 C 18.481009,29.185828 18.785787,27.894123 18.933436,27.618255 C 19.057688,27.386074 19.366433,26.386017 19.462399,25.904819 C 19.498658,25.723021 19.579993,25.510531 19.643146,25.432618 C 19.706287,25.354706 19.836612,25.014721 19.932747,24.677098 C 20.028882,24.339474 20.252976,23.768981 20.430745,23.409334 C 20.828875,22.603849 21.015981,22.003695 21.017321,21.52789 C 21.017893,21.328116 21.088174,20.924475 21.173514,20.630911 C 21.382483,19.912098 21.301928,17.888042 21.033877,17.12189 C 20.830292,16.540022 20.333127,15.562835 19.810745,14.717814 C 18.728408,12.966978 15.634743,10.812831 13.793679,10.528072 C 13.087936,10.418915 10.7521,10.539701 9.7480294,10.737274 C 8.8884076,10.906422 8.0787006,11.282621 7.6635986,11.705725 C 6.5988706,12.790954 5.9766216,13.524098 5.7314596,13.982182 C 5.3778206,14.642977 5.1585256,15.656594 5.0983506,16.908603 C 5.0299816,18.331422 5.0894286,18.628854 5.7204436,20.020519 C 6.2529706,21.194971 7.6850576,22.381515 9.2605534,22.953637 C 9.9959614,23.220692 10.275978,23.270228 11.338234,23.321185 C 12.803147,23.391458 13.427503,23.285267 14.084126,22.854166 C 14.339913,22.686228 14.740449,22.436504 14.97418,22.299224 C 16.041092,21.672611 16.598342,20.490871 16.593803,18.864534 C 16.590994,17.85647 16.231749,16.94564 15.622947,16.403001 C 15.244377,16.06557 13.908724,15.261921 13.520608,15.138043 C 12.844425,14.922222 11.972111,15.059121 11.041272,15.527141 C 10.58813,15.754977 10.13686,16.05164 10.038437,16.186392 C 9.9400264,16.321145 9.7171294,16.809872 9.5431314,17.272453 C 9.3691214,17.735035 9.1918594,18.113511 9.1492154,18.113511 C 8.9800166,18.113511 9.0234026,17.379877 9.2259074,16.816439 C 9.5155994,16.010463 9.8065404,15.591111 10.380345,15.152533 C 11.0272,14.658109 11.661402,14.413642 12.518735,14.328241 C 13.633429,14.217204 13.808011,14.248438 14.772182,14.7314 C 15.893899,15.293269 16.232907,15.624684 16.786671,16.700746 C 17.447702,17.985239 17.528673,18.338725 17.382117,19.300194 C 17.215558,20.392855 16.841072,21.496969 16.405149,22.18059 C 16.007682,22.803906 15.266681,23.371713 13.935346,24.073129 C 12.980499,24.576186 12.654471,24.66401 11.385456,24.759991 C 9.9967164,24.865029 9.1871384,24.774851 8.1272756,24.397069 C 7.6598016,24.230438 7.0783876,24.0372 6.8352546,23.967655 C 6.5111766,23.874948 6.0919126,23.587263 5.2641546,22.889584 C 3.8434856,21.692172 3.6152176,21.305014 3.3391026,19.624553 C 3.2366866,19.001248 3.1394976,18.185884 3.1231246,17.812633 C 3.1067506,17.439382 3.0668636,17.091114 3.0344676,17.038703 C 2.9667096,16.929077 3.1239436,15.030228 3.2817366,14.052588 C 3.4118146,13.246632 3.4713146,13.124084 4.4009436,11.747421 C 4.9526526,10.93043 5.3154076,10.507272 5.8309756,10.079277 C 7.4980286,8.6954071 8.5871286,8.1216061 10.480316,7.6297471 C 11.792963,7.2887141 11.79641,7.2883631 13.407956,7.3311761 C 15.112283,7.3764551 16.019465,7.4828991 16.632103,7.7094831 C 20.775085,9.2417471 22.409313,10.583235 24.531966,14.194247 C 25.21075,15.348979 25.858776,16.174444 27.030069,17.376348 C 27.892005,18.260815 28.167847,18.482637 28.718321,18.733996 C 29.605513,19.139111 30.643372,19.286629 32.634777,19.290663 C 34.531269,19.294506 35.248912,19.150897 36.075669,18.602099 C 36.33861,18.427562 36.765702,18.19103 37.024767,18.076472 C 37.283832,17.961914 37.581315,17.791309 37.685845,17.697351 C 37.790375,17.603392 38.109635,17.403791 38.395325,17.253795 C 39.051355,16.909346 39.816995,16.142007 40.096595,15.548757 C 40.433325,14.834256 40.948455,13.985557 41.233995,13.674825 C 41.428645,13.463013 41.518345,13.233703 41.589375,12.766271 C 41.641645,12.422393 41.773545,11.966295 41.882505,11.75272 C 42.156315,11.216011 42.248925,10.082024 42.050315,9.6979481 C 41.969395,9.5414761 41.842275,9.0908631 41.767835,8.6965891 C 41.503555,7.2969541 40.118925,5.6645351 38.529905,4.8791941 C 37.953575,4.5943571 37.709155,4.5337131 36.808802,4.4521551 C 34.937644,4.2826591 33.567865,4.5714131 32.488897,5.3628071 C 31.469245,6.1106941 31.029004,6.4796311 31.029004,6.5862391 C 31.029004,6.6979171 30.559189,7.2467131 30.409512,7.3098641 C 30.202169,7.3973551 29.801282,8.0635591 29.801282,8.3206551 C 29.801282,8.4733431 29.718191,8.7860951 29.616646,9.0156591 C 29.229427,9.8910411 29.297315,10.600061 29.909069,12.069344 C 30.25709,12.905203 30.363694,13.100336 30.708776,13.533166 C 31.171412,14.11343 31.657782,14.382349 32.519303,14.534219 C 33.521787,14.710935 34.023712,14.698182 34.658239,14.479872 C 35.912817,14.048236 36.786225,13.311973 37.237715,12.305444 C 37.440831,11.852623 37.46584,11.682811 37.432755,10.981041 C 37.399488,10.275646 37.35488,10.106234 37.072145,9.6116601 C 36.894675,9.3012411 36.584539,8.8681361 36.382931,8.6492041 C 36.181324,8.4302721 36.031139,8.2068461 36.04919,8.1527001 C 36.10155,7.9956161 37.051363,8.6882641 37.351212,9.1022001 C 37.811075,9.7370271 37.958835,10.374587 37.891435,11.433408 C 37.817455,12.59584 37.500161,13.275338 36.602733,14.193221 C 35.910333,14.901399 35.214721,15.241951 34.054028,15.440988 C 33.109325,15.602985 31.909798,15.382364 31.152385,14.907313 C 30.234188,14.331414 29.662125,13.741133 29.140432,12.831309 C 28.711857,12.083856 28.631302,11.852612 28.433102,10.800804 C 28.196979,9.5477171 28.197447,8.5249941 28.434286,8.2445211 C 28.500079,8.1666081 28.603926,7.8580721 28.665064,7.5588861 C 28.726202,7.2596991 28.87164,6.8984661 28.988271,6.7561451 C 29.104902,6.6138241 29.336695,6.2107901 29.503383,5.8605131 C 29.748584,5.3452141 29.878052,5.1871091 30.18162,5.0322431 C 30.387962,4.9269701 30.556796,4.7985171 30.556796,4.7467901 C 30.556796,4.6950631 30.702234,4.5833911 30.879977,4.4986271 C 31.057733,4.4138631 31.223901,4.2652071 31.249248,4.1682771 C 31.276442,4.0642721 31.52137,3.8929101 31.846853,3.7501631 C 32.150201,3.6171291 32.629678,3.3999221 32.912387,3.2674811 C 33.195082,3.1350401 33.981302,2.8894481 34.659526,2.7217211 C 35.832003,2.4317631 35.948413,2.4200741 37.025938,2.4840731 C 38.108015,2.5483411 38.184355,2.5667871 38.715295,2.8922681 C 39.021125,3.0797561 39.424865,3.2828591 39.612475,3.3436101 C 39.800085,3.4043621 40.285845,3.6925831 40.691955,3.9841031 C 41.098055,4.2756211 41.572395,4.6000691 41.746045,4.7050971 C 41.919685,4.8101231 42.342045,5.1833261 42.684625,5.5344361 C 43.395605,6.2631301 44.141605,7.6218171 44.387075,8.6350581 C 44.467155,8.9656531 44.617485,9.5336281 44.721125,9.8972231 C 44.882345,10.462898 44.901335,10.72867 44.852615,11.738804 C 44.700915,14.884907 43.631005,17.306371 41.559065,19.193025 C 41.299365,19.429507 40.778295,19.9297 40.401145,20.304562 C 39.637955,21.063116 38.727335,21.689666 37.592585,22.237003 C 37.177046,22.437432 36.600939,22.72534 36.312326,22.8768 C 35.430244,23.339718 34.081183,23.543817 31.903465,23.543817 C 29.773424,23.543817 29.536924,23.576104 27.091688,24.200745 C 26.216954,24.424199 25.929681,24.545741 25.42483,24.906 C 24.571047,25.515246 23.585977,26.784368 22.816989,28.265822 C 22.695663,28.49956 22.52043,28.775798 22.427585,28.879682 C 22.119842,29.224044 21.881963,29.930261 21.865472,30.548536 C 21.824857,32.071311 21.887464,34.772345 21.97127,35.112728 C 22.101231,35.640558 22.343311,36.195772 22.588929,36.529329 C 22.907427,36.961845 23.439759,37.934425 23.563933,38.310676 C 23.630598,38.512654 23.854548,38.797292 24.124902,39.023645 C 24.372405,39.230868 24.696756,39.576241 24.845679,39.791138 C 25.169354,40.258195 26.339776,40.892787 27.040967,40.981404 C 27.286558,41.012442 27.574196,41.091634 27.680163,41.157384 C 27.78613,41.223135 28.104862,41.324977 28.388468,41.383695 C 29.003383,41.511013 30.395531,41.336387 31.198775,41.031183 C 31.692584,40.843549 32.857596,40.162642 33.477934,39.699101 C 33.942872,39.351679 34.576332,38.452154 34.762541,37.874956 C 34.850483,37.602339 34.974397,37.294294 35.037888,37.190409 C 35.364971,36.655305 35.441806,35.566903 35.285561,33.682166 C 35.225697,32.960096 35.14842,32.610822 34.972121,32.265565 C 34.843434,32.013533 34.63981,31.602477 34.519629,31.352108 C 34.151736,30.585679 32.380472,29.303583 31.669227,29.288892 C 31.55084,29.286447 31.168967,29.22516 30.820608,29.152697 C 30.151695,29.013554 29.17526,29.083726 28.771174,29.299983 C 28.274386,29.565859 27.639898,30.041136 27.233627,30.451716 C 26.872614,30.816565 26.746268,31.040395 26.549186,31.664268 C 26.322947,32.380418 26.312907,32.491835 26.392252,33.405577 C 26.489232,34.522389 26.67959,35.039064 27.210699,35.626937 C 27.634306,36.095822 27.99515,36.292776 28.95118,36.576927 C 29.645453,36.783278 30.301828,36.796757 30.910942,36.617169 C 31.268639,36.511709 31.146897,36.726166 30.746595,36.906676 C 30.181152,37.161656 28.845525,37.064157 27.964002,36.703554 C 27.082259,36.342858 26.314311,35.631042 25.905569,34.795574 C 25.61126,34.194007 25.598697,34.121929 25.598697,33.035045 C 25.598697,31.954157 25.61217,31.875568 25.890171,31.335124 C 26.050474,31.023471 26.279665,30.577356 26.39947,30.343755 C 26.519274,30.110155 26.86697,29.678487 27.172112,29.384494 C 27.622536,28.950554 27.864369,28.802417 28.457175,28.597326 C 30.089036,28.032763 32.07516,28.179157 33.295561,28.953952 C 34.411581,29.662477 35.389967,30.486749 35.762177,31.032035 C 36.445916,32.033711 36.940194,33.217899 37.012126,34.026667 C 37.046785,34.416233 37.113658,35.107907 37.16075,35.563721 C 37.241461,36.345108 37.227714,36.466556 36.920023,37.688623 C 36.439517,39.597133 36.176681,40.104484 35.243333,40.925054 C 34.821338,41.29607 34.317878,41.680889 34.124542,41.78021 C 33.931193,41.879531 33.633711,42.080659 33.463459,42.227162 C 33.001837,42.624375 32.125855,43.092915 31.84485,43.092915 C 31.70888,43.092915 31.331571,43.194307 31.006375,43.31823 C 30.363993,43.563037 29.171619,43.855361 28.890588,43.836945 C 28.794128,43.830625 28.332728,43.773645 27.865254,43.710325 z"
           id="path2243" />
        <path
           style="opacity:0.797468;fill:url(#linearGradient3531);fill-opacity:1;fill-rule:nonzero;stroke:none;stroke-width:1;stroke-linecap:butt;stroke-linejoin:miter;marker:none;stroke-miterlimit:0;stroke-dasharray:none;stroke-dashoffset:0;stroke-opacity:1;visibility:visible;display:inline;overflow:visible"
           d="M 20.15625,24.125 L 41.46875,19.28125 C 41.493396,19.258471 41.541159,19.206933 41.5625,19.1875 C 43.63444,17.300846 44.69205,14.896103 44.84375,11.75 C 44.89247,10.739866 44.879968,10.471925 44.71875,9.90625 C 44.61511,9.542655 44.455081,8.9555947 44.375,8.625 C 44.12953,7.611759 43.398481,6.2599439 42.6875,5.53125 C 42.34492,5.18014 41.923641,4.8237759 41.75,4.71875 C 41.57635,4.613722 41.093599,4.2602679 40.6875,3.96875 C 40.28139,3.67723 39.812609,3.4045021 39.625,3.34375 C 39.43739,3.282999 39.024581,3.0937379 38.71875,2.90625 C 38.18781,2.580769 38.113329,2.5330179 37.03125,2.46875 C 35.953725,2.404751 35.828726,2.4287919 34.65625,2.71875 C 33.978026,2.886477 33.188944,3.148809 32.90625,3.28125 C 32.623541,3.413691 32.147098,3.616966 31.84375,3.75 C 31.518267,3.892747 31.277193,4.0522448 31.25,4.15625 C 31.224653,4.25318 31.052757,4.4152359 30.875,4.5 C 30.697257,4.584764 30.562501,4.6982732 30.5625,4.75 C 30.5625,4.801727 30.393842,4.9259768 30.1875,5.03125 C 29.883932,5.186116 29.7452,5.3597009 29.5,5.875 C 29.333312,6.225277 29.11663,6.6076791 29,6.75 C 28.883369,6.892321 28.717388,7.263313 28.65625,7.5625 C 28.595112,7.861686 28.503293,8.172087 28.4375,8.25 C 28.200661,8.530473 28.201377,9.559413 28.4375,10.8125 C 28.6357,11.864308 28.696425,12.096297 29.125,12.84375 C 29.646693,13.753574 30.238052,14.330351 31.15625,14.90625 C 31.913663,15.381301 33.117797,15.599497 34.0625,15.4375 C 35.223193,15.238463 35.901349,14.895678 36.59375,14.1875 C 37.491178,13.269617 37.832271,12.599932 37.90625,11.4375 C 37.97365,10.378679 37.803613,9.7285766 37.34375,9.09375 C 37.043901,8.679814 36.114859,7.9991657 36.0625,8.15625 C 36.044449,8.210396 36.173393,8.4373178 36.375,8.65625 C 36.576608,8.875182 36.885031,9.3145811 37.0625,9.625 C 37.345235,10.119574 37.404233,10.263355 37.4375,10.96875 C 37.470585,11.67052 37.453114,11.859679 37.25,12.3125 C 36.79851,13.319029 35.91083,14.037114 34.65625,14.46875 C 34.021723,14.68706 33.533735,14.707966 32.53125,14.53125 C 31.669729,14.37938 31.181386,14.111514 30.71875,13.53125 C 30.373668,13.09842 30.254271,12.898359 29.90625,12.0625 C 29.294496,10.593217 29.237781,9.9066318 29.625,9.03125 C 29.726545,8.801686 29.812499,8.4651882 29.8125,8.3125 C 29.8125,8.055404 30.198907,7.3999911 30.40625,7.3125 C 30.555927,7.249349 31.031251,6.7054278 31.03125,6.59375 C 31.03125,6.487142 31.48035,6.1228868 32.5,5.375 C 33.578968,4.583606 34.94134,4.268004 36.8125,4.4375 C 37.712853,4.519058 37.954922,4.5901628 38.53125,4.875 C 40.12027,5.660341 41.516971,7.2878646 41.78125,8.6875 C 41.85569,9.081774 41.981579,9.5310276 42.0625,9.6875 C 42.26111,10.071576 42.148811,11.213291 41.875,11.75 C 41.76604,11.963575 41.64602,12.437372 41.59375,12.78125 C 41.52272,13.248682 41.413401,13.475688 41.21875,13.6875 C 40.93321,13.998232 40.430479,14.847999 40.09375,15.5625 C 39.81415,16.15575 39.06228,16.90555 38.40625,17.25 C 38.12056,17.399996 37.792031,17.593541 37.6875,17.6875 C 37.58297,17.781458 37.290313,17.947943 37.03125,18.0625 C 36.772185,18.177058 36.325442,18.419214 36.0625,18.59375 C 35.235743,19.142548 34.521492,19.285093 32.625,19.28125 C 30.633595,19.277216 29.605942,19.123866 28.71875,18.71875 C 28.168276,18.467391 27.893186,18.259467 27.03125,17.375 C 25.859957,16.173096 25.210035,15.342232 24.53125,14.1875 C 22.408597,10.576488 20.767982,9.251014 16.625,7.71875 C 16.012362,7.492166 15.110577,7.3890288 13.40625,7.34375 C 11.794704,7.300937 11.781397,7.2839672 10.46875,7.625 C 8.5755626,8.116859 7.5108031,8.7098801 5.84375,10.09375 C 5.328182,10.521745 4.9579588,10.933009 4.40625,11.75 C 3.476621,13.126663 3.411328,13.256544 3.28125,14.0625 C 3.123457,15.04014 2.9634919,16.921623 3.03125,17.03125 C 3.063646,17.083661 3.108626,17.439248 3.125,17.8125 C 3.141373,18.185751 3.2413341,19.001694 3.34375,19.625 C 3.619865,21.305461 3.8293312,21.677588 5.25,22.875 C 6.077758,23.572679 6.5196719,23.876043 6.84375,23.96875 C 7.086883,24.038295 7.6575261,24.239618 8.125,24.40625 C 9.1848628,24.784032 9.9862603,24.855038 11.375,24.75 C 12.644015,24.654019 12.982653,24.565556 13.9375,24.0625 C 15.268835,23.361084 16.008783,22.810816 16.40625,22.1875 C 16.842173,21.503879 17.208442,20.405161 17.375,19.3125 C 17.521556,18.351031 17.442281,17.971992 16.78125,16.6875 C 16.227486,15.611438 15.902967,15.280619 14.78125,14.71875 C 13.817079,14.235788 13.645944,14.232713 12.53125,14.34375 C 11.673917,14.429151 11.021855,14.661826 10.375,15.15625 C 9.8011954,15.594828 9.5084421,16.006524 9.21875,16.8125 C 9.0162452,17.375938 8.9870509,18.125001 9.15625,18.125 C 9.198894,18.125 9.3572396,17.743832 9.53125,17.28125 C 9.705248,16.818669 9.9328395,16.322253 10.03125,16.1875 C 10.129673,16.052748 10.578108,15.759086 11.03125,15.53125 C 11.962089,15.06323 12.855067,14.909179 13.53125,15.125 C 13.919366,15.248878 15.24643,16.068818 15.625,16.40625 C 16.233802,16.948889 16.590941,17.866936 16.59375,18.875 C 16.598289,20.501337 16.035662,21.685886 14.96875,22.3125 C 14.735019,22.44978 14.349537,22.675812 14.09375,22.84375 C 13.437127,23.274851 12.808663,23.382774 11.34375,23.3125 C 10.281494,23.261543 9.985408,23.235806 9.25,22.96875 C 7.6745042,22.396628 6.2512769,21.205702 5.71875,20.03125 C 5.087735,18.639585 5.0253811,18.329068 5.09375,16.90625 C 5.153925,15.654241 5.365111,14.629545 5.71875,13.96875 C 5.963912,13.510666 6.5915221,12.803979 7.65625,11.71875 C 8.071352,11.295646 8.8903779,10.919148 9.75,10.75 C 10.754071,10.552427 13.075507,10.422093 13.78125,10.53125 C 15.622314,10.816009 18.730163,12.967914 19.8125,14.71875 C 20.334882,15.563771 20.827666,16.543133 21.03125,17.125 C 21.299301,17.891152 21.39647,19.906187 21.1875,20.625 C 21.10216,20.918564 21.031822,21.331477 21.03125,21.53125 C 21.02991,22.007055 20.835631,22.600765 20.4375,23.40625 C 20.33774,23.608076 20.254387,23.868791 20.15625,24.125 z"
           id="path7116" />
        <path
           style="opacity:0.36286902;fill:url(#linearGradient3533);fill-opacity:1;fill-rule:nonzero;stroke:none;stroke-width:1;stroke-linecap:butt;stroke-linejoin:miter;marker:none;stroke-miterlimit:0;stroke-dasharray:none;stroke-dashoffset:0;stroke-opacity:1;visibility:visible;display:inline;overflow:visible"
           d="M 20.15625,24.125 C 20.07951,24.325347 19.979686,24.539343 19.9375,24.6875 C 19.841365,25.025123 19.71939,25.359589 19.65625,25.4375 C 19.593097,25.515413 19.505009,25.724452 19.46875,25.90625 C 19.372784,26.387448 19.061753,27.392818 18.9375,27.625 C 18.789851,27.900868 18.492959,29.174081 18.34375,30.15625 C 18.223503,30.947802 18.200863,32.696925 18.3125,33.5625 C 18.453776,34.657837 18.845901,36.604172 18.96875,36.84375 C 20.05002,38.952416 20.561659,39.69162 21.46875,40.40625 C 21.696927,40.586006 21.981555,40.847918 22.09375,41 C 22.521949,41.580388 23.744237,42.413884 25,43 C 25.543294,43.25358 26.762049,43.568001 27.875,43.71875 C 28.342474,43.78207 28.778539,43.83743 28.875,43.84375 C 29.156031,43.862166 30.357619,43.557307 31,43.3125 C 31.325196,43.188577 31.707779,43.09375 31.84375,43.09375 C 32.124755,43.09375 33.007128,42.615964 33.46875,42.21875 C 33.639002,42.072247 33.931651,41.880572 34.125,41.78125 C 34.318336,41.681929 34.828006,41.308517 35.25,40.9375 C 36.183348,40.11693 36.425742,39.596011 36.90625,37.6875 C 37.213941,36.465433 37.23696,36.343887 37.15625,35.5625 C 37.109158,35.106686 37.034658,34.420814 37,34.03125 C 36.928068,33.222482 36.433739,32.032925 35.75,31.03125 C 35.37779,30.485964 34.397268,29.677274 33.28125,28.96875 C 32.060849,28.193955 30.100612,28.029187 28.46875,28.59375 C 27.875944,28.798841 27.637924,28.941059 27.1875,29.375 C 26.882358,29.668993 26.526055,30.110149 26.40625,30.34375 C 26.286445,30.577351 26.035303,31.032098 25.875,31.34375 C 25.596999,31.884194 25.593749,31.950361 25.59375,33.03125 C 25.59375,34.118134 25.611941,34.179683 25.90625,34.78125 C 26.314992,35.616718 27.087006,36.358056 27.96875,36.71875 C 28.850273,37.079353 30.184557,37.161229 30.75,36.90625 C 31.150302,36.72574 31.263947,36.519541 30.90625,36.625 C 30.297136,36.804588 29.631773,36.768851 28.9375,36.5625 C 27.98147,36.278349 27.642357,36.093884 27.21875,35.625 C 26.687641,35.037127 26.50323,34.52306 26.40625,33.40625 C 26.326905,32.492508 26.33626,32.3724 26.5625,31.65625 C 26.759582,31.032377 26.857737,30.80235 27.21875,30.4375 C 27.625021,30.02692 28.284463,29.578377 28.78125,29.3125 C 29.185336,29.096243 30.143587,29.017107 30.8125,29.15625 C 31.160859,29.228713 31.537862,29.278804 31.65625,29.28125 C 32.367495,29.295941 34.163356,30.577321 34.53125,31.34375 C 34.651431,31.594119 34.840062,31.997969 34.96875,32.25 C 35.145049,32.595257 35.221386,32.965429 35.28125,33.6875 C 35.437495,35.572237 35.358333,36.652394 35.03125,37.1875 C 34.967759,37.291385 34.83794,37.602385 34.75,37.875 C 34.563791,38.452198 33.933686,39.340079 33.46875,39.6875 C 32.848412,40.151041 31.68131,40.843618 31.1875,41.03125 C 30.384256,41.336454 28.989915,41.502319 28.375,41.375 C 28.091394,41.316282 27.793468,41.222002 27.6875,41.15625 C 27.581533,41.0905 27.27684,40.999789 27.03125,40.96875 C 26.330059,40.880133 25.167426,40.248307 24.84375,39.78125 C 24.694827,39.566353 24.372502,39.238475 24.125,39.03125 C 23.854646,38.804897 23.629166,38.514477 23.5625,38.3125 C 23.438326,37.936249 22.912249,36.963768 22.59375,36.53125 C 22.348132,36.197693 22.098711,35.65283 21.96875,35.125 C 21.884944,34.784617 21.834384,32.085275 21.875,30.5625 C 21.891491,29.944225 22.129756,29.219361 22.4375,28.875 C 22.530345,28.771116 22.691173,28.514989 22.8125,28.28125 C 23.581488,26.799796 24.583718,25.515496 25.4375,24.90625 C 25.942351,24.545991 26.219016,24.410954 27.09375,24.1875 C 29.538986,23.562859 29.776209,23.531249 31.90625,23.53125 C 34.083968,23.53125 35.430419,23.337917 36.3125,22.875 C 36.601113,22.72354 37.178209,22.450429 37.59375,22.25 C 38.7285,21.702663 39.643059,21.071054 40.40625,20.3125 C 40.752407,19.968443 41.193475,19.535667 41.46875,19.28125 L 20.15625,24.125 z"
           id="path8099" />
      </g>
    </g>
    <path
       transform="matrix(0.9118586,0,0,0.9118586,-476.69437,-635.15657)"
       d="M 537.69118,810.23014 C 538.17004,810.23014 538.62231,810.17693 539.04798,810.07051 C 539.48427,809.9641 539.92589,809.83108 540.37285,809.67146 L 540.37285,813.2949 C 539.91525,813.52902 539.34593,813.72056 538.66488,813.86955 C 537.99446,814.02917 537.26019,814.10898 536.46208,814.10898 C 535.68524,814.10898 534.96162,814.01853 534.29121,813.83762 C 533.62079,813.65671 533.04082,813.34279 532.55132,812.89584 C 532.0618,812.43826 531.67338,811.83169 531.38607,811.07614 C 531.10938,810.30995 530.97104,809.35221 530.97105,808.20292 L 530.97105,799.59924 L 528.64055,799.59924 L 528.64055,797.5401 L 531.32222,795.91194 L 532.7269,792.14483 L 535.83955,792.14483 L 535.83955,795.94386 L 540.1813,795.94386 L 540.1813,799.59924 L 535.83955,799.59924 L 535.83955,808.20292 C 535.83955,808.89463 536.00981,809.40542 536.35035,809.73531 C 536.69087,810.0652 537.13781,810.23014 537.69118,810.23014 M 553.28636,795.60866 C 553.41405,795.60867 553.55239,795.614 553.70138,795.62462 C 553.861,795.62464 554.00998,795.63528 554.14833,795.65654 C 554.2973,795.6672 554.43032,795.68317 554.54739,795.70443 C 554.67507,795.71509 554.77085,795.73105 554.83471,795.75232 L 554.83471,800.31754 C 554.74956,800.29627 554.63251,800.27499 554.48354,800.25369 C 554.33454,800.23242 554.17492,800.21646 554.00467,800.2058 C 553.84503,800.18453 553.68541,800.17389 553.5258,800.17388 C 553.36616,800.16325 553.23315,800.15793 553.12674,800.15792 C 552.49888,800.15793 551.91892,800.23774 551.38685,800.39735 C 550.8654,800.55699 550.41314,800.8177 550.03005,801.1795 C 549.65759,801.53069 549.36495,801.99892 549.15212,802.58419 C 548.94993,803.15884 548.84883,803.8665 548.84884,804.70718 L 548.84884,813.78973 L 543.98033,813.78973 L 543.98033,795.94386 L 547.66763,795.94386 L 548.38593,798.62553 L 548.62537,798.62553 C 548.88076,798.16796 549.15744,797.75294 549.45541,797.38047 C 549.75336,797.00804 550.08325,796.69411 550.44507,796.4387 C 550.81752,796.17268 551.23254,795.97049 551.69013,795.83213 C 552.15835,795.68317 552.69043,795.60867 553.28636,795.60866 M 557.94736,791.33076 C 557.94736,790.87319 558.01653,790.49542 558.15487,790.19743 C 558.29321,789.88885 558.47944,789.6441 558.71355,789.46316 C 558.9583,789.27164 559.2403,789.13862 559.55955,789.06411 C 559.88944,788.98964 560.23529,788.9524 560.59711,788.95237 C 560.95891,788.9524 561.29944,788.98964 561.61869,789.06411 C 561.93793,789.13862 562.21461,789.27164 562.44873,789.46316 C 562.69348,789.6441 562.88503,789.88885 563.02338,790.19743 C 563.17235,790.49542 563.24684,790.87319 563.24685,791.33076 C 563.24684,791.77772 563.17235,792.1555 563.02338,792.46408 C 562.88503,792.77271 562.69348,793.02278 562.44873,793.21431 C 562.21461,793.39524 561.93793,793.52825 561.61869,793.61337 C 561.29944,793.68788 560.95891,793.72512 560.59711,793.7251 C 560.23529,793.72512 559.88944,793.68788 559.55955,793.61337 C 559.2403,793.52825 558.9583,793.39524 558.71355,793.21431 C 558.47944,793.02278 558.29321,792.77271 558.15487,792.46408 C 558.01653,792.1555 557.94736,791.77772 557.94736,791.33076 M 563.02338,813.78973 L 558.15487,813.78973 L 558.15487,795.94386 L 563.02338,795.94386 L 563.02338,813.78973 M 580.00728,808.49025 C 580.00727,809.42671 579.837,810.2461 579.49649,810.94844 C 579.15594,811.65079 578.67175,812.23607 578.04392,812.7043 C 577.41605,813.17252 576.65518,813.5237 575.76131,813.75781 C 574.86741,813.99192 573.8671,814.10898 572.76039,814.10898 C 572.1751,814.10898 571.63238,814.0877 571.13223,814.04513 C 570.63208,814.01321 570.15853,813.95468 569.71159,813.86955 C 569.26464,813.78441 568.83366,813.678 568.41864,813.5503 C 568.00362,813.4226 567.58328,813.26298 567.15762,813.07143 L 567.15762,809.04893 C 567.60456,809.2724 568.07279,809.47459 568.5623,809.65549 C 569.06245,809.8364 569.55728,809.99603 570.0468,810.13436 C 570.5363,810.26207 571.00985,810.36316 571.46744,810.43765 C 571.93566,810.51214 572.36665,810.54939 572.76039,810.54938 C 573.19669,810.54939 573.56914,810.51214 573.87775,810.43765 C 574.18635,810.35252 574.43642,810.24078 574.62798,810.10244 C 574.83016,809.95346 574.97382,809.7832 575.05896,809.59164 C 575.15473,809.38946 575.20262,809.17663 575.20262,808.95315 C 575.20262,808.72968 575.16537,808.53282 575.09089,808.36255 C 575.02703,808.18165 574.87273,807.99542 574.62798,807.80387 C 574.38322,807.60168 574.0214,807.37821 573.54254,807.13345 C 573.07431,806.87806 572.44114,806.56945 571.64303,806.20763 C 570.86619,805.85647 570.19045,805.51062 569.61581,805.17008 C 569.05181,804.81892 568.58358,804.43051 568.21113,804.00483 C 567.84932,803.57918 567.57796,803.09499 567.39705,802.55226 C 567.21614,801.99892 567.12569,801.34446 567.12569,800.5889 C 567.12569,799.75887 567.28531,799.03525 567.60456,798.41802 C 567.92381,797.79019 568.37607,797.26875 568.96136,796.85372 C 569.54664,796.43871 570.24898,796.13011 571.06839,795.9279 C 571.89842,795.71509 572.81891,795.60867 573.82987,795.60866 C 574.89401,795.60867 575.90496,795.73105 576.86271,795.97579 C 577.82043,796.22056 578.80477,796.5877 579.81573,797.07719 L 578.3472,800.52505 C 577.53843,800.14197 576.76692,799.82804 576.03267,799.58327 C 575.29839,799.33853 574.56412,799.21615 573.82987,799.21614 C 573.17008,799.21615 572.69121,799.33321 572.39326,799.56731 C 572.10593,799.80144 571.96227,800.12068 571.96227,800.52505 C 571.96227,800.73789 571.99951,800.92944 572.07401,801.09969 C 572.1485,801.25933 572.29748,801.42959 572.52096,801.61049 C 572.74442,801.78076 573.05835,801.97231 573.46273,802.18513 C 573.8671,802.38733 574.39386,802.63741 575.043,802.93536 C 575.79854,803.26526 576.4796,803.59515 577.08618,803.92502 C 577.69273,804.24428 578.21417,804.61141 578.65049,805.02642 C 579.08677,805.44145 579.42198,805.92564 579.65611,806.47899 C 579.89021,807.03236 580.00727,807.70278 580.00728,808.49025 M 590.87762,810.29399 C 591.46289,810.29399 591.9524,810.19822 592.34615,810.00667 C 592.75052,809.80448 593.07508,809.50652 593.31985,809.11278 C 593.56459,808.71904 593.7455,808.22421 593.86257,807.62828 C 593.97961,807.02172 594.04346,806.31938 594.05412,805.52125 L 594.05412,804.93065 C 594.05411,804.06869 594.0009,803.3025 593.89449,802.63208 C 593.79871,801.96167 593.62312,801.40299 593.36774,800.95603 C 593.12297,800.49846 592.79308,800.15261 592.37807,799.91848 C 591.97369,799.68438 591.46289,799.56732 590.84569,799.56731 C 589.8241,799.56732 589.07387,800.03023 588.59501,800.95603 C 588.11613,801.87122 587.8767,803.20673 587.8767,804.96257 C 587.8767,806.75036 588.11613,808.08587 588.59501,808.96911 C 589.08451,809.85237 589.84538,810.29399 590.87762,810.29399 M 589.07388,814.10898 C 588.14805,814.10898 587.30737,813.91211 586.55183,813.51837 C 585.79628,813.12464 585.14714,812.54467 584.60443,811.77848 C 584.06171,811.00165 583.64136,810.03859 583.3434,808.8893 C 583.04544,807.74002 582.89646,806.40983 582.89646,804.89872 C 582.89646,803.37699 583.04544,802.04148 583.3434,800.89218 C 583.65201,799.73227 584.08299,798.76389 584.63635,797.98704 C 585.20035,797.19958 585.87077,796.60898 586.6476,796.21522 C 587.42443,795.81086 588.28107,795.60867 589.21754,795.60866 C 589.81345,795.60867 590.35085,795.67784 590.82973,795.81617 C 591.30859,795.94388 591.73957,796.13011 592.12268,796.37485 C 592.5164,796.60898 592.86225,796.88566 593.16023,797.20489 C 593.45818,797.51351 593.72422,797.85404 593.95834,798.22648 L 594.08604,798.22648 L 594.46914,795.94386 L 598.58742,795.94386 L 598.58742,821.64319 L 593.71891,821.64319 L 593.71891,814.15687 C 593.7189,813.95468 593.72954,813.7046 593.75083,813.40664 C 593.78275,813.09803 593.80935,812.80007 593.83065,812.51275 C 593.86256,812.17222 593.89448,811.82637 593.92642,811.4752 L 593.71891,811.4752 C 593.50607,811.83701 593.25599,812.18286 592.96868,812.51275 C 592.68135,812.832 592.34614,813.10868 591.96305,813.34279 C 591.59059,813.5769 591.16493,813.76313 590.68607,813.90147 C 590.20719,814.03981 589.66979,814.10898 589.07388,814.10898 M 615.34785,813.78973 L 614.6934,811.50712 L 614.438,811.50712 C 614.17195,811.96471 613.8527,812.35845 613.48026,812.68833 C 613.11844,813.00758 612.71938,813.27362 612.28309,813.48645 C 611.84677,813.69928 611.38387,813.85358 610.89436,813.94936 C 610.40484,814.05577 609.90469,814.10898 609.39391,814.10898 C 608.52129,814.10898 607.7285,813.9866 607.01552,813.74185 C 606.30253,813.48645 605.69064,813.09271 605.17986,812.56064 C 604.66906,812.02856 604.27532,811.35282 603.99864,810.53342 C 603.72196,809.71403 603.58362,808.72968 603.58362,807.58039 L 603.58362,795.94386 L 608.45213,795.94386 L 608.45213,806.36726 C 608.45212,807.65489 608.64367,808.62327 609.02677,809.2724 C 609.4205,809.9109 610.04303,810.23014 610.89436,810.23014 C 611.53285,810.23014 612.06492,810.10244 612.4906,809.84704 C 612.91625,809.59165 613.25145,809.21387 613.49622,808.71372 C 613.75161,808.21357 613.93251,807.59636 614.03894,806.86209 C 614.14534,806.12783 614.19855,805.28715 614.19856,804.34004 L 614.19856,795.94386 L 619.06707,795.94386 L 619.06707,813.78973 L 615.34785,813.78973 M 631.38998,799.07248 C 630.528,799.07249 629.8097,799.37578 629.23506,799.98233 C 628.67106,800.58891 628.34649,801.54133 628.26136,802.83959 L 634.4707,802.83959 C 634.46005,802.29688 634.39088,801.79673 634.26319,801.33913 C 634.13548,800.88155 633.94394,800.48782 633.68855,800.15792 C 633.43314,799.8174 633.1139,799.55136 632.73081,799.3598 C 632.34771,799.16827 631.90076,799.07249 631.38998,799.07248 M 632.01251,814.10898 C 630.73551,814.10898 629.55962,813.92275 628.48484,813.5503 C 627.41003,813.17785 626.48422,812.61917 625.70739,811.87426 C 624.93056,811.11871 624.32399,810.17161 623.88769,809.03296 C 623.46203,807.88368 623.24919,806.53753 623.2492,804.9945 C 623.24919,803.4302 623.44606,802.06276 623.8398,800.89218 C 624.23354,799.72163 624.78158,798.74793 625.48392,797.97108 C 626.1969,797.18362 627.04822,796.59302 628.03789,796.19926 C 629.03819,795.80554 630.14491,795.60867 631.35805,795.60866 C 632.53925,795.60867 633.60341,795.78958 634.55052,796.15138 C 635.50824,796.50256 636.317,797.024 636.97679,797.71568 C 637.64719,798.4074 638.15798,799.25872 638.50917,800.26965 C 638.87097,801.26997 639.05187,802.41926 639.05189,803.71751 L 639.05189,806.07994 L 628.16559,806.07994 C 628.18687,806.761 628.29328,807.37821 628.48484,807.93156 C 628.68702,808.47429 628.9637,808.93719 629.31488,809.32029 C 629.67668,809.69274 630.10766,809.98007 630.60782,810.18225 C 631.11861,810.38444 631.69857,810.48554 632.34772,810.48553 C 632.89042,810.48554 633.40122,810.45893 633.8801,810.40572 C 634.3696,810.34188 634.84315,810.25142 635.30074,810.13436 C 635.75832,810.01731 636.21058,809.87365 636.65754,809.70338 C 637.10447,809.52248 637.56206,809.31497 638.0303,809.08085 L 638.0303,812.84796 C 637.60462,813.07143 637.17364,813.26298 636.73735,813.4226 C 636.31168,813.57158 635.85941,813.69928 635.38056,813.8057 C 634.90167,813.91211 634.38556,813.9866 633.83221,814.02917 C 633.27884,814.08238 632.67227,814.10898 632.01251,814.10898 M 648.07059,813.78973 L 643.20209,813.78973 L 643.20209,788.95237 L 648.07059,788.95237 L 648.07059,813.78973"
       style="font-size:32.69079971px;font-style:normal;font-weight:normal;opacity:1;fill:#000000;fill-opacity:1;stroke:none;stroke-width:1px;stroke-linecap:butt;stroke-linejoin:miter;stroke-opacity:1;display:inline;filter:url(#filter3490);font-family:Bitstream Vera Sans"
       id="path2708" />
    <path
       transform="matrix(0.9118586,0,0,0.9118586,-476.69437,-635.15657)"
       d="M 537.69118,810.23014 C 538.17004,810.23014 538.62231,810.17693 539.04798,810.07051 C 539.48427,809.9641 539.92589,809.83108 540.37285,809.67146 L 540.37285,813.2949 C 539.91525,813.52902 539.34593,813.72056 538.66488,813.86955 C 537.99446,814.02917 537.26019,814.10898 536.46208,814.10898 C 535.68524,814.10898 534.96162,814.01853 534.29121,813.83762 C 533.62079,813.65671 533.04082,813.34279 532.55132,812.89584 C 532.0618,812.43826 531.67338,811.83169 531.38607,811.07614 C 531.10938,810.30995 530.97104,809.35221 530.97105,808.20292 L 530.97105,799.59924 L 528.64055,799.59924 L 528.64055,797.5401 L 531.32222,795.91194 L 532.7269,792.14483 L 535.83955,792.14483 L 535.83955,795.94386 L 540.1813,795.94386 L 540.1813,799.59924 L 535.83955,799.59924 L 535.83955,808.20292 C 535.83955,808.89463 536.00981,809.40542 536.35035,809.73531 C 536.69087,810.0652 537.13781,810.23014 537.69118,810.23014 M 553.28636,795.60866 C 553.41405,795.60867 553.55239,795.614 553.70138,795.62462 C 553.861,795.62464 554.00998,795.63528 554.14833,795.65654 C 554.2973,795.6672 554.43032,795.68317 554.54739,795.70443 C 554.67507,795.71509 554.77085,795.73105 554.83471,795.75232 L 554.83471,800.31754 C 554.74956,800.29627 554.63251,800.27499 554.48354,800.25369 C 554.33454,800.23242 554.17492,800.21646 554.00467,800.2058 C 553.84503,800.18453 553.68541,800.17389 553.5258,800.17388 C 553.36616,800.16325 553.23315,800.15793 553.12674,800.15792 C 552.49888,800.15793 551.91892,800.23774 551.38685,800.39735 C 550.8654,800.55699 550.41314,800.8177 550.03005,801.1795 C 549.65759,801.53069 549.36495,801.99892 549.15212,802.58419 C 548.94993,803.15884 548.84883,803.8665 548.84884,804.70718 L 548.84884,813.78973 L 543.98033,813.78973 L 543.98033,795.94386 L 547.66763,795.94386 L 548.38593,798.62553 L 548.62537,798.62553 C 548.88076,798.16796 549.15744,797.75294 549.45541,797.38047 C 549.75336,797.00804 550.08325,796.69411 550.44507,796.4387 C 550.81752,796.17268 551.23254,795.97049 551.69013,795.83213 C 552.15835,795.68317 552.69043,795.60867 553.28636,795.60866 M 557.94736,791.33076 C 557.94736,790.87319 558.01653,790.49542 558.15487,790.19743 C 558.29321,789.88885 558.47944,789.6441 558.71355,789.46316 C 558.9583,789.27164 559.2403,789.13862 559.55955,789.06411 C 559.88944,788.98964 560.23529,788.9524 560.59711,788.95237 C 560.95891,788.9524 561.29944,788.98964 561.61869,789.06411 C 561.93793,789.13862 562.21461,789.27164 562.44873,789.46316 C 562.69348,789.6441 562.88503,789.88885 563.02338,790.19743 C 563.17235,790.49542 563.24684,790.87319 563.24685,791.33076 C 563.24684,791.77772 563.17235,792.1555 563.02338,792.46408 C 562.88503,792.77271 562.69348,793.02278 562.44873,793.21431 C 562.21461,793.39524 561.93793,793.52825 561.61869,793.61337 C 561.29944,793.68788 560.95891,793.72512 560.59711,793.7251 C 560.23529,793.72512 559.88944,793.68788 559.55955,793.61337 C 559.2403,793.52825 558.9583,793.39524 558.71355,793.21431 C 558.47944,793.02278 558.29321,792.77271 558.15487,792.46408 C 558.01653,792.1555 557.94736,791.77772 557.94736,791.33076 M 563.02338,813.78973 L 558.15487,813.78973 L 558.15487,795.94386 L 563.02338,795.94386 L 563.02338,813.78973 M 580.00728,808.49025 C 580.00727,809.42671 579.837,810.2461 579.49649,810.94844 C 579.15594,811.65079 578.67175,812.23607 578.04392,812.7043 C 577.41605,813.17252 576.65518,813.5237 575.76131,813.75781 C 574.86741,813.99192 573.8671,814.10898 572.76039,814.10898 C 572.1751,814.10898 571.63238,814.0877 571.13223,814.04513 C 570.63208,814.01321 570.15853,813.95468 569.71159,813.86955 C 569.26464,813.78441 568.83366,813.678 568.41864,813.5503 C 568.00362,813.4226 567.58328,813.26298 567.15762,813.07143 L 567.15762,809.04893 C 567.60456,809.2724 568.07279,809.47459 568.5623,809.65549 C 569.06245,809.8364 569.55728,809.99603 570.0468,810.13436 C 570.5363,810.26207 571.00985,810.36316 571.46744,810.43765 C 571.93566,810.51214 572.36665,810.54939 572.76039,810.54938 C 573.19669,810.54939 573.56914,810.51214 573.87775,810.43765 C 574.18635,810.35252 574.43642,810.24078 574.62798,810.10244 C 574.83016,809.95346 574.97382,809.7832 575.05896,809.59164 C 575.15473,809.38946 575.20262,809.17663 575.20262,808.95315 C 575.20262,808.72968 575.16537,808.53282 575.09089,808.36255 C 575.02703,808.18165 574.87273,807.99542 574.62798,807.80387 C 574.38322,807.60168 574.0214,807.37821 573.54254,807.13345 C 573.07431,806.87806 572.44114,806.56945 571.64303,806.20763 C 570.86619,805.85647 570.19045,805.51062 569.61581,805.17008 C 569.05181,804.81892 568.58358,804.43051 568.21113,804.00483 C 567.84932,803.57918 567.57796,803.09499 567.39705,802.55226 C 567.21614,801.99892 567.12569,801.34446 567.12569,800.5889 C 567.12569,799.75887 567.28531,799.03525 567.60456,798.41802 C 567.92381,797.79019 568.37607,797.26875 568.96136,796.85372 C 569.54664,796.43871 570.24898,796.13011 571.06839,795.9279 C 571.89842,795.71509 572.81891,795.60867 573.82987,795.60866 C 574.89401,795.60867 575.90496,795.73105 576.86271,795.97579 C 577.82043,796.22056 578.80477,796.5877 579.81573,797.07719 L 578.3472,800.52505 C 577.53843,800.14197 576.76692,799.82804 576.03267,799.58327 C 575.29839,799.33853 574.56412,799.21615 573.82987,799.21614 C 573.17008,799.21615 572.69121,799.33321 572.39326,799.56731 C 572.10593,799.80144 571.96227,800.12068 571.96227,800.52505 C 571.96227,800.73789 571.99951,800.92944 572.07401,801.09969 C 572.1485,801.25933 572.29748,801.42959 572.52096,801.61049 C 572.74442,801.78076 573.05835,801.97231 573.46273,802.18513 C 573.8671,802.38733 574.39386,802.63741 575.043,802.93536 C 575.79854,803.26526 576.4796,803.59515 577.08618,803.92502 C 577.69273,804.24428 578.21417,804.61141 578.65049,805.02642 C 579.08677,805.44145 579.42198,805.92564 579.65611,806.47899 C 579.89021,807.03236 580.00727,807.70278 580.00728,808.49025 M 590.87762,810.29399 C 591.46289,810.29399 591.9524,810.19822 592.34615,810.00667 C 592.75052,809.80448 593.07508,809.50652 593.31985,809.11278 C 593.56459,808.71904 593.7455,808.22421 593.86257,807.62828 C 593.97961,807.02172 594.04346,806.31938 594.05412,805.52125 L 594.05412,804.93065 C 594.05411,804.06869 594.0009,803.3025 593.89449,802.63208 C 593.79871,801.96167 593.62312,801.40299 593.36774,800.95603 C 593.12297,800.49846 592.79308,800.15261 592.37807,799.91848 C 591.97369,799.68438 591.46289,799.56732 590.84569,799.56731 C 589.8241,799.56732 589.07387,800.03023 588.59501,800.95603 C 588.11613,801.87122 587.8767,803.20673 587.8767,804.96257 C 587.8767,806.75036 588.11613,808.08587 588.59501,808.96911 C 589.08451,809.85237 589.84538,810.29399 590.87762,810.29399 M 589.07388,814.10898 C 588.14805,814.10898 587.30737,813.91211 586.55183,813.51837 C 585.79628,813.12464 585.14714,812.54467 584.60443,811.77848 C 584.06171,811.00165 583.64136,810.03859 583.3434,808.8893 C 583.04544,807.74002 582.89646,806.40983 582.89646,804.89872 C 582.89646,803.37699 583.04544,802.04148 583.3434,800.89218 C 583.65201,799.73227 584.08299,798.76389 584.63635,797.98704 C 585.20035,797.19958 585.87077,796.60898 586.6476,796.21522 C 587.42443,795.81086 588.28107,795.60867 589.21754,795.60866 C 589.81345,795.60867 590.35085,795.67784 590.82973,795.81617 C 591.30859,795.94388 591.73957,796.13011 592.12268,796.37485 C 592.5164,796.60898 592.86225,796.88566 593.16023,797.20489 C 593.45818,797.51351 593.72422,797.85404 593.95834,798.22648 L 594.08604,798.22648 L 594.46914,795.94386 L 598.58742,795.94386 L 598.58742,821.64319 L 593.71891,821.64319 L 593.71891,814.15687 C 593.7189,813.95468 593.72954,813.7046 593.75083,813.40664 C 593.78275,813.09803 593.80935,812.80007 593.83065,812.51275 C 593.86256,812.17222 593.89448,811.82637 593.92642,811.4752 L 593.71891,811.4752 C 593.50607,811.83701 593.25599,812.18286 592.96868,812.51275 C 592.68135,812.832 592.34614,813.10868 591.96305,813.34279 C 591.59059,813.5769 591.16493,813.76313 590.68607,813.90147 C 590.20719,814.03981 589.66979,814.10898 589.07388,814.10898 M 615.34785,813.78973 L 614.6934,811.50712 L 614.438,811.50712 C 614.17195,811.96471 613.8527,812.35845 613.48026,812.68833 C 613.11844,813.00758 612.71938,813.27362 612.28309,813.48645 C 611.84677,813.69928 611.38387,813.85358 610.89436,813.94936 C 610.40484,814.05577 609.90469,814.10898 609.39391,814.10898 C 608.52129,814.10898 607.7285,813.9866 607.01552,813.74185 C 606.30253,813.48645 605.69064,813.09271 605.17986,812.56064 C 604.66906,812.02856 604.27532,811.35282 603.99864,810.53342 C 603.72196,809.71403 603.58362,808.72968 603.58362,807.58039 L 603.58362,795.94386 L 608.45213,795.94386 L 608.45213,806.36726 C 608.45212,807.65489 608.64367,808.62327 609.02677,809.2724 C 609.4205,809.9109 610.04303,810.23014 610.89436,810.23014 C 611.53285,810.23014 612.06492,810.10244 612.4906,809.84704 C 612.91625,809.59165 613.25145,809.21387 613.49622,808.71372 C 613.75161,808.21357 613.93251,807.59636 614.03894,806.86209 C 614.14534,806.12783 614.19855,805.28715 614.19856,804.34004 L 614.19856,795.94386 L 619.06707,795.94386 L 619.06707,813.78973 L 615.34785,813.78973 M 631.38998,799.07248 C 630.528,799.07249 629.8097,799.37578 629.23506,799.98233 C 628.67106,800.58891 628.34649,801.54133 628.26136,802.83959 L 634.4707,802.83959 C 634.46005,802.29688 634.39088,801.79673 634.26319,801.33913 C 634.13548,800.88155 633.94394,800.48782 633.68855,800.15792 C 633.43314,799.8174 633.1139,799.55136 632.73081,799.3598 C 632.34771,799.16827 631.90076,799.07249 631.38998,799.07248 M 632.01251,814.10898 C 630.73551,814.10898 629.55962,813.92275 628.48484,813.5503 C 627.41003,813.17785 626.48422,812.61917 625.70739,811.87426 C 624.93056,811.11871 624.32399,810.17161 623.88769,809.03296 C 623.46203,807.88368 623.24919,806.53753 623.2492,804.9945 C 623.24919,803.4302 623.44606,802.06276 623.8398,800.89218 C 624.23354,799.72163 624.78158,798.74793 625.48392,797.97108 C 626.1969,797.18362 627.04822,796.59302 628.03789,796.19926 C 629.03819,795.80554 630.14491,795.60867 631.35805,795.60866 C 632.53925,795.60867 633.60341,795.78958 634.55052,796.15138 C 635.50824,796.50256 636.317,797.024 636.97679,797.71568 C 637.64719,798.4074 638.15798,799.25872 638.50917,800.26965 C 638.87097,801.26997 639.05187,802.41926 639.05189,803.71751 L 639.05189,806.07994 L 628.16559,806.07994 C 628.18687,806.761 628.29328,807.37821 628.48484,807.93156 C 628.68702,808.47429 628.9637,808.93719 629.31488,809.32029 C 629.67668,809.69274 630.10766,809.98007 630.60782,810.18225 C 631.11861,810.38444 631.69857,810.48554 632.34772,810.48553 C 632.89042,810.48554 633.40122,810.45893 633.8801,810.40572 C 634.3696,810.34188 634.84315,810.25142 635.30074,810.13436 C 635.75832,810.01731 636.21058,809.87365 636.65754,809.70338 C 637.10447,809.52248 637.56206,809.31497 638.0303,809.08085 L 638.0303,812.84796 C 637.60462,813.07143 637.17364,813.26298 636.73735,813.4226 C 636.31168,813.57158 635.85941,813.69928 635.38056,813.8057 C 634.90167,813.91211 634.38556,813.9866 633.83221,814.02917 C 633.27884,814.08238 632.67227,814.10898 632.01251,814.10898 M 648.07059,813.78973 L 643.20209,813.78973 L 643.20209,788.95237 L 648.07059,788.95237 L 648.07059,813.78973"
       style="font-size:32.69079971px;font-style:normal;font-weight:normal;opacity:1;fill:#000000;fill-opacity:1;stroke:none;stroke-width:1px;stroke-linecap:butt;stroke-linejoin:miter;stroke-opacity:1;display:inline;filter:url(#filter3490);font-family:Bitstream Vera Sans"
       id="path2519" />
    <g
       transform="matrix(0.2861954,0,0,0.2861954,-65.646224,63.34337)"
       id="g3006"
       inkscape:label="texto"
       style="display:inline">
      <path
         transform="matrix(2.747,0,0,2.747,-1211.67,-1814.56)"
         d="M 541.89391,711.84089 C 542.44933,711.84089 542.97389,711.77919 543.46762,711.65575 C 543.97365,711.53232 544.48588,711.37804 545.00429,711.1929 L 545.00429,715.39561 C 544.47353,715.66714 543.8132,715.88931 543.02327,716.06212 C 542.24568,716.24725 541.39403,716.33982 540.46834,716.33982 C 539.5673,716.33982 538.72801,716.2349 537.95041,716.02508 C 537.17284,715.81525 536.50014,715.45114 535.93238,714.93274 C 535.36461,714.40202 534.9141,713.69847 534.58085,712.82215 C 534.25993,711.93347 534.09948,710.82262 534.09948,709.48961 L 534.09948,699.51053 L 531.39643,699.51053 L 531.39643,697.1222 L 534.5068,695.23376 L 536.13603,690.86442 L 539.74629,690.86442 L 539.74629,695.27079 L 544.78211,695.27079 L 544.78211,699.51053 L 539.74629,699.51053 L 539.74629,709.48961 C 539.74629,710.2919 539.94375,710.88433 540.33873,711.26696 C 540.73369,711.64959 541.25208,711.84089 541.89391,711.84089 M 559.98217,694.882 C 560.13027,694.88201 560.29073,694.88819 560.46353,694.90051 C 560.64868,694.90054 560.82147,694.91288 560.98193,694.93752 C 561.15472,694.9499 561.30901,694.96842 561.44479,694.99309 C 561.59289,695.00544 561.70398,695.02396 561.77806,695.04863 L 561.77806,700.34366 C 561.67928,700.31898 561.54352,700.29429 561.37074,700.26959 C 561.19792,700.24493 561.01278,700.22641 560.81531,700.21405 C 560.63016,700.18936 560.44502,700.17704 560.25989,700.17701 C 560.07472,700.1647 559.92045,700.15853 559.79703,700.15852 C 559.06881,700.15853 558.39613,700.25109 557.77901,700.43621 C 557.17419,700.62139 556.64964,700.92377 556.2053,701.3434 C 555.77331,701.75075 555.43387,702.29381 555.18703,702.97266 C 554.9525,703.63917 554.83525,704.45997 554.83527,705.43503 L 554.83527,715.96953 L 549.18847,715.96953 L 549.18847,695.27079 L 553.46522,695.27079 L 554.29835,698.38116 L 554.57608,698.38116 C 554.87229,697.85043 555.1932,697.36907 555.53881,696.93705 C 555.88439,696.50509 556.267,696.14096 556.68667,695.84473 C 557.11867,695.53619 557.60002,695.30167 558.13077,695.14119 C 558.67383,694.96842 559.29097,694.88201 559.98217,694.882 M 565.38829,689.92023 C 565.38829,689.3895 565.46852,688.95135 565.62898,688.60572 C 565.78943,688.2478 566.00543,687.96393 566.27696,687.75407 C 566.56084,687.53193 566.88793,687.37765 567.25821,687.29122 C 567.64083,687.20486 568.04198,687.16165 568.46164,687.16162 C 568.88127,687.16165 569.27624,687.20486 569.64652,687.29122 C 570.01681,687.37765 570.33771,687.53193 570.60926,687.75407 C 570.89313,687.96393 571.1153,688.2478 571.27577,688.60572 C 571.44856,688.95135 571.53495,689.3895 571.53497,689.92023 C 571.53495,690.43863 571.44856,690.8768 571.27577,691.23472 C 571.1153,691.59269 570.89313,691.88273 570.60926,692.10488 C 570.33771,692.31473 570.01681,692.46901 569.64652,692.56773 C 569.27624,692.65416 568.88127,692.69736 568.46164,692.69732 C 568.04198,692.69736 567.64083,692.65416 567.25821,692.56773 C 566.88793,692.46901 566.56084,692.31473 566.27696,692.10488 C 566.00543,691.88273 565.78943,691.59269 565.62898,691.23472 C 565.46852,690.8768 565.38829,690.43863 565.38829,689.92023 M 571.27577,715.96953 L 565.62898,715.96953 L 565.62898,695.27079 L 571.27577,695.27079 L 571.27577,715.96953 M 590.97476,709.82286 C 590.97475,710.90903 590.77724,711.85942 590.38231,712.67402 C 589.98733,713.48865 589.42573,714.1675 588.69753,714.71058 C 587.9693,715.25366 587.08679,715.66098 586.05001,715.93251 C 585.01322,716.20404 583.853,716.33982 582.56937,716.33982 C 581.89052,716.33982 581.26103,716.31514 580.68093,716.26577 C 580.10082,716.22874 579.55157,716.16086 579.03318,716.06212 C 578.51477,715.96336 578.0149,715.83995 577.53354,715.69183 C 577.05217,715.54371 576.56463,715.35857 576.07092,715.13641 L 576.07092,710.47086 C 576.58931,710.73005 577.13239,710.96457 577.70015,711.17439 C 578.28027,711.38422 578.85419,711.56936 579.42198,711.72981 C 579.98972,711.87794 580.53898,711.99519 581.06972,712.08159 C 581.61279,712.16798 582.11268,712.21119 582.56937,712.21117 C 583.07542,712.21119 583.5074,712.16798 583.86535,712.08159 C 584.22328,711.98285 584.51333,711.85324 584.73551,711.69279 C 584.97001,711.51999 585.13665,711.32252 585.23539,711.10034 C 585.34647,710.86582 585.40201,710.61898 585.40201,710.35977 C 585.40201,710.10056 585.35882,709.87224 585.27242,709.67475 C 585.19835,709.46492 585.0194,709.24892 584.73551,709.02676 C 584.45162,708.79225 584.03197,708.53305 583.47655,708.24917 C 582.93347,707.95295 582.19908,707.59501 581.27338,707.17534 C 580.37235,706.76804 579.58859,706.36691 578.92208,705.97193 C 578.26793,705.56463 577.72485,705.11412 577.29285,704.62039 C 576.87319,704.12671 576.55847,703.56511 576.34864,702.93561 C 576.1388,702.29381 576.03389,701.53474 576.03389,700.65838 C 576.03389,699.69566 576.21903,698.85637 576.58931,698.14046 C 576.9596,697.41227 577.48415,696.80746 578.16302,696.32609 C 578.84187,695.84473 579.65647,695.48681 580.60687,695.25228 C 581.5696,695.00544 582.63725,694.88201 583.80981,694.882 C 585.04407,694.88201 586.21663,695.02396 587.32748,695.30782 C 588.43831,695.59171 589.58001,696.01755 590.75258,696.58529 L 589.04931,700.58434 C 588.11123,700.14001 587.21639,699.7759 586.36476,699.492 C 585.5131,699.20813 584.66144,699.06618 583.80981,699.06618 C 583.04456,699.06618 582.48913,699.20196 582.14355,699.47348 C 581.81028,699.74505 581.64365,700.11532 581.64365,700.58434 C 581.64365,700.83119 581.68685,701.05337 581.77326,701.25084 C 581.85965,701.43599 582.03245,701.63348 582.29165,701.84329 C 582.55085,702.04079 582.91496,702.26296 583.38399,702.50979 C 583.853,702.74431 584.46397,703.03437 585.21687,703.37996 C 586.0932,703.7626 586.88315,704.14522 587.58668,704.52783 C 588.29019,704.89812 588.89499,705.32394 589.40107,705.80531 C 589.90709,706.28667 590.29589,706.84827 590.56745,707.49009 C 590.83897,708.13192 590.97475,708.9095 590.97476,709.82286 M 603.58285,711.91496 C 604.2617,711.91496 604.82946,711.80388 605.28616,711.5817 C 605.75517,711.34719 606.1316,711.0016 606.4155,710.54492 C 606.69936,710.08823 606.9092,709.51429 607.04498,708.82309 C 607.18074,708.11957 607.2548,707.30496 607.26716,706.37923 L 607.26716,705.69423 C 607.26716,704.69447 607.20543,703.80578 607.08201,703.02819 C 606.97091,702.25061 606.76727,701.60263 606.47106,701.08421 C 606.18715,700.55349 605.80453,700.15235 605.32317,699.88079 C 604.85414,699.60927 604.2617,699.4735 603.54583,699.47348 C 602.36092,699.4735 601.49074,700.0104 600.93534,701.08421 C 600.3799,702.14571 600.1022,703.69471 600.1022,705.73123 C 600.1022,707.80484 600.3799,709.35384 600.93534,710.37828 C 601.50309,711.40274 602.3856,711.91496 603.58285,711.91496 M 601.49077,716.33982 C 600.41694,716.33982 599.44186,716.11148 598.56554,715.6548 C 597.6892,715.19812 596.9363,714.52544 596.30681,713.63675 C 595.67733,712.73573 595.18979,711.61872 594.84419,710.28572 C 594.49861,708.9527 594.32581,707.40986 594.32581,705.65719 C 594.32581,703.89219 594.49861,702.34318 594.84419,701.01016 C 595.20215,699.66482 595.70203,698.54163 596.34384,697.64059 C 596.99801,696.72725 597.77559,696.04223 598.67662,695.58552 C 599.57763,695.11652 600.57121,694.88201 601.65739,694.882 C 602.34856,694.88201 602.97187,694.96224 603.5273,695.12268 C 604.08271,695.27081 604.5826,695.48681 605.02696,695.77068 C 605.48361,696.04223 605.88476,696.36314 606.23037,696.73341 C 606.57595,697.09135 606.88453,697.48633 607.15607,697.91831 L 607.30418,697.91831 L 607.74852,695.27079 L 612.52516,695.27079 L 612.52516,725.07846 L 606.87836,725.07846 L 606.87836,716.39536 C 606.87835,716.16086 606.89069,715.8708 606.91537,715.5252 C 606.9524,715.16725 606.98326,714.82166 607.00796,714.48841 C 607.04497,714.09345 607.08199,713.6923 607.11904,713.285 L 606.87836,713.285 C 606.6315,713.70464 606.34144,714.10578 606.00819,714.48841 C 605.67494,714.8587 605.28613,715.1796 604.8418,715.45114 C 604.40979,715.72267 603.91609,715.93868 603.36069,716.09914 C 602.80524,716.2596 602.18193,716.33982 601.49077,716.33982 M 631.96494,715.96953 L 631.20587,713.32202 L 630.90965,713.32202 C 630.60106,713.85276 630.23078,714.30944 629.7988,714.69207 C 629.37914,715.06235 628.91628,715.37092 628.41025,715.61777 C 627.90417,715.86462 627.36726,716.04359 626.79951,716.1547 C 626.23173,716.2781 625.65164,716.33982 625.05919,716.33982 C 624.04708,716.33982 623.12754,716.19788 622.30059,715.914 C 621.47361,715.61777 620.7639,715.16107 620.17147,714.54395 C 619.57903,713.92681 619.12233,713.14305 618.80143,712.19267 C 618.48052,711.24228 618.32006,710.10056 618.32006,708.76755 L 618.32006,695.27079 L 623.96687,695.27079 L 623.96687,707.36049 C 623.96686,708.85397 624.18902,709.97715 624.63336,710.73005 C 625.09004,711.47062 625.81209,711.84089 626.79951,711.84089 C 627.54007,711.84089 628.1572,711.69279 628.65093,711.39655 C 629.14463,711.10034 629.53342,710.66218 629.81731,710.08207 C 630.11353,709.50197 630.32334,708.78608 630.44679,707.93443 C 630.57021,707.0828 630.63192,706.10771 630.63193,705.00919 L 630.63193,695.27079 L 636.27873,695.27079 L 636.27873,715.96953 L 631.96494,715.96953 M 650.57161,698.89956 C 649.57183,698.89956 648.73871,699.25134 648.07221,699.95485 C 647.41803,700.65841 647.04158,701.76307 646.94285,703.26888 L 654.14482,703.26888 C 654.13247,702.63941 654.05224,702.05931 653.90414,701.52856 C 653.75601,700.99782 653.53385,700.54115 653.23762,700.15852 C 652.94139,699.76356 652.57111,699.45498 652.12679,699.23281 C 651.68245,699.01066 651.16404,698.89956 650.57161,698.89956 M 651.29366,716.33982 C 649.81251,716.33982 648.44863,716.12382 647.20205,715.69183 C 645.9554,715.25984 644.88161,714.61184 643.98059,713.74785 C 643.07957,712.87151 642.37603,711.77302 641.86998,710.45234 C 641.37628,709.11934 641.12942,707.55797 641.12942,705.76828 C 641.12942,703.9539 641.35776,702.36786 641.81443,701.01016 C 642.27113,699.65248 642.90676,698.52312 643.72139,697.62208 C 644.54834,696.70874 645.53576,696.02372 646.68365,695.56701 C 647.84386,695.11035 649.1275,694.88201 650.53457,694.882 C 651.90461,694.88201 653.13888,695.09183 654.23739,695.51148 C 655.34822,695.9188 656.28626,696.5236 657.05154,697.32585 C 657.82911,698.12814 658.42154,699.11557 658.82889,700.2881 C 659.24852,701.44834 659.45834,702.78134 659.45837,704.28715 L 659.45837,707.02723 L 646.83176,707.02723 C 646.85644,707.81718 646.97986,708.53305 647.20205,709.17487 C 647.43654,709.80435 647.75746,710.34126 648.16478,710.7856 C 648.58441,711.21759 649.08429,711.55085 649.66441,711.78535 C 650.25685,712.01987 650.92953,712.13712 651.68245,712.13712 C 652.31191,712.13712 652.90438,712.10626 653.4598,712.04454 C 654.02756,711.9705 654.57679,711.86559 655.10754,711.72981 C 655.63828,711.59405 656.16283,711.42742 656.68125,711.22994 C 657.19964,711.02011 657.73037,710.77943 658.27347,710.50788 L 658.27347,714.87721 C 657.77974,715.13641 657.27986,715.35857 656.77382,715.54371 C 656.2801,715.7165 655.75554,715.86462 655.20012,715.98805 C 654.64469,716.11148 654.04606,716.19788 653.40425,716.24725 C 652.76242,716.30897 652.05889,716.33982 651.29366,716.33982 M 669.91881,715.96953 L 664.27202,715.96953 L 664.27202,687.16162 L 669.91881,687.16162 L 669.91881,715.96953"
         style="font-size:32.69079971px;font-style:normal;font-weight:normal;opacity:1;fill:#ffffff;fill-opacity:1;stroke:none;stroke-width:1px;stroke-linecap:butt;stroke-linejoin:miter;stroke-opacity:1;display:inline;font-family:Bitstream Vera Sans"
         id="path3628" />
    </g>
    <path
       style="font-size:10px;font-style:normal;font-variant:normal;font-weight:normal;font-stretch:normal;fill:#000000;fill-opacity:1;stroke:none;stroke-width:1px;stroke-linecap:butt;stroke-linejoin:miter;stroke-opacity:1;display:inline;font-family:MgOpen Cosmetica;-inkscape-font-specification:MgOpen Cosmetica"
       d="M 77.59082,110.75781 L 77.59082,111.56836 L 76.794922,111.81738 C 76.860021,111.92806 76.905594,112.04362 76.931641,112.16406 C 76.957678,112.28125 76.970698,112.40821 76.970703,112.54492 C 76.970698,112.82162 76.926753,113.07552 76.838867,113.30664 C 76.750972,113.53451 76.620764,113.72982 76.448242,113.89258 C 76.275712,114.05534 76.059241,114.18229 75.798828,114.27344 C 75.538408,114.36133 75.235674,114.40528 74.890625,114.40527 C 74.815753,114.40528 74.734373,114.40202 74.646484,114.39551 C 74.558591,114.38574 74.493487,114.37598 74.451172,114.36621 C 74.386066,114.42155 74.333982,114.48014 74.294922,114.54199 C 74.259113,114.60059 74.241209,114.6722 74.241211,114.75684 C 74.241209,114.8252 74.262368,114.88054 74.304688,114.92285 C 74.347003,114.96192 74.402342,114.99447 74.470703,115.02051 C 74.53906,115.0433 74.618813,115.05957 74.709961,115.06934 C 74.801104,115.07585 74.895505,115.0791 74.993164,115.0791 L 75.842773,115.0791 C 76.106441,115.0791 76.342444,115.11003 76.550781,115.17188 C 76.75911,115.23047 76.934891,115.32162 77.078125,115.44531 C 77.224604,115.56901 77.336909,115.72689 77.415039,115.91895 C 77.493159,116.10775 77.532221,116.33398 77.532227,116.59766 C 77.532221,116.9069 77.470372,117.18522 77.34668,117.43262 C 77.222977,117.68327 77.03743,117.89486 76.790039,118.06738 C 76.545894,118.24316 76.241533,118.37663 75.876953,118.46777 C 75.512367,118.56217 75.090818,118.60937 74.612305,118.60938 C 74.241209,118.60937 73.917316,118.57357 73.640625,118.50195 C 73.363931,118.43359 73.132812,118.33268 72.947266,118.19922 C 72.761718,118.06901 72.621744,117.91113 72.527344,117.72559 C 72.436198,117.54004 72.390625,117.33008 72.390625,117.0957 C 72.390625,116.89713 72.424805,116.72461 72.493164,116.57812 C 72.561523,116.43164 72.652669,116.30632 72.766602,116.20215 C 72.880533,116.09798 73.009114,116.01335 73.152344,115.94824 C 73.298827,115.88314 73.448567,115.83268 73.601562,115.79688 C 73.533202,115.76758 73.464843,115.72689 73.396484,115.6748 C 73.331379,115.62272 73.271158,115.5625 73.21582,115.49414 C 73.163736,115.42578 73.119791,115.35091 73.083984,115.26953 C 73.051432,115.1849 73.035156,115.09701 73.035156,115.00586 C 73.035156,114.90169 73.049804,114.80729 73.079102,114.72266 C 73.111653,114.63802 73.157226,114.5599 73.21582,114.48828 C 73.274413,114.41341 73.347655,114.34343 73.435547,114.27832 C 73.523436,114.21322 73.62272,114.14649 73.733398,114.07812 C 73.446939,113.95443 73.219075,113.75586 73.049805,113.48242 C 72.883788,113.20899 72.800781,112.88672 72.800781,112.51562 C 72.800781,112.22266 72.846354,111.96062 72.9375,111.72949 C 73.028645,111.49838 73.162109,111.30306 73.337891,111.14355 C 73.513671,110.9808 73.731769,110.8571 73.992188,110.77246 C 74.252602,110.68783 74.552081,110.64551 74.890625,110.64551 C 74.955727,110.64551 75.028969,110.6504 75.110352,110.66016 C 75.191729,110.66667 75.271481,110.67644 75.349609,110.68945 C 75.430986,110.69922 75.505856,110.71062 75.574219,110.72363 C 75.642575,110.73666 75.696286,110.74805 75.735352,110.75781 L 77.59082,110.75781 M 73.68457,116.97852 C 73.684569,117.05989 73.700845,117.13802 73.733398,117.21289 C 73.769204,117.29101 73.82617,117.35937 73.904297,117.41797 C 73.98242,117.47656 74.084959,117.52213 74.211914,117.55469 C 74.338865,117.59049 74.495115,117.6084 74.680664,117.6084 C 75.188474,117.6084 75.57096,117.53678 75.828125,117.39355 C 76.085283,117.25032 76.213863,117.05827 76.213867,116.81738 C 76.213863,116.6123 76.134111,116.47559 75.974609,116.40723 C 75.815101,116.33887 75.567705,116.30469 75.232422,116.30469 L 74.543945,116.30469 C 74.456053,116.30469 74.361652,116.31445 74.260742,116.33398 C 74.159829,116.35677 74.067056,116.39421 73.982422,116.44629 C 73.897785,116.49837 73.82617,116.56673 73.767578,116.65137 C 73.712238,116.73926 73.684569,116.84831 73.68457,116.97852 M 74.22168,112.53516 C 74.221678,112.83138 74.277016,113.06088 74.387695,113.22363 C 74.49837,113.3864 74.666013,113.46778 74.890625,113.46777 C 75.124997,113.46778 75.294268,113.3864 75.398438,113.22363 C 75.502601,113.06088 75.554684,112.83138 75.554688,112.53516 C 75.554684,112.24219 75.502601,112.00944 75.398438,111.83691 C 75.297523,111.66439 75.128252,111.57813 74.890625,111.57812 C 74.444659,111.57813 74.221678,111.89714 74.22168,112.53516 M 83.337891,116.20703 L 81.848633,116.20703 L 81.848633,113.01855 C 81.848629,112.62468 81.788407,112.33008 81.667969,112.13477 C 81.550778,111.9362 81.361976,111.83692 81.101562,111.83691 C 80.906247,111.83692 80.743487,111.87598 80.613281,111.9541 C 80.48307,112.03223 80.378904,112.14779 80.300781,112.30078 C 80.225909,112.45378 80.172198,112.64258 80.139648,112.86719 C 80.107094,113.0918 80.090818,113.34896 80.09082,113.63867 L 80.09082,116.20703 L 78.601562,116.20703 L 78.601562,110.74805 L 79.739258,110.74805 L 79.939453,111.44629 L 80.022461,111.44629 C 80.100584,111.30632 80.194985,111.18588 80.305664,111.08496 C 80.419594,110.98405 80.543292,110.90105 80.676758,110.83594 C 80.810218,110.77084 80.95182,110.72364 81.101562,110.69434 C 81.251299,110.66179 81.404293,110.64551 81.560547,110.64551 C 81.82747,110.64551 82.069983,110.68458 82.288086,110.7627 C 82.50618,110.83757 82.693355,110.95639 82.849609,111.11914 C 83.005854,111.28191 83.126297,111.49024 83.210938,111.74414 C 83.295567,111.9948 83.337885,112.2959 83.337891,112.64746 L 83.337891,116.20703 M 88.44043,116.20703 L 88.240234,115.50879 L 88.162109,115.50879 C 88.080725,115.64876 87.983069,115.76921 87.869141,115.87012 C 87.75846,115.96777 87.63639,116.04915 87.50293,116.11426 C 87.369463,116.17936 87.227861,116.22656 87.078125,116.25586 C 86.928383,116.28841 86.775388,116.30469 86.619141,116.30469 C 86.352211,116.30469 86.109699,116.26725 85.891602,116.19238 C 85.673501,116.11426 85.486327,115.99382 85.330078,115.83105 C 85.173827,115.66829 85.053384,115.46159 84.96875,115.21094 C 84.884114,114.96029 84.841796,114.65918 84.841797,114.30762 L 84.841797,110.74805 L 86.331055,110.74805 L 86.331055,113.93652 C 86.331052,114.33041 86.389646,114.62663 86.506836,114.8252 C 86.627276,115.02051 86.817706,115.11817 87.078125,115.11816 C 87.273434,115.11817 87.436195,115.0791 87.566406,115.00098 C 87.696611,114.92285 87.79915,114.80729 87.874023,114.6543 C 87.952145,114.5013 88.007483,114.3125 88.040039,114.08789 C 88.072587,113.86328 88.088863,113.60612 88.088867,113.31641 L 88.088867,110.74805 L 89.578125,110.74805 L 89.578125,116.20703 L 88.44043,116.20703 M 92.097656,116.20703 L 91.208984,116.20703 L 91.208984,108.60938 L 92.097656,108.60938 L 92.097656,116.20703 M 94.695312,116.20703 L 93.806641,116.20703 L 93.806641,110.8457 L 94.695312,110.8457 L 94.695312,116.20703 M 93.738281,109.39551 C 93.73828,109.2002 93.787109,109.0586 93.884766,108.9707 C 93.985676,108.88282 94.109374,108.83887 94.255859,108.83887 C 94.327473,108.83887 94.394204,108.85027 94.456055,108.87305 C 94.521157,108.89259 94.576496,108.92514 94.62207,108.9707 C 94.670897,109.01628 94.708332,109.07488 94.734375,109.14648 C 94.76367,109.21485 94.778318,109.29786 94.77832,109.39551 C 94.778318,109.58432 94.726235,109.72592 94.62207,109.82031 C 94.521157,109.91146 94.399087,109.95704 94.255859,109.95703 C 94.109374,109.95704 93.985676,109.91146 93.884766,109.82031 C 93.787109,109.72917 93.73828,109.58757 93.738281,109.39551 M 99.753906,116.20703 L 99.753906,112.75488 C 99.753902,112.33171 99.667639,112.01433 99.495117,111.80273 C 99.325843,111.59115 99.058916,111.48536 98.694336,111.48535 C 98.430661,111.48536 98.209307,111.52767 98.030273,111.6123 C 97.851235,111.69694 97.706378,111.82227 97.595703,111.98828 C 97.488279,112.1543 97.410154,112.35775 97.361328,112.59863 C 97.315753,112.83952 97.292967,113.11621 97.292969,113.42871 L 97.292969,116.20703 L 96.404297,116.20703 L 96.404297,110.8457 L 97.126953,110.8457 L 97.253906,111.56836 L 97.302734,111.56836 C 97.384113,111.42839 97.480141,111.30795 97.59082,111.20703 C 97.70475,111.10287 97.828448,111.01661 97.961914,110.94824 C 98.095375,110.87989 98.236976,110.82943 98.386719,110.79688 C 98.536455,110.76433 98.68945,110.74805 98.845703,110.74805 C 99.441402,110.74805 99.888993,110.9043 100.18848,111.2168 C 100.49121,111.52605 100.64257,112.02247 100.64258,112.70605 L 100.64258,116.20703 L 99.753906,116.20703 M 105.77441,116.20703 L 105.64258,115.48926 L 105.59375,115.48926 C 105.51237,115.62923 105.41471,115.7513 105.30078,115.85547 C 105.1901,115.95638 105.06803,116.04102 104.93457,116.10938 C 104.8011,116.17448 104.6595,116.22331 104.50977,116.25586 C 104.36002,116.28841 104.20703,116.30469 104.05078,116.30469 C 103.75455,116.30469 103.49414,116.26725 103.26953,116.19238 C 103.04492,116.11751 102.85775,116.00033 102.70801,115.84082 C 102.55827,115.68132 102.44433,115.47787 102.36621,115.23047 C 102.29134,114.98307 102.25391,114.68848 102.25391,114.34668 L 102.25391,110.8457 L 103.14258,110.8457 L 103.14258,114.29785 C 103.14258,114.72103 103.22884,115.03841 103.40137,115.25 C 103.57389,115.46159 103.84082,115.56738 104.20215,115.56738 C 104.46582,115.56738 104.68717,115.52507 104.86621,115.44043 C 105.04524,115.3558 105.18847,115.2321 105.2959,115.06934 C 105.40657,114.90332 105.4847,114.69987 105.53027,114.45898 C 105.5791,114.2181 105.60351,113.94141 105.60352,113.62891 L 105.60352,110.8457 L 106.49219,110.8457 L 106.49219,116.20703 L 105.77441,116.20703 M 109.34375,113.45801 L 107.62012,110.8457 L 108.63086,110.8457 L 109.85156,112.84766 L 111.07227,110.8457 L 112.08301,110.8457 L 110.34961,113.45801 L 112.1709,116.20703 L 111.16016,116.20703 L 109.85156,114.07812 L 108.5332,116.20703 L 107.52246,116.20703 L 109.34375,113.45801"
       id="text3063" />
  </g>
</svg>
