<?xml version="1.0" encoding="utf-8"?>
<!-- Generator: Adobe InDesign 3.0 SVG Export Plug-in, SVG Library version: 6.0 build 78 -->
<!DOCTYPE svg PUBLIC "-//W3C//DTD SVG 1.0//EN"    "http://www.w3.org/TR/2001/REC-SVG-20010904/DTD/svg10.dtd" [
	<!ENTITY ns_svg "http://www.w3.org/2000/svg">
	<!ENTITY ns_xlink "http://www.w3.org/1999/xlink">
]>
<svg  xmlns="&ns_svg;" xmlns:xlink="&ns_xlink;" width="595.276pt" height="841.89pt" xml:space="preserve">
	<clipPath id="clp1" fill="none">
		<path shape-rendering="crispEdges" stroke="#000000" d="M0,0h595.276v841.89H0z"/>
	</clipPath>
	<g clip-path="url(#clp1)" fill="none">
		<g transform="matrix(1 0 0 1 54.1883 292.9987)">
			<path fill="#4ad2f0" d="M2.189,84.694c0.005-2.452,0.996-4.673,2.595-6.282c1.599-1.609,3.807-2.607,6.243-2.612
				c0,0,30.84,8.801,30.84,8.801s30.873-8.915,30.873-8.915c2.436-0.004,4.639,0.985,6.233,2.589
				c1.594,1.604,2.577,3.821,2.572,6.272c0,0-8.859,31.069-8.859,31.069s8.745,31.037,8.745,31.037
				c-0.004,2.451-0.996,4.672-2.595,6.282c-1.599,1.61-3.806,2.607-6.242,2.612c0,0-30.841-8.801-30.841-8.801
				s-30.873,8.915-30.873,8.915c-2.436,0.005-4.64-0.985-6.233-2.588c-1.593-1.604-2.577-3.821-2.572-6.273
				c0,0,8.859-31.069,8.859-31.069S2.189,84.694,2.189,84.694z"/>
		</g>
		<g transform="matrix(1 0 0 1 54.1883 292.9987)">
			<path fill="#d0f400" d="M63.727,9.234c1.131-2.931,3.337-5.132,5.989-6.323c2.652-1.191,5.751-1.371,8.667-0.257
				c0,0,32.85,24.689,32.85,24.689s41.024,3.513,41.024,3.513c2.916,1.113,5.097,3.309,6.267,5.959
				c1.17,2.65,1.328,5.754,0.197,8.685c0,0-24.863,33.098-24.863,33.098s-3.791,41.142-3.791,41.142
				c-1.131,2.93-3.337,5.132-5.989,6.323c-2.652,1.191-5.75,1.371-8.667,0.258c0,0-32.85-24.69-32.85-24.69
				s-41.024-3.513-41.024-3.513c-2.916-1.113-5.098-3.309-6.267-5.959c-1.17-2.65-1.327-5.754-0.196-8.685
				c0,0,24.863-33.097,24.863-33.097S63.727,9.234,63.727,9.234z"/>
		</g>
		<g transform="matrix(1 0 0 1 54.1883 292.9987)">
			<path fill="#3394ce" d="M65.827,175.084c-0.51-1.335-0.434-2.752,0.1-3.962c0.534-1.21,1.527-2.214,2.853-2.726
				c0,0,18.628-1.653,18.628-1.653s14.944-11.305,14.944-11.305c1.325-0.512,2.731-0.433,3.934,0.107
				c1.203,0.54,2.201,1.542,2.711,2.877c0,0,1.67,18.765,1.67,18.765s11.247,15.068,11.247,15.068c0.51,1.335,0.434,2.751-0.1,3.962
				s-1.527,2.215-2.852,2.727c0,0-18.628,1.653-18.628,1.653s-14.944,11.305-14.944,11.305c-1.325,0.511-2.732,0.433-3.934-0.107
				s-2.201-1.542-2.711-2.877c0,0-1.67-18.764-1.67-18.764S65.827,175.084,65.827,175.084z"/>
		</g>
		<g transform="matrix(1 0 0 1 54.1883 292.9987)">
			<path fill="#6bb340" d="M35.575,82.806l6.292,1.795c0,0,30.873-8.915,30.873-8.915c2.436-0.004,4.639,0.985,6.233,2.589
				c1.594,1.604,2.577,3.821,2.572,6.272c0,0-4.73,16.59-4.73,16.59s-35.278-3.021-35.278-3.021
				c-2.916-1.113-5.098-3.309-6.267-5.959c-1.17-2.65-1.327-5.754-0.196-8.685C35.073,83.474,35.575,82.806,35.575,82.806z"/>
		</g>
		<g transform="matrix(1 0 0 1 54.1883 292.9987)">
			<path fill="#202d79" d="M182.238,121.084c0,0-0.085,18.031-0.085,18.031s23.358,0,23.358,0c4.063,0,7.357,3.294,7.357,7.357
				c0,4.063-3.294,7.357-7.357,7.357c0,0-23.358,0-23.358,0s0,91.975,0,91.975c0,4.515-3.66,8.174-8.174,8.174
				c-4.514,0-8.174-3.66-8.174-8.174c0,0,0-91.975,0-91.975s-14.164,0-14.164,0c-4.063,0-7.357-3.294-7.357-7.357
				c0-4.063,3.294-7.357,7.357-7.357c0,0,13.962,0,13.962,0s0-16.11,0-16.11c0-19.822,12.463-29.833,31.265-29.833
				c0,0,8.644,0,8.644,0c4.063,0,7.357,3.294,7.357,7.357c0,4.063-3.294,7.357-7.357,7.357c0,0-8.644,0-8.644,0
				C185.763,107.887,182.238,111.873,182.238,121.084z"/>
		</g>
		<g transform="matrix(1 0 0 1 54.1883 292.9987)">
			<path fill="#202d79" d="M355.087,121.084c0,0-0.085,18.031-0.085,18.031s23.358,0,23.358,0c4.063,0,7.357,3.294,7.357,7.357
				c0,4.063-3.294,7.357-7.357,7.357c0,0-23.358,0-23.358,0s0,91.975,0,91.975c0,4.515-3.66,8.174-8.174,8.174
				c-4.514,0-8.174-3.66-8.174-8.174c0,0,0-91.975,0-91.975s-14.165,0-14.165,0c-4.063,0-7.357-3.294-7.357-7.357
				c0-4.063,3.294-7.357,7.357-7.357c0,0,13.962,0,13.962,0s0-16.11,0-16.11c0-19.822,12.463-29.833,31.265-29.833
				c0,0,8.644,0,8.644,0c4.063,0,7.357,3.294,7.357,7.357c0,4.063-3.294,7.357-7.357,7.357c0,0-8.644,0-8.644,0
				C358.613,107.887,355.087,111.873,355.087,121.084z"/>
		</g>
		<g transform="matrix(1 0 0 1 54.1883 292.9987)">
			<path fill="#202d79" d="M402.657,187.03c0,0,66.916,0,66.916,0c-2.767-22.476-15.458-32.213-31.211-32.213
				C418.711,154.817,405.917,167.045,402.657,187.03z M438.652,238.484c17.733,0,25.347-9.427,28.229-13.146
				c0,0,3.535-4.626,5.499-5.205c1.793-0.52,3.782-0.369,5.56,0.577c3.228,1.716,4.673,5.471,3.593,8.833
				c-0.468,1.793-1.401,4.061-2.95,6.524c-5.313,8.034-17.115,17.804-40.222,17.804c-31.579,0-51.811-20.318-51.811-55.31
				c0-30.331,15.947-59.032,51.811-59.032c27.191,0,44.701,19.157,46.838,50.121c0,11.645-4.845,12.094-17.925,12.094
				c0,0-65.328,0-65.328,0C403.441,234.857,426.379,238.484,438.652,238.484z"/>
		</g>
		<g transform="matrix(1 0 0 1 54.1883 292.9987)">
			<path fill="#202d79" d="M221.995,172.263c0-17.939,15.942-32.083,41.568-32.083c0,0,0.614,0.002,0.614,0.002
				c22.041-0.007,33.241,9.637,38.283,17.567c1.47,2.431,2.356,4.67,2.8,6.44c1.025,3.318-0.347,7.025-3.41,8.719
				c-1.688,0.934-3.576,1.083-5.277,0.57c-1.864-0.571-5.219-5.138-5.219-5.138c-1.978-2.653-6.306-8.254-14.907-11.153
				c-3.725-1.182-7.918-1.815-12.884-1.815c-15.942,0-25.426,6.519-25.426,16.487c0,7.143,5.046,12.913,13.723,14.729
				c0,0,27.439,5.85,27.439,5.85c14.933,3.229,28.049,10.949,28.049,28.655c0,18.78-16.343,32.765-42.978,32.765
				c0,0-1.164,0.011-1.164,0.011c-23.107,0-34.909-9.77-40.222-17.804c-1.549-2.463-2.483-4.731-2.95-6.524
				c-1.08-3.362,0.365-7.117,3.593-8.833c1.778-0.945,3.768-1.096,5.561-0.577c1.964,0.579,5.499,5.205,5.499,5.205
				c2.098,2.706,6.703,8.436,15.888,11.354c4.051,1.286,8.664,1.955,13.795,1.955c17.756,0,26.635-7.081,26.635-16.949
				c0-6.758-5.046-12.51-13.319-14.326c0,0-28.249-5.85-28.249-5.85C234.504,198.492,221.995,189.531,221.995,172.263z"/>
		</g>
	</g>
</svg>
